M48
; DRILL file {KiCad 8.0.9-1.fc41} date 2025-06-25T22:36:55-0700
; FORMAT={-:-/ absolute / metric / decimal}
; #@! TF.CreationDate,2025-06-25T22:36:55-07:00
; #@! TF.GenerationSoftware,Kicad,Pcbnew,8.0.9-1.fc41
; #@! TF.FileFunction,Plated,1,4,PTH
FMAT,2
METRIC
; #@! TA.AperFunction,Plated,PTH,ViaDrill
T1C0.300
; #@! TA.AperFunction,Plated,PTH,ComponentDrill
T2C0.350
; #@! TA.AperFunction,Plated,PTH,ViaDrill
T3C0.400
; #@! TA.AperFunction,Plated,PTH,ComponentDrill
T4C0.650
; #@! TA.AperFunction,Plated,PTH,ComponentDrill
T5C0.700
; #@! TA.AperFunction,Plated,PTH,ComponentDrill
T6C1.000
%
G90
G05
T1
X144.7Y-109.6
T2
X141.725Y-110.725
X141.725Y-112.0
X141.725Y-113.275
X143.0Y-110.725
X143.0Y-112.0
X143.0Y-113.275
X144.275Y-110.725
X144.275Y-112.0
X144.275Y-113.275
T3
X132.3Y-102.7
X136.4Y-119.6
X141.2Y-88.5
X142.1Y-122.6
X142.4Y-106.0
X146.7Y-92.0
X153.8Y-102.5
X158.9Y-89.3
T6
X116.86Y-85.64
X116.86Y-88.18
X116.86Y-90.72
X116.86Y-93.26
X116.86Y-95.8
X116.86Y-98.34
X116.86Y-100.88
X116.86Y-103.42
X116.86Y-105.96
X116.86Y-108.5
X116.86Y-111.04
X116.86Y-113.58
X116.86Y-116.12
X116.86Y-118.66
X116.86Y-121.2
X116.86Y-123.74
X116.86Y-126.28
X116.86Y-128.82
X119.4Y-85.64
X119.4Y-88.18
X119.4Y-90.72
X119.4Y-93.26
X119.4Y-95.8
X119.4Y-98.34
X119.4Y-100.88
X119.4Y-103.42
X119.4Y-105.96
X119.4Y-108.5
X119.4Y-111.04
X119.4Y-113.58
X119.4Y-116.12
X119.4Y-118.66
X119.4Y-121.2
X119.4Y-123.74
X119.4Y-126.28
X119.4Y-128.82
X132.8Y-86.335
X132.8Y-88.875
X165.86Y-85.64
X165.86Y-88.18
X165.86Y-90.72
X165.86Y-93.26
X165.86Y-95.8
X165.86Y-98.34
X165.86Y-100.88
X165.86Y-103.42
X165.86Y-105.96
X165.86Y-108.5
X165.86Y-111.04
X165.86Y-113.58
X165.86Y-116.12
X165.86Y-118.66
X165.86Y-121.2
X165.86Y-123.74
X165.86Y-126.28
X165.86Y-128.82
X168.4Y-85.64
X168.4Y-88.18
X168.4Y-90.72
X168.4Y-93.26
X168.4Y-95.8
X168.4Y-98.34
X168.4Y-100.88
X168.4Y-103.42
X168.4Y-105.96
X168.4Y-108.5
X168.4Y-111.04
X168.4Y-113.58
X168.4Y-116.12
X168.4Y-118.66
X168.4Y-121.2
X168.4Y-123.74
X168.4Y-126.28
X168.4Y-128.82
T4
X140.605Y-86.185G85X140.605Y-86.585
G05
X145.445Y-86.185G85X145.445Y-86.585
G05
T5
X140.295Y-83.135G85X140.295Y-83.635
G05
X145.755Y-83.135G85X145.755Y-83.635
G05
M30
