G04 #@! TF.GenerationSoftware,KiCad,Pcbnew,8.0.9-1.fc41*
G04 #@! TF.CreationDate,2025-06-25T22:37:00-07:00*
G04 #@! TF.ProjectId,rp2040_custom_devboard,72703230-3430-45f6-9375-73746f6d5f64,rev?*
G04 #@! TF.SameCoordinates,Original*
G04 #@! TF.FileFunction,Soldermask,Top*
G04 #@! TF.FilePolarity,Negative*
%FSLAX46Y46*%
G04 Gerber Fmt 4.6, Leading zero omitted, Abs format (unit mm)*
G04 Created by KiCad (PCBNEW 8.0.9-1.fc41) date 2025-06-25 22:37:00*
%MOMM*%
%LPD*%
G01*
G04 APERTURE LIST*
G04 Aperture macros list*
%AMRoundRect*
0 Rectangle with rounded corners*
0 $1 Rounding radius*
0 $2 $3 $4 $5 $6 $7 $8 $9 X,Y pos of 4 corners*
0 Add a 4 corners polygon primitive as box body*
4,1,4,$2,$3,$4,$5,$6,$7,$8,$9,$2,$3,0*
0 Add four circle primitives for the rounded corners*
1,1,$1+$1,$2,$3*
1,1,$1+$1,$4,$5*
1,1,$1+$1,$6,$7*
1,1,$1+$1,$8,$9*
0 Add four rect primitives between the rounded corners*
20,1,$1+$1,$2,$3,$4,$5,0*
20,1,$1+$1,$4,$5,$6,$7,0*
20,1,$1+$1,$6,$7,$8,$9,0*
20,1,$1+$1,$8,$9,$2,$3,0*%
G04 Aperture macros list end*
%ADD10RoundRect,0.140000X0.170000X-0.140000X0.170000X0.140000X-0.170000X0.140000X-0.170000X-0.140000X0*%
%ADD11R,1.700000X1.700000*%
%ADD12O,1.700000X1.700000*%
%ADD13C,2.700000*%
%ADD14RoundRect,0.140000X0.140000X0.170000X-0.140000X0.170000X-0.140000X-0.170000X0.140000X-0.170000X0*%
%ADD15RoundRect,0.375000X-0.375000X0.625000X-0.375000X-0.625000X0.375000X-0.625000X0.375000X0.625000X0*%
%ADD16RoundRect,0.500000X-1.400000X0.500000X-1.400000X-0.500000X1.400000X-0.500000X1.400000X0.500000X0*%
%ADD17RoundRect,0.135000X0.185000X-0.135000X0.185000X0.135000X-0.185000X0.135000X-0.185000X-0.135000X0*%
%ADD18RoundRect,0.135000X-0.185000X0.135000X-0.185000X-0.135000X0.185000X-0.135000X0.185000X0.135000X0*%
%ADD19R,0.400000X1.650000*%
%ADD20R,1.825000X0.700000*%
%ADD21R,2.000000X1.500000*%
%ADD22R,1.350000X2.000000*%
%ADD23O,1.350000X1.700000*%
%ADD24O,1.100000X1.500000*%
%ADD25R,1.430000X2.500000*%
%ADD26RoundRect,0.050000X-0.387500X-0.050000X0.387500X-0.050000X0.387500X0.050000X-0.387500X0.050000X0*%
%ADD27RoundRect,0.050000X-0.050000X-0.387500X0.050000X-0.387500X0.050000X0.387500X-0.050000X0.387500X0*%
%ADD28RoundRect,0.144000X-1.456000X-1.456000X1.456000X-1.456000X1.456000X1.456000X-1.456000X1.456000X0*%
%ADD29R,1.400000X1.200000*%
%ADD30RoundRect,0.140000X-0.140000X-0.170000X0.140000X-0.170000X0.140000X0.170000X-0.140000X0.170000X0*%
%ADD31RoundRect,0.250000X-0.475000X0.250000X-0.475000X-0.250000X0.475000X-0.250000X0.475000X0.250000X0*%
%ADD32RoundRect,0.250000X0.475000X-0.250000X0.475000X0.250000X-0.475000X0.250000X-0.475000X-0.250000X0*%
%ADD33RoundRect,0.250000X-0.250000X-0.475000X0.250000X-0.475000X0.250000X0.475000X-0.250000X0.475000X0*%
%ADD34RoundRect,0.150000X-0.650000X-0.150000X0.650000X-0.150000X0.650000X0.150000X-0.650000X0.150000X0*%
G04 APERTURE END LIST*
D10*
X149300000Y-105300000D03*
X149300000Y-104340000D03*
D11*
X132800000Y-88875000D03*
D12*
X132800000Y-86335000D03*
D13*
X159000000Y-84500000D03*
X159000000Y-126500000D03*
D14*
X151800000Y-102300000D03*
X150840000Y-102300000D03*
X151780000Y-94800000D03*
X150820000Y-94800000D03*
D15*
X159500000Y-92350000D03*
X157200000Y-92350000D03*
D16*
X157200000Y-98650000D03*
D15*
X154900000Y-92350000D03*
D17*
X143000000Y-104990000D03*
X143000000Y-103970000D03*
D13*
X127000000Y-126500000D03*
X127000000Y-84500000D03*
D14*
X151800000Y-97300000D03*
X150840000Y-97300000D03*
D18*
X142000000Y-118000000D03*
X142000000Y-119020000D03*
D11*
X116860000Y-85640000D03*
D12*
X119400000Y-85640000D03*
X116860000Y-88180000D03*
X119400000Y-88180000D03*
X116860000Y-90720000D03*
X119400000Y-90720000D03*
X116860000Y-93260000D03*
X119400000Y-93260000D03*
X116860000Y-95800000D03*
X119400000Y-95800000D03*
X116860000Y-98340000D03*
X119400000Y-98340000D03*
X116860000Y-100880000D03*
X119400000Y-100880000D03*
X116860000Y-103420000D03*
X119400000Y-103420000D03*
X116860000Y-105960000D03*
X119400000Y-105960000D03*
X116860000Y-108500000D03*
X119400000Y-108500000D03*
X116860000Y-111040000D03*
X119400000Y-111040000D03*
X116860000Y-113580000D03*
X119400000Y-113580000D03*
X116860000Y-116120000D03*
X119400000Y-116120000D03*
X116860000Y-118660000D03*
X119400000Y-118660000D03*
X116860000Y-121200000D03*
X119400000Y-121200000D03*
X116860000Y-123740000D03*
X119400000Y-123740000D03*
X116860000Y-126280000D03*
X119400000Y-126280000D03*
X116860000Y-128820000D03*
X119400000Y-128820000D03*
D14*
X155600000Y-106900000D03*
X154640000Y-106900000D03*
X147700000Y-99750000D03*
X146740000Y-99750000D03*
X155560000Y-104400000D03*
X154600000Y-104400000D03*
D18*
X138000000Y-93980000D03*
X138000000Y-95000000D03*
D10*
X146800000Y-105300000D03*
X146800000Y-104340000D03*
D19*
X144325000Y-86265000D03*
X143675000Y-86265000D03*
X143025000Y-86265000D03*
X142375000Y-86265000D03*
X141725000Y-86265000D03*
D20*
X145975000Y-85065000D03*
D21*
X145875000Y-86365000D03*
D22*
X145755000Y-84315000D03*
D23*
X145755000Y-83385000D03*
D24*
X145445000Y-86385000D03*
D25*
X143985000Y-83115000D03*
X142065000Y-83115000D03*
D24*
X140605000Y-86385000D03*
D23*
X140295000Y-83385000D03*
D22*
X140275000Y-84315000D03*
D21*
X140125000Y-86385000D03*
D20*
X140025000Y-85065000D03*
D18*
X134000000Y-93980000D03*
X134000000Y-95000000D03*
D14*
X151800000Y-99800000D03*
X150840000Y-99800000D03*
D17*
X144000000Y-105000000D03*
X144000000Y-103980000D03*
D26*
X139562500Y-109400000D03*
X139562500Y-109800000D03*
X139562500Y-110200000D03*
X139562500Y-110600000D03*
X139562500Y-111000000D03*
X139562500Y-111400000D03*
X139562500Y-111800000D03*
X139562500Y-112200000D03*
X139562500Y-112600000D03*
X139562500Y-113000000D03*
X139562500Y-113400000D03*
X139562500Y-113800000D03*
X139562500Y-114200000D03*
X139562500Y-114600000D03*
D27*
X140400000Y-115437500D03*
X140800000Y-115437500D03*
X141200000Y-115437500D03*
X141600000Y-115437500D03*
X142000000Y-115437500D03*
X142400000Y-115437500D03*
X142800000Y-115437500D03*
X143200000Y-115437500D03*
X143600000Y-115437500D03*
X144000000Y-115437500D03*
X144400000Y-115437500D03*
X144800000Y-115437500D03*
X145200000Y-115437500D03*
X145600000Y-115437500D03*
D26*
X146437500Y-114600000D03*
X146437500Y-114200000D03*
X146437500Y-113800000D03*
X146437500Y-113400000D03*
X146437500Y-113000000D03*
X146437500Y-112600000D03*
X146437500Y-112200000D03*
X146437500Y-111800000D03*
X146437500Y-111400000D03*
X146437500Y-111000000D03*
X146437500Y-110600000D03*
X146437500Y-110200000D03*
X146437500Y-109800000D03*
X146437500Y-109400000D03*
D27*
X145600000Y-108562500D03*
X145200000Y-108562500D03*
X144800000Y-108562500D03*
X144400000Y-108562500D03*
X144000000Y-108562500D03*
X143600000Y-108562500D03*
X143200000Y-108562500D03*
X142800000Y-108562500D03*
X142400000Y-108562500D03*
X142000000Y-108562500D03*
X141600000Y-108562500D03*
X141200000Y-108562500D03*
X140800000Y-108562500D03*
X140400000Y-108562500D03*
D28*
X143000000Y-112000000D03*
D29*
X141000000Y-126450000D03*
X143200000Y-126450000D03*
X143200000Y-124750000D03*
X141000000Y-124750000D03*
D14*
X147680000Y-94750000D03*
X146720000Y-94750000D03*
D30*
X140040000Y-121500000D03*
X141000000Y-121500000D03*
D14*
X143980000Y-121500000D03*
X143020000Y-121500000D03*
D31*
X157200000Y-101550000D03*
X157200000Y-103450000D03*
D11*
X165860000Y-85640000D03*
D12*
X168400000Y-85640000D03*
X165860000Y-88180000D03*
X168400000Y-88180000D03*
X165860000Y-90720000D03*
X168400000Y-90720000D03*
X165860000Y-93260000D03*
X168400000Y-93260000D03*
X165860000Y-95800000D03*
X168400000Y-95800000D03*
X165860000Y-98340000D03*
X168400000Y-98340000D03*
X165860000Y-100880000D03*
X168400000Y-100880000D03*
X165860000Y-103420000D03*
X168400000Y-103420000D03*
X165860000Y-105960000D03*
X168400000Y-105960000D03*
X165860000Y-108500000D03*
X168400000Y-108500000D03*
X165860000Y-111040000D03*
X168400000Y-111040000D03*
X165860000Y-113580000D03*
X168400000Y-113580000D03*
X165860000Y-116120000D03*
X168400000Y-116120000D03*
X165860000Y-118660000D03*
X168400000Y-118660000D03*
X165860000Y-121200000D03*
X168400000Y-121200000D03*
X165860000Y-123740000D03*
X168400000Y-123740000D03*
X165860000Y-126280000D03*
X168400000Y-126280000D03*
X165860000Y-128820000D03*
X168400000Y-128820000D03*
D32*
X139900000Y-92700000D03*
X139900000Y-90800000D03*
D10*
X151800000Y-105300000D03*
X151800000Y-104340000D03*
D14*
X147700000Y-97250000D03*
X146740000Y-97250000D03*
D33*
X154900000Y-88500000D03*
X156800000Y-88500000D03*
D34*
X131400000Y-97000000D03*
X131400000Y-98270000D03*
X131400000Y-99540000D03*
X131400000Y-100810000D03*
X138600000Y-100810000D03*
X138600000Y-99540000D03*
X138600000Y-98270000D03*
X138600000Y-97000000D03*
M02*
