G04 #@! TF.GenerationSoftware,KiCad,Pcbnew,8.0.9-1.fc41*
G04 #@! TF.CreationDate,2025-06-25T22:37:00-07:00*
G04 #@! TF.ProjectId,rp2040_custom_devboard,72703230-3430-45f6-9375-73746f6d5f64,rev?*
G04 #@! TF.SameCoordinates,Original*
G04 #@! TF.FileFunction,Soldermask,Bot*
G04 #@! TF.FilePolarity,Negative*
%FSLAX46Y46*%
G04 Gerber Fmt 4.6, Leading zero omitted, Abs format (unit mm)*
G04 Created by KiCad (PCBNEW 8.0.9-1.fc41) date 2025-06-25 22:37:00*
%MOMM*%
%LPD*%
G01*
G04 APERTURE LIST*
%ADD10R,1.700000X1.700000*%
%ADD11O,1.700000X1.700000*%
%ADD12C,2.700000*%
%ADD13O,1.350000X1.700000*%
%ADD14O,1.100000X1.500000*%
G04 APERTURE END LIST*
D10*
X132800000Y-88875000D03*
D11*
X132800000Y-86335000D03*
D12*
X159000000Y-84500000D03*
X159000000Y-126500000D03*
X127000000Y-126500000D03*
X127000000Y-84500000D03*
D10*
X116860000Y-85640000D03*
D11*
X119400000Y-85640000D03*
X116860000Y-88180000D03*
X119400000Y-88180000D03*
X116860000Y-90720000D03*
X119400000Y-90720000D03*
X116860000Y-93260000D03*
X119400000Y-93260000D03*
X116860000Y-95800000D03*
X119400000Y-95800000D03*
X116860000Y-98340000D03*
X119400000Y-98340000D03*
X116860000Y-100880000D03*
X119400000Y-100880000D03*
X116860000Y-103420000D03*
X119400000Y-103420000D03*
X116860000Y-105960000D03*
X119400000Y-105960000D03*
X116860000Y-108500000D03*
X119400000Y-108500000D03*
X116860000Y-111040000D03*
X119400000Y-111040000D03*
X116860000Y-113580000D03*
X119400000Y-113580000D03*
X116860000Y-116120000D03*
X119400000Y-116120000D03*
X116860000Y-118660000D03*
X119400000Y-118660000D03*
X116860000Y-121200000D03*
X119400000Y-121200000D03*
X116860000Y-123740000D03*
X119400000Y-123740000D03*
X116860000Y-126280000D03*
X119400000Y-126280000D03*
X116860000Y-128820000D03*
X119400000Y-128820000D03*
D13*
X145755000Y-83385000D03*
D14*
X145445000Y-86385000D03*
X140605000Y-86385000D03*
D13*
X140295000Y-83385000D03*
D10*
X165860000Y-85640000D03*
D11*
X168400000Y-85640000D03*
X165860000Y-88180000D03*
X168400000Y-88180000D03*
X165860000Y-90720000D03*
X168400000Y-90720000D03*
X165860000Y-93260000D03*
X168400000Y-93260000D03*
X165860000Y-95800000D03*
X168400000Y-95800000D03*
X165860000Y-98340000D03*
X168400000Y-98340000D03*
X165860000Y-100880000D03*
X168400000Y-100880000D03*
X165860000Y-103420000D03*
X168400000Y-103420000D03*
X165860000Y-105960000D03*
X168400000Y-105960000D03*
X165860000Y-108500000D03*
X168400000Y-108500000D03*
X165860000Y-111040000D03*
X168400000Y-111040000D03*
X165860000Y-113580000D03*
X168400000Y-113580000D03*
X165860000Y-116120000D03*
X168400000Y-116120000D03*
X165860000Y-118660000D03*
X168400000Y-118660000D03*
X165860000Y-121200000D03*
X168400000Y-121200000D03*
X165860000Y-123740000D03*
X168400000Y-123740000D03*
X165860000Y-126280000D03*
X168400000Y-126280000D03*
X165860000Y-128820000D03*
X168400000Y-128820000D03*
M02*
