G04 #@! TF.GenerationSoftware,KiCad,Pcbnew,8.0.9-1.fc41*
G04 #@! TF.CreationDate,2025-06-25T22:37:00-07:00*
G04 #@! TF.ProjectId,rp2040_custom_devboard,72703230-3430-45f6-9375-73746f6d5f64,rev?*
G04 #@! TF.SameCoordinates,Original*
G04 #@! TF.FileFunction,Copper,L1,Top*
G04 #@! TF.FilePolarity,Positive*
%FSLAX46Y46*%
G04 Gerber Fmt 4.6, Leading zero omitted, Abs format (unit mm)*
G04 Created by KiCad (PCBNEW 8.0.9-1.fc41) date 2025-06-25 22:37:00*
%MOMM*%
%LPD*%
G01*
G04 APERTURE LIST*
G04 Aperture macros list*
%AMRoundRect*
0 Rectangle with rounded corners*
0 $1 Rounding radius*
0 $2 $3 $4 $5 $6 $7 $8 $9 X,Y pos of 4 corners*
0 Add a 4 corners polygon primitive as box body*
4,1,4,$2,$3,$4,$5,$6,$7,$8,$9,$2,$3,0*
0 Add four circle primitives for the rounded corners*
1,1,$1+$1,$2,$3*
1,1,$1+$1,$4,$5*
1,1,$1+$1,$6,$7*
1,1,$1+$1,$8,$9*
0 Add four rect primitives between the rounded corners*
20,1,$1+$1,$2,$3,$4,$5,0*
20,1,$1+$1,$4,$5,$6,$7,0*
20,1,$1+$1,$6,$7,$8,$9,0*
20,1,$1+$1,$8,$9,$2,$3,0*%
G04 Aperture macros list end*
G04 #@! TA.AperFunction,SMDPad,CuDef*
%ADD10RoundRect,0.140000X0.170000X-0.140000X0.170000X0.140000X-0.170000X0.140000X-0.170000X-0.140000X0*%
G04 #@! TD*
G04 #@! TA.AperFunction,ComponentPad*
%ADD11R,1.700000X1.700000*%
G04 #@! TD*
G04 #@! TA.AperFunction,ComponentPad*
%ADD12O,1.700000X1.700000*%
G04 #@! TD*
G04 #@! TA.AperFunction,SMDPad,CuDef*
%ADD13RoundRect,0.140000X0.140000X0.170000X-0.140000X0.170000X-0.140000X-0.170000X0.140000X-0.170000X0*%
G04 #@! TD*
G04 #@! TA.AperFunction,SMDPad,CuDef*
%ADD14RoundRect,0.375000X-0.375000X0.625000X-0.375000X-0.625000X0.375000X-0.625000X0.375000X0.625000X0*%
G04 #@! TD*
G04 #@! TA.AperFunction,SMDPad,CuDef*
%ADD15RoundRect,0.500000X-1.400000X0.500000X-1.400000X-0.500000X1.400000X-0.500000X1.400000X0.500000X0*%
G04 #@! TD*
G04 #@! TA.AperFunction,SMDPad,CuDef*
%ADD16RoundRect,0.135000X0.185000X-0.135000X0.185000X0.135000X-0.185000X0.135000X-0.185000X-0.135000X0*%
G04 #@! TD*
G04 #@! TA.AperFunction,SMDPad,CuDef*
%ADD17RoundRect,0.135000X-0.185000X0.135000X-0.185000X-0.135000X0.185000X-0.135000X0.185000X0.135000X0*%
G04 #@! TD*
G04 #@! TA.AperFunction,SMDPad,CuDef*
%ADD18R,0.400000X1.650000*%
G04 #@! TD*
G04 #@! TA.AperFunction,SMDPad,CuDef*
%ADD19R,1.825000X0.700000*%
G04 #@! TD*
G04 #@! TA.AperFunction,SMDPad,CuDef*
%ADD20R,2.000000X1.500000*%
G04 #@! TD*
G04 #@! TA.AperFunction,SMDPad,CuDef*
%ADD21R,1.350000X2.000000*%
G04 #@! TD*
G04 #@! TA.AperFunction,HeatsinkPad*
%ADD22O,1.350000X1.700000*%
G04 #@! TD*
G04 #@! TA.AperFunction,HeatsinkPad*
%ADD23O,1.100000X1.500000*%
G04 #@! TD*
G04 #@! TA.AperFunction,SMDPad,CuDef*
%ADD24R,1.430000X2.500000*%
G04 #@! TD*
G04 #@! TA.AperFunction,SMDPad,CuDef*
%ADD25RoundRect,0.050000X-0.387500X-0.050000X0.387500X-0.050000X0.387500X0.050000X-0.387500X0.050000X0*%
G04 #@! TD*
G04 #@! TA.AperFunction,SMDPad,CuDef*
%ADD26RoundRect,0.050000X-0.050000X-0.387500X0.050000X-0.387500X0.050000X0.387500X-0.050000X0.387500X0*%
G04 #@! TD*
G04 #@! TA.AperFunction,ComponentPad*
%ADD27C,0.600000*%
G04 #@! TD*
G04 #@! TA.AperFunction,SMDPad,CuDef*
%ADD28RoundRect,0.144000X-1.456000X-1.456000X1.456000X-1.456000X1.456000X1.456000X-1.456000X1.456000X0*%
G04 #@! TD*
G04 #@! TA.AperFunction,SMDPad,CuDef*
%ADD29R,1.400000X1.200000*%
G04 #@! TD*
G04 #@! TA.AperFunction,SMDPad,CuDef*
%ADD30RoundRect,0.140000X-0.140000X-0.170000X0.140000X-0.170000X0.140000X0.170000X-0.140000X0.170000X0*%
G04 #@! TD*
G04 #@! TA.AperFunction,SMDPad,CuDef*
%ADD31RoundRect,0.250000X-0.475000X0.250000X-0.475000X-0.250000X0.475000X-0.250000X0.475000X0.250000X0*%
G04 #@! TD*
G04 #@! TA.AperFunction,SMDPad,CuDef*
%ADD32RoundRect,0.250000X0.475000X-0.250000X0.475000X0.250000X-0.475000X0.250000X-0.475000X-0.250000X0*%
G04 #@! TD*
G04 #@! TA.AperFunction,SMDPad,CuDef*
%ADD33RoundRect,0.250000X-0.250000X-0.475000X0.250000X-0.475000X0.250000X0.475000X-0.250000X0.475000X0*%
G04 #@! TD*
G04 #@! TA.AperFunction,SMDPad,CuDef*
%ADD34RoundRect,0.150000X-0.650000X-0.150000X0.650000X-0.150000X0.650000X0.150000X-0.650000X0.150000X0*%
G04 #@! TD*
G04 #@! TA.AperFunction,ViaPad*
%ADD35C,0.900000*%
G04 #@! TD*
G04 #@! TA.AperFunction,ViaPad*
%ADD36C,0.600000*%
G04 #@! TD*
G04 #@! TA.AperFunction,Conductor*
%ADD37C,0.400000*%
G04 #@! TD*
G04 #@! TA.AperFunction,Conductor*
%ADD38C,0.200000*%
G04 #@! TD*
G04 #@! TA.AperFunction,Conductor*
%ADD39C,0.150000*%
G04 #@! TD*
G04 #@! TA.AperFunction,Conductor*
%ADD40C,0.127000*%
G04 #@! TD*
G04 #@! TA.AperFunction,Conductor*
%ADD41C,0.800000*%
G04 #@! TD*
G04 APERTURE END LIST*
D10*
X149300000Y-105300000D03*
X149300000Y-104340000D03*
D11*
X132800000Y-88875000D03*
D12*
X132800000Y-86335000D03*
D13*
X151800000Y-102300000D03*
X150840000Y-102300000D03*
X151780000Y-94800000D03*
X150820000Y-94800000D03*
D14*
X159500000Y-92350000D03*
X157200000Y-92350000D03*
D15*
X157200000Y-98650000D03*
D14*
X154900000Y-92350000D03*
D16*
X143000000Y-104990000D03*
X143000000Y-103970000D03*
D13*
X151800000Y-97300000D03*
X150840000Y-97300000D03*
D17*
X142000000Y-118000000D03*
X142000000Y-119020000D03*
D11*
X116860000Y-85640000D03*
D12*
X119400000Y-85640000D03*
X116860000Y-88180000D03*
X119400000Y-88180000D03*
X116860000Y-90720000D03*
X119400000Y-90720000D03*
X116860000Y-93260000D03*
X119400000Y-93260000D03*
X116860000Y-95800000D03*
X119400000Y-95800000D03*
X116860000Y-98340000D03*
X119400000Y-98340000D03*
X116860000Y-100880000D03*
X119400000Y-100880000D03*
X116860000Y-103420000D03*
X119400000Y-103420000D03*
X116860000Y-105960000D03*
X119400000Y-105960000D03*
X116860000Y-108500000D03*
X119400000Y-108500000D03*
X116860000Y-111040000D03*
X119400000Y-111040000D03*
X116860000Y-113580000D03*
X119400000Y-113580000D03*
X116860000Y-116120000D03*
X119400000Y-116120000D03*
X116860000Y-118660000D03*
X119400000Y-118660000D03*
X116860000Y-121200000D03*
X119400000Y-121200000D03*
X116860000Y-123740000D03*
X119400000Y-123740000D03*
X116860000Y-126280000D03*
X119400000Y-126280000D03*
X116860000Y-128820000D03*
X119400000Y-128820000D03*
D13*
X155600000Y-106900000D03*
X154640000Y-106900000D03*
X147700000Y-99750000D03*
X146740000Y-99750000D03*
X155560000Y-104400000D03*
X154600000Y-104400000D03*
D17*
X138000000Y-93980000D03*
X138000000Y-95000000D03*
D10*
X146800000Y-105300000D03*
X146800000Y-104340000D03*
D18*
X144325000Y-86265000D03*
X143675000Y-86265000D03*
X143025000Y-86265000D03*
X142375000Y-86265000D03*
X141725000Y-86265000D03*
D19*
X145975000Y-85065000D03*
D20*
X145875000Y-86365000D03*
D21*
X145755000Y-84315000D03*
D22*
X145755000Y-83385000D03*
D23*
X145445000Y-86385000D03*
D24*
X143985000Y-83115000D03*
X142065000Y-83115000D03*
D23*
X140605000Y-86385000D03*
D22*
X140295000Y-83385000D03*
D21*
X140275000Y-84315000D03*
D20*
X140125000Y-86385000D03*
D19*
X140025000Y-85065000D03*
D17*
X134000000Y-93980000D03*
X134000000Y-95000000D03*
D13*
X151800000Y-99800000D03*
X150840000Y-99800000D03*
D16*
X144000000Y-105000000D03*
X144000000Y-103980000D03*
D25*
X139562500Y-109400000D03*
X139562500Y-109800000D03*
X139562500Y-110200000D03*
X139562500Y-110600000D03*
X139562500Y-111000000D03*
X139562500Y-111400000D03*
X139562500Y-111800000D03*
X139562500Y-112200000D03*
X139562500Y-112600000D03*
X139562500Y-113000000D03*
X139562500Y-113400000D03*
X139562500Y-113800000D03*
X139562500Y-114200000D03*
X139562500Y-114600000D03*
D26*
X140400000Y-115437500D03*
X140800000Y-115437500D03*
X141200000Y-115437500D03*
X141600000Y-115437500D03*
X142000000Y-115437500D03*
X142400000Y-115437500D03*
X142800000Y-115437500D03*
X143200000Y-115437500D03*
X143600000Y-115437500D03*
X144000000Y-115437500D03*
X144400000Y-115437500D03*
X144800000Y-115437500D03*
X145200000Y-115437500D03*
X145600000Y-115437500D03*
D25*
X146437500Y-114600000D03*
X146437500Y-114200000D03*
X146437500Y-113800000D03*
X146437500Y-113400000D03*
X146437500Y-113000000D03*
X146437500Y-112600000D03*
X146437500Y-112200000D03*
X146437500Y-111800000D03*
X146437500Y-111400000D03*
X146437500Y-111000000D03*
X146437500Y-110600000D03*
X146437500Y-110200000D03*
X146437500Y-109800000D03*
X146437500Y-109400000D03*
D26*
X145600000Y-108562500D03*
X145200000Y-108562500D03*
X144800000Y-108562500D03*
X144400000Y-108562500D03*
X144000000Y-108562500D03*
X143600000Y-108562500D03*
X143200000Y-108562500D03*
X142800000Y-108562500D03*
X142400000Y-108562500D03*
X142000000Y-108562500D03*
X141600000Y-108562500D03*
X141200000Y-108562500D03*
X140800000Y-108562500D03*
X140400000Y-108562500D03*
D27*
X141725000Y-110725000D03*
X141725000Y-112000000D03*
X141725000Y-113275000D03*
X143000000Y-110725000D03*
X143000000Y-112000000D03*
D28*
X143000000Y-112000000D03*
D27*
X143000000Y-113275000D03*
X144275000Y-110725000D03*
X144275000Y-112000000D03*
X144275000Y-113275000D03*
D29*
X141000000Y-126450000D03*
X143200000Y-126450000D03*
X143200000Y-124750000D03*
X141000000Y-124750000D03*
D13*
X147680000Y-94750000D03*
X146720000Y-94750000D03*
D30*
X140040000Y-121500000D03*
X141000000Y-121500000D03*
D13*
X143980000Y-121500000D03*
X143020000Y-121500000D03*
D31*
X157200000Y-101550000D03*
X157200000Y-103450000D03*
D11*
X165860000Y-85640000D03*
D12*
X168400000Y-85640000D03*
X165860000Y-88180000D03*
X168400000Y-88180000D03*
X165860000Y-90720000D03*
X168400000Y-90720000D03*
X165860000Y-93260000D03*
X168400000Y-93260000D03*
X165860000Y-95800000D03*
X168400000Y-95800000D03*
X165860000Y-98340000D03*
X168400000Y-98340000D03*
X165860000Y-100880000D03*
X168400000Y-100880000D03*
X165860000Y-103420000D03*
X168400000Y-103420000D03*
X165860000Y-105960000D03*
X168400000Y-105960000D03*
X165860000Y-108500000D03*
X168400000Y-108500000D03*
X165860000Y-111040000D03*
X168400000Y-111040000D03*
X165860000Y-113580000D03*
X168400000Y-113580000D03*
X165860000Y-116120000D03*
X168400000Y-116120000D03*
X165860000Y-118660000D03*
X168400000Y-118660000D03*
X165860000Y-121200000D03*
X168400000Y-121200000D03*
X165860000Y-123740000D03*
X168400000Y-123740000D03*
X165860000Y-126280000D03*
X168400000Y-126280000D03*
X165860000Y-128820000D03*
X168400000Y-128820000D03*
D32*
X139900000Y-92700000D03*
X139900000Y-90800000D03*
D10*
X151800000Y-105300000D03*
X151800000Y-104340000D03*
D13*
X147700000Y-97250000D03*
X146740000Y-97250000D03*
D33*
X154900000Y-88500000D03*
X156800000Y-88500000D03*
D34*
X131400000Y-97000000D03*
X131400000Y-98270000D03*
X131400000Y-99540000D03*
X131400000Y-100810000D03*
X138600000Y-100810000D03*
X138600000Y-99540000D03*
X138600000Y-98270000D03*
X138600000Y-97000000D03*
D35*
X142100000Y-122600000D03*
X136400000Y-119600000D03*
X146700000Y-92000000D03*
X132300000Y-102700000D03*
X141200000Y-88500000D03*
X158900000Y-89300000D03*
X142400000Y-106000000D03*
D36*
X144700000Y-109600000D03*
D35*
X153800000Y-102500000D03*
D37*
X144325000Y-86265000D02*
X144325000Y-87425000D01*
X144325000Y-87425000D02*
X145000000Y-88100000D01*
D38*
X142100000Y-122600000D02*
X142100000Y-122420000D01*
X131400000Y-100810000D02*
X131400000Y-101900000D01*
X151800000Y-104340000D02*
X154540000Y-104340000D01*
X151800000Y-104340000D02*
X151800000Y-103260000D01*
X150840000Y-99800000D02*
X150820000Y-99780000D01*
X156800000Y-88500000D02*
X157600000Y-89300000D01*
X141150000Y-124750000D02*
X142850000Y-126450000D01*
X136400000Y-119600000D02*
X137200000Y-118800000D01*
X131400000Y-101900000D02*
X131700000Y-102200000D01*
X142100000Y-122600000D02*
X141000000Y-123700000D01*
D39*
X139900000Y-86610000D02*
X140125000Y-86385000D01*
D38*
X131700000Y-102200000D02*
X132200000Y-102700000D01*
X159500000Y-92350000D02*
X159500000Y-89900000D01*
X139900000Y-90800000D02*
X141200000Y-89500000D01*
X142850000Y-126450000D02*
X143200000Y-126450000D01*
X137200000Y-118800000D02*
X139400000Y-118800000D01*
X146740000Y-99750000D02*
X146740000Y-104280000D01*
X150820000Y-94840000D02*
X150840000Y-94820000D01*
X151800000Y-103260000D02*
X150840000Y-102300000D01*
X141000000Y-121500000D02*
X142100000Y-122600000D01*
D40*
X140565000Y-83115000D02*
X140295000Y-83385000D01*
D38*
X157600000Y-89300000D02*
X158900000Y-89300000D01*
D39*
X146740000Y-104280000D02*
X146800000Y-104340000D01*
D38*
X146740000Y-94770000D02*
X146740000Y-99750000D01*
D39*
X146720000Y-94750000D02*
X146740000Y-94770000D01*
D38*
X154600000Y-104400000D02*
X154600000Y-106860000D01*
D39*
X154600000Y-106860000D02*
X154640000Y-106900000D01*
D38*
X149300000Y-104340000D02*
X151800000Y-104340000D01*
X141200000Y-89500000D02*
X141200000Y-88500000D01*
X143985000Y-83115000D02*
X145485000Y-83115000D01*
X150840000Y-102300000D02*
X150840000Y-99800000D01*
X150820000Y-99780000D02*
X150820000Y-94840000D01*
D39*
X154540000Y-104340000D02*
X154600000Y-104400000D01*
D38*
X141000000Y-123700000D02*
X141000000Y-124750000D01*
X142065000Y-83115000D02*
X140565000Y-83115000D01*
X142100000Y-122420000D02*
X143020000Y-121500000D01*
D39*
X146720000Y-92020000D02*
X146700000Y-92000000D01*
D38*
X142000000Y-116200000D02*
X142000000Y-115437500D01*
D39*
X154640000Y-104440000D02*
X154600000Y-104400000D01*
D38*
X141725000Y-87975000D02*
X141200000Y-88500000D01*
X139400000Y-118800000D02*
X142000000Y-116200000D01*
X141000000Y-124750000D02*
X141150000Y-124750000D01*
D40*
X145485000Y-83115000D02*
X145755000Y-83385000D01*
D38*
X146800000Y-104340000D02*
X149300000Y-104340000D01*
D39*
X146720000Y-94750000D02*
X146720000Y-92020000D01*
D38*
X141725000Y-86265000D02*
X141725000Y-87975000D01*
X159500000Y-89900000D02*
X158900000Y-89300000D01*
X145200000Y-107600000D02*
X145300000Y-107500000D01*
X139562500Y-109400000D02*
X141000000Y-109400000D01*
X138800000Y-109400000D02*
X138300000Y-108900000D01*
X138667316Y-97000000D02*
X138600000Y-97000000D01*
X146437500Y-109400000D02*
X145600000Y-109400000D01*
X143600000Y-109400000D02*
X143200000Y-109400000D01*
D39*
X143200000Y-115875000D02*
X143200000Y-115437500D01*
D38*
X145600000Y-109400000D02*
X145600000Y-110100000D01*
X140000000Y-113000000D02*
X140400000Y-112600000D01*
X140000000Y-113000000D02*
X140400000Y-113400000D01*
X146437500Y-113000000D02*
X145300000Y-113000000D01*
X145600000Y-107800000D02*
X145600000Y-109400000D01*
X143600000Y-108562500D02*
X143600000Y-109400000D01*
X140400000Y-112600000D02*
X140400000Y-112500000D01*
X143200000Y-109400000D02*
X141000000Y-109400000D01*
X145300000Y-107500000D02*
X145600000Y-107800000D01*
X139562500Y-113000000D02*
X140000000Y-113000000D01*
X139562500Y-109400000D02*
X138800000Y-109400000D01*
X145200000Y-108562500D02*
X145200000Y-107600000D01*
X143200000Y-115437500D02*
X143200000Y-114600000D01*
X143200000Y-108562500D02*
X143200000Y-109400000D01*
X143600000Y-115437500D02*
X143600000Y-114100000D01*
X144800000Y-108562500D02*
X144800000Y-107300000D01*
X151800000Y-105300000D02*
X149300000Y-105300000D01*
X144800000Y-108562500D02*
X144800000Y-109500000D01*
X142400000Y-106000000D02*
X142800000Y-106400000D01*
X144800000Y-109500000D02*
X144700000Y-109600000D01*
X149300000Y-105300000D02*
X146800000Y-105300000D01*
X142800000Y-106400000D02*
X142800000Y-108562500D01*
X144800000Y-107300000D02*
X146800000Y-105300000D01*
D39*
X142400000Y-115437500D02*
X142400000Y-116799668D01*
X140040000Y-125490000D02*
X140040000Y-121500000D01*
X141000000Y-126450000D02*
X140040000Y-125490000D01*
X140040000Y-119159668D02*
X140040000Y-121500000D01*
X142400000Y-116799668D02*
X140040000Y-119159668D01*
X143200000Y-124750000D02*
X143200000Y-122280000D01*
X142000000Y-119520000D02*
X143980000Y-121500000D01*
X142000000Y-119020000D02*
X142000000Y-119520000D01*
X143200000Y-122280000D02*
X143980000Y-121500000D01*
X143000000Y-88300000D02*
X143025000Y-88275000D01*
D37*
X143025000Y-86265000D02*
X143025000Y-88275000D01*
D41*
X143000000Y-103970000D02*
X143000000Y-88300000D01*
D37*
X143675000Y-87675000D02*
X144000000Y-88000000D01*
X143675000Y-86265000D02*
X143675000Y-87675000D01*
X144000000Y-88000000D02*
X144000000Y-88500000D01*
D41*
X144000000Y-103980000D02*
X144000000Y-88500000D01*
D39*
X120020000Y-114200000D02*
X119400000Y-113580000D01*
X139562500Y-114200000D02*
X120020000Y-114200000D01*
X141600000Y-115875000D02*
X139775000Y-117700000D01*
X139775000Y-117700000D02*
X127980000Y-117700000D01*
X127980000Y-117700000D02*
X119400000Y-126280000D01*
X141600000Y-115437500D02*
X141600000Y-115875000D01*
X139562500Y-114600000D02*
X120920000Y-114600000D01*
X120920000Y-114600000D02*
X119400000Y-116120000D01*
X126075214Y-111000000D02*
X139562500Y-111000000D01*
X121283000Y-97683000D02*
X121283000Y-106207786D01*
X121283000Y-106207786D02*
X126075214Y-111000000D01*
X119400000Y-95800000D02*
X121283000Y-97683000D01*
X124300000Y-113400000D02*
X119400000Y-108500000D01*
X139562500Y-113400000D02*
X124300000Y-113400000D01*
X120729000Y-106437262D02*
X126091738Y-111800000D01*
X126091738Y-111800000D02*
X139562500Y-111800000D01*
X120729000Y-102209000D02*
X120729000Y-106437262D01*
X119400000Y-100880000D02*
X120729000Y-102209000D01*
X121837000Y-105937000D02*
X121837000Y-93157000D01*
X121837000Y-93157000D02*
X119400000Y-90720000D01*
X139562500Y-110200000D02*
X126100000Y-110200000D01*
X126100000Y-110200000D02*
X121837000Y-105937000D01*
X119400000Y-98340000D02*
X121006000Y-99946000D01*
X126083476Y-111400000D02*
X139562500Y-111400000D01*
X121006000Y-106322524D02*
X126083476Y-111400000D01*
X121006000Y-99946000D02*
X121006000Y-106322524D01*
X124223000Y-116377000D02*
X119400000Y-121200000D01*
X140298000Y-116377000D02*
X124223000Y-116377000D01*
X140800000Y-115437500D02*
X140800000Y-115875000D01*
X140800000Y-115875000D02*
X140298000Y-116377000D01*
X123000000Y-113800000D02*
X120240000Y-111040000D01*
X120240000Y-111040000D02*
X119400000Y-111040000D01*
X139562500Y-113800000D02*
X123000000Y-113800000D01*
X119400000Y-105960000D02*
X126040000Y-112600000D01*
X126040000Y-112600000D02*
X139562500Y-112600000D01*
X126066952Y-110600000D02*
X121560000Y-106093048D01*
X139562500Y-110600000D02*
X126066952Y-110600000D01*
X121560000Y-95420000D02*
X119400000Y-93260000D01*
X121560000Y-106093048D02*
X121560000Y-95420000D01*
X120452000Y-106552000D02*
X126100000Y-112200000D01*
X120452000Y-104472000D02*
X120452000Y-106552000D01*
X126100000Y-112200000D02*
X139562500Y-112200000D01*
X119400000Y-103420000D02*
X120452000Y-104472000D01*
X140400000Y-115437500D02*
X140237500Y-115600000D01*
X140237500Y-115600000D02*
X122460000Y-115600000D01*
X122460000Y-115600000D02*
X119400000Y-118660000D01*
X122114000Y-90894000D02*
X119400000Y-88180000D01*
X139562500Y-109800000D02*
X126091738Y-109800000D01*
X126091738Y-109800000D02*
X122114000Y-105822262D01*
X122114000Y-105822262D02*
X122114000Y-90894000D01*
X140075000Y-117000000D02*
X126170000Y-117000000D01*
X126170000Y-117000000D02*
X119430000Y-123740000D01*
X141200000Y-115437500D02*
X141200000Y-115875000D01*
X119430000Y-123740000D02*
X119400000Y-123740000D01*
X141200000Y-115875000D02*
X140075000Y-117000000D01*
X164254000Y-105026000D02*
X165860000Y-103420000D01*
X164254000Y-109246000D02*
X164254000Y-105026000D01*
X160900000Y-112600000D02*
X164254000Y-109246000D01*
X146437500Y-112600000D02*
X160900000Y-112600000D01*
X165200000Y-121200000D02*
X165860000Y-121200000D01*
X144800000Y-115832768D02*
X146567232Y-117600000D01*
X144800000Y-115437500D02*
X144800000Y-115832768D01*
X161600000Y-117600000D02*
X165200000Y-121200000D01*
X146567232Y-117600000D02*
X161600000Y-117600000D01*
X163977000Y-102763000D02*
X165860000Y-100880000D01*
X163977000Y-109123000D02*
X163977000Y-102763000D01*
X160900000Y-112200000D02*
X163977000Y-109123000D01*
X146437500Y-112200000D02*
X160900000Y-112200000D01*
X146437500Y-114200000D02*
X162700000Y-114200000D01*
X162700000Y-114200000D02*
X165860000Y-111040000D01*
X163423000Y-98237000D02*
X165860000Y-95800000D01*
X160916524Y-111400000D02*
X163423000Y-108893524D01*
X146437500Y-111400000D02*
X160916524Y-111400000D01*
X163423000Y-108893524D02*
X163423000Y-98237000D01*
X147967232Y-119800000D02*
X160100000Y-119800000D01*
X165820000Y-126280000D02*
X165800000Y-126300000D01*
X165860000Y-125560000D02*
X165860000Y-126280000D01*
X144000000Y-115832768D02*
X147967232Y-119800000D01*
X160100000Y-119800000D02*
X165860000Y-125560000D01*
X165860000Y-126280000D02*
X165820000Y-126280000D01*
X144000000Y-115437500D02*
X144000000Y-115832768D01*
X145600000Y-115437500D02*
X146282500Y-116120000D01*
X146282500Y-116120000D02*
X165860000Y-116120000D01*
X164360000Y-118660000D02*
X165860000Y-118660000D01*
X145200000Y-115437500D02*
X145200000Y-115832768D01*
X162500000Y-116800000D02*
X164360000Y-118660000D01*
X146167232Y-116800000D02*
X162500000Y-116800000D01*
X145200000Y-115832768D02*
X146167232Y-116800000D01*
X162315000Y-105985000D02*
X162315000Y-89185000D01*
X162315000Y-89185000D02*
X165860000Y-85640000D01*
X146437500Y-109800000D02*
X158500000Y-109800000D01*
X158500000Y-109800000D02*
X162315000Y-105985000D01*
X162592000Y-107108000D02*
X162592000Y-94648509D01*
X159500000Y-110200000D02*
X162592000Y-107108000D01*
X162592000Y-94648509D02*
X164808000Y-92432509D01*
X146437500Y-110200000D02*
X159500000Y-110200000D01*
X164808000Y-92432509D02*
X164808000Y-89232000D01*
X164808000Y-89232000D02*
X165860000Y-88180000D01*
X164808000Y-111700262D02*
X164808000Y-109552000D01*
X146437500Y-113800000D02*
X162708262Y-113800000D01*
X162708262Y-113800000D02*
X164808000Y-111700262D01*
X164808000Y-109552000D02*
X165860000Y-108500000D01*
X164531000Y-111585524D02*
X164531000Y-107289000D01*
X164531000Y-107289000D02*
X165860000Y-105960000D01*
X162716524Y-113400000D02*
X164531000Y-111585524D01*
X146437500Y-113400000D02*
X162716524Y-113400000D01*
X160900000Y-118700000D02*
X165860000Y-123660000D01*
X165860000Y-123660000D02*
X165860000Y-123740000D01*
X144400000Y-115437500D02*
X144400000Y-115832768D01*
X147267232Y-118700000D02*
X160900000Y-118700000D01*
X144400000Y-115832768D02*
X147267232Y-118700000D01*
X146437500Y-111000000D02*
X160924786Y-111000000D01*
X163146000Y-95974000D02*
X165860000Y-93260000D01*
X163146000Y-108778786D02*
X163146000Y-95974000D01*
X160924786Y-111000000D02*
X163146000Y-108778786D01*
X146437500Y-111800000D02*
X160908262Y-111800000D01*
X163700000Y-109008262D02*
X163700000Y-100500000D01*
X160908262Y-111800000D02*
X163700000Y-109008262D01*
X163700000Y-100500000D02*
X165860000Y-98340000D01*
X160933048Y-110600000D02*
X162869000Y-108664048D01*
X162869000Y-94763247D02*
X165860000Y-91772247D01*
X146437500Y-110600000D02*
X160933048Y-110600000D01*
X165860000Y-91772247D02*
X165860000Y-90720000D01*
X162869000Y-108664048D02*
X162869000Y-94763247D01*
X164840000Y-114600000D02*
X165860000Y-113580000D01*
X146437500Y-114600000D02*
X164840000Y-114600000D01*
X137905000Y-93980000D02*
X132800000Y-88875000D01*
D38*
X132135000Y-89500000D02*
X132800000Y-88835000D01*
D39*
X138000000Y-93980000D02*
X137905000Y-93980000D01*
D38*
X144000000Y-108562500D02*
X144000000Y-105990000D01*
D39*
X143000000Y-104990000D02*
X143000000Y-105090000D01*
D38*
X144000000Y-105990000D02*
X143000000Y-104990000D01*
X144400000Y-108562500D02*
X144400000Y-105400000D01*
X144400000Y-105400000D02*
X144000000Y-105000000D01*
D39*
X134000000Y-95000000D02*
X133400000Y-95000000D01*
X139000000Y-106900000D02*
X128900000Y-106900000D01*
X140400000Y-108300000D02*
X139000000Y-106900000D01*
X140400000Y-108562500D02*
X140400000Y-108300000D01*
X130700000Y-97000000D02*
X131400000Y-97000000D01*
X128900000Y-106900000D02*
X128400000Y-106400000D01*
X128400000Y-106400000D02*
X128400000Y-99300000D01*
X128400000Y-99300000D02*
X130700000Y-97000000D01*
X133400000Y-95000000D02*
X131400000Y-97000000D01*
X134000000Y-95000000D02*
X138000000Y-95000000D01*
X142800000Y-117200000D02*
X142000000Y-118000000D01*
X142800000Y-115437500D02*
X142800000Y-117200000D01*
X140177000Y-105185262D02*
X142400000Y-107408262D01*
X139021737Y-98270000D02*
X140177000Y-99425263D01*
X140177000Y-99425263D02*
X140177000Y-105185262D01*
X142400000Y-107408262D02*
X142400000Y-108562500D01*
X138600000Y-98270000D02*
X139021737Y-98270000D01*
X138600000Y-104600000D02*
X141600000Y-107600000D01*
X141600000Y-107600000D02*
X141600000Y-108562500D01*
X138600000Y-100810000D02*
X138600000Y-104600000D01*
X130260000Y-99540000D02*
X129100000Y-100700000D01*
X141200000Y-108125000D02*
X141200000Y-108562500D01*
X130600000Y-105600000D02*
X138675000Y-105600000D01*
X138675000Y-105600000D02*
X141200000Y-108125000D01*
X129100000Y-100700000D02*
X129100000Y-104100000D01*
X129100000Y-104100000D02*
X130600000Y-105600000D01*
X131400000Y-99540000D02*
X130260000Y-99540000D01*
X142000000Y-107400000D02*
X142000000Y-108562500D01*
X138600000Y-99540000D02*
X139900000Y-99540000D01*
X139900000Y-99540000D02*
X139900000Y-105300000D01*
X139900000Y-105300000D02*
X142000000Y-107400000D01*
X138932768Y-106300000D02*
X129900000Y-106300000D01*
X128700000Y-105100000D02*
X128700000Y-100100000D01*
X128700000Y-100100000D02*
X130530000Y-98270000D01*
X130530000Y-98270000D02*
X131400000Y-98270000D01*
X140800000Y-108167232D02*
X138932768Y-106300000D01*
X140800000Y-108562500D02*
X140800000Y-108167232D01*
X129900000Y-106300000D02*
X128700000Y-105100000D01*
D38*
X153800000Y-102500000D02*
X156250000Y-102500000D01*
X156250000Y-102500000D02*
X157200000Y-103450000D01*
G04 #@! TA.AperFunction,Conductor*
G36*
X140619035Y-113281875D02*
G01*
X140660210Y-113338323D01*
X140667500Y-113380213D01*
X140667500Y-114076002D01*
X140670527Y-114104165D01*
X140681734Y-114155678D01*
X140711069Y-114214281D01*
X140733598Y-114240280D01*
X140756824Y-114267084D01*
X140756826Y-114267085D01*
X140756827Y-114267086D01*
X140790817Y-114288931D01*
X140819630Y-114307448D01*
X140886669Y-114327133D01*
X140924000Y-114332500D01*
X143248500Y-114332500D01*
X143315539Y-114352185D01*
X143361294Y-114404989D01*
X143372500Y-114456500D01*
X143372500Y-114700000D01*
X140121031Y-114700000D01*
X140127500Y-114667480D01*
X140127500Y-114532520D01*
X140127406Y-114532050D01*
X140117202Y-114480745D01*
X140117201Y-114480743D01*
X140109282Y-114468892D01*
X140100000Y-114439249D01*
X140100000Y-114359939D01*
X140106887Y-114334834D01*
X140109282Y-114331108D01*
X140117201Y-114319257D01*
X140117399Y-114318266D01*
X140127499Y-114267484D01*
X140127500Y-114267481D01*
X140127500Y-114132519D01*
X140127499Y-114132515D01*
X140117202Y-114080745D01*
X140117201Y-114080743D01*
X140109282Y-114068892D01*
X140100000Y-114039249D01*
X140100000Y-113959939D01*
X140106887Y-113934834D01*
X140109282Y-113931108D01*
X140117201Y-113919257D01*
X140127500Y-113867480D01*
X140127500Y-113732520D01*
X140117951Y-113684513D01*
X140124178Y-113614924D01*
X140167040Y-113559746D01*
X140194081Y-113544968D01*
X140222091Y-113533922D01*
X140222093Y-113533921D01*
X140342564Y-113442564D01*
X140433923Y-113322090D01*
X140435413Y-113319442D01*
X140437408Y-113317495D01*
X140439046Y-113315336D01*
X140439370Y-113315581D01*
X140485427Y-113270652D01*
X140553879Y-113256648D01*
X140619035Y-113281875D01*
G37*
G04 #@! TD.AperFunction*
G04 #@! TA.AperFunction,Conductor*
G36*
X145537703Y-109686500D02*
G01*
X145564587Y-109719442D01*
X145566076Y-109722090D01*
X145657435Y-109842564D01*
X145777905Y-109933920D01*
X145800000Y-109942633D01*
X145800000Y-112457365D01*
X145777906Y-112466078D01*
X145657435Y-112557435D01*
X145566079Y-112677904D01*
X145510613Y-112818556D01*
X145500000Y-112906946D01*
X145500000Y-113093053D01*
X145510613Y-113181443D01*
X145566079Y-113322095D01*
X145657435Y-113442564D01*
X145777905Y-113533920D01*
X145800000Y-113542633D01*
X145800000Y-114700000D01*
X143827500Y-114700000D01*
X143827500Y-114456500D01*
X143847185Y-114389461D01*
X143899989Y-114343706D01*
X143951500Y-114332500D01*
X144776000Y-114332500D01*
X144804166Y-114329472D01*
X144855677Y-114318266D01*
X144914280Y-114288931D01*
X144967084Y-114243176D01*
X145007448Y-114180370D01*
X145027133Y-114113331D01*
X145032500Y-114076000D01*
X145032500Y-113924000D01*
X145029472Y-113895834D01*
X145018266Y-113844323D01*
X144988931Y-113785720D01*
X144988930Y-113785718D01*
X144966402Y-113759720D01*
X144943176Y-113732916D01*
X144943173Y-113732914D01*
X144943172Y-113732913D01*
X144880374Y-113692554D01*
X144880372Y-113692553D01*
X144880371Y-113692552D01*
X144880370Y-113692552D01*
X144813331Y-113672867D01*
X144809081Y-113671619D01*
X144809393Y-113670555D01*
X144752498Y-113639480D01*
X144719021Y-113578152D01*
X144718573Y-113527616D01*
X144727500Y-113482740D01*
X144727500Y-110517257D01*
X144711748Y-110438069D01*
X144711747Y-110438066D01*
X144703277Y-110425390D01*
X144682400Y-110358713D01*
X144700885Y-110291333D01*
X144752864Y-110244643D01*
X144806380Y-110232500D01*
X145076000Y-110232500D01*
X145104166Y-110229472D01*
X145155677Y-110218266D01*
X145214280Y-110188931D01*
X145267084Y-110143176D01*
X145307448Y-110080370D01*
X145327133Y-110013331D01*
X145332500Y-109976000D01*
X145332500Y-109780213D01*
X145352185Y-109713174D01*
X145404989Y-109667419D01*
X145474147Y-109657475D01*
X145537703Y-109686500D01*
G37*
G04 #@! TD.AperFunction*
G04 #@! TA.AperFunction,Conductor*
G36*
X142666077Y-109222091D02*
G01*
X142666078Y-109222093D01*
X142757436Y-109342566D01*
X142760247Y-109344698D01*
X142762171Y-109347302D01*
X142763432Y-109348563D01*
X142763242Y-109348752D01*
X142801769Y-109400891D01*
X142806319Y-109470613D01*
X142772452Y-109531726D01*
X142710921Y-109564828D01*
X142685319Y-109567500D01*
X140923997Y-109567500D01*
X140895834Y-109570527D01*
X140844321Y-109581734D01*
X140785718Y-109611069D01*
X140732916Y-109656824D01*
X140732915Y-109656825D01*
X140709079Y-109693913D01*
X140666159Y-109731101D01*
X140674653Y-109773955D01*
X140673381Y-109782267D01*
X140673497Y-109782284D01*
X140667500Y-109823996D01*
X140667500Y-112619786D01*
X140647815Y-112686825D01*
X140595011Y-112732580D01*
X140525853Y-112742524D01*
X140462297Y-112713499D01*
X140435415Y-112680562D01*
X140433922Y-112677907D01*
X140342564Y-112557435D01*
X140222093Y-112466078D01*
X140222091Y-112466077D01*
X140194078Y-112455030D01*
X140138934Y-112412124D01*
X140115741Y-112346217D01*
X140117950Y-112315488D01*
X140127500Y-112267480D01*
X140127500Y-112132520D01*
X140127406Y-112132050D01*
X140117202Y-112080745D01*
X140117201Y-112080743D01*
X140109282Y-112068892D01*
X140100000Y-112039249D01*
X140100000Y-111959939D01*
X140106887Y-111934834D01*
X140109282Y-111931108D01*
X140117201Y-111919257D01*
X140127500Y-111867480D01*
X140127500Y-111732520D01*
X140127406Y-111732050D01*
X140117202Y-111680745D01*
X140117201Y-111680743D01*
X140109282Y-111668892D01*
X140100000Y-111639249D01*
X140100000Y-111559939D01*
X140106887Y-111534834D01*
X140109282Y-111531108D01*
X140117201Y-111519257D01*
X140127500Y-111467480D01*
X140127500Y-111332520D01*
X140127406Y-111332050D01*
X140117202Y-111280745D01*
X140117201Y-111280743D01*
X140109282Y-111268892D01*
X140100000Y-111239249D01*
X140100000Y-111159939D01*
X140106887Y-111134834D01*
X140109282Y-111131108D01*
X140117201Y-111119257D01*
X140127500Y-111067480D01*
X140127500Y-110932520D01*
X140127406Y-110932050D01*
X140117202Y-110880745D01*
X140117201Y-110880743D01*
X140109282Y-110868892D01*
X140100000Y-110839249D01*
X140100000Y-110759939D01*
X140106887Y-110734834D01*
X140109282Y-110731108D01*
X140117201Y-110719257D01*
X140127500Y-110667480D01*
X140127500Y-110532520D01*
X140124464Y-110517257D01*
X140117202Y-110480745D01*
X140117201Y-110480743D01*
X140109282Y-110468892D01*
X140100000Y-110439249D01*
X140100000Y-110359939D01*
X140106887Y-110334834D01*
X140109282Y-110331108D01*
X140117201Y-110319257D01*
X140127500Y-110267480D01*
X140127500Y-110132520D01*
X140117951Y-110084513D01*
X140124178Y-110014924D01*
X140167040Y-109959746D01*
X140194081Y-109944968D01*
X140222091Y-109933922D01*
X140222093Y-109933921D01*
X140342564Y-109842564D01*
X140433920Y-109722094D01*
X140435796Y-109717338D01*
X140478697Y-109662190D01*
X140485787Y-109659694D01*
X140485789Y-109591933D01*
X140489379Y-109581472D01*
X140489385Y-109581449D01*
X140500000Y-109493053D01*
X140500000Y-109306939D01*
X140491601Y-109237001D01*
X140497803Y-109200000D01*
X142657365Y-109200000D01*
X142666077Y-109222091D01*
G37*
G04 #@! TD.AperFunction*
G04 #@! TA.AperFunction,Conductor*
G36*
X140803335Y-81620185D02*
G01*
X140849090Y-81672989D01*
X140859034Y-81742147D01*
X140856973Y-81753014D01*
X140855908Y-81757518D01*
X140849501Y-81817116D01*
X140849501Y-81817123D01*
X140849500Y-81817135D01*
X140849500Y-81983502D01*
X140829815Y-82050541D01*
X140777011Y-82096296D01*
X140707853Y-82106240D01*
X140687182Y-82101433D01*
X140570265Y-82063445D01*
X140440877Y-82042952D01*
X140387514Y-82034500D01*
X140202486Y-82034500D01*
X140149123Y-82042952D01*
X140019734Y-82063445D01*
X139843767Y-82120619D01*
X139843764Y-82120620D01*
X139678903Y-82204622D01*
X139593499Y-82266672D01*
X139529213Y-82313379D01*
X139529211Y-82313381D01*
X139529210Y-82313381D01*
X139398381Y-82444210D01*
X139398381Y-82444211D01*
X139398379Y-82444213D01*
X139351672Y-82508499D01*
X139289622Y-82593903D01*
X139205620Y-82758764D01*
X139205619Y-82758767D01*
X139148445Y-82934734D01*
X139119500Y-83117486D01*
X139119500Y-83148705D01*
X139111682Y-83192038D01*
X139105908Y-83207517D01*
X139099501Y-83267116D01*
X139099500Y-83267135D01*
X139099500Y-84100468D01*
X139079815Y-84167507D01*
X139027011Y-84213262D01*
X139008532Y-84219597D01*
X138870171Y-84271202D01*
X138870164Y-84271206D01*
X138754955Y-84357452D01*
X138754952Y-84357455D01*
X138668706Y-84472664D01*
X138668702Y-84472671D01*
X138618408Y-84607517D01*
X138612001Y-84667116D01*
X138612001Y-84667123D01*
X138612000Y-84667135D01*
X138612000Y-85462870D01*
X138612001Y-85462876D01*
X138618409Y-85522487D01*
X138620192Y-85530031D01*
X138619307Y-85530240D01*
X138625399Y-85578748D01*
X138624501Y-85587104D01*
X138624500Y-85587127D01*
X138624500Y-87182870D01*
X138624501Y-87182876D01*
X138630908Y-87242483D01*
X138681202Y-87377328D01*
X138681206Y-87377335D01*
X138767452Y-87492544D01*
X138767455Y-87492547D01*
X138882664Y-87578793D01*
X138882671Y-87578797D01*
X139017517Y-87629091D01*
X139017516Y-87629091D01*
X139024444Y-87629835D01*
X139077127Y-87635500D01*
X140417692Y-87635499D01*
X140484731Y-87655184D01*
X140530486Y-87707987D01*
X140540430Y-87777146D01*
X140513546Y-87838163D01*
X140405864Y-87969374D01*
X140405862Y-87969376D01*
X140317604Y-88134497D01*
X140263253Y-88313666D01*
X140263252Y-88313668D01*
X140244901Y-88500000D01*
X140263252Y-88686331D01*
X140263253Y-88686333D01*
X140317604Y-88865502D01*
X140405862Y-89030623D01*
X140405864Y-89030626D01*
X140521302Y-89171287D01*
X140548615Y-89235597D01*
X140536824Y-89304465D01*
X140513130Y-89337633D01*
X140087582Y-89763181D01*
X140026259Y-89796666D01*
X139999901Y-89799500D01*
X139374998Y-89799500D01*
X139374980Y-89799501D01*
X139272203Y-89810000D01*
X139272200Y-89810001D01*
X139105668Y-89865185D01*
X139105663Y-89865187D01*
X138956342Y-89957289D01*
X138832289Y-90081342D01*
X138740187Y-90230663D01*
X138740185Y-90230668D01*
X138722029Y-90285459D01*
X138685001Y-90397203D01*
X138685001Y-90397204D01*
X138685000Y-90397204D01*
X138674500Y-90499983D01*
X138674500Y-91100001D01*
X138674501Y-91100019D01*
X138685000Y-91202796D01*
X138685001Y-91202799D01*
X138725377Y-91324643D01*
X138740186Y-91369334D01*
X138832288Y-91518656D01*
X138956344Y-91642712D01*
X138959628Y-91644737D01*
X138959653Y-91644753D01*
X138961445Y-91646746D01*
X138962011Y-91647193D01*
X138961934Y-91647289D01*
X139006379Y-91696699D01*
X139017603Y-91765661D01*
X138989761Y-91829744D01*
X138959665Y-91855826D01*
X138956660Y-91857679D01*
X138956655Y-91857683D01*
X138832684Y-91981654D01*
X138740643Y-92130875D01*
X138740641Y-92130880D01*
X138685494Y-92297302D01*
X138685493Y-92297309D01*
X138675000Y-92400013D01*
X138675000Y-92450000D01*
X141124999Y-92450000D01*
X141124999Y-92400028D01*
X141124998Y-92400013D01*
X141114505Y-92297302D01*
X141059358Y-92130880D01*
X141059356Y-92130875D01*
X140967315Y-91981654D01*
X140843344Y-91857683D01*
X140843341Y-91857681D01*
X140840339Y-91855829D01*
X140838713Y-91854021D01*
X140837677Y-91853202D01*
X140837817Y-91853024D01*
X140793617Y-91803880D01*
X140782397Y-91734917D01*
X140810243Y-91670836D01*
X140840344Y-91644754D01*
X140843656Y-91642712D01*
X140967712Y-91518656D01*
X141059814Y-91369334D01*
X141114999Y-91202797D01*
X141125500Y-91100009D01*
X141125499Y-90499992D01*
X141124419Y-90489422D01*
X141137187Y-90420731D01*
X141160093Y-90389141D01*
X141680520Y-89868716D01*
X141759577Y-89731784D01*
X141800501Y-89579057D01*
X141800501Y-89420942D01*
X141800501Y-89413347D01*
X141800500Y-89413329D01*
X141800500Y-89295437D01*
X141820185Y-89228398D01*
X141845837Y-89199583D01*
X141875357Y-89175357D01*
X141879645Y-89170131D01*
X141937391Y-89130796D01*
X142007235Y-89128925D01*
X142067004Y-89165111D01*
X142097721Y-89227866D01*
X142099500Y-89248795D01*
X142099500Y-104058695D01*
X142134103Y-104232658D01*
X142134106Y-104232667D01*
X142201983Y-104396540D01*
X142201990Y-104396553D01*
X142236002Y-104447455D01*
X142256880Y-104514133D01*
X142239634Y-104579463D01*
X142227133Y-104600601D01*
X142227129Y-104600611D01*
X142182335Y-104754791D01*
X142182334Y-104754797D01*
X142179500Y-104790811D01*
X142179500Y-104981653D01*
X142159815Y-105048692D01*
X142107011Y-105094447D01*
X142091497Y-105100313D01*
X142034496Y-105117604D01*
X141869376Y-105205862D01*
X141869373Y-105205864D01*
X141724642Y-105324642D01*
X141605865Y-105469373D01*
X141569427Y-105537543D01*
X141520464Y-105587387D01*
X141452326Y-105602847D01*
X141386647Y-105579015D01*
X141372388Y-105566770D01*
X140788819Y-104983201D01*
X140755334Y-104921878D01*
X140752500Y-104895520D01*
X140752500Y-99349499D01*
X140752500Y-99349497D01*
X140713281Y-99203128D01*
X140637515Y-99071898D01*
X140530365Y-98964748D01*
X139936819Y-98371202D01*
X139903334Y-98309879D01*
X139900500Y-98283521D01*
X139900500Y-98054313D01*
X139900499Y-98054298D01*
X139897598Y-98017432D01*
X139897597Y-98017426D01*
X139853511Y-97865684D01*
X139851744Y-97859602D01*
X139768081Y-97718135D01*
X139768078Y-97718132D01*
X139763298Y-97711969D01*
X139765635Y-97710155D01*
X139738798Y-97661050D01*
X139743756Y-97591356D01*
X139764554Y-97558998D01*
X139762903Y-97557717D01*
X139767686Y-97551550D01*
X139851281Y-97410198D01*
X139897100Y-97252486D01*
X139897295Y-97250001D01*
X139897295Y-97250000D01*
X137302705Y-97250000D01*
X137302704Y-97250001D01*
X137302899Y-97252486D01*
X137348718Y-97410198D01*
X137432314Y-97551552D01*
X137437100Y-97557722D01*
X137434640Y-97559629D01*
X137461210Y-97608288D01*
X137456226Y-97677980D01*
X137435162Y-97710781D01*
X137436699Y-97711974D01*
X137431915Y-97718140D01*
X137348255Y-97859603D01*
X137348254Y-97859606D01*
X137302402Y-98017426D01*
X137302401Y-98017432D01*
X137299500Y-98054298D01*
X137299500Y-98485701D01*
X137302401Y-98522567D01*
X137302402Y-98522573D01*
X137348254Y-98680393D01*
X137348255Y-98680396D01*
X137431917Y-98821862D01*
X137436702Y-98828031D01*
X137434256Y-98829927D01*
X137460857Y-98878642D01*
X137455873Y-98948334D01*
X137435069Y-98980703D01*
X137436702Y-98981969D01*
X137431917Y-98988137D01*
X137348255Y-99129603D01*
X137348254Y-99129606D01*
X137302402Y-99287426D01*
X137302401Y-99287432D01*
X137299500Y-99324298D01*
X137299500Y-99755701D01*
X137302401Y-99792567D01*
X137302402Y-99792573D01*
X137348254Y-99950393D01*
X137348255Y-99950396D01*
X137348256Y-99950398D01*
X137377590Y-100000000D01*
X137431917Y-100091862D01*
X137436702Y-100098031D01*
X137434256Y-100099927D01*
X137460857Y-100148642D01*
X137455873Y-100218334D01*
X137435069Y-100250703D01*
X137436702Y-100251969D01*
X137431917Y-100258137D01*
X137348255Y-100399603D01*
X137348254Y-100399606D01*
X137302402Y-100557426D01*
X137302401Y-100557432D01*
X137299500Y-100594298D01*
X137299500Y-101025701D01*
X137302401Y-101062567D01*
X137302402Y-101062573D01*
X137348254Y-101220393D01*
X137348255Y-101220396D01*
X137348256Y-101220398D01*
X137365757Y-101249991D01*
X137431917Y-101361862D01*
X137431923Y-101361870D01*
X137548129Y-101478076D01*
X137548133Y-101478079D01*
X137548135Y-101478081D01*
X137689602Y-101561744D01*
X137731224Y-101573836D01*
X137847426Y-101607597D01*
X137847429Y-101607597D01*
X137847431Y-101607598D01*
X137884306Y-101610500D01*
X137900500Y-101610500D01*
X137967539Y-101630185D01*
X138013294Y-101682989D01*
X138024500Y-101734500D01*
X138024500Y-104524234D01*
X138024500Y-104675766D01*
X138063719Y-104822135D01*
X138071279Y-104835230D01*
X138073167Y-104838499D01*
X138089640Y-104906399D01*
X138066788Y-104972426D01*
X138011867Y-105015617D01*
X137965780Y-105024500D01*
X130889742Y-105024500D01*
X130822703Y-105004815D01*
X130802061Y-104988181D01*
X129711819Y-103897939D01*
X129678334Y-103836616D01*
X129675500Y-103810258D01*
X129675500Y-100989741D01*
X129695185Y-100922702D01*
X129711815Y-100902064D01*
X129887820Y-100726059D01*
X129949142Y-100692575D01*
X130018834Y-100697559D01*
X130074767Y-100739431D01*
X130099184Y-100804895D01*
X130099500Y-100813741D01*
X130099500Y-101025701D01*
X130102401Y-101062567D01*
X130102402Y-101062573D01*
X130148254Y-101220393D01*
X130148255Y-101220396D01*
X130148256Y-101220398D01*
X130165757Y-101249991D01*
X130231917Y-101361862D01*
X130231923Y-101361870D01*
X130348129Y-101478076D01*
X130348133Y-101478079D01*
X130348135Y-101478081D01*
X130489602Y-101561744D01*
X130531224Y-101573836D01*
X130647426Y-101607597D01*
X130647429Y-101607597D01*
X130647431Y-101607598D01*
X130684306Y-101610500D01*
X130684312Y-101610500D01*
X130685227Y-101610572D01*
X130750515Y-101635455D01*
X130791987Y-101691685D01*
X130799500Y-101734190D01*
X130799500Y-101813330D01*
X130799499Y-101813348D01*
X130799499Y-101979054D01*
X130799498Y-101979054D01*
X130840423Y-102131785D01*
X130853193Y-102153903D01*
X130919477Y-102268712D01*
X130919481Y-102268717D01*
X131038349Y-102387585D01*
X131038355Y-102387590D01*
X131312886Y-102662121D01*
X131346371Y-102723444D01*
X131348608Y-102737647D01*
X131363253Y-102886332D01*
X131363253Y-102886333D01*
X131417604Y-103065502D01*
X131505862Y-103230623D01*
X131505864Y-103230626D01*
X131624642Y-103375357D01*
X131769373Y-103494135D01*
X131769376Y-103494137D01*
X131897008Y-103562357D01*
X131934499Y-103582396D01*
X132043628Y-103615500D01*
X132113666Y-103636746D01*
X132113668Y-103636747D01*
X132126056Y-103637967D01*
X132300000Y-103655099D01*
X132486331Y-103636747D01*
X132665501Y-103582396D01*
X132830625Y-103494136D01*
X132975357Y-103375357D01*
X133094136Y-103230625D01*
X133182396Y-103065501D01*
X133236747Y-102886331D01*
X133255099Y-102700000D01*
X133238386Y-102530315D01*
X133236747Y-102513668D01*
X133236746Y-102513666D01*
X133182396Y-102334499D01*
X133147235Y-102268717D01*
X133094137Y-102169376D01*
X133094135Y-102169373D01*
X132975357Y-102024642D01*
X132830626Y-101905864D01*
X132830623Y-101905862D01*
X132665502Y-101817604D01*
X132486333Y-101763253D01*
X132486331Y-101763252D01*
X132420698Y-101756788D01*
X132355911Y-101730626D01*
X132315552Y-101673592D01*
X132312436Y-101603791D01*
X132347551Y-101543387D01*
X132369723Y-101526659D01*
X132451865Y-101478081D01*
X132568081Y-101361865D01*
X132651744Y-101220398D01*
X132697598Y-101062569D01*
X132700500Y-101025694D01*
X132700500Y-100594306D01*
X132697598Y-100557431D01*
X132696747Y-100554503D01*
X132651745Y-100399606D01*
X132651744Y-100399603D01*
X132651744Y-100399602D01*
X132568081Y-100258135D01*
X132568078Y-100258132D01*
X132563298Y-100251969D01*
X132565750Y-100250066D01*
X132539155Y-100201421D01*
X132544104Y-100131726D01*
X132564940Y-100099304D01*
X132563298Y-100098031D01*
X132568075Y-100091870D01*
X132568081Y-100091865D01*
X132651744Y-99950398D01*
X132697598Y-99792569D01*
X132700500Y-99755694D01*
X132700500Y-99324306D01*
X132697598Y-99287431D01*
X132682256Y-99234625D01*
X132651745Y-99129606D01*
X132651744Y-99129603D01*
X132651744Y-99129602D01*
X132568081Y-98988135D01*
X132568078Y-98988132D01*
X132563298Y-98981969D01*
X132565750Y-98980066D01*
X132539155Y-98931421D01*
X132544104Y-98861726D01*
X132564940Y-98829304D01*
X132563298Y-98828031D01*
X132568075Y-98821870D01*
X132568081Y-98821865D01*
X132651744Y-98680398D01*
X132697598Y-98522569D01*
X132700500Y-98485694D01*
X132700500Y-98054306D01*
X132697598Y-98017431D01*
X132696029Y-98012031D01*
X132653511Y-97865684D01*
X132651744Y-97859602D01*
X132568081Y-97718135D01*
X132568078Y-97718132D01*
X132563298Y-97711969D01*
X132565750Y-97710066D01*
X132539155Y-97661421D01*
X132544104Y-97591726D01*
X132564940Y-97559304D01*
X132563298Y-97558031D01*
X132568075Y-97551870D01*
X132568081Y-97551865D01*
X132651744Y-97410398D01*
X132697598Y-97252569D01*
X132700500Y-97215694D01*
X132700500Y-96784306D01*
X132697800Y-96749998D01*
X137302704Y-96749998D01*
X137302705Y-96750000D01*
X138350000Y-96750000D01*
X138850000Y-96750000D01*
X139897295Y-96750000D01*
X139897295Y-96749998D01*
X139897100Y-96747513D01*
X139851281Y-96589801D01*
X139767685Y-96448447D01*
X139767678Y-96448438D01*
X139651561Y-96332321D01*
X139651552Y-96332314D01*
X139510196Y-96248717D01*
X139510193Y-96248716D01*
X139352495Y-96202900D01*
X139352489Y-96202899D01*
X139315649Y-96200000D01*
X138850000Y-96200000D01*
X138850000Y-96750000D01*
X138350000Y-96750000D01*
X138350000Y-96200000D01*
X137884350Y-96200000D01*
X137847510Y-96202899D01*
X137847504Y-96202900D01*
X137689806Y-96248716D01*
X137689803Y-96248717D01*
X137548447Y-96332314D01*
X137548438Y-96332321D01*
X137432321Y-96448438D01*
X137432314Y-96448447D01*
X137348718Y-96589801D01*
X137302899Y-96747513D01*
X137302704Y-96749998D01*
X132697800Y-96749998D01*
X132697598Y-96747431D01*
X132693877Y-96734625D01*
X132666020Y-96638739D01*
X132666219Y-96568870D01*
X132697413Y-96516465D01*
X133454825Y-95759053D01*
X133516146Y-95725570D01*
X133577097Y-95727659D01*
X133596883Y-95733408D01*
X133714791Y-95767664D01*
X133714794Y-95767664D01*
X133714796Y-95767665D01*
X133750819Y-95770500D01*
X134249180Y-95770499D01*
X134285204Y-95767665D01*
X134439393Y-95722869D01*
X134577598Y-95641135D01*
X134583812Y-95634921D01*
X134606915Y-95611819D01*
X134668238Y-95578334D01*
X134694596Y-95575500D01*
X137305404Y-95575500D01*
X137372443Y-95595185D01*
X137393085Y-95611819D01*
X137422396Y-95641130D01*
X137422400Y-95641133D01*
X137422402Y-95641135D01*
X137560607Y-95722869D01*
X137569904Y-95725570D01*
X137714791Y-95767664D01*
X137714794Y-95767664D01*
X137714796Y-95767665D01*
X137750819Y-95770500D01*
X138249180Y-95770499D01*
X138285204Y-95767665D01*
X138439393Y-95722869D01*
X138577598Y-95641135D01*
X138691135Y-95527598D01*
X138772869Y-95389393D01*
X138813845Y-95248352D01*
X138817664Y-95235208D01*
X138817665Y-95235202D01*
X138818358Y-95226393D01*
X138820500Y-95199181D01*
X138820499Y-94800820D01*
X138817665Y-94764796D01*
X138772869Y-94610607D01*
X138738869Y-94553117D01*
X138721688Y-94485398D01*
X138738869Y-94426882D01*
X138772869Y-94369393D01*
X138786171Y-94323609D01*
X138817664Y-94215208D01*
X138817664Y-94215206D01*
X138817665Y-94215204D01*
X138820500Y-94179181D01*
X138820499Y-93780820D01*
X138817665Y-93744796D01*
X138805461Y-93702789D01*
X138805660Y-93632924D01*
X138843601Y-93574254D01*
X138907239Y-93545410D01*
X138976369Y-93555549D01*
X138989634Y-93562658D01*
X139105875Y-93634356D01*
X139105880Y-93634358D01*
X139272302Y-93689505D01*
X139272309Y-93689506D01*
X139375019Y-93699999D01*
X139649999Y-93699999D01*
X140150000Y-93699999D01*
X140424972Y-93699999D01*
X140424986Y-93699998D01*
X140527697Y-93689505D01*
X140694119Y-93634358D01*
X140694124Y-93634356D01*
X140843345Y-93542315D01*
X140967315Y-93418345D01*
X141059356Y-93269124D01*
X141059358Y-93269119D01*
X141114505Y-93102697D01*
X141114506Y-93102690D01*
X141124999Y-92999986D01*
X141125000Y-92999973D01*
X141125000Y-92950000D01*
X140150000Y-92950000D01*
X140150000Y-93699999D01*
X139649999Y-93699999D01*
X139650000Y-93699998D01*
X139650000Y-92950000D01*
X138675001Y-92950000D01*
X138675001Y-92999986D01*
X138685494Y-93102697D01*
X138704988Y-93161526D01*
X138707390Y-93231355D01*
X138671658Y-93291396D01*
X138609138Y-93322589D01*
X138539678Y-93315028D01*
X138524162Y-93307262D01*
X138439397Y-93257133D01*
X138439388Y-93257129D01*
X138285208Y-93212335D01*
X138285202Y-93212334D01*
X138249188Y-93209500D01*
X138249181Y-93209500D01*
X137999741Y-93209500D01*
X137932702Y-93189815D01*
X137912060Y-93173181D01*
X134186818Y-89447938D01*
X134153333Y-89386615D01*
X134150499Y-89360257D01*
X134150499Y-87977129D01*
X134150498Y-87977123D01*
X134150497Y-87977116D01*
X134144091Y-87917517D01*
X134109451Y-87824643D01*
X134093797Y-87782671D01*
X134093793Y-87782664D01*
X134007547Y-87667455D01*
X134007544Y-87667452D01*
X133892335Y-87581206D01*
X133892328Y-87581202D01*
X133760917Y-87532189D01*
X133704983Y-87490318D01*
X133680566Y-87424853D01*
X133695418Y-87356580D01*
X133716563Y-87328332D01*
X133838495Y-87206401D01*
X133974035Y-87012830D01*
X134073903Y-86798663D01*
X134135063Y-86570408D01*
X134155659Y-86335000D01*
X134135063Y-86099592D01*
X134074994Y-85875408D01*
X134073905Y-85871344D01*
X134073904Y-85871343D01*
X134073903Y-85871337D01*
X133974035Y-85657171D01*
X133948229Y-85620315D01*
X133838494Y-85463597D01*
X133671402Y-85296506D01*
X133671395Y-85296501D01*
X133477834Y-85160967D01*
X133477830Y-85160965D01*
X133435982Y-85141451D01*
X133263663Y-85061097D01*
X133263659Y-85061096D01*
X133263655Y-85061094D01*
X133035413Y-84999938D01*
X133035403Y-84999936D01*
X132800001Y-84979341D01*
X132799999Y-84979341D01*
X132564596Y-84999936D01*
X132564586Y-84999938D01*
X132336344Y-85061094D01*
X132336335Y-85061098D01*
X132122171Y-85160964D01*
X132122169Y-85160965D01*
X131928597Y-85296505D01*
X131761505Y-85463597D01*
X131625965Y-85657169D01*
X131625964Y-85657171D01*
X131526098Y-85871335D01*
X131526094Y-85871344D01*
X131464938Y-86099586D01*
X131464936Y-86099596D01*
X131444341Y-86334999D01*
X131444341Y-86335000D01*
X131464936Y-86570403D01*
X131464938Y-86570413D01*
X131526094Y-86798655D01*
X131526096Y-86798659D01*
X131526097Y-86798663D01*
X131589111Y-86933796D01*
X131625965Y-87012830D01*
X131625967Y-87012834D01*
X131704753Y-87125351D01*
X131761501Y-87206396D01*
X131761506Y-87206402D01*
X131883430Y-87328326D01*
X131916915Y-87389649D01*
X131911931Y-87459341D01*
X131870059Y-87515274D01*
X131839083Y-87532189D01*
X131707669Y-87581203D01*
X131707664Y-87581206D01*
X131592455Y-87667452D01*
X131592452Y-87667455D01*
X131506206Y-87782664D01*
X131506202Y-87782671D01*
X131455908Y-87917517D01*
X131449729Y-87974998D01*
X131449501Y-87977123D01*
X131449500Y-87977135D01*
X131449500Y-89772870D01*
X131449501Y-89772876D01*
X131455908Y-89832483D01*
X131506202Y-89967328D01*
X131506206Y-89967335D01*
X131592452Y-90082544D01*
X131592455Y-90082547D01*
X131707664Y-90168793D01*
X131707671Y-90168797D01*
X131842517Y-90219091D01*
X131842516Y-90219091D01*
X131849444Y-90219835D01*
X131902127Y-90225500D01*
X133285257Y-90225499D01*
X133352296Y-90245184D01*
X133372938Y-90261818D01*
X137143181Y-94032060D01*
X137176666Y-94093383D01*
X137179500Y-94119739D01*
X137179500Y-94179168D01*
X137179501Y-94179192D01*
X137182335Y-94215205D01*
X137197065Y-94265905D01*
X137196866Y-94335774D01*
X137158924Y-94394444D01*
X137095286Y-94423288D01*
X137077989Y-94424500D01*
X134921490Y-94424500D01*
X134854451Y-94404815D01*
X134808696Y-94352011D01*
X134798752Y-94282853D01*
X134802413Y-94265906D01*
X134812844Y-94230000D01*
X134260409Y-94230000D01*
X134250680Y-94229618D01*
X134249186Y-94229500D01*
X133750830Y-94229500D01*
X133750813Y-94229501D01*
X133749692Y-94229589D01*
X133749330Y-94229618D01*
X133739607Y-94230000D01*
X133187156Y-94230000D01*
X133216843Y-94332185D01*
X133216643Y-94402055D01*
X133178700Y-94460725D01*
X133159767Y-94474166D01*
X133046641Y-94539481D01*
X133046632Y-94539487D01*
X131422939Y-96163181D01*
X131361616Y-96196666D01*
X131335258Y-96199500D01*
X130684298Y-96199500D01*
X130647432Y-96202401D01*
X130647426Y-96202402D01*
X130489606Y-96248254D01*
X130489603Y-96248255D01*
X130348137Y-96331917D01*
X130348129Y-96331923D01*
X130231923Y-96448129D01*
X130231917Y-96448137D01*
X130148255Y-96589603D01*
X130148254Y-96589606D01*
X130102402Y-96747426D01*
X130101263Y-96753667D01*
X130098412Y-96753146D01*
X130077788Y-96806789D01*
X130066954Y-96819165D01*
X128029193Y-98856925D01*
X128029194Y-98856926D01*
X127939485Y-98946635D01*
X127863719Y-99077863D01*
X127824500Y-99224234D01*
X127824500Y-106475765D01*
X127863719Y-106622136D01*
X127888646Y-106665310D01*
X127939485Y-106753365D01*
X128546635Y-107360515D01*
X128677865Y-107436281D01*
X128824234Y-107475500D01*
X128975767Y-107475500D01*
X138300000Y-107475500D01*
X138300000Y-109200000D01*
X138622205Y-109200000D01*
X138621323Y-109201134D01*
X138555415Y-109224327D01*
X138548875Y-109224500D01*
X126381480Y-109224500D01*
X126314441Y-109204815D01*
X126293799Y-109188181D01*
X122725819Y-105620201D01*
X122692334Y-105558878D01*
X122689500Y-105532520D01*
X122689500Y-93730000D01*
X133187156Y-93730000D01*
X133750000Y-93730000D01*
X134250000Y-93730000D01*
X134812844Y-93730000D01*
X134772404Y-93590805D01*
X134690738Y-93452714D01*
X134690731Y-93452705D01*
X134577294Y-93339268D01*
X134577285Y-93339261D01*
X134439191Y-93257593D01*
X134439188Y-93257592D01*
X134285130Y-93212834D01*
X134250000Y-93210068D01*
X134250000Y-93730000D01*
X133750000Y-93730000D01*
X133750000Y-93210068D01*
X133749999Y-93210068D01*
X133714869Y-93212834D01*
X133714868Y-93212834D01*
X133560811Y-93257592D01*
X133560808Y-93257593D01*
X133422714Y-93339261D01*
X133422705Y-93339268D01*
X133309268Y-93452705D01*
X133309261Y-93452714D01*
X133227595Y-93590805D01*
X133187156Y-93730000D01*
X122689500Y-93730000D01*
X122689500Y-90818236D01*
X122689500Y-90818234D01*
X122650281Y-90671865D01*
X122574515Y-90540635D01*
X122467365Y-90433485D01*
X120725294Y-88691414D01*
X120691809Y-88630091D01*
X120693199Y-88571644D01*
X120735063Y-88415408D01*
X120755659Y-88180000D01*
X120735063Y-87944592D01*
X120673903Y-87716337D01*
X120574035Y-87502171D01*
X120568425Y-87494158D01*
X120438494Y-87308597D01*
X120271402Y-87141506D01*
X120271401Y-87141505D01*
X120085405Y-87011269D01*
X120041781Y-86956692D01*
X120034588Y-86887193D01*
X120066110Y-86824839D01*
X120085405Y-86808119D01*
X120271082Y-86678105D01*
X120438105Y-86511082D01*
X120573600Y-86317578D01*
X120673429Y-86103492D01*
X120673432Y-86103486D01*
X120730636Y-85890000D01*
X119833012Y-85890000D01*
X119865925Y-85832993D01*
X119900000Y-85705826D01*
X119900000Y-85574174D01*
X119865925Y-85447007D01*
X119833012Y-85390000D01*
X120730636Y-85390000D01*
X120730635Y-85389999D01*
X120673432Y-85176513D01*
X120673429Y-85176507D01*
X120573600Y-84962422D01*
X120573599Y-84962420D01*
X120438113Y-84768926D01*
X120438108Y-84768920D01*
X120271082Y-84601894D01*
X120077578Y-84466399D01*
X119879507Y-84374038D01*
X125399500Y-84374038D01*
X125399500Y-84625962D01*
X125424187Y-84781827D01*
X125438910Y-84874785D01*
X125516760Y-85114383D01*
X125592228Y-85262496D01*
X125628148Y-85332993D01*
X125631132Y-85338848D01*
X125779201Y-85542649D01*
X125779205Y-85542654D01*
X125957345Y-85720794D01*
X125957350Y-85720798D01*
X126019566Y-85766000D01*
X126161155Y-85868870D01*
X126304184Y-85941747D01*
X126385616Y-85983239D01*
X126385618Y-85983239D01*
X126385621Y-85983241D01*
X126625215Y-86061090D01*
X126874038Y-86100500D01*
X126874039Y-86100500D01*
X127125961Y-86100500D01*
X127125962Y-86100500D01*
X127374785Y-86061090D01*
X127614379Y-85983241D01*
X127838845Y-85868870D01*
X128042656Y-85720793D01*
X128220793Y-85542656D01*
X128368870Y-85338845D01*
X128483241Y-85114379D01*
X128561090Y-84874785D01*
X128600500Y-84625962D01*
X128600500Y-84374038D01*
X128561090Y-84125215D01*
X128483241Y-83885621D01*
X128483239Y-83885618D01*
X128483239Y-83885616D01*
X128435202Y-83791340D01*
X128368870Y-83661155D01*
X128314085Y-83585750D01*
X128220798Y-83457350D01*
X128220794Y-83457345D01*
X128042654Y-83279205D01*
X128042649Y-83279201D01*
X127838848Y-83131132D01*
X127838847Y-83131131D01*
X127838845Y-83131130D01*
X127768747Y-83095413D01*
X127614383Y-83016760D01*
X127374785Y-82938910D01*
X127348419Y-82934734D01*
X127125962Y-82899500D01*
X126874038Y-82899500D01*
X126749626Y-82919205D01*
X126625214Y-82938910D01*
X126385616Y-83016760D01*
X126161151Y-83131132D01*
X125957350Y-83279201D01*
X125957345Y-83279205D01*
X125779205Y-83457345D01*
X125779201Y-83457350D01*
X125631132Y-83661151D01*
X125516760Y-83885616D01*
X125438910Y-84125214D01*
X125400758Y-84366094D01*
X125399500Y-84374038D01*
X119879507Y-84374038D01*
X119863492Y-84366570D01*
X119863486Y-84366567D01*
X119650000Y-84309364D01*
X119650000Y-85206988D01*
X119592993Y-85174075D01*
X119465826Y-85140000D01*
X119334174Y-85140000D01*
X119207007Y-85174075D01*
X119150000Y-85206988D01*
X119150000Y-84309364D01*
X119149999Y-84309364D01*
X118936513Y-84366567D01*
X118936507Y-84366570D01*
X118722422Y-84466399D01*
X118722420Y-84466400D01*
X118528926Y-84601886D01*
X118406865Y-84723947D01*
X118345542Y-84757431D01*
X118275850Y-84752447D01*
X118219917Y-84710575D01*
X118203002Y-84679598D01*
X118198351Y-84667129D01*
X118153796Y-84547669D01*
X118153795Y-84547668D01*
X118153793Y-84547664D01*
X118067547Y-84432455D01*
X118067544Y-84432452D01*
X117952335Y-84346206D01*
X117952328Y-84346202D01*
X117817482Y-84295908D01*
X117817483Y-84295908D01*
X117757883Y-84289501D01*
X117757881Y-84289500D01*
X117757873Y-84289500D01*
X117757864Y-84289500D01*
X115962129Y-84289500D01*
X115962123Y-84289501D01*
X115902516Y-84295908D01*
X115767671Y-84346202D01*
X115767664Y-84346206D01*
X115652455Y-84432452D01*
X115652452Y-84432455D01*
X115566206Y-84547664D01*
X115566202Y-84547671D01*
X115515908Y-84682517D01*
X115509501Y-84742116D01*
X115509500Y-84742135D01*
X115509500Y-86537870D01*
X115509501Y-86537876D01*
X115515908Y-86597483D01*
X115566202Y-86732328D01*
X115566206Y-86732335D01*
X115652452Y-86847544D01*
X115652455Y-86847547D01*
X115767664Y-86933793D01*
X115767671Y-86933797D01*
X115899081Y-86982810D01*
X115955015Y-87024681D01*
X115979432Y-87090145D01*
X115964580Y-87158418D01*
X115943430Y-87186673D01*
X115821503Y-87308600D01*
X115685965Y-87502169D01*
X115685964Y-87502171D01*
X115586098Y-87716335D01*
X115586094Y-87716344D01*
X115524938Y-87944586D01*
X115524936Y-87944596D01*
X115504341Y-88179999D01*
X115504341Y-88180000D01*
X115524936Y-88415403D01*
X115524938Y-88415413D01*
X115586094Y-88643655D01*
X115586096Y-88643659D01*
X115586097Y-88643663D01*
X115623785Y-88724485D01*
X115685965Y-88857830D01*
X115685967Y-88857834D01*
X115739649Y-88934499D01*
X115821501Y-89051396D01*
X115821506Y-89051402D01*
X115988597Y-89218493D01*
X115988603Y-89218498D01*
X116174158Y-89348425D01*
X116217783Y-89403002D01*
X116224977Y-89472500D01*
X116193454Y-89534855D01*
X116174158Y-89551575D01*
X115988597Y-89681505D01*
X115821505Y-89848597D01*
X115685965Y-90042169D01*
X115685964Y-90042171D01*
X115586098Y-90256335D01*
X115586094Y-90256344D01*
X115524938Y-90484586D01*
X115524936Y-90484596D01*
X115504341Y-90719999D01*
X115504341Y-90720000D01*
X115524936Y-90955403D01*
X115524938Y-90955413D01*
X115586094Y-91183655D01*
X115586096Y-91183659D01*
X115586097Y-91183663D01*
X115651837Y-91324642D01*
X115685965Y-91397830D01*
X115685967Y-91397834D01*
X115736060Y-91469373D01*
X115821501Y-91591396D01*
X115821506Y-91591402D01*
X115988597Y-91758493D01*
X115988603Y-91758498D01*
X116174158Y-91888425D01*
X116217783Y-91943002D01*
X116224977Y-92012500D01*
X116193454Y-92074855D01*
X116174158Y-92091575D01*
X115988597Y-92221505D01*
X115821505Y-92388597D01*
X115685965Y-92582169D01*
X115685964Y-92582171D01*
X115586098Y-92796335D01*
X115586094Y-92796344D01*
X115524938Y-93024586D01*
X115524936Y-93024596D01*
X115504341Y-93259999D01*
X115504341Y-93260000D01*
X115524936Y-93495403D01*
X115524938Y-93495413D01*
X115586094Y-93723655D01*
X115586096Y-93723659D01*
X115586097Y-93723663D01*
X115645242Y-93850499D01*
X115685965Y-93937830D01*
X115685967Y-93937834D01*
X115787938Y-94083462D01*
X115821501Y-94131396D01*
X115821506Y-94131402D01*
X115988597Y-94298493D01*
X115988603Y-94298498D01*
X116174158Y-94428425D01*
X116217783Y-94483002D01*
X116224977Y-94552500D01*
X116193454Y-94614855D01*
X116174158Y-94631575D01*
X115988597Y-94761505D01*
X115821505Y-94928597D01*
X115685965Y-95122169D01*
X115685964Y-95122171D01*
X115586098Y-95336335D01*
X115586094Y-95336344D01*
X115524938Y-95564586D01*
X115524936Y-95564596D01*
X115504341Y-95799999D01*
X115504341Y-95800000D01*
X115524936Y-96035403D01*
X115524938Y-96035413D01*
X115586094Y-96263655D01*
X115586096Y-96263659D01*
X115586097Y-96263663D01*
X115672474Y-96448899D01*
X115685965Y-96477830D01*
X115685967Y-96477834D01*
X115764229Y-96589603D01*
X115821501Y-96671396D01*
X115821506Y-96671402D01*
X115988597Y-96838493D01*
X115988603Y-96838498D01*
X116174158Y-96968425D01*
X116217783Y-97023002D01*
X116224977Y-97092500D01*
X116193454Y-97154855D01*
X116174158Y-97171575D01*
X115988597Y-97301505D01*
X115821505Y-97468597D01*
X115685965Y-97662169D01*
X115685964Y-97662171D01*
X115586098Y-97876335D01*
X115586094Y-97876344D01*
X115524938Y-98104586D01*
X115524936Y-98104596D01*
X115504341Y-98339999D01*
X115504341Y-98340000D01*
X115524936Y-98575403D01*
X115524938Y-98575413D01*
X115586094Y-98803655D01*
X115586096Y-98803659D01*
X115586097Y-98803663D01*
X115666004Y-98975023D01*
X115685965Y-99017830D01*
X115685967Y-99017834D01*
X115778772Y-99150372D01*
X115821501Y-99211396D01*
X115821506Y-99211402D01*
X115988597Y-99378493D01*
X115988603Y-99378498D01*
X116174158Y-99508425D01*
X116217783Y-99563002D01*
X116224977Y-99632500D01*
X116193454Y-99694855D01*
X116174158Y-99711575D01*
X115988597Y-99841505D01*
X115821505Y-100008597D01*
X115685965Y-100202169D01*
X115685964Y-100202171D01*
X115586098Y-100416335D01*
X115586094Y-100416344D01*
X115524938Y-100644586D01*
X115524936Y-100644596D01*
X115504341Y-100879999D01*
X115504341Y-100880000D01*
X115524936Y-101115403D01*
X115524938Y-101115413D01*
X115586094Y-101343655D01*
X115586096Y-101343659D01*
X115586097Y-101343663D01*
X115656897Y-101495493D01*
X115685965Y-101557830D01*
X115685967Y-101557834D01*
X115779691Y-101691685D01*
X115821501Y-101751396D01*
X115821506Y-101751402D01*
X115988597Y-101918493D01*
X115988603Y-101918498D01*
X116174158Y-102048425D01*
X116217783Y-102103002D01*
X116224977Y-102172500D01*
X116193454Y-102234855D01*
X116174158Y-102251575D01*
X115988597Y-102381505D01*
X115821505Y-102548597D01*
X115685965Y-102742169D01*
X115685964Y-102742171D01*
X115586098Y-102956335D01*
X115586094Y-102956344D01*
X115524938Y-103184586D01*
X115524936Y-103184596D01*
X115504341Y-103419999D01*
X115504341Y-103420000D01*
X115524936Y-103655403D01*
X115524938Y-103655413D01*
X115586094Y-103883655D01*
X115586096Y-103883659D01*
X115586097Y-103883663D01*
X115628038Y-103973605D01*
X115685965Y-104097830D01*
X115685967Y-104097834D01*
X115780373Y-104232658D01*
X115821501Y-104291396D01*
X115821506Y-104291402D01*
X115988597Y-104458493D01*
X115988603Y-104458498D01*
X116174158Y-104588425D01*
X116217783Y-104643002D01*
X116224977Y-104712500D01*
X116193454Y-104774855D01*
X116174158Y-104791575D01*
X115988597Y-104921505D01*
X115821505Y-105088597D01*
X115685965Y-105282169D01*
X115685964Y-105282171D01*
X115586098Y-105496335D01*
X115586094Y-105496344D01*
X115524938Y-105724586D01*
X115524936Y-105724596D01*
X115504341Y-105959999D01*
X115504341Y-105960000D01*
X115524936Y-106195403D01*
X115524938Y-106195413D01*
X115586094Y-106423655D01*
X115586096Y-106423659D01*
X115586097Y-106423663D01*
X115666004Y-106595023D01*
X115685965Y-106637830D01*
X115685967Y-106637834D01*
X115766865Y-106753367D01*
X115821501Y-106831396D01*
X115821506Y-106831402D01*
X115988597Y-106998493D01*
X115988603Y-106998498D01*
X116174158Y-107128425D01*
X116217783Y-107183002D01*
X116224977Y-107252500D01*
X116193454Y-107314855D01*
X116174158Y-107331575D01*
X115988597Y-107461505D01*
X115821505Y-107628597D01*
X115685965Y-107822169D01*
X115685964Y-107822171D01*
X115586098Y-108036335D01*
X115586094Y-108036344D01*
X115524938Y-108264586D01*
X115524936Y-108264596D01*
X115504341Y-108499999D01*
X115504341Y-108500000D01*
X115524936Y-108735403D01*
X115524938Y-108735413D01*
X115586094Y-108963655D01*
X115586096Y-108963659D01*
X115586097Y-108963663D01*
X115666004Y-109135023D01*
X115685965Y-109177830D01*
X115685967Y-109177834D01*
X115785956Y-109320632D01*
X115821501Y-109371396D01*
X115821506Y-109371402D01*
X115988597Y-109538493D01*
X115988603Y-109538498D01*
X116174158Y-109668425D01*
X116217783Y-109723002D01*
X116224977Y-109792500D01*
X116193454Y-109854855D01*
X116174158Y-109871575D01*
X115988597Y-110001505D01*
X115821505Y-110168597D01*
X115685965Y-110362169D01*
X115685964Y-110362171D01*
X115586098Y-110576335D01*
X115586094Y-110576344D01*
X115524938Y-110804586D01*
X115524936Y-110804596D01*
X115504341Y-111039999D01*
X115504341Y-111040000D01*
X115524936Y-111275403D01*
X115524938Y-111275413D01*
X115586094Y-111503655D01*
X115586096Y-111503659D01*
X115586097Y-111503663D01*
X115639617Y-111618436D01*
X115685965Y-111717830D01*
X115685967Y-111717834D01*
X115794281Y-111872521D01*
X115821501Y-111911396D01*
X115821506Y-111911402D01*
X115988597Y-112078493D01*
X115988603Y-112078498D01*
X116174158Y-112208425D01*
X116217783Y-112263002D01*
X116224977Y-112332500D01*
X116193454Y-112394855D01*
X116174158Y-112411575D01*
X115988597Y-112541505D01*
X115821505Y-112708597D01*
X115685965Y-112902169D01*
X115685964Y-112902171D01*
X115586098Y-113116335D01*
X115586094Y-113116344D01*
X115524938Y-113344586D01*
X115524936Y-113344596D01*
X115504341Y-113579999D01*
X115504341Y-113580000D01*
X115524936Y-113815403D01*
X115524938Y-113815413D01*
X115586094Y-114043655D01*
X115586096Y-114043659D01*
X115586097Y-114043663D01*
X115590000Y-114052032D01*
X115685965Y-114257830D01*
X115685967Y-114257834D01*
X115785514Y-114400000D01*
X115821501Y-114451396D01*
X115821506Y-114451402D01*
X115988597Y-114618493D01*
X115988603Y-114618498D01*
X116174158Y-114748425D01*
X116217783Y-114803002D01*
X116224977Y-114872500D01*
X116193454Y-114934855D01*
X116174158Y-114951575D01*
X115988597Y-115081505D01*
X115821505Y-115248597D01*
X115685965Y-115442169D01*
X115685964Y-115442171D01*
X115586098Y-115656335D01*
X115586094Y-115656344D01*
X115524938Y-115884586D01*
X115524936Y-115884596D01*
X115504341Y-116119999D01*
X115504341Y-116120000D01*
X115524936Y-116355403D01*
X115524938Y-116355413D01*
X115586094Y-116583655D01*
X115586096Y-116583659D01*
X115586097Y-116583663D01*
X115590000Y-116592032D01*
X115685965Y-116797830D01*
X115685967Y-116797834D01*
X115762533Y-116907181D01*
X115821501Y-116991396D01*
X115821506Y-116991402D01*
X115988597Y-117158493D01*
X115988603Y-117158498D01*
X116174158Y-117288425D01*
X116217783Y-117343002D01*
X116224977Y-117412500D01*
X116193454Y-117474855D01*
X116174158Y-117491575D01*
X115988597Y-117621505D01*
X115821505Y-117788597D01*
X115685965Y-117982169D01*
X115685964Y-117982171D01*
X115586098Y-118196335D01*
X115586094Y-118196344D01*
X115524938Y-118424586D01*
X115524936Y-118424596D01*
X115504341Y-118659999D01*
X115504341Y-118660000D01*
X115524936Y-118895403D01*
X115524938Y-118895413D01*
X115586094Y-119123655D01*
X115586096Y-119123659D01*
X115586097Y-119123663D01*
X115630638Y-119219181D01*
X115685965Y-119337830D01*
X115685967Y-119337834D01*
X115767205Y-119453853D01*
X115821501Y-119531396D01*
X115821506Y-119531402D01*
X115988597Y-119698493D01*
X115988603Y-119698498D01*
X116174158Y-119828425D01*
X116217783Y-119883002D01*
X116224977Y-119952500D01*
X116193454Y-120014855D01*
X116174158Y-120031575D01*
X115988597Y-120161505D01*
X115821505Y-120328597D01*
X115685965Y-120522169D01*
X115685964Y-120522171D01*
X115592401Y-120722816D01*
X115587164Y-120734050D01*
X115586098Y-120736335D01*
X115586094Y-120736344D01*
X115524938Y-120964586D01*
X115524936Y-120964596D01*
X115504341Y-121199999D01*
X115504341Y-121200000D01*
X115524936Y-121435403D01*
X115524938Y-121435413D01*
X115586094Y-121663655D01*
X115586096Y-121663659D01*
X115586097Y-121663663D01*
X115619214Y-121734682D01*
X115685965Y-121877830D01*
X115685967Y-121877834D01*
X115794281Y-122032521D01*
X115821501Y-122071396D01*
X115821506Y-122071402D01*
X115988597Y-122238493D01*
X115988603Y-122238498D01*
X116174158Y-122368425D01*
X116217783Y-122423002D01*
X116224977Y-122492500D01*
X116193454Y-122554855D01*
X116174158Y-122571575D01*
X115988597Y-122701505D01*
X115821505Y-122868597D01*
X115685965Y-123062169D01*
X115685964Y-123062171D01*
X115586098Y-123276335D01*
X115586094Y-123276344D01*
X115524938Y-123504586D01*
X115524936Y-123504596D01*
X115504341Y-123739999D01*
X115504341Y-123740000D01*
X115524936Y-123975403D01*
X115524938Y-123975413D01*
X115586094Y-124203655D01*
X115586096Y-124203659D01*
X115586097Y-124203663D01*
X115590000Y-124212032D01*
X115685965Y-124417830D01*
X115685967Y-124417834D01*
X115794281Y-124572521D01*
X115821501Y-124611396D01*
X115821506Y-124611402D01*
X115988597Y-124778493D01*
X115988603Y-124778498D01*
X116174158Y-124908425D01*
X116217783Y-124963002D01*
X116224977Y-125032500D01*
X116193454Y-125094855D01*
X116174158Y-125111575D01*
X115988597Y-125241505D01*
X115821505Y-125408597D01*
X115685965Y-125602169D01*
X115685964Y-125602171D01*
X115586098Y-125816335D01*
X115586094Y-125816344D01*
X115524938Y-126044586D01*
X115524936Y-126044596D01*
X115504341Y-126279999D01*
X115504341Y-126280000D01*
X115524936Y-126515403D01*
X115524938Y-126515413D01*
X115586094Y-126743655D01*
X115586096Y-126743659D01*
X115586097Y-126743663D01*
X115666004Y-126915023D01*
X115685965Y-126957830D01*
X115685967Y-126957834D01*
X115784024Y-127097873D01*
X115821501Y-127151396D01*
X115821506Y-127151402D01*
X115988597Y-127318493D01*
X115988603Y-127318498D01*
X116174158Y-127448425D01*
X116217783Y-127503002D01*
X116224977Y-127572500D01*
X116193454Y-127634855D01*
X116174158Y-127651575D01*
X115988597Y-127781505D01*
X115821505Y-127948597D01*
X115685965Y-128142169D01*
X115685964Y-128142171D01*
X115586098Y-128356335D01*
X115586094Y-128356344D01*
X115524938Y-128584586D01*
X115524936Y-128584596D01*
X115504341Y-128819999D01*
X115504341Y-128820000D01*
X115524936Y-129055403D01*
X115524938Y-129055413D01*
X115586094Y-129283655D01*
X115586096Y-129283659D01*
X115586097Y-129283663D01*
X115666004Y-129455023D01*
X115685965Y-129497830D01*
X115685967Y-129497834D01*
X115793617Y-129651573D01*
X115821505Y-129691401D01*
X115988599Y-129858495D01*
X116012922Y-129875526D01*
X116182165Y-129994032D01*
X116182167Y-129994033D01*
X116182170Y-129994035D01*
X116396337Y-130093903D01*
X116624592Y-130155063D01*
X116812918Y-130171539D01*
X116859999Y-130175659D01*
X116860000Y-130175659D01*
X116860001Y-130175659D01*
X116899234Y-130172226D01*
X117095408Y-130155063D01*
X117323663Y-130093903D01*
X117537830Y-129994035D01*
X117731401Y-129858495D01*
X117898495Y-129691401D01*
X118028425Y-129505842D01*
X118083002Y-129462217D01*
X118152500Y-129455023D01*
X118214855Y-129486546D01*
X118231575Y-129505842D01*
X118361500Y-129691395D01*
X118361505Y-129691401D01*
X118528599Y-129858495D01*
X118552922Y-129875526D01*
X118722165Y-129994032D01*
X118722167Y-129994033D01*
X118722170Y-129994035D01*
X118936337Y-130093903D01*
X119164592Y-130155063D01*
X119352918Y-130171539D01*
X119399999Y-130175659D01*
X119400000Y-130175659D01*
X119400001Y-130175659D01*
X119439234Y-130172226D01*
X119635408Y-130155063D01*
X119863663Y-130093903D01*
X120077830Y-129994035D01*
X120271401Y-129858495D01*
X120438495Y-129691401D01*
X120574035Y-129497830D01*
X120673903Y-129283663D01*
X120735063Y-129055408D01*
X120755659Y-128820000D01*
X120735063Y-128584592D01*
X120673903Y-128356337D01*
X120574035Y-128142171D01*
X120568425Y-128134158D01*
X120438494Y-127948597D01*
X120271402Y-127781506D01*
X120271396Y-127781501D01*
X120085842Y-127651575D01*
X120042217Y-127596998D01*
X120035023Y-127527500D01*
X120066546Y-127465145D01*
X120085842Y-127448425D01*
X120225216Y-127350834D01*
X120271401Y-127318495D01*
X120438495Y-127151401D01*
X120574035Y-126957830D01*
X120673903Y-126743663D01*
X120735063Y-126515408D01*
X120747432Y-126374038D01*
X125399500Y-126374038D01*
X125399500Y-126625961D01*
X125438910Y-126874785D01*
X125516760Y-127114383D01*
X125595413Y-127268747D01*
X125620761Y-127318495D01*
X125631132Y-127338848D01*
X125779201Y-127542649D01*
X125779205Y-127542654D01*
X125957345Y-127720794D01*
X125957350Y-127720798D01*
X126040907Y-127781505D01*
X126161155Y-127868870D01*
X126289192Y-127934108D01*
X126385616Y-127983239D01*
X126385618Y-127983239D01*
X126385621Y-127983241D01*
X126625215Y-128061090D01*
X126874038Y-128100500D01*
X126874039Y-128100500D01*
X127125961Y-128100500D01*
X127125962Y-128100500D01*
X127374785Y-128061090D01*
X127614379Y-127983241D01*
X127838845Y-127868870D01*
X128042656Y-127720793D01*
X128220793Y-127542656D01*
X128368870Y-127338845D01*
X128483241Y-127114379D01*
X128561090Y-126874785D01*
X128600500Y-126625962D01*
X128600500Y-126374038D01*
X128561090Y-126125215D01*
X128483241Y-125885621D01*
X128483239Y-125885618D01*
X128483239Y-125885616D01*
X128410326Y-125742517D01*
X128368870Y-125661155D01*
X128326014Y-125602169D01*
X128220798Y-125457350D01*
X128220794Y-125457345D01*
X128042654Y-125279205D01*
X128042649Y-125279201D01*
X127838848Y-125131132D01*
X127838847Y-125131131D01*
X127838845Y-125131130D01*
X127767651Y-125094855D01*
X127614383Y-125016760D01*
X127374785Y-124938910D01*
X127287877Y-124925145D01*
X127125962Y-124899500D01*
X126874038Y-124899500D01*
X126749626Y-124919205D01*
X126625214Y-124938910D01*
X126385616Y-125016760D01*
X126161151Y-125131132D01*
X125957350Y-125279201D01*
X125957345Y-125279205D01*
X125779205Y-125457345D01*
X125779201Y-125457350D01*
X125631132Y-125661151D01*
X125516760Y-125885616D01*
X125438910Y-126125214D01*
X125399500Y-126374038D01*
X120747432Y-126374038D01*
X120755659Y-126280000D01*
X120735063Y-126044592D01*
X120693200Y-125888355D01*
X120694863Y-125818509D01*
X120725292Y-125768586D01*
X128182061Y-118311819D01*
X128243384Y-118278334D01*
X128269742Y-118275500D01*
X136575902Y-118275500D01*
X136642941Y-118295185D01*
X136688696Y-118347989D01*
X136698640Y-118417147D01*
X136669615Y-118480703D01*
X136663596Y-118487167D01*
X136577642Y-118573122D01*
X136537841Y-118612923D01*
X136476518Y-118646407D01*
X136438007Y-118648644D01*
X136400000Y-118644901D01*
X136213668Y-118663252D01*
X136213666Y-118663253D01*
X136034497Y-118717604D01*
X135869376Y-118805862D01*
X135869373Y-118805864D01*
X135724642Y-118924642D01*
X135605864Y-119069373D01*
X135605862Y-119069376D01*
X135517604Y-119234497D01*
X135463253Y-119413666D01*
X135463252Y-119413668D01*
X135444901Y-119600000D01*
X135463252Y-119786331D01*
X135463253Y-119786333D01*
X135517604Y-119965502D01*
X135605862Y-120130623D01*
X135605864Y-120130626D01*
X135724642Y-120275357D01*
X135869373Y-120394135D01*
X135869376Y-120394137D01*
X136034497Y-120482395D01*
X136034499Y-120482396D01*
X136165619Y-120522171D01*
X136213666Y-120536746D01*
X136213668Y-120536747D01*
X136230374Y-120538392D01*
X136400000Y-120555099D01*
X136586331Y-120536747D01*
X136765501Y-120482396D01*
X136930625Y-120394136D01*
X137075357Y-120275357D01*
X137194136Y-120130625D01*
X137282396Y-119965501D01*
X137336747Y-119786331D01*
X137355099Y-119600000D01*
X137351355Y-119561990D01*
X137364373Y-119493347D01*
X137387076Y-119462158D01*
X137412420Y-119436815D01*
X137473745Y-119403333D01*
X137500098Y-119400500D01*
X139313331Y-119400500D01*
X139313347Y-119400501D01*
X139320943Y-119400501D01*
X139340500Y-119400501D01*
X139407539Y-119420186D01*
X139453294Y-119472990D01*
X139464500Y-119524501D01*
X139464500Y-120808333D01*
X139444815Y-120875372D01*
X139428181Y-120896014D01*
X139389887Y-120934307D01*
X139389881Y-120934315D01*
X139307505Y-121073606D01*
X139307504Y-121073609D01*
X139262357Y-121229002D01*
X139262356Y-121229008D01*
X139259500Y-121265302D01*
X139259500Y-121734697D01*
X139262356Y-121770991D01*
X139262357Y-121770997D01*
X139307504Y-121926390D01*
X139307505Y-121926393D01*
X139389881Y-122065684D01*
X139389887Y-122065692D01*
X139428180Y-122103984D01*
X139461666Y-122165307D01*
X139464500Y-122191666D01*
X139464500Y-125414234D01*
X139464500Y-125565766D01*
X139471618Y-125592331D01*
X139503719Y-125712136D01*
X139536310Y-125768584D01*
X139579485Y-125843365D01*
X139579487Y-125843367D01*
X139763181Y-126027061D01*
X139796666Y-126088384D01*
X139799500Y-126114742D01*
X139799500Y-127097870D01*
X139799501Y-127097876D01*
X139805908Y-127157483D01*
X139856202Y-127292328D01*
X139856206Y-127292335D01*
X139942452Y-127407544D01*
X139942455Y-127407547D01*
X140057664Y-127493793D01*
X140057671Y-127493797D01*
X140192517Y-127544091D01*
X140192516Y-127544091D01*
X140199444Y-127544835D01*
X140252127Y-127550500D01*
X141747872Y-127550499D01*
X141807483Y-127544091D01*
X141942331Y-127493796D01*
X142025689Y-127431393D01*
X142091153Y-127406977D01*
X142159426Y-127421828D01*
X142174311Y-127431394D01*
X142257669Y-127493796D01*
X142257671Y-127493797D01*
X142392517Y-127544091D01*
X142392516Y-127544091D01*
X142399444Y-127544835D01*
X142452127Y-127550500D01*
X143947872Y-127550499D01*
X144007483Y-127544091D01*
X144142331Y-127493796D01*
X144257546Y-127407546D01*
X144343796Y-127292331D01*
X144394091Y-127157483D01*
X144400500Y-127097873D01*
X144400499Y-126374038D01*
X157399500Y-126374038D01*
X157399500Y-126625961D01*
X157438910Y-126874785D01*
X157516760Y-127114383D01*
X157595413Y-127268747D01*
X157620761Y-127318495D01*
X157631132Y-127338848D01*
X157779201Y-127542649D01*
X157779205Y-127542654D01*
X157957345Y-127720794D01*
X157957350Y-127720798D01*
X158040907Y-127781505D01*
X158161155Y-127868870D01*
X158289192Y-127934108D01*
X158385616Y-127983239D01*
X158385618Y-127983239D01*
X158385621Y-127983241D01*
X158625215Y-128061090D01*
X158874038Y-128100500D01*
X158874039Y-128100500D01*
X159125961Y-128100500D01*
X159125962Y-128100500D01*
X159374785Y-128061090D01*
X159614379Y-127983241D01*
X159838845Y-127868870D01*
X160042656Y-127720793D01*
X160220793Y-127542656D01*
X160368870Y-127338845D01*
X160483241Y-127114379D01*
X160561090Y-126874785D01*
X160600500Y-126625962D01*
X160600500Y-126374038D01*
X160561090Y-126125215D01*
X160483241Y-125885621D01*
X160483239Y-125885618D01*
X160483239Y-125885616D01*
X160410326Y-125742517D01*
X160368870Y-125661155D01*
X160326014Y-125602169D01*
X160220798Y-125457350D01*
X160220794Y-125457345D01*
X160042654Y-125279205D01*
X160042649Y-125279201D01*
X159838848Y-125131132D01*
X159838847Y-125131131D01*
X159838845Y-125131130D01*
X159767651Y-125094855D01*
X159614383Y-125016760D01*
X159374785Y-124938910D01*
X159287877Y-124925145D01*
X159125962Y-124899500D01*
X158874038Y-124899500D01*
X158749626Y-124919205D01*
X158625214Y-124938910D01*
X158385616Y-125016760D01*
X158161151Y-125131132D01*
X157957350Y-125279201D01*
X157957345Y-125279205D01*
X157779205Y-125457345D01*
X157779201Y-125457350D01*
X157631132Y-125661151D01*
X157516760Y-125885616D01*
X157438910Y-126125214D01*
X157399500Y-126374038D01*
X144400499Y-126374038D01*
X144400499Y-125802128D01*
X144394091Y-125742517D01*
X144357096Y-125643330D01*
X144352113Y-125573642D01*
X144357092Y-125556680D01*
X144394091Y-125457483D01*
X144400500Y-125397873D01*
X144400499Y-124102128D01*
X144394091Y-124042517D01*
X144343796Y-123907669D01*
X144343795Y-123907668D01*
X144343793Y-123907664D01*
X144257547Y-123792455D01*
X144257544Y-123792452D01*
X144142335Y-123706206D01*
X144142328Y-123706202D01*
X144007482Y-123655908D01*
X144007483Y-123655908D01*
X143947883Y-123649501D01*
X143947881Y-123649500D01*
X143947873Y-123649500D01*
X143947865Y-123649500D01*
X143899500Y-123649500D01*
X143832461Y-123629815D01*
X143786706Y-123577011D01*
X143775500Y-123525500D01*
X143775500Y-122569742D01*
X143795185Y-122502703D01*
X143811819Y-122482061D01*
X143947061Y-122346819D01*
X144008384Y-122313334D01*
X144034742Y-122310500D01*
X144184682Y-122310500D01*
X144184690Y-122310500D01*
X144220993Y-122307643D01*
X144220995Y-122307642D01*
X144220997Y-122307642D01*
X144261975Y-122295736D01*
X144376395Y-122262494D01*
X144515687Y-122180117D01*
X144630117Y-122065687D01*
X144712494Y-121926395D01*
X144757643Y-121770993D01*
X144760500Y-121734690D01*
X144760500Y-121265310D01*
X144757643Y-121229007D01*
X144749215Y-121199999D01*
X144712495Y-121073609D01*
X144712494Y-121073606D01*
X144712494Y-121073605D01*
X144630117Y-120934313D01*
X144630114Y-120934310D01*
X144630112Y-120934307D01*
X144515692Y-120819887D01*
X144515684Y-120819881D01*
X144376393Y-120737505D01*
X144376390Y-120737504D01*
X144220997Y-120692357D01*
X144220991Y-120692356D01*
X144184697Y-120689500D01*
X144184690Y-120689500D01*
X144034742Y-120689500D01*
X143967703Y-120669815D01*
X143947061Y-120653181D01*
X142809056Y-119515176D01*
X142775571Y-119453853D01*
X142777661Y-119392900D01*
X142817664Y-119255208D01*
X142817664Y-119255206D01*
X142817665Y-119255204D01*
X142820500Y-119219181D01*
X142820499Y-118820820D01*
X142817665Y-118784796D01*
X142772869Y-118630607D01*
X142738869Y-118573117D01*
X142721688Y-118505398D01*
X142738869Y-118446882D01*
X142772869Y-118389393D01*
X142795407Y-118311819D01*
X142817664Y-118235208D01*
X142817665Y-118235202D01*
X142820499Y-118199188D01*
X142820500Y-118199181D01*
X142820499Y-118044741D01*
X142840183Y-117977702D01*
X142856813Y-117957065D01*
X143260515Y-117553365D01*
X143336281Y-117422135D01*
X143375500Y-117275766D01*
X143375500Y-117124233D01*
X143375500Y-116499278D01*
X143395185Y-116432239D01*
X143447989Y-116386484D01*
X143503192Y-116376200D01*
X143503192Y-116375500D01*
X143677490Y-116375500D01*
X143744529Y-116395185D01*
X143765171Y-116411819D01*
X147506717Y-120153365D01*
X147613867Y-120260515D01*
X147745097Y-120336281D01*
X147891465Y-120375500D01*
X147891466Y-120375500D01*
X159810258Y-120375500D01*
X159877297Y-120395185D01*
X159897939Y-120411819D01*
X164778083Y-125291963D01*
X164811568Y-125353286D01*
X164806584Y-125422978D01*
X164791977Y-125450767D01*
X164685965Y-125602169D01*
X164685964Y-125602171D01*
X164586098Y-125816335D01*
X164586094Y-125816344D01*
X164524938Y-126044586D01*
X164524936Y-126044596D01*
X164504341Y-126279999D01*
X164504341Y-126280000D01*
X164524936Y-126515403D01*
X164524938Y-126515413D01*
X164586094Y-126743655D01*
X164586096Y-126743659D01*
X164586097Y-126743663D01*
X164666004Y-126915023D01*
X164685965Y-126957830D01*
X164685967Y-126957834D01*
X164784024Y-127097873D01*
X164821501Y-127151396D01*
X164821506Y-127151402D01*
X164988597Y-127318493D01*
X164988603Y-127318498D01*
X165174158Y-127448425D01*
X165217783Y-127503002D01*
X165224977Y-127572500D01*
X165193454Y-127634855D01*
X165174158Y-127651575D01*
X164988597Y-127781505D01*
X164821505Y-127948597D01*
X164685965Y-128142169D01*
X164685964Y-128142171D01*
X164586098Y-128356335D01*
X164586094Y-128356344D01*
X164524938Y-128584586D01*
X164524936Y-128584596D01*
X164504341Y-128819999D01*
X164504341Y-128820000D01*
X164524936Y-129055403D01*
X164524938Y-129055413D01*
X164586094Y-129283655D01*
X164586096Y-129283659D01*
X164586097Y-129283663D01*
X164666004Y-129455023D01*
X164685965Y-129497830D01*
X164685967Y-129497834D01*
X164793617Y-129651573D01*
X164821505Y-129691401D01*
X164988599Y-129858495D01*
X165012922Y-129875526D01*
X165182165Y-129994032D01*
X165182167Y-129994033D01*
X165182170Y-129994035D01*
X165396337Y-130093903D01*
X165624592Y-130155063D01*
X165812918Y-130171539D01*
X165859999Y-130175659D01*
X165860000Y-130175659D01*
X165860001Y-130175659D01*
X165899234Y-130172226D01*
X166095408Y-130155063D01*
X166323663Y-130093903D01*
X166537830Y-129994035D01*
X166731401Y-129858495D01*
X166898495Y-129691401D01*
X167028425Y-129505842D01*
X167083002Y-129462217D01*
X167152500Y-129455023D01*
X167214855Y-129486546D01*
X167231575Y-129505842D01*
X167361500Y-129691395D01*
X167361505Y-129691401D01*
X167528599Y-129858495D01*
X167552922Y-129875526D01*
X167722165Y-129994032D01*
X167722167Y-129994033D01*
X167722170Y-129994035D01*
X167936337Y-130093903D01*
X168164592Y-130155063D01*
X168352918Y-130171539D01*
X168399999Y-130175659D01*
X168400000Y-130175659D01*
X168400001Y-130175659D01*
X168439234Y-130172226D01*
X168635408Y-130155063D01*
X168863663Y-130093903D01*
X169077830Y-129994035D01*
X169271401Y-129858495D01*
X169438495Y-129691401D01*
X169574035Y-129497830D01*
X169673903Y-129283663D01*
X169735063Y-129055408D01*
X169755659Y-128820000D01*
X169735063Y-128584592D01*
X169673903Y-128356337D01*
X169574035Y-128142171D01*
X169568425Y-128134158D01*
X169438494Y-127948597D01*
X169271402Y-127781506D01*
X169271396Y-127781501D01*
X169085842Y-127651575D01*
X169042217Y-127596998D01*
X169035023Y-127527500D01*
X169066546Y-127465145D01*
X169085842Y-127448425D01*
X169225216Y-127350834D01*
X169271401Y-127318495D01*
X169438495Y-127151401D01*
X169574035Y-126957830D01*
X169673903Y-126743663D01*
X169735063Y-126515408D01*
X169755659Y-126280000D01*
X169735063Y-126044592D01*
X169673903Y-125816337D01*
X169574035Y-125602171D01*
X169568425Y-125594158D01*
X169438494Y-125408597D01*
X169271402Y-125241506D01*
X169271396Y-125241501D01*
X169085842Y-125111575D01*
X169042217Y-125056998D01*
X169035023Y-124987500D01*
X169066546Y-124925145D01*
X169085842Y-124908425D01*
X169108026Y-124892891D01*
X169271401Y-124778495D01*
X169438495Y-124611401D01*
X169574035Y-124417830D01*
X169673903Y-124203663D01*
X169735063Y-123975408D01*
X169755659Y-123740000D01*
X169735063Y-123504592D01*
X169673903Y-123276337D01*
X169574035Y-123062171D01*
X169568425Y-123054158D01*
X169438494Y-122868597D01*
X169271402Y-122701506D01*
X169271396Y-122701501D01*
X169085842Y-122571575D01*
X169042217Y-122516998D01*
X169035023Y-122447500D01*
X169066546Y-122385145D01*
X169085842Y-122368425D01*
X169168567Y-122310500D01*
X169271401Y-122238495D01*
X169438495Y-122071401D01*
X169574035Y-121877830D01*
X169673903Y-121663663D01*
X169735063Y-121435408D01*
X169755659Y-121200000D01*
X169735063Y-120964592D01*
X169673903Y-120736337D01*
X169574035Y-120522171D01*
X169568425Y-120514158D01*
X169438494Y-120328597D01*
X169271402Y-120161506D01*
X169271396Y-120161501D01*
X169085842Y-120031575D01*
X169042217Y-119976998D01*
X169035023Y-119907500D01*
X169066546Y-119845145D01*
X169085842Y-119828425D01*
X169145958Y-119786331D01*
X169271401Y-119698495D01*
X169438495Y-119531401D01*
X169574035Y-119337830D01*
X169673903Y-119123663D01*
X169735063Y-118895408D01*
X169755659Y-118660000D01*
X169754665Y-118648644D01*
X169737013Y-118446878D01*
X169735063Y-118424592D01*
X169673903Y-118196337D01*
X169574035Y-117982171D01*
X169568425Y-117974158D01*
X169438494Y-117788597D01*
X169271402Y-117621506D01*
X169271396Y-117621501D01*
X169085842Y-117491575D01*
X169042217Y-117436998D01*
X169035023Y-117367500D01*
X169066546Y-117305145D01*
X169085842Y-117288425D01*
X169108026Y-117272891D01*
X169271401Y-117158495D01*
X169438495Y-116991401D01*
X169574035Y-116797830D01*
X169673903Y-116583663D01*
X169735063Y-116355408D01*
X169755659Y-116120000D01*
X169735063Y-115884592D01*
X169673903Y-115656337D01*
X169574035Y-115442171D01*
X169574032Y-115442166D01*
X169438494Y-115248597D01*
X169271402Y-115081506D01*
X169271396Y-115081501D01*
X169085842Y-114951575D01*
X169042217Y-114896998D01*
X169035023Y-114827500D01*
X169066546Y-114765145D01*
X169085842Y-114748425D01*
X169108026Y-114732891D01*
X169271401Y-114618495D01*
X169438495Y-114451401D01*
X169574035Y-114257830D01*
X169673903Y-114043663D01*
X169735063Y-113815408D01*
X169755659Y-113580000D01*
X169735063Y-113344592D01*
X169673903Y-113116337D01*
X169574035Y-112902171D01*
X169568425Y-112894158D01*
X169438494Y-112708597D01*
X169271402Y-112541506D01*
X169271396Y-112541501D01*
X169085842Y-112411575D01*
X169042217Y-112356998D01*
X169035023Y-112287500D01*
X169066546Y-112225145D01*
X169085842Y-112208425D01*
X169230837Y-112106898D01*
X169271401Y-112078495D01*
X169438495Y-111911401D01*
X169574035Y-111717830D01*
X169673903Y-111503663D01*
X169735063Y-111275408D01*
X169755659Y-111040000D01*
X169735063Y-110804592D01*
X169678092Y-110591972D01*
X169673905Y-110576344D01*
X169673904Y-110576343D01*
X169673903Y-110576337D01*
X169574035Y-110362171D01*
X169568425Y-110354158D01*
X169438494Y-110168597D01*
X169271402Y-110001506D01*
X169271396Y-110001501D01*
X169085842Y-109871575D01*
X169042217Y-109816998D01*
X169035023Y-109747500D01*
X169066546Y-109685145D01*
X169085842Y-109668425D01*
X169108026Y-109652891D01*
X169271401Y-109538495D01*
X169438495Y-109371401D01*
X169574035Y-109177830D01*
X169673903Y-108963663D01*
X169735063Y-108735408D01*
X169755659Y-108500000D01*
X169735063Y-108264592D01*
X169673903Y-108036337D01*
X169574035Y-107822171D01*
X169568425Y-107814158D01*
X169438494Y-107628597D01*
X169271402Y-107461506D01*
X169271396Y-107461501D01*
X169085842Y-107331575D01*
X169042217Y-107276998D01*
X169035023Y-107207500D01*
X169066546Y-107145145D01*
X169085842Y-107128425D01*
X169108026Y-107112891D01*
X169271401Y-106998495D01*
X169438495Y-106831401D01*
X169574035Y-106637830D01*
X169673903Y-106423663D01*
X169735063Y-106195408D01*
X169755659Y-105960000D01*
X169735063Y-105724592D01*
X169673903Y-105496337D01*
X169574035Y-105282171D01*
X169568425Y-105274158D01*
X169438494Y-105088597D01*
X169271402Y-104921506D01*
X169271396Y-104921501D01*
X169085842Y-104791575D01*
X169042217Y-104736998D01*
X169035023Y-104667500D01*
X169066546Y-104605145D01*
X169085842Y-104588425D01*
X169181072Y-104521744D01*
X169271401Y-104458495D01*
X169438495Y-104291401D01*
X169574035Y-104097830D01*
X169673903Y-103883663D01*
X169735063Y-103655408D01*
X169755659Y-103420000D01*
X169735063Y-103184592D01*
X169673903Y-102956337D01*
X169574035Y-102742171D01*
X169570868Y-102737647D01*
X169438494Y-102548597D01*
X169271402Y-102381506D01*
X169271396Y-102381501D01*
X169085842Y-102251575D01*
X169042217Y-102196998D01*
X169035023Y-102127500D01*
X169066546Y-102065145D01*
X169085842Y-102048425D01*
X169119806Y-102024643D01*
X169271401Y-101918495D01*
X169438495Y-101751401D01*
X169574035Y-101557830D01*
X169673903Y-101343663D01*
X169735063Y-101115408D01*
X169755659Y-100880000D01*
X169735063Y-100644592D01*
X169673903Y-100416337D01*
X169574035Y-100202171D01*
X169568425Y-100194158D01*
X169438494Y-100008597D01*
X169271402Y-99841506D01*
X169271396Y-99841501D01*
X169085842Y-99711575D01*
X169042217Y-99656998D01*
X169035023Y-99587500D01*
X169066546Y-99525145D01*
X169085842Y-99508425D01*
X169258369Y-99387620D01*
X169271401Y-99378495D01*
X169438495Y-99211401D01*
X169574035Y-99017830D01*
X169673903Y-98803663D01*
X169735063Y-98575408D01*
X169755659Y-98340000D01*
X169735063Y-98104592D01*
X169673903Y-97876337D01*
X169574035Y-97662171D01*
X169568425Y-97654158D01*
X169438494Y-97468597D01*
X169271402Y-97301506D01*
X169271396Y-97301501D01*
X169085842Y-97171575D01*
X169042217Y-97116998D01*
X169035023Y-97047500D01*
X169066546Y-96985145D01*
X169085842Y-96968425D01*
X169165085Y-96912938D01*
X169271401Y-96838495D01*
X169438495Y-96671401D01*
X169574035Y-96477830D01*
X169673903Y-96263663D01*
X169735063Y-96035408D01*
X169755659Y-95800000D01*
X169735063Y-95564592D01*
X169673903Y-95336337D01*
X169574035Y-95122171D01*
X169568425Y-95114158D01*
X169438494Y-94928597D01*
X169271402Y-94761506D01*
X169271396Y-94761501D01*
X169085842Y-94631575D01*
X169042217Y-94576998D01*
X169035023Y-94507500D01*
X169066546Y-94445145D01*
X169085842Y-94428425D01*
X169134372Y-94394444D01*
X169271401Y-94298495D01*
X169438495Y-94131401D01*
X169574035Y-93937830D01*
X169673903Y-93723663D01*
X169735063Y-93495408D01*
X169755659Y-93260000D01*
X169735063Y-93024592D01*
X169678092Y-92811972D01*
X169673905Y-92796344D01*
X169673904Y-92796343D01*
X169673903Y-92796337D01*
X169574035Y-92582171D01*
X169568425Y-92574158D01*
X169438494Y-92388597D01*
X169271402Y-92221506D01*
X169271396Y-92221501D01*
X169085842Y-92091575D01*
X169042217Y-92036998D01*
X169035023Y-91967500D01*
X169066546Y-91905145D01*
X169085842Y-91888425D01*
X169108026Y-91872891D01*
X169271401Y-91758495D01*
X169438495Y-91591401D01*
X169574035Y-91397830D01*
X169673903Y-91183663D01*
X169735063Y-90955408D01*
X169755659Y-90720000D01*
X169735063Y-90484592D01*
X169673903Y-90256337D01*
X169574035Y-90042171D01*
X169568425Y-90034158D01*
X169438494Y-89848597D01*
X169271402Y-89681506D01*
X169271396Y-89681501D01*
X169085842Y-89551575D01*
X169042217Y-89496998D01*
X169035023Y-89427500D01*
X169066546Y-89365145D01*
X169085842Y-89348425D01*
X169155003Y-89299998D01*
X169271401Y-89218495D01*
X169438495Y-89051401D01*
X169574035Y-88857830D01*
X169673903Y-88643663D01*
X169735063Y-88415408D01*
X169755659Y-88180000D01*
X169735063Y-87944592D01*
X169673903Y-87716337D01*
X169574035Y-87502171D01*
X169568425Y-87494158D01*
X169438494Y-87308597D01*
X169271402Y-87141506D01*
X169271396Y-87141501D01*
X169085842Y-87011575D01*
X169042217Y-86956998D01*
X169035023Y-86887500D01*
X169066546Y-86825145D01*
X169085842Y-86808425D01*
X169108026Y-86792891D01*
X169271401Y-86678495D01*
X169438495Y-86511401D01*
X169574035Y-86317830D01*
X169673903Y-86103663D01*
X169735063Y-85875408D01*
X169755659Y-85640000D01*
X169735063Y-85404592D01*
X169673903Y-85176337D01*
X169574035Y-84962171D01*
X169562649Y-84945909D01*
X169438494Y-84768597D01*
X169271402Y-84601506D01*
X169271395Y-84601501D01*
X169077834Y-84465967D01*
X169077830Y-84465965D01*
X169077828Y-84465964D01*
X168863663Y-84366097D01*
X168863659Y-84366096D01*
X168863655Y-84366094D01*
X168635413Y-84304938D01*
X168635403Y-84304936D01*
X168400001Y-84284341D01*
X168399999Y-84284341D01*
X168164596Y-84304936D01*
X168164586Y-84304938D01*
X167936344Y-84366094D01*
X167936335Y-84366098D01*
X167722171Y-84465964D01*
X167722169Y-84465965D01*
X167528600Y-84601503D01*
X167406673Y-84723430D01*
X167345350Y-84756914D01*
X167275658Y-84751930D01*
X167219725Y-84710058D01*
X167202810Y-84679081D01*
X167153797Y-84547671D01*
X167153793Y-84547664D01*
X167067547Y-84432455D01*
X167067544Y-84432452D01*
X166952335Y-84346206D01*
X166952328Y-84346202D01*
X166817482Y-84295908D01*
X166817483Y-84295908D01*
X166757883Y-84289501D01*
X166757881Y-84289500D01*
X166757873Y-84289500D01*
X166757864Y-84289500D01*
X164962129Y-84289500D01*
X164962123Y-84289501D01*
X164902516Y-84295908D01*
X164767671Y-84346202D01*
X164767664Y-84346206D01*
X164652455Y-84432452D01*
X164652452Y-84432455D01*
X164566206Y-84547664D01*
X164566202Y-84547671D01*
X164515908Y-84682517D01*
X164509501Y-84742116D01*
X164509500Y-84742135D01*
X164509500Y-86125257D01*
X164489815Y-86192296D01*
X164473181Y-86212938D01*
X161961635Y-88724485D01*
X161854487Y-88831632D01*
X161854485Y-88831635D01*
X161778719Y-88962863D01*
X161739500Y-89109234D01*
X161739500Y-105695258D01*
X161719815Y-105762297D01*
X161703181Y-105782939D01*
X158297939Y-109188181D01*
X158236616Y-109221666D01*
X158210258Y-109224500D01*
X147451125Y-109224500D01*
X147384086Y-109204815D01*
X147379914Y-109200000D01*
X148400000Y-109200000D01*
X148400000Y-107300000D01*
X145649235Y-107300000D01*
X146832416Y-106116819D01*
X146893739Y-106083334D01*
X146920097Y-106080500D01*
X147034682Y-106080500D01*
X147034690Y-106080500D01*
X147070993Y-106077643D01*
X147070995Y-106077642D01*
X147070997Y-106077642D01*
X147111975Y-106065736D01*
X147226395Y-106032494D01*
X147365687Y-105950117D01*
X147365692Y-105950112D01*
X147378986Y-105936819D01*
X147440309Y-105903334D01*
X147466667Y-105900500D01*
X148633333Y-105900500D01*
X148700372Y-105920185D01*
X148721014Y-105936819D01*
X148734307Y-105950112D01*
X148734311Y-105950115D01*
X148734313Y-105950117D01*
X148873605Y-106032494D01*
X148894567Y-106038584D01*
X149029002Y-106077642D01*
X149029005Y-106077642D01*
X149029007Y-106077643D01*
X149065310Y-106080500D01*
X149065318Y-106080500D01*
X149534682Y-106080500D01*
X149534690Y-106080500D01*
X149570993Y-106077643D01*
X149570995Y-106077642D01*
X149570997Y-106077642D01*
X149611975Y-106065736D01*
X149726395Y-106032494D01*
X149865687Y-105950117D01*
X149865692Y-105950112D01*
X149878986Y-105936819D01*
X149940309Y-105903334D01*
X149966667Y-105900500D01*
X151133333Y-105900500D01*
X151200372Y-105920185D01*
X151221014Y-105936819D01*
X151234307Y-105950112D01*
X151234311Y-105950115D01*
X151234313Y-105950117D01*
X151373605Y-106032494D01*
X151394567Y-106038584D01*
X151529002Y-106077642D01*
X151529005Y-106077642D01*
X151529007Y-106077643D01*
X151565310Y-106080500D01*
X151565318Y-106080500D01*
X152034682Y-106080500D01*
X152034690Y-106080500D01*
X152070993Y-106077643D01*
X152070995Y-106077642D01*
X152070997Y-106077642D01*
X152111975Y-106065736D01*
X152226395Y-106032494D01*
X152365687Y-105950117D01*
X152480117Y-105835687D01*
X152562494Y-105696395D01*
X152607643Y-105540993D01*
X152610500Y-105504690D01*
X152610500Y-105095310D01*
X152608841Y-105074228D01*
X152623206Y-105005851D01*
X152672257Y-104956094D01*
X152732459Y-104940500D01*
X153873334Y-104940500D01*
X153940373Y-104960185D01*
X153961015Y-104976819D01*
X153963181Y-104978985D01*
X153996666Y-105040308D01*
X153999500Y-105066666D01*
X153999500Y-106284128D01*
X153982232Y-106347249D01*
X153907505Y-106473606D01*
X153907504Y-106473609D01*
X153862357Y-106629002D01*
X153862356Y-106629008D01*
X153859500Y-106665302D01*
X153859500Y-107134697D01*
X153862356Y-107170991D01*
X153862357Y-107170997D01*
X153907504Y-107326390D01*
X153907505Y-107326393D01*
X153907506Y-107326395D01*
X153944357Y-107388707D01*
X153989881Y-107465684D01*
X153989887Y-107465692D01*
X154104307Y-107580112D01*
X154104311Y-107580115D01*
X154104313Y-107580117D01*
X154243605Y-107662494D01*
X154284587Y-107674400D01*
X154399002Y-107707642D01*
X154399005Y-107707642D01*
X154399007Y-107707643D01*
X154435310Y-107710500D01*
X154435318Y-107710500D01*
X154844682Y-107710500D01*
X154844690Y-107710500D01*
X154880993Y-107707643D01*
X154880995Y-107707642D01*
X154880997Y-107707642D01*
X154938006Y-107691079D01*
X155036395Y-107662494D01*
X155057369Y-107650089D01*
X155125088Y-107632906D01*
X155183613Y-107650090D01*
X155203803Y-107662031D01*
X155350000Y-107704504D01*
X155350000Y-107704503D01*
X155850000Y-107704503D01*
X155996195Y-107662031D01*
X156135374Y-107579721D01*
X156135383Y-107579714D01*
X156249714Y-107465383D01*
X156249721Y-107465374D01*
X156332031Y-107326195D01*
X156332033Y-107326190D01*
X156377144Y-107170918D01*
X156377145Y-107170912D01*
X156378790Y-107150000D01*
X155850000Y-107150000D01*
X155850000Y-107704503D01*
X155350000Y-107704503D01*
X155350000Y-107398352D01*
X155367267Y-107335233D01*
X155372494Y-107326395D01*
X155386846Y-107276998D01*
X155417642Y-107170997D01*
X155417643Y-107170991D01*
X155420499Y-107134697D01*
X155420500Y-107134690D01*
X155420500Y-106665310D01*
X155417643Y-106629007D01*
X155415646Y-106622135D01*
X155372495Y-106473608D01*
X155372492Y-106473600D01*
X155367266Y-106464763D01*
X155350000Y-106401645D01*
X155350000Y-106095494D01*
X155850000Y-106095494D01*
X155850000Y-106650000D01*
X156378790Y-106650000D01*
X156377145Y-106629089D01*
X156332031Y-106473804D01*
X156249721Y-106334625D01*
X156249714Y-106334616D01*
X156135383Y-106220285D01*
X156135374Y-106220278D01*
X155996193Y-106137967D01*
X155996190Y-106137965D01*
X155850001Y-106095493D01*
X155850000Y-106095494D01*
X155350000Y-106095494D01*
X155346430Y-106092814D01*
X155289224Y-106092650D01*
X155230554Y-106054708D01*
X155201712Y-105991069D01*
X155200500Y-105973774D01*
X155200500Y-105337845D01*
X155220185Y-105270806D01*
X155272989Y-105225051D01*
X155284919Y-105223335D01*
X155310000Y-105204504D01*
X155310000Y-104898352D01*
X155327267Y-104835233D01*
X155332494Y-104826395D01*
X155333015Y-104824604D01*
X155377642Y-104670997D01*
X155377643Y-104670991D01*
X155380500Y-104634690D01*
X155380500Y-104165310D01*
X155377643Y-104129007D01*
X155368927Y-104099008D01*
X155332495Y-103973608D01*
X155332492Y-103973600D01*
X155327266Y-103964763D01*
X155310000Y-103901645D01*
X155310000Y-103595494D01*
X155309998Y-103595493D01*
X155163809Y-103637965D01*
X155163806Y-103637967D01*
X155143608Y-103649912D01*
X155075884Y-103667092D01*
X155017370Y-103649910D01*
X154996397Y-103637507D01*
X154996390Y-103637504D01*
X154840997Y-103592357D01*
X154840991Y-103592356D01*
X154804697Y-103589500D01*
X154804690Y-103589500D01*
X154395310Y-103589500D01*
X154395302Y-103589500D01*
X154359008Y-103592356D01*
X154359002Y-103592357D01*
X154203609Y-103637504D01*
X154203606Y-103637505D01*
X154060341Y-103722232D01*
X153997220Y-103739500D01*
X152524500Y-103739500D01*
X152457461Y-103719815D01*
X152411706Y-103667011D01*
X152400500Y-103615500D01*
X152400500Y-103349059D01*
X152400501Y-103349046D01*
X152400501Y-103180945D01*
X152400501Y-103180943D01*
X152362743Y-103040030D01*
X152364406Y-102970186D01*
X152394837Y-102920259D01*
X152449717Y-102865379D01*
X152449721Y-102865374D01*
X152532031Y-102726195D01*
X152532033Y-102726190D01*
X152577144Y-102570918D01*
X152577145Y-102570912D01*
X152578790Y-102550000D01*
X151990597Y-102550000D01*
X151923558Y-102530315D01*
X151902916Y-102513681D01*
X151889235Y-102500000D01*
X152844901Y-102500000D01*
X152863252Y-102686331D01*
X152863253Y-102686333D01*
X152917604Y-102865502D01*
X153005862Y-103030623D01*
X153005864Y-103030626D01*
X153124642Y-103175357D01*
X153269373Y-103294135D01*
X153269376Y-103294137D01*
X153353422Y-103339060D01*
X153434499Y-103382396D01*
X153613666Y-103436746D01*
X153613668Y-103436747D01*
X153630374Y-103438392D01*
X153800000Y-103455099D01*
X153986331Y-103436747D01*
X154165501Y-103382396D01*
X154330625Y-103294136D01*
X154475357Y-103175357D01*
X154496174Y-103149992D01*
X154499586Y-103145835D01*
X154557332Y-103106501D01*
X154595439Y-103100500D01*
X155850500Y-103100500D01*
X155917539Y-103120185D01*
X155963294Y-103172989D01*
X155974500Y-103224500D01*
X155974500Y-103478132D01*
X155954815Y-103545171D01*
X155902011Y-103590926D01*
X155832853Y-103600870D01*
X155815906Y-103597209D01*
X155810001Y-103595493D01*
X155810000Y-103595494D01*
X155810000Y-105204503D01*
X155956195Y-105162031D01*
X156095374Y-105079721D01*
X156095383Y-105079714D01*
X156209714Y-104965383D01*
X156209721Y-104965374D01*
X156292030Y-104826196D01*
X156337145Y-104670910D01*
X156337145Y-104670907D01*
X156339999Y-104634644D01*
X156339999Y-104534775D01*
X156359683Y-104467736D01*
X156412486Y-104421980D01*
X156481645Y-104412036D01*
X156502999Y-104417067D01*
X156572203Y-104439999D01*
X156674991Y-104450500D01*
X157725008Y-104450499D01*
X157725016Y-104450498D01*
X157725019Y-104450498D01*
X157781302Y-104444748D01*
X157827797Y-104439999D01*
X157994334Y-104384814D01*
X158143656Y-104292712D01*
X158267712Y-104168656D01*
X158359814Y-104019334D01*
X158414999Y-103852797D01*
X158425500Y-103750009D01*
X158425499Y-103149992D01*
X158425074Y-103145835D01*
X158414999Y-103047203D01*
X158414998Y-103047200D01*
X158382115Y-102947967D01*
X158359814Y-102880666D01*
X158267712Y-102731344D01*
X158143656Y-102607288D01*
X158140819Y-102605538D01*
X158139283Y-102603830D01*
X158137989Y-102602807D01*
X158138163Y-102602585D01*
X158094096Y-102553594D01*
X158082872Y-102484632D01*
X158110713Y-102420549D01*
X158140817Y-102394462D01*
X158143656Y-102392712D01*
X158267712Y-102268656D01*
X158359814Y-102119334D01*
X158414999Y-101952797D01*
X158425500Y-101850009D01*
X158425499Y-101249992D01*
X158422475Y-101220393D01*
X158414999Y-101147203D01*
X158414998Y-101147200D01*
X158404463Y-101115408D01*
X158359814Y-100980666D01*
X158267712Y-100831344D01*
X158143656Y-100707288D01*
X158050888Y-100650069D01*
X157994336Y-100615187D01*
X157994331Y-100615185D01*
X157962095Y-100604503D01*
X157827797Y-100560001D01*
X157827795Y-100560000D01*
X157725010Y-100549500D01*
X156674998Y-100549500D01*
X156674980Y-100549501D01*
X156572203Y-100560000D01*
X156572200Y-100560001D01*
X156405668Y-100615185D01*
X156405663Y-100615187D01*
X156256342Y-100707289D01*
X156132289Y-100831342D01*
X156040187Y-100980663D01*
X156040186Y-100980666D01*
X155985001Y-101147203D01*
X155985001Y-101147204D01*
X155985000Y-101147204D01*
X155974500Y-101249983D01*
X155974500Y-101249991D01*
X155974500Y-101546546D01*
X155974501Y-101775500D01*
X155954817Y-101842539D01*
X155902013Y-101888294D01*
X155850501Y-101899500D01*
X154595439Y-101899500D01*
X154528400Y-101879815D01*
X154499586Y-101854165D01*
X154475357Y-101824642D01*
X154330626Y-101705864D01*
X154330623Y-101705862D01*
X154165502Y-101617604D01*
X153986333Y-101563253D01*
X153986331Y-101563252D01*
X153800000Y-101544901D01*
X153613668Y-101563252D01*
X153613666Y-101563253D01*
X153434497Y-101617604D01*
X153269376Y-101705862D01*
X153269373Y-101705864D01*
X153124642Y-101824642D01*
X153005864Y-101969373D01*
X153005862Y-101969376D01*
X152917604Y-102134497D01*
X152863253Y-102313666D01*
X152863252Y-102313668D01*
X152844901Y-102500000D01*
X151889235Y-102500000D01*
X151836319Y-102447084D01*
X151802834Y-102385761D01*
X151800000Y-102359403D01*
X151800000Y-102300000D01*
X151744500Y-102300000D01*
X151677461Y-102280315D01*
X151631706Y-102227511D01*
X151620500Y-102176000D01*
X151620500Y-102065317D01*
X151620499Y-102065302D01*
X151619612Y-102054035D01*
X151617643Y-102029007D01*
X151616375Y-102024643D01*
X151572495Y-101873608D01*
X151572492Y-101873600D01*
X151567266Y-101864763D01*
X151550000Y-101801645D01*
X151550000Y-101495494D01*
X152050000Y-101495494D01*
X152050000Y-102050000D01*
X152578790Y-102050000D01*
X152577145Y-102029089D01*
X152532031Y-101873804D01*
X152449721Y-101734625D01*
X152449714Y-101734616D01*
X152335383Y-101620285D01*
X152335374Y-101620278D01*
X152196193Y-101537967D01*
X152196190Y-101537965D01*
X152050001Y-101495493D01*
X152050000Y-101495494D01*
X151550000Y-101495494D01*
X151530738Y-101481032D01*
X151529219Y-101481028D01*
X151470551Y-101443082D01*
X151441711Y-101379442D01*
X151440500Y-101362153D01*
X151440500Y-100737845D01*
X151460185Y-100670806D01*
X151512989Y-100625051D01*
X151524919Y-100623335D01*
X151550000Y-100604504D01*
X151550000Y-100604503D01*
X152050000Y-100604503D01*
X152196195Y-100562031D01*
X152335374Y-100479721D01*
X152335383Y-100479714D01*
X152449714Y-100365383D01*
X152449721Y-100365374D01*
X152532031Y-100226195D01*
X152532033Y-100226190D01*
X152577144Y-100070918D01*
X152577145Y-100070912D01*
X152578790Y-100050000D01*
X152050000Y-100050000D01*
X152050000Y-100604503D01*
X151550000Y-100604503D01*
X151550000Y-100298352D01*
X151567267Y-100235233D01*
X151572494Y-100226395D01*
X151579533Y-100202169D01*
X151617642Y-100070997D01*
X151617643Y-100070991D01*
X151620499Y-100034697D01*
X151620500Y-100034690D01*
X151620500Y-99565310D01*
X151617643Y-99529007D01*
X151615857Y-99522861D01*
X151572495Y-99373608D01*
X151572492Y-99373600D01*
X151567266Y-99364763D01*
X151550000Y-99301645D01*
X151550000Y-98995494D01*
X152050000Y-98995494D01*
X152050000Y-99550000D01*
X152578790Y-99550000D01*
X152577145Y-99529089D01*
X152532031Y-99373804D01*
X152449721Y-99234625D01*
X152449714Y-99234616D01*
X152423098Y-99208000D01*
X154800000Y-99208000D01*
X154810608Y-99327325D01*
X154810609Y-99327328D01*
X154866557Y-99522861D01*
X154960721Y-99703129D01*
X155089246Y-99860753D01*
X155246870Y-99989278D01*
X155427138Y-100083442D01*
X155622671Y-100139390D01*
X155622674Y-100139391D01*
X155741999Y-100149999D01*
X155742002Y-100150000D01*
X156950000Y-100150000D01*
X157450000Y-100150000D01*
X158657998Y-100150000D01*
X158658000Y-100149999D01*
X158777325Y-100139391D01*
X158777328Y-100139390D01*
X158972861Y-100083442D01*
X159153129Y-99989278D01*
X159310753Y-99860753D01*
X159439278Y-99703129D01*
X159533442Y-99522861D01*
X159589390Y-99327328D01*
X159589391Y-99327325D01*
X159599999Y-99208000D01*
X159600000Y-99207998D01*
X159600000Y-98900000D01*
X157450000Y-98900000D01*
X157450000Y-100150000D01*
X156950000Y-100150000D01*
X156950000Y-98900000D01*
X154800000Y-98900000D01*
X154800000Y-99208000D01*
X152423098Y-99208000D01*
X152335383Y-99120285D01*
X152335374Y-99120278D01*
X152196193Y-99037967D01*
X152196190Y-99037965D01*
X152050001Y-98995493D01*
X152050000Y-98995494D01*
X151550000Y-98995494D01*
X151538587Y-98986926D01*
X151509225Y-98986842D01*
X151450555Y-98948899D01*
X151421712Y-98885261D01*
X151420500Y-98867965D01*
X151420500Y-98232033D01*
X151440185Y-98164994D01*
X151492989Y-98119239D01*
X151539231Y-98112590D01*
X151550000Y-98104504D01*
X151550000Y-98104503D01*
X152050000Y-98104503D01*
X152093041Y-98091999D01*
X154800000Y-98091999D01*
X154800000Y-98400000D01*
X156950000Y-98400000D01*
X157450000Y-98400000D01*
X159600000Y-98400000D01*
X159600000Y-98092002D01*
X159599999Y-98091999D01*
X159589391Y-97972674D01*
X159589390Y-97972671D01*
X159533442Y-97777138D01*
X159439278Y-97596870D01*
X159310753Y-97439246D01*
X159153129Y-97310721D01*
X158972861Y-97216557D01*
X158777328Y-97160609D01*
X158777325Y-97160608D01*
X158658000Y-97150000D01*
X157450000Y-97150000D01*
X157450000Y-98400000D01*
X156950000Y-98400000D01*
X156950000Y-97150000D01*
X155741999Y-97150000D01*
X155622674Y-97160608D01*
X155622671Y-97160609D01*
X155427138Y-97216557D01*
X155246870Y-97310721D01*
X155089246Y-97439246D01*
X154960721Y-97596870D01*
X154866557Y-97777138D01*
X154810609Y-97972671D01*
X154810608Y-97972674D01*
X154800000Y-98091999D01*
X152093041Y-98091999D01*
X152196195Y-98062031D01*
X152335374Y-97979721D01*
X152335383Y-97979714D01*
X152449714Y-97865383D01*
X152449721Y-97865374D01*
X152532031Y-97726195D01*
X152532033Y-97726190D01*
X152577144Y-97570918D01*
X152577145Y-97570912D01*
X152578790Y-97550000D01*
X152050000Y-97550000D01*
X152050000Y-98104503D01*
X151550000Y-98104503D01*
X151550000Y-97798352D01*
X151567267Y-97735233D01*
X151572494Y-97726395D01*
X151574893Y-97718140D01*
X151617642Y-97570997D01*
X151617643Y-97570991D01*
X151619148Y-97551865D01*
X151620500Y-97534690D01*
X151620500Y-97065310D01*
X151617643Y-97029007D01*
X151615898Y-97023002D01*
X151572495Y-96873608D01*
X151572492Y-96873600D01*
X151567266Y-96864763D01*
X151550000Y-96801645D01*
X151550000Y-96495494D01*
X152050000Y-96495494D01*
X152050000Y-97050000D01*
X152578790Y-97050000D01*
X152577145Y-97029089D01*
X152532031Y-96873804D01*
X152449721Y-96734625D01*
X152449714Y-96734616D01*
X152335383Y-96620285D01*
X152335374Y-96620278D01*
X152196193Y-96537967D01*
X152196190Y-96537965D01*
X152050001Y-96495493D01*
X152050000Y-96495494D01*
X151550000Y-96495494D01*
X151538587Y-96486926D01*
X151509225Y-96486842D01*
X151450555Y-96448899D01*
X151421712Y-96385261D01*
X151420500Y-96367965D01*
X151420500Y-95737845D01*
X151440185Y-95670806D01*
X151492989Y-95625051D01*
X151504919Y-95623335D01*
X151530000Y-95604504D01*
X151530000Y-95604503D01*
X152030000Y-95604503D01*
X152176195Y-95562031D01*
X152315374Y-95479721D01*
X152315383Y-95479714D01*
X152429714Y-95365383D01*
X152429721Y-95365374D01*
X152512031Y-95226195D01*
X152512033Y-95226190D01*
X152557144Y-95070918D01*
X152557145Y-95070912D01*
X152558790Y-95050000D01*
X152030000Y-95050000D01*
X152030000Y-95604503D01*
X151530000Y-95604503D01*
X151530000Y-95298352D01*
X151547267Y-95235233D01*
X151552494Y-95226395D01*
X151560399Y-95199188D01*
X151597642Y-95070997D01*
X151597643Y-95070991D01*
X151600499Y-95034697D01*
X151600500Y-95034690D01*
X151600500Y-94565310D01*
X151597643Y-94529007D01*
X151593661Y-94515302D01*
X151552495Y-94373608D01*
X151552492Y-94373600D01*
X151547266Y-94364763D01*
X151530000Y-94301645D01*
X151530000Y-93995494D01*
X152030000Y-93995494D01*
X152030000Y-94550000D01*
X152558790Y-94550000D01*
X152557145Y-94529089D01*
X152512031Y-94373804D01*
X152429721Y-94234625D01*
X152429714Y-94234616D01*
X152315383Y-94120285D01*
X152315374Y-94120278D01*
X152176193Y-94037967D01*
X152176190Y-94037965D01*
X152030001Y-93995493D01*
X152030000Y-93995494D01*
X151530000Y-93995494D01*
X151529998Y-93995493D01*
X151383809Y-94037965D01*
X151383806Y-94037967D01*
X151363608Y-94049912D01*
X151295884Y-94067092D01*
X151237370Y-94049910D01*
X151216397Y-94037507D01*
X151216390Y-94037504D01*
X151060997Y-93992357D01*
X151060991Y-93992356D01*
X151024697Y-93989500D01*
X151024690Y-93989500D01*
X150615310Y-93989500D01*
X150615302Y-93989500D01*
X150579008Y-93992356D01*
X150579002Y-93992357D01*
X150423609Y-94037504D01*
X150423606Y-94037505D01*
X150284315Y-94119881D01*
X150284307Y-94119887D01*
X150169887Y-94234307D01*
X150169881Y-94234315D01*
X150087505Y-94373606D01*
X150087504Y-94373609D01*
X150042357Y-94529002D01*
X150042356Y-94529008D01*
X150039500Y-94565302D01*
X150039500Y-95034697D01*
X150042356Y-95070991D01*
X150042357Y-95070997D01*
X150087504Y-95226390D01*
X150087505Y-95226393D01*
X150087506Y-95226395D01*
X150092716Y-95235204D01*
X150157828Y-95345304D01*
X150169883Y-95365687D01*
X150183180Y-95378984D01*
X150216666Y-95440305D01*
X150219500Y-95466666D01*
X150219500Y-96653675D01*
X150199815Y-96720714D01*
X150193483Y-96729670D01*
X150189885Y-96734308D01*
X150107505Y-96873606D01*
X150107504Y-96873609D01*
X150062357Y-97029002D01*
X150062356Y-97029008D01*
X150059500Y-97065302D01*
X150059500Y-97534697D01*
X150062356Y-97570991D01*
X150062357Y-97570997D01*
X150107504Y-97726390D01*
X150107505Y-97726393D01*
X150189881Y-97865684D01*
X150193480Y-97870324D01*
X150219014Y-97935361D01*
X150219500Y-97946324D01*
X150219500Y-99153675D01*
X150199815Y-99220714D01*
X150193483Y-99229670D01*
X150189885Y-99234308D01*
X150107505Y-99373606D01*
X150107504Y-99373609D01*
X150062357Y-99529002D01*
X150062356Y-99529008D01*
X150059500Y-99565302D01*
X150059500Y-100034697D01*
X150062356Y-100070991D01*
X150062357Y-100070997D01*
X150107504Y-100226390D01*
X150107505Y-100226393D01*
X150107506Y-100226395D01*
X150189883Y-100365687D01*
X150203180Y-100378984D01*
X150236666Y-100440305D01*
X150239500Y-100466666D01*
X150239500Y-101633333D01*
X150219815Y-101700372D01*
X150203181Y-101721014D01*
X150189887Y-101734307D01*
X150189881Y-101734315D01*
X150107505Y-101873606D01*
X150107504Y-101873609D01*
X150062357Y-102029002D01*
X150062356Y-102029008D01*
X150059500Y-102065302D01*
X150059500Y-102534697D01*
X150062356Y-102570991D01*
X150062357Y-102570997D01*
X150107504Y-102726390D01*
X150107505Y-102726393D01*
X150107506Y-102726395D01*
X150116835Y-102742169D01*
X150189881Y-102865684D01*
X150189887Y-102865692D01*
X150304307Y-102980112D01*
X150304311Y-102980115D01*
X150304313Y-102980117D01*
X150443605Y-103062494D01*
X150484587Y-103074400D01*
X150599002Y-103107642D01*
X150599005Y-103107642D01*
X150599007Y-103107643D01*
X150635310Y-103110500D01*
X150749903Y-103110500D01*
X150816942Y-103130185D01*
X150837584Y-103146819D01*
X151163181Y-103472416D01*
X151196666Y-103533739D01*
X151199500Y-103560097D01*
X151199500Y-103615500D01*
X151179815Y-103682539D01*
X151127011Y-103728294D01*
X151075500Y-103739500D01*
X149966667Y-103739500D01*
X149899628Y-103719815D01*
X149878986Y-103703181D01*
X149865692Y-103689887D01*
X149865684Y-103689881D01*
X149739912Y-103615500D01*
X149726395Y-103607506D01*
X149726394Y-103607505D01*
X149726393Y-103607505D01*
X149726390Y-103607504D01*
X149570997Y-103562357D01*
X149570991Y-103562356D01*
X149534697Y-103559500D01*
X149534690Y-103559500D01*
X149065310Y-103559500D01*
X149065302Y-103559500D01*
X149029008Y-103562356D01*
X149029002Y-103562357D01*
X148873609Y-103607504D01*
X148873606Y-103607505D01*
X148734315Y-103689881D01*
X148734307Y-103689887D01*
X148721014Y-103703181D01*
X148659691Y-103736666D01*
X148633333Y-103739500D01*
X147466666Y-103739500D01*
X147399627Y-103719815D01*
X147378985Y-103703181D01*
X147376819Y-103701015D01*
X147343334Y-103639692D01*
X147340500Y-103613334D01*
X147340500Y-100687845D01*
X147360185Y-100620806D01*
X147412989Y-100575051D01*
X147424919Y-100573335D01*
X147450000Y-100554504D01*
X147450000Y-100554503D01*
X147950000Y-100554503D01*
X148096195Y-100512031D01*
X148235374Y-100429721D01*
X148235383Y-100429714D01*
X148349714Y-100315383D01*
X148349721Y-100315374D01*
X148432031Y-100176195D01*
X148432033Y-100176190D01*
X148477144Y-100020918D01*
X148477145Y-100020912D01*
X148478790Y-100000000D01*
X147950000Y-100000000D01*
X147950000Y-100554503D01*
X147450000Y-100554503D01*
X147450000Y-100248352D01*
X147467267Y-100185233D01*
X147472494Y-100176395D01*
X147472900Y-100175000D01*
X147517642Y-100020997D01*
X147517643Y-100020991D01*
X147518618Y-100008599D01*
X147520500Y-99984690D01*
X147520500Y-99515310D01*
X147517643Y-99479007D01*
X147491092Y-99387620D01*
X147472495Y-99323608D01*
X147472492Y-99323600D01*
X147467266Y-99314763D01*
X147450000Y-99251645D01*
X147450000Y-98945494D01*
X147950000Y-98945494D01*
X147950000Y-99500000D01*
X148478790Y-99500000D01*
X148477145Y-99479089D01*
X148432031Y-99323804D01*
X148349721Y-99184625D01*
X148349714Y-99184616D01*
X148235383Y-99070285D01*
X148235374Y-99070278D01*
X148096193Y-98987967D01*
X148096190Y-98987965D01*
X147950001Y-98945493D01*
X147950000Y-98945494D01*
X147450000Y-98945494D01*
X147430738Y-98931032D01*
X147429219Y-98931028D01*
X147370551Y-98893082D01*
X147341711Y-98829442D01*
X147340500Y-98812153D01*
X147340500Y-98187845D01*
X147360185Y-98120806D01*
X147412989Y-98075051D01*
X147424919Y-98073335D01*
X147450000Y-98054504D01*
X147450000Y-98054503D01*
X147950000Y-98054503D01*
X148096195Y-98012031D01*
X148235374Y-97929721D01*
X148235383Y-97929714D01*
X148349714Y-97815383D01*
X148349721Y-97815374D01*
X148432031Y-97676195D01*
X148432033Y-97676190D01*
X148477144Y-97520918D01*
X148477145Y-97520912D01*
X148478790Y-97500000D01*
X147950000Y-97500000D01*
X147950000Y-98054503D01*
X147450000Y-98054503D01*
X147450000Y-97748352D01*
X147467267Y-97685233D01*
X147472494Y-97676395D01*
X147473349Y-97673454D01*
X147517642Y-97520997D01*
X147517643Y-97520991D01*
X147520499Y-97484697D01*
X147520500Y-97484690D01*
X147520500Y-97015310D01*
X147517643Y-96979007D01*
X147516198Y-96974035D01*
X147472495Y-96823608D01*
X147472492Y-96823600D01*
X147467266Y-96814763D01*
X147450000Y-96751645D01*
X147450000Y-96445494D01*
X147950000Y-96445494D01*
X147950000Y-97000000D01*
X148478790Y-97000000D01*
X148477145Y-96979089D01*
X148432031Y-96823804D01*
X148349721Y-96684625D01*
X148349714Y-96684616D01*
X148235383Y-96570285D01*
X148235374Y-96570278D01*
X148096193Y-96487967D01*
X148096190Y-96487965D01*
X147950001Y-96445493D01*
X147950000Y-96445494D01*
X147450000Y-96445494D01*
X147430738Y-96431032D01*
X147429219Y-96431028D01*
X147370551Y-96393082D01*
X147341711Y-96329442D01*
X147340500Y-96312153D01*
X147340500Y-95683662D01*
X147360185Y-95616623D01*
X147390048Y-95584501D01*
X147430000Y-95554504D01*
X147430000Y-95554503D01*
X147930000Y-95554503D01*
X148076195Y-95512031D01*
X148215374Y-95429721D01*
X148215383Y-95429714D01*
X148329714Y-95315383D01*
X148329721Y-95315374D01*
X148412031Y-95176195D01*
X148412033Y-95176190D01*
X148457144Y-95020918D01*
X148457145Y-95020912D01*
X148458790Y-95000000D01*
X147930000Y-95000000D01*
X147930000Y-95554503D01*
X147430000Y-95554503D01*
X147430000Y-95248352D01*
X147447267Y-95185233D01*
X147452494Y-95176395D01*
X147455812Y-95164977D01*
X147497642Y-95020997D01*
X147497643Y-95020991D01*
X147500499Y-94984697D01*
X147500500Y-94984690D01*
X147500500Y-94515310D01*
X147497643Y-94479007D01*
X147495264Y-94470820D01*
X147452495Y-94323608D01*
X147452492Y-94323600D01*
X147447266Y-94314763D01*
X147430000Y-94251645D01*
X147430000Y-93945494D01*
X147930000Y-93945494D01*
X147930000Y-94500000D01*
X148458790Y-94500000D01*
X148457145Y-94479089D01*
X148412031Y-94323804D01*
X148329721Y-94184625D01*
X148329714Y-94184616D01*
X148215383Y-94070285D01*
X148215374Y-94070278D01*
X148076193Y-93987967D01*
X148076190Y-93987965D01*
X147930001Y-93945493D01*
X147930000Y-93945494D01*
X147430000Y-93945494D01*
X147420547Y-93938397D01*
X147384226Y-93938294D01*
X147325556Y-93900352D01*
X147296712Y-93836714D01*
X147295500Y-93819417D01*
X147295500Y-92799541D01*
X147315185Y-92732502D01*
X147340834Y-92703689D01*
X147375357Y-92675357D01*
X147494136Y-92530625D01*
X147582396Y-92365501D01*
X147636747Y-92186331D01*
X147655099Y-92000000D01*
X147636747Y-91813669D01*
X147582396Y-91634499D01*
X147582395Y-91634497D01*
X147494137Y-91469376D01*
X147494135Y-91469373D01*
X147375357Y-91324642D01*
X147230626Y-91205864D01*
X147230623Y-91205862D01*
X147065502Y-91117604D01*
X146886333Y-91063253D01*
X146886331Y-91063252D01*
X146700000Y-91044901D01*
X146513668Y-91063252D01*
X146513666Y-91063253D01*
X146334497Y-91117604D01*
X146169376Y-91205862D01*
X146169373Y-91205864D01*
X146024642Y-91324642D01*
X145905864Y-91469373D01*
X145905862Y-91469376D01*
X145817604Y-91634497D01*
X145763253Y-91813666D01*
X145763252Y-91813668D01*
X145744901Y-92000000D01*
X145763252Y-92186331D01*
X145763253Y-92186333D01*
X145817604Y-92365502D01*
X145905862Y-92530623D01*
X145905864Y-92530626D01*
X145977393Y-92617783D01*
X146024643Y-92675357D01*
X146099165Y-92736515D01*
X146138499Y-92794259D01*
X146144500Y-92832368D01*
X146144500Y-94058333D01*
X146124815Y-94125372D01*
X146108181Y-94146014D01*
X146069887Y-94184307D01*
X146069881Y-94184315D01*
X145987505Y-94323606D01*
X145987504Y-94323609D01*
X145942357Y-94479002D01*
X145942356Y-94479008D01*
X145939500Y-94515302D01*
X145939500Y-94984697D01*
X145942356Y-95020991D01*
X145942357Y-95020997D01*
X145987504Y-95176390D01*
X145987505Y-95176393D01*
X146069881Y-95315684D01*
X146069887Y-95315692D01*
X146103180Y-95348984D01*
X146136666Y-95410306D01*
X146139500Y-95436666D01*
X146139500Y-96583333D01*
X146119815Y-96650372D01*
X146103181Y-96671014D01*
X146089887Y-96684307D01*
X146089881Y-96684315D01*
X146007505Y-96823606D01*
X146007504Y-96823609D01*
X145962357Y-96979002D01*
X145962356Y-96979008D01*
X145959500Y-97015302D01*
X145959500Y-97484697D01*
X145962356Y-97520991D01*
X145962357Y-97520997D01*
X146007504Y-97676390D01*
X146007505Y-97676393D01*
X146007506Y-97676395D01*
X146089883Y-97815687D01*
X146103180Y-97828984D01*
X146136666Y-97890305D01*
X146139500Y-97916666D01*
X146139500Y-99083333D01*
X146119815Y-99150372D01*
X146103181Y-99171014D01*
X146089887Y-99184307D01*
X146089881Y-99184315D01*
X146007505Y-99323606D01*
X146007504Y-99323609D01*
X145962357Y-99479002D01*
X145962356Y-99479008D01*
X145959500Y-99515302D01*
X145959500Y-99984697D01*
X145962356Y-100020991D01*
X145962357Y-100020997D01*
X146007504Y-100176390D01*
X146007505Y-100176393D01*
X146007506Y-100176395D01*
X146089883Y-100315687D01*
X146103180Y-100328984D01*
X146136666Y-100390305D01*
X146139500Y-100416666D01*
X146139500Y-103737219D01*
X146122232Y-103800340D01*
X146037505Y-103943606D01*
X146037504Y-103943609D01*
X145992357Y-104099002D01*
X145992356Y-104099008D01*
X145989500Y-104135302D01*
X145989500Y-104544697D01*
X145992356Y-104580991D01*
X145992357Y-104580997D01*
X146037504Y-104736391D01*
X146037506Y-104736397D01*
X146049620Y-104756880D01*
X146066801Y-104824604D01*
X146049620Y-104883120D01*
X146037506Y-104903602D01*
X146037504Y-104903608D01*
X145992357Y-105059002D01*
X145992356Y-105059008D01*
X145989500Y-105095302D01*
X145989500Y-105209903D01*
X145969815Y-105276942D01*
X145953181Y-105297584D01*
X145212181Y-106038584D01*
X145150858Y-106072069D01*
X145081166Y-106067085D01*
X145025233Y-106025213D01*
X145000816Y-105959749D01*
X145000500Y-105950903D01*
X145000500Y-105320943D01*
X144999653Y-105317783D01*
X144994754Y-105299500D01*
X144974587Y-105224234D01*
X144959577Y-105168216D01*
X144956006Y-105162031D01*
X144880524Y-105031290D01*
X144880518Y-105031282D01*
X144856818Y-105007582D01*
X144823333Y-104946259D01*
X144820499Y-104919901D01*
X144820499Y-104800831D01*
X144820498Y-104800806D01*
X144817665Y-104764799D01*
X144817665Y-104764796D01*
X144772869Y-104610607D01*
X144760366Y-104589467D01*
X144743183Y-104521744D01*
X144763995Y-104457456D01*
X144798013Y-104406547D01*
X144865894Y-104242666D01*
X144867884Y-104232666D01*
X144893110Y-104105842D01*
X144900500Y-104068691D01*
X144900500Y-90829500D01*
X144920185Y-90762461D01*
X144972989Y-90716706D01*
X145024500Y-90705500D01*
X152570500Y-90705500D01*
X152637539Y-90725185D01*
X152683294Y-90777989D01*
X152694500Y-90829500D01*
X152694500Y-93976000D01*
X152694501Y-93976009D01*
X152706052Y-94083450D01*
X152706054Y-94083462D01*
X152717260Y-94134972D01*
X152751383Y-94237497D01*
X152751386Y-94237503D01*
X152829171Y-94358537D01*
X152829179Y-94358548D01*
X152874923Y-94411340D01*
X152874926Y-94411343D01*
X152874930Y-94411347D01*
X152983664Y-94505567D01*
X152983667Y-94505568D01*
X152983668Y-94505569D01*
X153114479Y-94565310D01*
X153114541Y-94565338D01*
X153181580Y-94585023D01*
X153181584Y-94585024D01*
X153324000Y-94605500D01*
X153324003Y-94605500D01*
X155075990Y-94605500D01*
X155076000Y-94605500D01*
X155183456Y-94593947D01*
X155234967Y-94582741D01*
X155269197Y-94571347D01*
X155337497Y-94548616D01*
X155337501Y-94548613D01*
X155337504Y-94548613D01*
X155458543Y-94470825D01*
X155511347Y-94425070D01*
X155605567Y-94316336D01*
X155665338Y-94185459D01*
X155685023Y-94118420D01*
X155685024Y-94118416D01*
X155705500Y-93976000D01*
X155705500Y-93951362D01*
X155705185Y-93945494D01*
X155702602Y-93897311D01*
X155702602Y-93897310D01*
X155699770Y-93870977D01*
X155699768Y-93870956D01*
X155694848Y-93840596D01*
X155703555Y-93771271D01*
X155744697Y-93722040D01*
X155744056Y-93721242D01*
X155748043Y-93718036D01*
X155748360Y-93717658D01*
X155749189Y-93717115D01*
X155749292Y-93717031D01*
X155749296Y-93717030D01*
X155897722Y-93597722D01*
X155953675Y-93528112D01*
X156011015Y-93488196D01*
X156080837Y-93485616D01*
X156140970Y-93521194D01*
X156146967Y-93528115D01*
X156202632Y-93597366D01*
X156202633Y-93597367D01*
X156350974Y-93716607D01*
X156350977Y-93716609D01*
X156521476Y-93801168D01*
X156706175Y-93847102D01*
X156748903Y-93850000D01*
X156950000Y-93850000D01*
X156950000Y-90850000D01*
X156748903Y-90850000D01*
X156706175Y-90852897D01*
X156521476Y-90898831D01*
X156350977Y-90983390D01*
X156350974Y-90983392D01*
X156202635Y-91102631D01*
X156146967Y-91171885D01*
X156089624Y-91211803D01*
X156019801Y-91214383D01*
X155959669Y-91178804D01*
X155953673Y-91171884D01*
X155897722Y-91102278D01*
X155897721Y-91102277D01*
X155749295Y-90982969D01*
X155745657Y-90980644D01*
X155699772Y-90927953D01*
X155689658Y-90858821D01*
X155698848Y-90794902D01*
X155727872Y-90731349D01*
X155786650Y-90693575D01*
X155795219Y-90691387D01*
X155834967Y-90682741D01*
X155867650Y-90671863D01*
X155937497Y-90648616D01*
X155937501Y-90648613D01*
X155937504Y-90648613D01*
X156058543Y-90570825D01*
X156111347Y-90525070D01*
X156205567Y-90416336D01*
X156265338Y-90285459D01*
X156285023Y-90218420D01*
X156285024Y-90218416D01*
X156305500Y-90076000D01*
X156305500Y-89842944D01*
X156325185Y-89775905D01*
X156377989Y-89730150D01*
X156442102Y-89719586D01*
X156499991Y-89725500D01*
X157100008Y-89725499D01*
X157110574Y-89724419D01*
X157179266Y-89737186D01*
X157210860Y-89760096D01*
X157231284Y-89780520D01*
X157318069Y-89830625D01*
X157318070Y-89830626D01*
X157368209Y-89859574D01*
X157368210Y-89859575D01*
X157368212Y-89859575D01*
X157368215Y-89859577D01*
X157520943Y-89900501D01*
X157520946Y-89900501D01*
X157686653Y-89900501D01*
X157686669Y-89900500D01*
X158104561Y-89900500D01*
X158171600Y-89920185D01*
X158200414Y-89945835D01*
X158224642Y-89975357D01*
X158369373Y-90094135D01*
X158369376Y-90094137D01*
X158509049Y-90168793D01*
X158534499Y-90182396D01*
X158713669Y-90236747D01*
X158787654Y-90244033D01*
X158852440Y-90270193D01*
X158892800Y-90327227D01*
X158899500Y-90367436D01*
X158899500Y-90783084D01*
X158879815Y-90850123D01*
X158827011Y-90895878D01*
X158822887Y-90897574D01*
X158650707Y-90982967D01*
X158650704Y-90982969D01*
X158505092Y-91100016D01*
X158502278Y-91102278D01*
X158489959Y-91117604D01*
X158446326Y-91171885D01*
X158388982Y-91211803D01*
X158319160Y-91214383D01*
X158259027Y-91178804D01*
X158253031Y-91171884D01*
X158197364Y-91102630D01*
X158049025Y-90983392D01*
X158049022Y-90983390D01*
X157878523Y-90898831D01*
X157693824Y-90852897D01*
X157651097Y-90850000D01*
X157450000Y-90850000D01*
X157450000Y-93850000D01*
X157651097Y-93850000D01*
X157693824Y-93847102D01*
X157878523Y-93801168D01*
X158049022Y-93716609D01*
X158049025Y-93716607D01*
X158197366Y-93597367D01*
X158197367Y-93597366D01*
X158253033Y-93528115D01*
X158310376Y-93488196D01*
X158380198Y-93485616D01*
X158440331Y-93521194D01*
X158446305Y-93528089D01*
X158502278Y-93597722D01*
X158502280Y-93597724D01*
X158650704Y-93717030D01*
X158650707Y-93717032D01*
X158821302Y-93801639D01*
X158821303Y-93801639D01*
X158821307Y-93801641D01*
X159006111Y-93847600D01*
X159048877Y-93850500D01*
X159951122Y-93850499D01*
X159993889Y-93847600D01*
X160178693Y-93801641D01*
X160349296Y-93717030D01*
X160497722Y-93597722D01*
X160617030Y-93449296D01*
X160701641Y-93278693D01*
X160747600Y-93093889D01*
X160750500Y-93051123D01*
X160750499Y-91648878D01*
X160747600Y-91606111D01*
X160701641Y-91421307D01*
X160675865Y-91369334D01*
X160617032Y-91250707D01*
X160617030Y-91250704D01*
X160497722Y-91102278D01*
X160497721Y-91102277D01*
X160349295Y-90982969D01*
X160349292Y-90982967D01*
X160172671Y-90895372D01*
X160173617Y-90893464D01*
X160125590Y-90857869D01*
X160100860Y-90792522D01*
X160100500Y-90783084D01*
X160100500Y-89820946D01*
X160100499Y-89820939D01*
X160089669Y-89780520D01*
X160059577Y-89668215D01*
X160011743Y-89585365D01*
X159980520Y-89531284D01*
X159887076Y-89437840D01*
X159853592Y-89376516D01*
X159851355Y-89338009D01*
X159855099Y-89300000D01*
X159836747Y-89113669D01*
X159782396Y-88934499D01*
X159752536Y-88878635D01*
X159694137Y-88769376D01*
X159694135Y-88769373D01*
X159575357Y-88624642D01*
X159430626Y-88505864D01*
X159430623Y-88505862D01*
X159265502Y-88417604D01*
X159086333Y-88363253D01*
X159086331Y-88363252D01*
X158900000Y-88344901D01*
X158713668Y-88363252D01*
X158713666Y-88363253D01*
X158534497Y-88417604D01*
X158369376Y-88505862D01*
X158369373Y-88505864D01*
X158224642Y-88624642D01*
X158200414Y-88654165D01*
X158142668Y-88693499D01*
X158104561Y-88699500D01*
X157924499Y-88699500D01*
X157857460Y-88679815D01*
X157811705Y-88627011D01*
X157800499Y-88575500D01*
X157800499Y-87974998D01*
X157800498Y-87974981D01*
X157789999Y-87872203D01*
X157789998Y-87872200D01*
X157760330Y-87782669D01*
X157734814Y-87705666D01*
X157642712Y-87556344D01*
X157518656Y-87432288D01*
X157369334Y-87340186D01*
X157202797Y-87285001D01*
X157202795Y-87285000D01*
X157100010Y-87274500D01*
X156499998Y-87274500D01*
X156499978Y-87274502D01*
X156442100Y-87280414D01*
X156373408Y-87267644D01*
X156322524Y-87219763D01*
X156305500Y-87157056D01*
X156305500Y-85524010D01*
X156305500Y-85524000D01*
X156293947Y-85416544D01*
X156282741Y-85365033D01*
X156259933Y-85296506D01*
X156248616Y-85262502D01*
X156248613Y-85262496D01*
X156193354Y-85176513D01*
X156170825Y-85141457D01*
X156169563Y-85140000D01*
X156125076Y-85088659D01*
X156125072Y-85088656D01*
X156125070Y-85088653D01*
X156016336Y-84994433D01*
X156016333Y-84994431D01*
X156016331Y-84994430D01*
X155885465Y-84934664D01*
X155885460Y-84934662D01*
X155885459Y-84934662D01*
X155818420Y-84914977D01*
X155818422Y-84914977D01*
X155818417Y-84914976D01*
X155749844Y-84905117D01*
X155676000Y-84894500D01*
X147624000Y-84894500D01*
X147525252Y-84905116D01*
X147456494Y-84892711D01*
X147405357Y-84845100D01*
X147387999Y-84781827D01*
X147387999Y-84667129D01*
X147387998Y-84667123D01*
X147387997Y-84667116D01*
X147381591Y-84607517D01*
X147379347Y-84601501D01*
X147331297Y-84472671D01*
X147331293Y-84472664D01*
X147257461Y-84374038D01*
X157399500Y-84374038D01*
X157399500Y-84625962D01*
X157424187Y-84781827D01*
X157438910Y-84874785D01*
X157516760Y-85114383D01*
X157592228Y-85262496D01*
X157628148Y-85332993D01*
X157631132Y-85338848D01*
X157779201Y-85542649D01*
X157779205Y-85542654D01*
X157957345Y-85720794D01*
X157957350Y-85720798D01*
X158019566Y-85766000D01*
X158161155Y-85868870D01*
X158304184Y-85941747D01*
X158385616Y-85983239D01*
X158385618Y-85983239D01*
X158385621Y-85983241D01*
X158625215Y-86061090D01*
X158874038Y-86100500D01*
X158874039Y-86100500D01*
X159125961Y-86100500D01*
X159125962Y-86100500D01*
X159374785Y-86061090D01*
X159614379Y-85983241D01*
X159838845Y-85868870D01*
X160042656Y-85720793D01*
X160220793Y-85542656D01*
X160368870Y-85338845D01*
X160483241Y-85114379D01*
X160561090Y-84874785D01*
X160600500Y-84625962D01*
X160600500Y-84374038D01*
X160561090Y-84125215D01*
X160483241Y-83885621D01*
X160483239Y-83885618D01*
X160483239Y-83885616D01*
X160435202Y-83791340D01*
X160368870Y-83661155D01*
X160314085Y-83585750D01*
X160220798Y-83457350D01*
X160220794Y-83457345D01*
X160042654Y-83279205D01*
X160042649Y-83279201D01*
X159838848Y-83131132D01*
X159838847Y-83131131D01*
X159838845Y-83131130D01*
X159768747Y-83095413D01*
X159614383Y-83016760D01*
X159374785Y-82938910D01*
X159348419Y-82934734D01*
X159125962Y-82899500D01*
X158874038Y-82899500D01*
X158749626Y-82919205D01*
X158625214Y-82938910D01*
X158385616Y-83016760D01*
X158161151Y-83131132D01*
X157957350Y-83279201D01*
X157957345Y-83279205D01*
X157779205Y-83457345D01*
X157779201Y-83457350D01*
X157631132Y-83661151D01*
X157516760Y-83885616D01*
X157438910Y-84125214D01*
X157400758Y-84366094D01*
X157399500Y-84374038D01*
X147257461Y-84374038D01*
X147245047Y-84357455D01*
X147245044Y-84357452D01*
X147129835Y-84271206D01*
X147129828Y-84271202D01*
X147011166Y-84226944D01*
X146955232Y-84185073D01*
X146930815Y-84119608D01*
X146930499Y-84110762D01*
X146930499Y-83658648D01*
X146930500Y-83658627D01*
X146930500Y-83117486D01*
X146903222Y-82945263D01*
X146901555Y-82934736D01*
X146844379Y-82758765D01*
X146844379Y-82758764D01*
X146801300Y-82674217D01*
X146760378Y-82593904D01*
X146651621Y-82444213D01*
X146520787Y-82313379D01*
X146371096Y-82204622D01*
X146309500Y-82173237D01*
X146206235Y-82120620D01*
X146206232Y-82120619D01*
X146030265Y-82063445D01*
X145900877Y-82042952D01*
X145847514Y-82034500D01*
X145662486Y-82034500D01*
X145633626Y-82039071D01*
X145479732Y-82063445D01*
X145362816Y-82101433D01*
X145292975Y-82103428D01*
X145233142Y-82067347D01*
X145202315Y-82004646D01*
X145200499Y-81983502D01*
X145200499Y-81817129D01*
X145200498Y-81817123D01*
X145200497Y-81817116D01*
X145194091Y-81757517D01*
X145193028Y-81753019D01*
X145196766Y-81683250D01*
X145237631Y-81626577D01*
X145302649Y-81600994D01*
X145313704Y-81600500D01*
X168934108Y-81600500D01*
X168996249Y-81600500D01*
X169003736Y-81600726D01*
X169293796Y-81618271D01*
X169308657Y-81620075D01*
X169590798Y-81671780D01*
X169605335Y-81675363D01*
X169879172Y-81760695D01*
X169893163Y-81766000D01*
X170154743Y-81883727D01*
X170167989Y-81890680D01*
X170413465Y-82039075D01*
X170425776Y-82047573D01*
X170586175Y-82173237D01*
X170651573Y-82224473D01*
X170662781Y-82234403D01*
X170865596Y-82437218D01*
X170875526Y-82448426D01*
X170995481Y-82601538D01*
X171052422Y-82674217D01*
X171060928Y-82686540D01*
X171209316Y-82932004D01*
X171216275Y-82945263D01*
X171333997Y-83206831D01*
X171339306Y-83220832D01*
X171424635Y-83494663D01*
X171428219Y-83509201D01*
X171479923Y-83791340D01*
X171481728Y-83806205D01*
X171499274Y-84096263D01*
X171499500Y-84103750D01*
X171499500Y-127996249D01*
X171499274Y-128003736D01*
X171481728Y-128293794D01*
X171479923Y-128308659D01*
X171428219Y-128590798D01*
X171424635Y-128605336D01*
X171339306Y-128879167D01*
X171333997Y-128893168D01*
X171216275Y-129154736D01*
X171209316Y-129167995D01*
X171060928Y-129413459D01*
X171052422Y-129425782D01*
X170875526Y-129651573D01*
X170865596Y-129662781D01*
X170662781Y-129865596D01*
X170651573Y-129875526D01*
X170425782Y-130052422D01*
X170413459Y-130060928D01*
X170167995Y-130209316D01*
X170154736Y-130216275D01*
X169893168Y-130333997D01*
X169879167Y-130339306D01*
X169605336Y-130424635D01*
X169590798Y-130428219D01*
X169308659Y-130479923D01*
X169293794Y-130481728D01*
X169003736Y-130499274D01*
X168996249Y-130499500D01*
X117003751Y-130499500D01*
X116996264Y-130499274D01*
X116706205Y-130481728D01*
X116691340Y-130479923D01*
X116409201Y-130428219D01*
X116394663Y-130424635D01*
X116120832Y-130339306D01*
X116106831Y-130333997D01*
X115845263Y-130216275D01*
X115832004Y-130209316D01*
X115586537Y-130060926D01*
X115574217Y-130052422D01*
X115348426Y-129875526D01*
X115337218Y-129865596D01*
X115134403Y-129662781D01*
X115124473Y-129651573D01*
X115010300Y-129505842D01*
X114947573Y-129425776D01*
X114939075Y-129413465D01*
X114790680Y-129167989D01*
X114783727Y-129154743D01*
X114666000Y-128893163D01*
X114660693Y-128879167D01*
X114575364Y-128605336D01*
X114571780Y-128590798D01*
X114528813Y-128356335D01*
X114520075Y-128308657D01*
X114518271Y-128293794D01*
X114500726Y-128003736D01*
X114500500Y-127996249D01*
X114500500Y-84103750D01*
X114500726Y-84096263D01*
X114518271Y-83806205D01*
X114520076Y-83791340D01*
X114543934Y-83661155D01*
X114571780Y-83509197D01*
X114575364Y-83494663D01*
X114660696Y-83220822D01*
X114665998Y-83206841D01*
X114783731Y-82945249D01*
X114790676Y-82932016D01*
X114939080Y-82686526D01*
X114947567Y-82674230D01*
X115124480Y-82448417D01*
X115134395Y-82437226D01*
X115337226Y-82234395D01*
X115348417Y-82224480D01*
X115574230Y-82047567D01*
X115586526Y-82039080D01*
X115832016Y-81890676D01*
X115845249Y-81883731D01*
X116106841Y-81765998D01*
X116120822Y-81760696D01*
X116394668Y-81675362D01*
X116409197Y-81671780D01*
X116691344Y-81620075D01*
X116706201Y-81618271D01*
X116996264Y-81600726D01*
X117003751Y-81600500D01*
X117065892Y-81600500D01*
X140736296Y-81600500D01*
X140803335Y-81620185D01*
G37*
G04 #@! TD.AperFunction*
G04 #@! TA.AperFunction,Conductor*
G36*
X140136181Y-108322559D02*
G01*
X140169666Y-108383882D01*
X140172500Y-108410240D01*
X140172500Y-108681766D01*
X140152815Y-108748805D01*
X140100011Y-108794560D01*
X140033718Y-108804882D01*
X139993056Y-108800000D01*
X139131946Y-108800000D01*
X139043556Y-108810613D01*
X138902904Y-108866079D01*
X138782435Y-108957435D01*
X138691079Y-109077904D01*
X138642931Y-109200000D01*
X138300000Y-109200000D01*
X138300000Y-107300000D01*
X139113622Y-107300000D01*
X140136181Y-108322559D01*
G37*
G04 #@! TD.AperFunction*
G04 #@! TA.AperFunction,Conductor*
G36*
X142265166Y-109106887D02*
G01*
X142268877Y-109109272D01*
X142276548Y-109114398D01*
X142280743Y-109117201D01*
X142280745Y-109117202D01*
X142332515Y-109127499D01*
X142332519Y-109127500D01*
X142332520Y-109127500D01*
X142467480Y-109127500D01*
X142515485Y-109117951D01*
X142585075Y-109124178D01*
X142640253Y-109167040D01*
X142655030Y-109194078D01*
X142657365Y-109200000D01*
X140497803Y-109200000D01*
X140503151Y-109168093D01*
X140550123Y-109116368D01*
X140617603Y-109098250D01*
X140668687Y-109114398D01*
X140669462Y-109112528D01*
X140680745Y-109117202D01*
X140732515Y-109127499D01*
X140732519Y-109127500D01*
X140732520Y-109127500D01*
X140867481Y-109127500D01*
X140867482Y-109127499D01*
X140884895Y-109124035D01*
X140919254Y-109117202D01*
X140919255Y-109117201D01*
X140919257Y-109117201D01*
X140931109Y-109109281D01*
X140997785Y-109088403D01*
X141065166Y-109106887D01*
X141068877Y-109109272D01*
X141076548Y-109114398D01*
X141080743Y-109117201D01*
X141080745Y-109117202D01*
X141132515Y-109127499D01*
X141132519Y-109127500D01*
X141132520Y-109127500D01*
X141267481Y-109127500D01*
X141267482Y-109127499D01*
X141284895Y-109124035D01*
X141319254Y-109117202D01*
X141319255Y-109117201D01*
X141319257Y-109117201D01*
X141331109Y-109109281D01*
X141397785Y-109088403D01*
X141465166Y-109106887D01*
X141468877Y-109109272D01*
X141476548Y-109114398D01*
X141480743Y-109117201D01*
X141480745Y-109117202D01*
X141532515Y-109127499D01*
X141532519Y-109127500D01*
X141532520Y-109127500D01*
X141667481Y-109127500D01*
X141667482Y-109127499D01*
X141684895Y-109124035D01*
X141719254Y-109117202D01*
X141719255Y-109117201D01*
X141719257Y-109117201D01*
X141731109Y-109109281D01*
X141797785Y-109088403D01*
X141865166Y-109106887D01*
X141868877Y-109109272D01*
X141876548Y-109114398D01*
X141880743Y-109117201D01*
X141880745Y-109117202D01*
X141932515Y-109127499D01*
X141932519Y-109127500D01*
X141932520Y-109127500D01*
X142067481Y-109127500D01*
X142067482Y-109127499D01*
X142084895Y-109124035D01*
X142119254Y-109117202D01*
X142119255Y-109117201D01*
X142119257Y-109117201D01*
X142131109Y-109109281D01*
X142197785Y-109088403D01*
X142265166Y-109106887D01*
G37*
G04 #@! TD.AperFunction*
G04 #@! TA.AperFunction,Conductor*
G36*
X148400000Y-109200000D02*
G01*
X147357068Y-109200000D01*
X147308920Y-109077904D01*
X147217564Y-108957435D01*
X147097095Y-108866079D01*
X146956443Y-108810613D01*
X146868054Y-108800000D01*
X146324000Y-108800000D01*
X146256961Y-108780315D01*
X146211206Y-108727511D01*
X146200000Y-108676000D01*
X146200000Y-108131946D01*
X146189386Y-108043556D01*
X146133920Y-107902904D01*
X146042564Y-107782435D01*
X145922095Y-107691079D01*
X145781443Y-107635613D01*
X145693054Y-107625000D01*
X145506945Y-107625000D01*
X145414783Y-107636066D01*
X145385217Y-107636066D01*
X145293055Y-107625000D01*
X145151500Y-107625000D01*
X145084461Y-107605315D01*
X145038706Y-107552511D01*
X145027500Y-107501000D01*
X145027500Y-107445595D01*
X145047185Y-107378556D01*
X145063819Y-107357914D01*
X145121733Y-107300000D01*
X148400000Y-107300000D01*
X148400000Y-109200000D01*
G37*
G04 #@! TD.AperFunction*
G04 #@! TA.AperFunction,Conductor*
G36*
X145143039Y-109219685D02*
G01*
X145188794Y-109272489D01*
X145200000Y-109324000D01*
X145200000Y-109976000D01*
X145180315Y-110043039D01*
X145127511Y-110088794D01*
X145076000Y-110100000D01*
X141200000Y-110100000D01*
X141200000Y-113800000D01*
X144776000Y-113800000D01*
X144843039Y-113819685D01*
X144888794Y-113872489D01*
X144900000Y-113924000D01*
X144900000Y-114076000D01*
X144880315Y-114143039D01*
X144827511Y-114188794D01*
X144776000Y-114200000D01*
X140924000Y-114200000D01*
X140856961Y-114180315D01*
X140811206Y-114127511D01*
X140800000Y-114076000D01*
X140800000Y-109824000D01*
X140819685Y-109756961D01*
X140872489Y-109711206D01*
X140924000Y-109700000D01*
X144200000Y-109700000D01*
X144200000Y-109324000D01*
X144219685Y-109256961D01*
X144272489Y-109211206D01*
X144324000Y-109200000D01*
X145076000Y-109200000D01*
X145143039Y-109219685D01*
G37*
G04 #@! TD.AperFunction*
G04 #@! TA.AperFunction,Conductor*
G36*
X155743039Y-85419685D02*
G01*
X155788794Y-85472489D01*
X155800000Y-85524000D01*
X155800000Y-87322554D01*
X155780315Y-87389593D01*
X155727511Y-87435348D01*
X155658353Y-87445292D01*
X155610904Y-87428093D01*
X155469128Y-87340645D01*
X155469119Y-87340641D01*
X155302697Y-87285494D01*
X155302690Y-87285493D01*
X155199986Y-87275000D01*
X155150000Y-87275000D01*
X155150000Y-89724999D01*
X155199972Y-89724999D01*
X155199986Y-89724998D01*
X155302697Y-89714505D01*
X155469119Y-89659358D01*
X155469124Y-89659356D01*
X155610903Y-89571906D01*
X155678295Y-89553466D01*
X155744959Y-89574388D01*
X155789729Y-89628030D01*
X155800000Y-89677445D01*
X155800000Y-90076000D01*
X155780315Y-90143039D01*
X155727511Y-90188794D01*
X155676000Y-90200000D01*
X155200000Y-90200000D01*
X155200000Y-90748638D01*
X155180315Y-90815677D01*
X155163681Y-90836319D01*
X155150000Y-90850000D01*
X155150000Y-93850000D01*
X155163681Y-93863681D01*
X155197166Y-93925004D01*
X155200000Y-93951362D01*
X155200000Y-93976000D01*
X155180315Y-94043039D01*
X155127511Y-94088794D01*
X155076000Y-94100000D01*
X153324000Y-94100000D01*
X153256961Y-94080315D01*
X153211206Y-94027511D01*
X153200000Y-93976000D01*
X153200000Y-93051096D01*
X153650000Y-93051096D01*
X153652897Y-93093824D01*
X153698831Y-93278523D01*
X153783390Y-93449022D01*
X153783392Y-93449025D01*
X153902632Y-93597366D01*
X153902633Y-93597367D01*
X154050974Y-93716607D01*
X154050977Y-93716609D01*
X154221476Y-93801168D01*
X154406175Y-93847102D01*
X154448903Y-93850000D01*
X154650000Y-93850000D01*
X154650000Y-92600000D01*
X153650000Y-92600000D01*
X153650000Y-93051096D01*
X153200000Y-93051096D01*
X153200000Y-91648903D01*
X153650000Y-91648903D01*
X153650000Y-92100000D01*
X154650000Y-92100000D01*
X154650000Y-90850000D01*
X154448903Y-90850000D01*
X154406175Y-90852897D01*
X154221476Y-90898831D01*
X154050977Y-90983390D01*
X154050974Y-90983392D01*
X153902633Y-91102632D01*
X153902632Y-91102633D01*
X153783392Y-91250974D01*
X153783390Y-91250977D01*
X153698831Y-91421476D01*
X153652897Y-91606175D01*
X153650000Y-91648903D01*
X153200000Y-91648903D01*
X153200000Y-90200000D01*
X144724000Y-90200000D01*
X144656961Y-90180315D01*
X144611206Y-90127511D01*
X144600000Y-90076000D01*
X144600000Y-89024986D01*
X153900001Y-89024986D01*
X153910494Y-89127697D01*
X153965641Y-89294119D01*
X153965643Y-89294124D01*
X154057684Y-89443345D01*
X154181654Y-89567315D01*
X154330875Y-89659356D01*
X154330880Y-89659358D01*
X154497302Y-89714505D01*
X154497309Y-89714506D01*
X154600019Y-89724999D01*
X154649999Y-89724998D01*
X154650000Y-89724998D01*
X154650000Y-88750000D01*
X153900001Y-88750000D01*
X153900001Y-89024986D01*
X144600000Y-89024986D01*
X144600000Y-87975013D01*
X153900000Y-87975013D01*
X153900000Y-88250000D01*
X154650000Y-88250000D01*
X154650000Y-87275000D01*
X154649999Y-87274999D01*
X154600029Y-87275000D01*
X154600011Y-87275001D01*
X154497302Y-87285494D01*
X154330880Y-87340641D01*
X154330875Y-87340643D01*
X154181654Y-87432684D01*
X154057684Y-87556654D01*
X153965643Y-87705875D01*
X153965641Y-87705880D01*
X153910494Y-87872302D01*
X153910493Y-87872309D01*
X153900000Y-87975013D01*
X144600000Y-87975013D01*
X144600000Y-87724000D01*
X144619685Y-87656961D01*
X144672489Y-87611206D01*
X144724000Y-87600000D01*
X147500000Y-87600000D01*
X147500000Y-85524000D01*
X147519685Y-85456961D01*
X147572489Y-85411206D01*
X147624000Y-85400000D01*
X155676000Y-85400000D01*
X155743039Y-85419685D01*
G37*
G04 #@! TD.AperFunction*
M02*
