G04 #@! TF.GenerationSoftware,KiCad,Pcbnew,8.0.9-1.fc41*
G04 #@! TF.CreationDate,2025-06-25T22:37:00-07:00*
G04 #@! TF.ProjectId,rp2040_custom_devboard,72703230-3430-45f6-9375-73746f6d5f64,rev?*
G04 #@! TF.SameCoordinates,Original*
G04 #@! TF.FileFunction,Legend,Top*
G04 #@! TF.FilePolarity,Positive*
%FSLAX46Y46*%
G04 Gerber Fmt 4.6, Leading zero omitted, Abs format (unit mm)*
G04 Created by KiCad (PCBNEW 8.0.9-1.fc41) date 2025-06-25 22:37:00*
%MOMM*%
%LPD*%
G01*
G04 APERTURE LIST*
G04 Aperture macros list*
%AMRoundRect*
0 Rectangle with rounded corners*
0 $1 Rounding radius*
0 $2 $3 $4 $5 $6 $7 $8 $9 X,Y pos of 4 corners*
0 Add a 4 corners polygon primitive as box body*
4,1,4,$2,$3,$4,$5,$6,$7,$8,$9,$2,$3,0*
0 Add four circle primitives for the rounded corners*
1,1,$1+$1,$2,$3*
1,1,$1+$1,$4,$5*
1,1,$1+$1,$6,$7*
1,1,$1+$1,$8,$9*
0 Add four rect primitives between the rounded corners*
20,1,$1+$1,$2,$3,$4,$5,0*
20,1,$1+$1,$4,$5,$6,$7,0*
20,1,$1+$1,$6,$7,$8,$9,0*
20,1,$1+$1,$8,$9,$2,$3,0*%
G04 Aperture macros list end*
%ADD10C,0.100000*%
%ADD11C,0.152400*%
%ADD12C,0.150000*%
%ADD13C,0.120000*%
%ADD14C,0.000000*%
%ADD15RoundRect,0.140000X0.170000X-0.140000X0.170000X0.140000X-0.170000X0.140000X-0.170000X-0.140000X0*%
%ADD16R,1.700000X1.700000*%
%ADD17O,1.700000X1.700000*%
%ADD18C,2.700000*%
%ADD19RoundRect,0.140000X0.140000X0.170000X-0.140000X0.170000X-0.140000X-0.170000X0.140000X-0.170000X0*%
%ADD20RoundRect,0.375000X-0.375000X0.625000X-0.375000X-0.625000X0.375000X-0.625000X0.375000X0.625000X0*%
%ADD21RoundRect,0.500000X-1.400000X0.500000X-1.400000X-0.500000X1.400000X-0.500000X1.400000X0.500000X0*%
%ADD22RoundRect,0.135000X0.185000X-0.135000X0.185000X0.135000X-0.185000X0.135000X-0.185000X-0.135000X0*%
%ADD23RoundRect,0.135000X-0.185000X0.135000X-0.185000X-0.135000X0.185000X-0.135000X0.185000X0.135000X0*%
%ADD24R,0.400000X1.650000*%
%ADD25R,1.825000X0.700000*%
%ADD26R,2.000000X1.500000*%
%ADD27R,1.350000X2.000000*%
%ADD28O,1.350000X1.700000*%
%ADD29O,1.100000X1.500000*%
%ADD30R,1.430000X2.500000*%
%ADD31RoundRect,0.050000X-0.387500X-0.050000X0.387500X-0.050000X0.387500X0.050000X-0.387500X0.050000X0*%
%ADD32RoundRect,0.050000X-0.050000X-0.387500X0.050000X-0.387500X0.050000X0.387500X-0.050000X0.387500X0*%
%ADD33RoundRect,0.144000X-1.456000X-1.456000X1.456000X-1.456000X1.456000X1.456000X-1.456000X1.456000X0*%
%ADD34R,1.400000X1.200000*%
%ADD35RoundRect,0.140000X-0.140000X-0.170000X0.140000X-0.170000X0.140000X0.170000X-0.140000X0.170000X0*%
%ADD36RoundRect,0.250000X-0.475000X0.250000X-0.475000X-0.250000X0.475000X-0.250000X0.475000X0.250000X0*%
%ADD37RoundRect,0.250000X0.475000X-0.250000X0.475000X0.250000X-0.475000X0.250000X-0.475000X-0.250000X0*%
%ADD38RoundRect,0.250000X-0.250000X-0.475000X0.250000X-0.475000X0.250000X0.475000X-0.250000X0.475000X0*%
%ADD39RoundRect,0.150000X-0.650000X-0.150000X0.650000X-0.150000X0.650000X0.150000X-0.650000X0.150000X0*%
G04 APERTURE END LIST*
D10*
X162035714Y-121311157D02*
X161735714Y-120882585D01*
X161521428Y-121311157D02*
X161521428Y-120411157D01*
X161521428Y-120411157D02*
X161864285Y-120411157D01*
X161864285Y-120411157D02*
X161950000Y-120454014D01*
X161950000Y-120454014D02*
X161992857Y-120496871D01*
X161992857Y-120496871D02*
X162035714Y-120582585D01*
X162035714Y-120582585D02*
X162035714Y-120711157D01*
X162035714Y-120711157D02*
X161992857Y-120796871D01*
X161992857Y-120796871D02*
X161950000Y-120839728D01*
X161950000Y-120839728D02*
X161864285Y-120882585D01*
X161864285Y-120882585D02*
X161521428Y-120882585D01*
X162421428Y-120411157D02*
X162421428Y-121139728D01*
X162421428Y-121139728D02*
X162464285Y-121225442D01*
X162464285Y-121225442D02*
X162507143Y-121268300D01*
X162507143Y-121268300D02*
X162592857Y-121311157D01*
X162592857Y-121311157D02*
X162764285Y-121311157D01*
X162764285Y-121311157D02*
X162850000Y-121268300D01*
X162850000Y-121268300D02*
X162892857Y-121225442D01*
X162892857Y-121225442D02*
X162935714Y-121139728D01*
X162935714Y-121139728D02*
X162935714Y-120411157D01*
X163364285Y-121311157D02*
X163364285Y-120411157D01*
X163364285Y-120411157D02*
X163878571Y-121311157D01*
X163878571Y-121311157D02*
X163878571Y-120411157D01*
X161628571Y-102674014D02*
X161542857Y-102631157D01*
X161542857Y-102631157D02*
X161414285Y-102631157D01*
X161414285Y-102631157D02*
X161285714Y-102674014D01*
X161285714Y-102674014D02*
X161199999Y-102759728D01*
X161199999Y-102759728D02*
X161157142Y-102845442D01*
X161157142Y-102845442D02*
X161114285Y-103016871D01*
X161114285Y-103016871D02*
X161114285Y-103145442D01*
X161114285Y-103145442D02*
X161157142Y-103316871D01*
X161157142Y-103316871D02*
X161199999Y-103402585D01*
X161199999Y-103402585D02*
X161285714Y-103488300D01*
X161285714Y-103488300D02*
X161414285Y-103531157D01*
X161414285Y-103531157D02*
X161499999Y-103531157D01*
X161499999Y-103531157D02*
X161628571Y-103488300D01*
X161628571Y-103488300D02*
X161671428Y-103445442D01*
X161671428Y-103445442D02*
X161671428Y-103145442D01*
X161671428Y-103145442D02*
X161499999Y-103145442D01*
X162057142Y-103531157D02*
X162057142Y-102631157D01*
X162057142Y-102631157D02*
X162399999Y-102631157D01*
X162399999Y-102631157D02*
X162485714Y-102674014D01*
X162485714Y-102674014D02*
X162528571Y-102716871D01*
X162528571Y-102716871D02*
X162571428Y-102802585D01*
X162571428Y-102802585D02*
X162571428Y-102931157D01*
X162571428Y-102931157D02*
X162528571Y-103016871D01*
X162528571Y-103016871D02*
X162485714Y-103059728D01*
X162485714Y-103059728D02*
X162399999Y-103102585D01*
X162399999Y-103102585D02*
X162057142Y-103102585D01*
X162914285Y-102716871D02*
X162957142Y-102674014D01*
X162957142Y-102674014D02*
X163042857Y-102631157D01*
X163042857Y-102631157D02*
X163257142Y-102631157D01*
X163257142Y-102631157D02*
X163342857Y-102674014D01*
X163342857Y-102674014D02*
X163385714Y-102716871D01*
X163385714Y-102716871D02*
X163428571Y-102802585D01*
X163428571Y-102802585D02*
X163428571Y-102888300D01*
X163428571Y-102888300D02*
X163385714Y-103016871D01*
X163385714Y-103016871D02*
X162871428Y-103531157D01*
X162871428Y-103531157D02*
X163428571Y-103531157D01*
X163771428Y-102716871D02*
X163814285Y-102674014D01*
X163814285Y-102674014D02*
X163900000Y-102631157D01*
X163900000Y-102631157D02*
X164114285Y-102631157D01*
X164114285Y-102631157D02*
X164200000Y-102674014D01*
X164200000Y-102674014D02*
X164242857Y-102716871D01*
X164242857Y-102716871D02*
X164285714Y-102802585D01*
X164285714Y-102802585D02*
X164285714Y-102888300D01*
X164285714Y-102888300D02*
X164242857Y-103016871D01*
X164242857Y-103016871D02*
X163728571Y-103531157D01*
X163728571Y-103531157D02*
X164285714Y-103531157D01*
X122157143Y-100454014D02*
X122071429Y-100411157D01*
X122071429Y-100411157D02*
X121942857Y-100411157D01*
X121942857Y-100411157D02*
X121814286Y-100454014D01*
X121814286Y-100454014D02*
X121728571Y-100539728D01*
X121728571Y-100539728D02*
X121685714Y-100625442D01*
X121685714Y-100625442D02*
X121642857Y-100796871D01*
X121642857Y-100796871D02*
X121642857Y-100925442D01*
X121642857Y-100925442D02*
X121685714Y-101096871D01*
X121685714Y-101096871D02*
X121728571Y-101182585D01*
X121728571Y-101182585D02*
X121814286Y-101268300D01*
X121814286Y-101268300D02*
X121942857Y-101311157D01*
X121942857Y-101311157D02*
X122028571Y-101311157D01*
X122028571Y-101311157D02*
X122157143Y-101268300D01*
X122157143Y-101268300D02*
X122200000Y-101225442D01*
X122200000Y-101225442D02*
X122200000Y-100925442D01*
X122200000Y-100925442D02*
X122028571Y-100925442D01*
X122585714Y-101311157D02*
X122585714Y-100411157D01*
X122585714Y-100411157D02*
X122928571Y-100411157D01*
X122928571Y-100411157D02*
X123014286Y-100454014D01*
X123014286Y-100454014D02*
X123057143Y-100496871D01*
X123057143Y-100496871D02*
X123100000Y-100582585D01*
X123100000Y-100582585D02*
X123100000Y-100711157D01*
X123100000Y-100711157D02*
X123057143Y-100796871D01*
X123057143Y-100796871D02*
X123014286Y-100839728D01*
X123014286Y-100839728D02*
X122928571Y-100882585D01*
X122928571Y-100882585D02*
X122585714Y-100882585D01*
X123914286Y-100411157D02*
X123485714Y-100411157D01*
X123485714Y-100411157D02*
X123442857Y-100839728D01*
X123442857Y-100839728D02*
X123485714Y-100796871D01*
X123485714Y-100796871D02*
X123571429Y-100754014D01*
X123571429Y-100754014D02*
X123785714Y-100754014D01*
X123785714Y-100754014D02*
X123871429Y-100796871D01*
X123871429Y-100796871D02*
X123914286Y-100839728D01*
X123914286Y-100839728D02*
X123957143Y-100925442D01*
X123957143Y-100925442D02*
X123957143Y-101139728D01*
X123957143Y-101139728D02*
X123914286Y-101225442D01*
X123914286Y-101225442D02*
X123871429Y-101268300D01*
X123871429Y-101268300D02*
X123785714Y-101311157D01*
X123785714Y-101311157D02*
X123571429Y-101311157D01*
X123571429Y-101311157D02*
X123485714Y-101268300D01*
X123485714Y-101268300D02*
X123442857Y-101225442D01*
D11*
X127119539Y-115092822D02*
X127042129Y-115054117D01*
X127042129Y-115054117D02*
X126926015Y-115054117D01*
X126926015Y-115054117D02*
X126809901Y-115092822D01*
X126809901Y-115092822D02*
X126732491Y-115170232D01*
X126732491Y-115170232D02*
X126693786Y-115247641D01*
X126693786Y-115247641D02*
X126655082Y-115402460D01*
X126655082Y-115402460D02*
X126655082Y-115518574D01*
X126655082Y-115518574D02*
X126693786Y-115673393D01*
X126693786Y-115673393D02*
X126732491Y-115750803D01*
X126732491Y-115750803D02*
X126809901Y-115828213D01*
X126809901Y-115828213D02*
X126926015Y-115866917D01*
X126926015Y-115866917D02*
X127003424Y-115866917D01*
X127003424Y-115866917D02*
X127119539Y-115828213D01*
X127119539Y-115828213D02*
X127158243Y-115789508D01*
X127158243Y-115789508D02*
X127158243Y-115518574D01*
X127158243Y-115518574D02*
X127003424Y-115518574D01*
X127854929Y-115325051D02*
X127854929Y-115866917D01*
X127506586Y-115325051D02*
X127506586Y-115750803D01*
X127506586Y-115750803D02*
X127545291Y-115828213D01*
X127545291Y-115828213D02*
X127622701Y-115866917D01*
X127622701Y-115866917D02*
X127738815Y-115866917D01*
X127738815Y-115866917D02*
X127816224Y-115828213D01*
X127816224Y-115828213D02*
X127854929Y-115789508D01*
X128203272Y-115828213D02*
X128280681Y-115866917D01*
X128280681Y-115866917D02*
X128435500Y-115866917D01*
X128435500Y-115866917D02*
X128512910Y-115828213D01*
X128512910Y-115828213D02*
X128551614Y-115750803D01*
X128551614Y-115750803D02*
X128551614Y-115712098D01*
X128551614Y-115712098D02*
X128512910Y-115634689D01*
X128512910Y-115634689D02*
X128435500Y-115595984D01*
X128435500Y-115595984D02*
X128319386Y-115595984D01*
X128319386Y-115595984D02*
X128241976Y-115557279D01*
X128241976Y-115557279D02*
X128203272Y-115479870D01*
X128203272Y-115479870D02*
X128203272Y-115441165D01*
X128203272Y-115441165D02*
X128241976Y-115363755D01*
X128241976Y-115363755D02*
X128319386Y-115325051D01*
X128319386Y-115325051D02*
X128435500Y-115325051D01*
X128435500Y-115325051D02*
X128512910Y-115363755D01*
X128783843Y-115325051D02*
X129093481Y-115325051D01*
X128899957Y-115054117D02*
X128899957Y-115750803D01*
X128899957Y-115750803D02*
X128938662Y-115828213D01*
X128938662Y-115828213D02*
X129016072Y-115866917D01*
X129016072Y-115866917D02*
X129093481Y-115866917D01*
X129674052Y-115828213D02*
X129596643Y-115866917D01*
X129596643Y-115866917D02*
X129441824Y-115866917D01*
X129441824Y-115866917D02*
X129364414Y-115828213D01*
X129364414Y-115828213D02*
X129325710Y-115750803D01*
X129325710Y-115750803D02*
X129325710Y-115441165D01*
X129325710Y-115441165D02*
X129364414Y-115363755D01*
X129364414Y-115363755D02*
X129441824Y-115325051D01*
X129441824Y-115325051D02*
X129596643Y-115325051D01*
X129596643Y-115325051D02*
X129674052Y-115363755D01*
X129674052Y-115363755D02*
X129712757Y-115441165D01*
X129712757Y-115441165D02*
X129712757Y-115518574D01*
X129712757Y-115518574D02*
X129325710Y-115595984D01*
X130061100Y-115866917D02*
X130061100Y-115325051D01*
X130061100Y-115479870D02*
X130099805Y-115402460D01*
X130099805Y-115402460D02*
X130138510Y-115363755D01*
X130138510Y-115363755D02*
X130215919Y-115325051D01*
X130215919Y-115325051D02*
X130293329Y-115325051D01*
X130486853Y-115054117D02*
X130990015Y-115054117D01*
X130990015Y-115054117D02*
X130719081Y-115363755D01*
X130719081Y-115363755D02*
X130835196Y-115363755D01*
X130835196Y-115363755D02*
X130912605Y-115402460D01*
X130912605Y-115402460D02*
X130951310Y-115441165D01*
X130951310Y-115441165D02*
X130990015Y-115518574D01*
X130990015Y-115518574D02*
X130990015Y-115712098D01*
X130990015Y-115712098D02*
X130951310Y-115789508D01*
X130951310Y-115789508D02*
X130912605Y-115828213D01*
X130912605Y-115828213D02*
X130835196Y-115866917D01*
X130835196Y-115866917D02*
X130602967Y-115866917D01*
X130602967Y-115866917D02*
X130525558Y-115828213D01*
X130525558Y-115828213D02*
X130486853Y-115789508D01*
X131299653Y-115131527D02*
X131338357Y-115092822D01*
X131338357Y-115092822D02*
X131415767Y-115054117D01*
X131415767Y-115054117D02*
X131609291Y-115054117D01*
X131609291Y-115054117D02*
X131686700Y-115092822D01*
X131686700Y-115092822D02*
X131725405Y-115131527D01*
X131725405Y-115131527D02*
X131764110Y-115208936D01*
X131764110Y-115208936D02*
X131764110Y-115286346D01*
X131764110Y-115286346D02*
X131725405Y-115402460D01*
X131725405Y-115402460D02*
X131260948Y-115866917D01*
X131260948Y-115866917D02*
X131764110Y-115866917D01*
X127158243Y-117175479D02*
X126887310Y-116788432D01*
X126693786Y-117175479D02*
X126693786Y-116362679D01*
X126693786Y-116362679D02*
X127003424Y-116362679D01*
X127003424Y-116362679D02*
X127080834Y-116401384D01*
X127080834Y-116401384D02*
X127119539Y-116440089D01*
X127119539Y-116440089D02*
X127158243Y-116517498D01*
X127158243Y-116517498D02*
X127158243Y-116633613D01*
X127158243Y-116633613D02*
X127119539Y-116711022D01*
X127119539Y-116711022D02*
X127080834Y-116749727D01*
X127080834Y-116749727D02*
X127003424Y-116788432D01*
X127003424Y-116788432D02*
X126693786Y-116788432D01*
X127506586Y-117175479D02*
X127506586Y-116362679D01*
X127506586Y-116362679D02*
X127816224Y-116362679D01*
X127816224Y-116362679D02*
X127893634Y-116401384D01*
X127893634Y-116401384D02*
X127932339Y-116440089D01*
X127932339Y-116440089D02*
X127971043Y-116517498D01*
X127971043Y-116517498D02*
X127971043Y-116633613D01*
X127971043Y-116633613D02*
X127932339Y-116711022D01*
X127932339Y-116711022D02*
X127893634Y-116749727D01*
X127893634Y-116749727D02*
X127816224Y-116788432D01*
X127816224Y-116788432D02*
X127506586Y-116788432D01*
X128280682Y-116440089D02*
X128319386Y-116401384D01*
X128319386Y-116401384D02*
X128396796Y-116362679D01*
X128396796Y-116362679D02*
X128590320Y-116362679D01*
X128590320Y-116362679D02*
X128667729Y-116401384D01*
X128667729Y-116401384D02*
X128706434Y-116440089D01*
X128706434Y-116440089D02*
X128745139Y-116517498D01*
X128745139Y-116517498D02*
X128745139Y-116594908D01*
X128745139Y-116594908D02*
X128706434Y-116711022D01*
X128706434Y-116711022D02*
X128241977Y-117175479D01*
X128241977Y-117175479D02*
X128745139Y-117175479D01*
X129248300Y-116362679D02*
X129325710Y-116362679D01*
X129325710Y-116362679D02*
X129403119Y-116401384D01*
X129403119Y-116401384D02*
X129441824Y-116440089D01*
X129441824Y-116440089D02*
X129480529Y-116517498D01*
X129480529Y-116517498D02*
X129519234Y-116672317D01*
X129519234Y-116672317D02*
X129519234Y-116865841D01*
X129519234Y-116865841D02*
X129480529Y-117020660D01*
X129480529Y-117020660D02*
X129441824Y-117098070D01*
X129441824Y-117098070D02*
X129403119Y-117136775D01*
X129403119Y-117136775D02*
X129325710Y-117175479D01*
X129325710Y-117175479D02*
X129248300Y-117175479D01*
X129248300Y-117175479D02*
X129170891Y-117136775D01*
X129170891Y-117136775D02*
X129132186Y-117098070D01*
X129132186Y-117098070D02*
X129093481Y-117020660D01*
X129093481Y-117020660D02*
X129054777Y-116865841D01*
X129054777Y-116865841D02*
X129054777Y-116672317D01*
X129054777Y-116672317D02*
X129093481Y-116517498D01*
X129093481Y-116517498D02*
X129132186Y-116440089D01*
X129132186Y-116440089D02*
X129170891Y-116401384D01*
X129170891Y-116401384D02*
X129248300Y-116362679D01*
X130215919Y-116633613D02*
X130215919Y-117175479D01*
X130022395Y-116323975D02*
X129828872Y-116904546D01*
X129828872Y-116904546D02*
X130332033Y-116904546D01*
X130796490Y-116362679D02*
X130873900Y-116362679D01*
X130873900Y-116362679D02*
X130951309Y-116401384D01*
X130951309Y-116401384D02*
X130990014Y-116440089D01*
X130990014Y-116440089D02*
X131028719Y-116517498D01*
X131028719Y-116517498D02*
X131067424Y-116672317D01*
X131067424Y-116672317D02*
X131067424Y-116865841D01*
X131067424Y-116865841D02*
X131028719Y-117020660D01*
X131028719Y-117020660D02*
X130990014Y-117098070D01*
X130990014Y-117098070D02*
X130951309Y-117136775D01*
X130951309Y-117136775D02*
X130873900Y-117175479D01*
X130873900Y-117175479D02*
X130796490Y-117175479D01*
X130796490Y-117175479D02*
X130719081Y-117136775D01*
X130719081Y-117136775D02*
X130680376Y-117098070D01*
X130680376Y-117098070D02*
X130641671Y-117020660D01*
X130641671Y-117020660D02*
X130602967Y-116865841D01*
X130602967Y-116865841D02*
X130602967Y-116672317D01*
X130602967Y-116672317D02*
X130641671Y-116517498D01*
X130641671Y-116517498D02*
X130680376Y-116440089D01*
X130680376Y-116440089D02*
X130719081Y-116401384D01*
X130719081Y-116401384D02*
X130796490Y-116362679D01*
X131918928Y-116362679D02*
X132383385Y-116362679D01*
X132151157Y-117175479D02*
X132151157Y-116362679D01*
X132963956Y-117136775D02*
X132886547Y-117175479D01*
X132886547Y-117175479D02*
X132731728Y-117175479D01*
X132731728Y-117175479D02*
X132654318Y-117136775D01*
X132654318Y-117136775D02*
X132615614Y-117059365D01*
X132615614Y-117059365D02*
X132615614Y-116749727D01*
X132615614Y-116749727D02*
X132654318Y-116672317D01*
X132654318Y-116672317D02*
X132731728Y-116633613D01*
X132731728Y-116633613D02*
X132886547Y-116633613D01*
X132886547Y-116633613D02*
X132963956Y-116672317D01*
X132963956Y-116672317D02*
X133002661Y-116749727D01*
X133002661Y-116749727D02*
X133002661Y-116827136D01*
X133002661Y-116827136D02*
X132615614Y-116904546D01*
X133312300Y-117136775D02*
X133389709Y-117175479D01*
X133389709Y-117175479D02*
X133544528Y-117175479D01*
X133544528Y-117175479D02*
X133621938Y-117136775D01*
X133621938Y-117136775D02*
X133660642Y-117059365D01*
X133660642Y-117059365D02*
X133660642Y-117020660D01*
X133660642Y-117020660D02*
X133621938Y-116943251D01*
X133621938Y-116943251D02*
X133544528Y-116904546D01*
X133544528Y-116904546D02*
X133428414Y-116904546D01*
X133428414Y-116904546D02*
X133351004Y-116865841D01*
X133351004Y-116865841D02*
X133312300Y-116788432D01*
X133312300Y-116788432D02*
X133312300Y-116749727D01*
X133312300Y-116749727D02*
X133351004Y-116672317D01*
X133351004Y-116672317D02*
X133428414Y-116633613D01*
X133428414Y-116633613D02*
X133544528Y-116633613D01*
X133544528Y-116633613D02*
X133621938Y-116672317D01*
X133892871Y-116633613D02*
X134202509Y-116633613D01*
X134008985Y-116362679D02*
X134008985Y-117059365D01*
X134008985Y-117059365D02*
X134047690Y-117136775D01*
X134047690Y-117136775D02*
X134125100Y-117175479D01*
X134125100Y-117175479D02*
X134202509Y-117175479D01*
X135363652Y-116749727D02*
X135479766Y-116788432D01*
X135479766Y-116788432D02*
X135518471Y-116827136D01*
X135518471Y-116827136D02*
X135557175Y-116904546D01*
X135557175Y-116904546D02*
X135557175Y-117020660D01*
X135557175Y-117020660D02*
X135518471Y-117098070D01*
X135518471Y-117098070D02*
X135479766Y-117136775D01*
X135479766Y-117136775D02*
X135402356Y-117175479D01*
X135402356Y-117175479D02*
X135092718Y-117175479D01*
X135092718Y-117175479D02*
X135092718Y-116362679D01*
X135092718Y-116362679D02*
X135363652Y-116362679D01*
X135363652Y-116362679D02*
X135441061Y-116401384D01*
X135441061Y-116401384D02*
X135479766Y-116440089D01*
X135479766Y-116440089D02*
X135518471Y-116517498D01*
X135518471Y-116517498D02*
X135518471Y-116594908D01*
X135518471Y-116594908D02*
X135479766Y-116672317D01*
X135479766Y-116672317D02*
X135441061Y-116711022D01*
X135441061Y-116711022D02*
X135363652Y-116749727D01*
X135363652Y-116749727D02*
X135092718Y-116749727D01*
X136253861Y-116633613D02*
X136253861Y-117175479D01*
X135905518Y-116633613D02*
X135905518Y-117059365D01*
X135905518Y-117059365D02*
X135944223Y-117136775D01*
X135944223Y-117136775D02*
X136021633Y-117175479D01*
X136021633Y-117175479D02*
X136137747Y-117175479D01*
X136137747Y-117175479D02*
X136215156Y-117136775D01*
X136215156Y-117136775D02*
X136253861Y-117098070D01*
X136640908Y-117175479D02*
X136640908Y-116633613D01*
X136640908Y-116362679D02*
X136602204Y-116401384D01*
X136602204Y-116401384D02*
X136640908Y-116440089D01*
X136640908Y-116440089D02*
X136679613Y-116401384D01*
X136679613Y-116401384D02*
X136640908Y-116362679D01*
X136640908Y-116362679D02*
X136640908Y-116440089D01*
X137144071Y-117175479D02*
X137066661Y-117136775D01*
X137066661Y-117136775D02*
X137027956Y-117059365D01*
X137027956Y-117059365D02*
X137027956Y-116362679D01*
X137802051Y-117175479D02*
X137802051Y-116362679D01*
X137802051Y-117136775D02*
X137724642Y-117175479D01*
X137724642Y-117175479D02*
X137569823Y-117175479D01*
X137569823Y-117175479D02*
X137492413Y-117136775D01*
X137492413Y-117136775D02*
X137453708Y-117098070D01*
X137453708Y-117098070D02*
X137415004Y-117020660D01*
X137415004Y-117020660D02*
X137415004Y-116788432D01*
X137415004Y-116788432D02*
X137453708Y-116711022D01*
X137453708Y-116711022D02*
X137492413Y-116672317D01*
X137492413Y-116672317D02*
X137569823Y-116633613D01*
X137569823Y-116633613D02*
X137724642Y-116633613D01*
X137724642Y-116633613D02*
X137802051Y-116672317D01*
X127158243Y-118484041D02*
X126887310Y-118096994D01*
X126693786Y-118484041D02*
X126693786Y-117671241D01*
X126693786Y-117671241D02*
X127003424Y-117671241D01*
X127003424Y-117671241D02*
X127080834Y-117709946D01*
X127080834Y-117709946D02*
X127119539Y-117748651D01*
X127119539Y-117748651D02*
X127158243Y-117826060D01*
X127158243Y-117826060D02*
X127158243Y-117942175D01*
X127158243Y-117942175D02*
X127119539Y-118019584D01*
X127119539Y-118019584D02*
X127080834Y-118058289D01*
X127080834Y-118058289D02*
X127003424Y-118096994D01*
X127003424Y-118096994D02*
X126693786Y-118096994D01*
X127506586Y-118058289D02*
X127777520Y-118058289D01*
X127893634Y-118484041D02*
X127506586Y-118484041D01*
X127506586Y-118484041D02*
X127506586Y-117671241D01*
X127506586Y-117671241D02*
X127893634Y-117671241D01*
X128125862Y-117671241D02*
X128396795Y-118484041D01*
X128396795Y-118484041D02*
X128667729Y-117671241D01*
X129364415Y-118484041D02*
X128899958Y-118484041D01*
X129132186Y-118484041D02*
X129132186Y-117671241D01*
X129132186Y-117671241D02*
X129054777Y-117787356D01*
X129054777Y-117787356D02*
X128977367Y-117864765D01*
X128977367Y-117864765D02*
X128899958Y-117903470D01*
X126655082Y-119057213D02*
X126693786Y-119018508D01*
X126693786Y-119018508D02*
X126771196Y-118979803D01*
X126771196Y-118979803D02*
X126964720Y-118979803D01*
X126964720Y-118979803D02*
X127042129Y-119018508D01*
X127042129Y-119018508D02*
X127080834Y-119057213D01*
X127080834Y-119057213D02*
X127119539Y-119134622D01*
X127119539Y-119134622D02*
X127119539Y-119212032D01*
X127119539Y-119212032D02*
X127080834Y-119328146D01*
X127080834Y-119328146D02*
X126616377Y-119792603D01*
X126616377Y-119792603D02*
X127119539Y-119792603D01*
X127622700Y-118979803D02*
X127700110Y-118979803D01*
X127700110Y-118979803D02*
X127777519Y-119018508D01*
X127777519Y-119018508D02*
X127816224Y-119057213D01*
X127816224Y-119057213D02*
X127854929Y-119134622D01*
X127854929Y-119134622D02*
X127893634Y-119289441D01*
X127893634Y-119289441D02*
X127893634Y-119482965D01*
X127893634Y-119482965D02*
X127854929Y-119637784D01*
X127854929Y-119637784D02*
X127816224Y-119715194D01*
X127816224Y-119715194D02*
X127777519Y-119753899D01*
X127777519Y-119753899D02*
X127700110Y-119792603D01*
X127700110Y-119792603D02*
X127622700Y-119792603D01*
X127622700Y-119792603D02*
X127545291Y-119753899D01*
X127545291Y-119753899D02*
X127506586Y-119715194D01*
X127506586Y-119715194D02*
X127467881Y-119637784D01*
X127467881Y-119637784D02*
X127429177Y-119482965D01*
X127429177Y-119482965D02*
X127429177Y-119289441D01*
X127429177Y-119289441D02*
X127467881Y-119134622D01*
X127467881Y-119134622D02*
X127506586Y-119057213D01*
X127506586Y-119057213D02*
X127545291Y-119018508D01*
X127545291Y-119018508D02*
X127622700Y-118979803D01*
X128203272Y-119057213D02*
X128241976Y-119018508D01*
X128241976Y-119018508D02*
X128319386Y-118979803D01*
X128319386Y-118979803D02*
X128512910Y-118979803D01*
X128512910Y-118979803D02*
X128590319Y-119018508D01*
X128590319Y-119018508D02*
X128629024Y-119057213D01*
X128629024Y-119057213D02*
X128667729Y-119134622D01*
X128667729Y-119134622D02*
X128667729Y-119212032D01*
X128667729Y-119212032D02*
X128629024Y-119328146D01*
X128629024Y-119328146D02*
X128164567Y-119792603D01*
X128164567Y-119792603D02*
X128667729Y-119792603D01*
X129403119Y-118979803D02*
X129016071Y-118979803D01*
X129016071Y-118979803D02*
X128977367Y-119366851D01*
X128977367Y-119366851D02*
X129016071Y-119328146D01*
X129016071Y-119328146D02*
X129093481Y-119289441D01*
X129093481Y-119289441D02*
X129287005Y-119289441D01*
X129287005Y-119289441D02*
X129364414Y-119328146D01*
X129364414Y-119328146D02*
X129403119Y-119366851D01*
X129403119Y-119366851D02*
X129441824Y-119444260D01*
X129441824Y-119444260D02*
X129441824Y-119637784D01*
X129441824Y-119637784D02*
X129403119Y-119715194D01*
X129403119Y-119715194D02*
X129364414Y-119753899D01*
X129364414Y-119753899D02*
X129287005Y-119792603D01*
X129287005Y-119792603D02*
X129093481Y-119792603D01*
X129093481Y-119792603D02*
X129016071Y-119753899D01*
X129016071Y-119753899D02*
X128977367Y-119715194D01*
X129790166Y-119482965D02*
X130409443Y-119482965D01*
X130951309Y-118979803D02*
X131028719Y-118979803D01*
X131028719Y-118979803D02*
X131106128Y-119018508D01*
X131106128Y-119018508D02*
X131144833Y-119057213D01*
X131144833Y-119057213D02*
X131183538Y-119134622D01*
X131183538Y-119134622D02*
X131222243Y-119289441D01*
X131222243Y-119289441D02*
X131222243Y-119482965D01*
X131222243Y-119482965D02*
X131183538Y-119637784D01*
X131183538Y-119637784D02*
X131144833Y-119715194D01*
X131144833Y-119715194D02*
X131106128Y-119753899D01*
X131106128Y-119753899D02*
X131028719Y-119792603D01*
X131028719Y-119792603D02*
X130951309Y-119792603D01*
X130951309Y-119792603D02*
X130873900Y-119753899D01*
X130873900Y-119753899D02*
X130835195Y-119715194D01*
X130835195Y-119715194D02*
X130796490Y-119637784D01*
X130796490Y-119637784D02*
X130757786Y-119482965D01*
X130757786Y-119482965D02*
X130757786Y-119289441D01*
X130757786Y-119289441D02*
X130796490Y-119134622D01*
X130796490Y-119134622D02*
X130835195Y-119057213D01*
X130835195Y-119057213D02*
X130873900Y-119018508D01*
X130873900Y-119018508D02*
X130951309Y-118979803D01*
X131918928Y-118979803D02*
X131764109Y-118979803D01*
X131764109Y-118979803D02*
X131686700Y-119018508D01*
X131686700Y-119018508D02*
X131647995Y-119057213D01*
X131647995Y-119057213D02*
X131570585Y-119173327D01*
X131570585Y-119173327D02*
X131531881Y-119328146D01*
X131531881Y-119328146D02*
X131531881Y-119637784D01*
X131531881Y-119637784D02*
X131570585Y-119715194D01*
X131570585Y-119715194D02*
X131609290Y-119753899D01*
X131609290Y-119753899D02*
X131686700Y-119792603D01*
X131686700Y-119792603D02*
X131841519Y-119792603D01*
X131841519Y-119792603D02*
X131918928Y-119753899D01*
X131918928Y-119753899D02*
X131957633Y-119715194D01*
X131957633Y-119715194D02*
X131996338Y-119637784D01*
X131996338Y-119637784D02*
X131996338Y-119444260D01*
X131996338Y-119444260D02*
X131957633Y-119366851D01*
X131957633Y-119366851D02*
X131918928Y-119328146D01*
X131918928Y-119328146D02*
X131841519Y-119289441D01*
X131841519Y-119289441D02*
X131686700Y-119289441D01*
X131686700Y-119289441D02*
X131609290Y-119328146D01*
X131609290Y-119328146D02*
X131570585Y-119366851D01*
X131570585Y-119366851D02*
X131531881Y-119444260D01*
X132344680Y-119482965D02*
X132963957Y-119482965D01*
X133312300Y-119057213D02*
X133351004Y-119018508D01*
X133351004Y-119018508D02*
X133428414Y-118979803D01*
X133428414Y-118979803D02*
X133621938Y-118979803D01*
X133621938Y-118979803D02*
X133699347Y-119018508D01*
X133699347Y-119018508D02*
X133738052Y-119057213D01*
X133738052Y-119057213D02*
X133776757Y-119134622D01*
X133776757Y-119134622D02*
X133776757Y-119212032D01*
X133776757Y-119212032D02*
X133738052Y-119328146D01*
X133738052Y-119328146D02*
X133273595Y-119792603D01*
X133273595Y-119792603D02*
X133776757Y-119792603D01*
X134086395Y-119057213D02*
X134125099Y-119018508D01*
X134125099Y-119018508D02*
X134202509Y-118979803D01*
X134202509Y-118979803D02*
X134396033Y-118979803D01*
X134396033Y-118979803D02*
X134473442Y-119018508D01*
X134473442Y-119018508D02*
X134512147Y-119057213D01*
X134512147Y-119057213D02*
X134550852Y-119134622D01*
X134550852Y-119134622D02*
X134550852Y-119212032D01*
X134550852Y-119212032D02*
X134512147Y-119328146D01*
X134512147Y-119328146D02*
X134047690Y-119792603D01*
X134047690Y-119792603D02*
X134550852Y-119792603D01*
D10*
X122157143Y-87754014D02*
X122071429Y-87711157D01*
X122071429Y-87711157D02*
X121942857Y-87711157D01*
X121942857Y-87711157D02*
X121814286Y-87754014D01*
X121814286Y-87754014D02*
X121728571Y-87839728D01*
X121728571Y-87839728D02*
X121685714Y-87925442D01*
X121685714Y-87925442D02*
X121642857Y-88096871D01*
X121642857Y-88096871D02*
X121642857Y-88225442D01*
X121642857Y-88225442D02*
X121685714Y-88396871D01*
X121685714Y-88396871D02*
X121728571Y-88482585D01*
X121728571Y-88482585D02*
X121814286Y-88568300D01*
X121814286Y-88568300D02*
X121942857Y-88611157D01*
X121942857Y-88611157D02*
X122028571Y-88611157D01*
X122028571Y-88611157D02*
X122157143Y-88568300D01*
X122157143Y-88568300D02*
X122200000Y-88525442D01*
X122200000Y-88525442D02*
X122200000Y-88225442D01*
X122200000Y-88225442D02*
X122028571Y-88225442D01*
X122585714Y-88611157D02*
X122585714Y-87711157D01*
X122585714Y-87711157D02*
X122928571Y-87711157D01*
X122928571Y-87711157D02*
X123014286Y-87754014D01*
X123014286Y-87754014D02*
X123057143Y-87796871D01*
X123057143Y-87796871D02*
X123100000Y-87882585D01*
X123100000Y-87882585D02*
X123100000Y-88011157D01*
X123100000Y-88011157D02*
X123057143Y-88096871D01*
X123057143Y-88096871D02*
X123014286Y-88139728D01*
X123014286Y-88139728D02*
X122928571Y-88182585D01*
X122928571Y-88182585D02*
X122585714Y-88182585D01*
X123657143Y-87711157D02*
X123742857Y-87711157D01*
X123742857Y-87711157D02*
X123828571Y-87754014D01*
X123828571Y-87754014D02*
X123871429Y-87796871D01*
X123871429Y-87796871D02*
X123914286Y-87882585D01*
X123914286Y-87882585D02*
X123957143Y-88054014D01*
X123957143Y-88054014D02*
X123957143Y-88268300D01*
X123957143Y-88268300D02*
X123914286Y-88439728D01*
X123914286Y-88439728D02*
X123871429Y-88525442D01*
X123871429Y-88525442D02*
X123828571Y-88568300D01*
X123828571Y-88568300D02*
X123742857Y-88611157D01*
X123742857Y-88611157D02*
X123657143Y-88611157D01*
X123657143Y-88611157D02*
X123571429Y-88568300D01*
X123571429Y-88568300D02*
X123528571Y-88525442D01*
X123528571Y-88525442D02*
X123485714Y-88439728D01*
X123485714Y-88439728D02*
X123442857Y-88268300D01*
X123442857Y-88268300D02*
X123442857Y-88054014D01*
X123442857Y-88054014D02*
X123485714Y-87882585D01*
X123485714Y-87882585D02*
X123528571Y-87796871D01*
X123528571Y-87796871D02*
X123571429Y-87754014D01*
X123571429Y-87754014D02*
X123657143Y-87711157D01*
X121728571Y-120774014D02*
X121642857Y-120731157D01*
X121642857Y-120731157D02*
X121514285Y-120731157D01*
X121514285Y-120731157D02*
X121385714Y-120774014D01*
X121385714Y-120774014D02*
X121299999Y-120859728D01*
X121299999Y-120859728D02*
X121257142Y-120945442D01*
X121257142Y-120945442D02*
X121214285Y-121116871D01*
X121214285Y-121116871D02*
X121214285Y-121245442D01*
X121214285Y-121245442D02*
X121257142Y-121416871D01*
X121257142Y-121416871D02*
X121299999Y-121502585D01*
X121299999Y-121502585D02*
X121385714Y-121588300D01*
X121385714Y-121588300D02*
X121514285Y-121631157D01*
X121514285Y-121631157D02*
X121599999Y-121631157D01*
X121599999Y-121631157D02*
X121728571Y-121588300D01*
X121728571Y-121588300D02*
X121771428Y-121545442D01*
X121771428Y-121545442D02*
X121771428Y-121245442D01*
X121771428Y-121245442D02*
X121599999Y-121245442D01*
X122157142Y-121631157D02*
X122157142Y-120731157D01*
X122157142Y-120731157D02*
X122499999Y-120731157D01*
X122499999Y-120731157D02*
X122585714Y-120774014D01*
X122585714Y-120774014D02*
X122628571Y-120816871D01*
X122628571Y-120816871D02*
X122671428Y-120902585D01*
X122671428Y-120902585D02*
X122671428Y-121031157D01*
X122671428Y-121031157D02*
X122628571Y-121116871D01*
X122628571Y-121116871D02*
X122585714Y-121159728D01*
X122585714Y-121159728D02*
X122499999Y-121202585D01*
X122499999Y-121202585D02*
X122157142Y-121202585D01*
X123528571Y-121631157D02*
X123014285Y-121631157D01*
X123271428Y-121631157D02*
X123271428Y-120731157D01*
X123271428Y-120731157D02*
X123185714Y-120859728D01*
X123185714Y-120859728D02*
X123099999Y-120945442D01*
X123099999Y-120945442D02*
X123014285Y-120988300D01*
X123828571Y-120731157D02*
X124385714Y-120731157D01*
X124385714Y-120731157D02*
X124085714Y-121074014D01*
X124085714Y-121074014D02*
X124214285Y-121074014D01*
X124214285Y-121074014D02*
X124300000Y-121116871D01*
X124300000Y-121116871D02*
X124342857Y-121159728D01*
X124342857Y-121159728D02*
X124385714Y-121245442D01*
X124385714Y-121245442D02*
X124385714Y-121459728D01*
X124385714Y-121459728D02*
X124342857Y-121545442D01*
X124342857Y-121545442D02*
X124300000Y-121588300D01*
X124300000Y-121588300D02*
X124214285Y-121631157D01*
X124214285Y-121631157D02*
X123957142Y-121631157D01*
X123957142Y-121631157D02*
X123871428Y-121588300D01*
X123871428Y-121588300D02*
X123828571Y-121545442D01*
X161478571Y-123808300D02*
X161607143Y-123851157D01*
X161607143Y-123851157D02*
X161821428Y-123851157D01*
X161821428Y-123851157D02*
X161907143Y-123808300D01*
X161907143Y-123808300D02*
X161950000Y-123765442D01*
X161950000Y-123765442D02*
X161992857Y-123679728D01*
X161992857Y-123679728D02*
X161992857Y-123594014D01*
X161992857Y-123594014D02*
X161950000Y-123508300D01*
X161950000Y-123508300D02*
X161907143Y-123465442D01*
X161907143Y-123465442D02*
X161821428Y-123422585D01*
X161821428Y-123422585D02*
X161650000Y-123379728D01*
X161650000Y-123379728D02*
X161564285Y-123336871D01*
X161564285Y-123336871D02*
X161521428Y-123294014D01*
X161521428Y-123294014D02*
X161478571Y-123208300D01*
X161478571Y-123208300D02*
X161478571Y-123122585D01*
X161478571Y-123122585D02*
X161521428Y-123036871D01*
X161521428Y-123036871D02*
X161564285Y-122994014D01*
X161564285Y-122994014D02*
X161650000Y-122951157D01*
X161650000Y-122951157D02*
X161864285Y-122951157D01*
X161864285Y-122951157D02*
X161992857Y-122994014D01*
X162292857Y-122951157D02*
X162507143Y-123851157D01*
X162507143Y-123851157D02*
X162678571Y-123208300D01*
X162678571Y-123208300D02*
X162850000Y-123851157D01*
X162850000Y-123851157D02*
X163064286Y-122951157D01*
X163407142Y-123851157D02*
X163407142Y-122951157D01*
X163407142Y-122951157D02*
X163621428Y-122951157D01*
X163621428Y-122951157D02*
X163749999Y-122994014D01*
X163749999Y-122994014D02*
X163835714Y-123079728D01*
X163835714Y-123079728D02*
X163878571Y-123165442D01*
X163878571Y-123165442D02*
X163921428Y-123336871D01*
X163921428Y-123336871D02*
X163921428Y-123465442D01*
X163921428Y-123465442D02*
X163878571Y-123636871D01*
X163878571Y-123636871D02*
X163835714Y-123722585D01*
X163835714Y-123722585D02*
X163749999Y-123808300D01*
X163749999Y-123808300D02*
X163621428Y-123851157D01*
X163621428Y-123851157D02*
X163407142Y-123851157D01*
X122114286Y-128394014D02*
X122028572Y-128351157D01*
X122028572Y-128351157D02*
X121900000Y-128351157D01*
X121900000Y-128351157D02*
X121771429Y-128394014D01*
X121771429Y-128394014D02*
X121685714Y-128479728D01*
X121685714Y-128479728D02*
X121642857Y-128565442D01*
X121642857Y-128565442D02*
X121600000Y-128736871D01*
X121600000Y-128736871D02*
X121600000Y-128865442D01*
X121600000Y-128865442D02*
X121642857Y-129036871D01*
X121642857Y-129036871D02*
X121685714Y-129122585D01*
X121685714Y-129122585D02*
X121771429Y-129208300D01*
X121771429Y-129208300D02*
X121900000Y-129251157D01*
X121900000Y-129251157D02*
X121985714Y-129251157D01*
X121985714Y-129251157D02*
X122114286Y-129208300D01*
X122114286Y-129208300D02*
X122157143Y-129165442D01*
X122157143Y-129165442D02*
X122157143Y-128865442D01*
X122157143Y-128865442D02*
X121985714Y-128865442D01*
X122542857Y-129251157D02*
X122542857Y-128351157D01*
X122542857Y-128351157D02*
X123057143Y-129251157D01*
X123057143Y-129251157D02*
X123057143Y-128351157D01*
X123485714Y-129251157D02*
X123485714Y-128351157D01*
X123485714Y-128351157D02*
X123700000Y-128351157D01*
X123700000Y-128351157D02*
X123828571Y-128394014D01*
X123828571Y-128394014D02*
X123914286Y-128479728D01*
X123914286Y-128479728D02*
X123957143Y-128565442D01*
X123957143Y-128565442D02*
X124000000Y-128736871D01*
X124000000Y-128736871D02*
X124000000Y-128865442D01*
X124000000Y-128865442D02*
X123957143Y-129036871D01*
X123957143Y-129036871D02*
X123914286Y-129122585D01*
X123914286Y-129122585D02*
X123828571Y-129208300D01*
X123828571Y-129208300D02*
X123700000Y-129251157D01*
X123700000Y-129251157D02*
X123485714Y-129251157D01*
X121685714Y-85171157D02*
X122242857Y-85171157D01*
X122242857Y-85171157D02*
X121942857Y-85514014D01*
X121942857Y-85514014D02*
X122071428Y-85514014D01*
X122071428Y-85514014D02*
X122157143Y-85556871D01*
X122157143Y-85556871D02*
X122200000Y-85599728D01*
X122200000Y-85599728D02*
X122242857Y-85685442D01*
X122242857Y-85685442D02*
X122242857Y-85899728D01*
X122242857Y-85899728D02*
X122200000Y-85985442D01*
X122200000Y-85985442D02*
X122157143Y-86028300D01*
X122157143Y-86028300D02*
X122071428Y-86071157D01*
X122071428Y-86071157D02*
X121814285Y-86071157D01*
X121814285Y-86071157D02*
X121728571Y-86028300D01*
X121728571Y-86028300D02*
X121685714Y-85985442D01*
X122500000Y-85171157D02*
X122800000Y-86071157D01*
X122800000Y-86071157D02*
X123100000Y-85171157D01*
X123314286Y-85171157D02*
X123871429Y-85171157D01*
X123871429Y-85171157D02*
X123571429Y-85514014D01*
X123571429Y-85514014D02*
X123700000Y-85514014D01*
X123700000Y-85514014D02*
X123785715Y-85556871D01*
X123785715Y-85556871D02*
X123828572Y-85599728D01*
X123828572Y-85599728D02*
X123871429Y-85685442D01*
X123871429Y-85685442D02*
X123871429Y-85899728D01*
X123871429Y-85899728D02*
X123828572Y-85985442D01*
X123828572Y-85985442D02*
X123785715Y-86028300D01*
X123785715Y-86028300D02*
X123700000Y-86071157D01*
X123700000Y-86071157D02*
X123442857Y-86071157D01*
X123442857Y-86071157D02*
X123357143Y-86028300D01*
X123357143Y-86028300D02*
X123314286Y-85985442D01*
X122157143Y-105534014D02*
X122071429Y-105491157D01*
X122071429Y-105491157D02*
X121942857Y-105491157D01*
X121942857Y-105491157D02*
X121814286Y-105534014D01*
X121814286Y-105534014D02*
X121728571Y-105619728D01*
X121728571Y-105619728D02*
X121685714Y-105705442D01*
X121685714Y-105705442D02*
X121642857Y-105876871D01*
X121642857Y-105876871D02*
X121642857Y-106005442D01*
X121642857Y-106005442D02*
X121685714Y-106176871D01*
X121685714Y-106176871D02*
X121728571Y-106262585D01*
X121728571Y-106262585D02*
X121814286Y-106348300D01*
X121814286Y-106348300D02*
X121942857Y-106391157D01*
X121942857Y-106391157D02*
X122028571Y-106391157D01*
X122028571Y-106391157D02*
X122157143Y-106348300D01*
X122157143Y-106348300D02*
X122200000Y-106305442D01*
X122200000Y-106305442D02*
X122200000Y-106005442D01*
X122200000Y-106005442D02*
X122028571Y-106005442D01*
X122585714Y-106391157D02*
X122585714Y-105491157D01*
X122585714Y-105491157D02*
X122928571Y-105491157D01*
X122928571Y-105491157D02*
X123014286Y-105534014D01*
X123014286Y-105534014D02*
X123057143Y-105576871D01*
X123057143Y-105576871D02*
X123100000Y-105662585D01*
X123100000Y-105662585D02*
X123100000Y-105791157D01*
X123100000Y-105791157D02*
X123057143Y-105876871D01*
X123057143Y-105876871D02*
X123014286Y-105919728D01*
X123014286Y-105919728D02*
X122928571Y-105962585D01*
X122928571Y-105962585D02*
X122585714Y-105962585D01*
X123400000Y-105491157D02*
X124000000Y-105491157D01*
X124000000Y-105491157D02*
X123614286Y-106391157D01*
X162014286Y-128074014D02*
X161928572Y-128031157D01*
X161928572Y-128031157D02*
X161800000Y-128031157D01*
X161800000Y-128031157D02*
X161671429Y-128074014D01*
X161671429Y-128074014D02*
X161585714Y-128159728D01*
X161585714Y-128159728D02*
X161542857Y-128245442D01*
X161542857Y-128245442D02*
X161500000Y-128416871D01*
X161500000Y-128416871D02*
X161500000Y-128545442D01*
X161500000Y-128545442D02*
X161542857Y-128716871D01*
X161542857Y-128716871D02*
X161585714Y-128802585D01*
X161585714Y-128802585D02*
X161671429Y-128888300D01*
X161671429Y-128888300D02*
X161800000Y-128931157D01*
X161800000Y-128931157D02*
X161885714Y-128931157D01*
X161885714Y-128931157D02*
X162014286Y-128888300D01*
X162014286Y-128888300D02*
X162057143Y-128845442D01*
X162057143Y-128845442D02*
X162057143Y-128545442D01*
X162057143Y-128545442D02*
X161885714Y-128545442D01*
X162442857Y-128931157D02*
X162442857Y-128031157D01*
X162442857Y-128031157D02*
X162957143Y-128931157D01*
X162957143Y-128931157D02*
X162957143Y-128031157D01*
X163385714Y-128931157D02*
X163385714Y-128031157D01*
X163385714Y-128031157D02*
X163600000Y-128031157D01*
X163600000Y-128031157D02*
X163728571Y-128074014D01*
X163728571Y-128074014D02*
X163814286Y-128159728D01*
X163814286Y-128159728D02*
X163857143Y-128245442D01*
X163857143Y-128245442D02*
X163900000Y-128416871D01*
X163900000Y-128416871D02*
X163900000Y-128545442D01*
X163900000Y-128545442D02*
X163857143Y-128716871D01*
X163857143Y-128716871D02*
X163814286Y-128802585D01*
X163814286Y-128802585D02*
X163728571Y-128888300D01*
X163728571Y-128888300D02*
X163600000Y-128931157D01*
X163600000Y-128931157D02*
X163385714Y-128931157D01*
D11*
X148426015Y-128179803D02*
X148426015Y-128760375D01*
X148426015Y-128760375D02*
X148387310Y-128876489D01*
X148387310Y-128876489D02*
X148309901Y-128953899D01*
X148309901Y-128953899D02*
X148193786Y-128992603D01*
X148193786Y-128992603D02*
X148116377Y-128992603D01*
X149200110Y-128992603D02*
X148813062Y-128992603D01*
X148813062Y-128992603D02*
X148813062Y-128179803D01*
X149935500Y-128915194D02*
X149896796Y-128953899D01*
X149896796Y-128953899D02*
X149780681Y-128992603D01*
X149780681Y-128992603D02*
X149703272Y-128992603D01*
X149703272Y-128992603D02*
X149587158Y-128953899D01*
X149587158Y-128953899D02*
X149509748Y-128876489D01*
X149509748Y-128876489D02*
X149471043Y-128799079D01*
X149471043Y-128799079D02*
X149432339Y-128644260D01*
X149432339Y-128644260D02*
X149432339Y-128528146D01*
X149432339Y-128528146D02*
X149471043Y-128373327D01*
X149471043Y-128373327D02*
X149509748Y-128295918D01*
X149509748Y-128295918D02*
X149587158Y-128218508D01*
X149587158Y-128218508D02*
X149703272Y-128179803D01*
X149703272Y-128179803D02*
X149780681Y-128179803D01*
X149780681Y-128179803D02*
X149896796Y-128218508D01*
X149896796Y-128218508D02*
X149935500Y-128257213D01*
X150516072Y-128179803D02*
X150516072Y-128760375D01*
X150516072Y-128760375D02*
X150477367Y-128876489D01*
X150477367Y-128876489D02*
X150399958Y-128953899D01*
X150399958Y-128953899D02*
X150283843Y-128992603D01*
X150283843Y-128992603D02*
X150206434Y-128992603D01*
X151290167Y-128992603D02*
X150903119Y-128992603D01*
X150903119Y-128992603D02*
X150903119Y-128179803D01*
X152025557Y-128915194D02*
X151986853Y-128953899D01*
X151986853Y-128953899D02*
X151870738Y-128992603D01*
X151870738Y-128992603D02*
X151793329Y-128992603D01*
X151793329Y-128992603D02*
X151677215Y-128953899D01*
X151677215Y-128953899D02*
X151599805Y-128876489D01*
X151599805Y-128876489D02*
X151561100Y-128799079D01*
X151561100Y-128799079D02*
X151522396Y-128644260D01*
X151522396Y-128644260D02*
X151522396Y-128528146D01*
X151522396Y-128528146D02*
X151561100Y-128373327D01*
X151561100Y-128373327D02*
X151599805Y-128295918D01*
X151599805Y-128295918D02*
X151677215Y-128218508D01*
X151677215Y-128218508D02*
X151793329Y-128179803D01*
X151793329Y-128179803D02*
X151870738Y-128179803D01*
X151870738Y-128179803D02*
X151986853Y-128218508D01*
X151986853Y-128218508D02*
X152025557Y-128257213D01*
X152606129Y-128179803D02*
X152606129Y-128760375D01*
X152606129Y-128760375D02*
X152567424Y-128876489D01*
X152567424Y-128876489D02*
X152490015Y-128953899D01*
X152490015Y-128953899D02*
X152373900Y-128992603D01*
X152373900Y-128992603D02*
X152296491Y-128992603D01*
X153380224Y-128992603D02*
X152993176Y-128992603D01*
X152993176Y-128992603D02*
X152993176Y-128179803D01*
X154115614Y-128915194D02*
X154076910Y-128953899D01*
X154076910Y-128953899D02*
X153960795Y-128992603D01*
X153960795Y-128992603D02*
X153883386Y-128992603D01*
X153883386Y-128992603D02*
X153767272Y-128953899D01*
X153767272Y-128953899D02*
X153689862Y-128876489D01*
X153689862Y-128876489D02*
X153651157Y-128799079D01*
X153651157Y-128799079D02*
X153612453Y-128644260D01*
X153612453Y-128644260D02*
X153612453Y-128528146D01*
X153612453Y-128528146D02*
X153651157Y-128373327D01*
X153651157Y-128373327D02*
X153689862Y-128295918D01*
X153689862Y-128295918D02*
X153767272Y-128218508D01*
X153767272Y-128218508D02*
X153883386Y-128179803D01*
X153883386Y-128179803D02*
X153960795Y-128179803D01*
X153960795Y-128179803D02*
X154076910Y-128218508D01*
X154076910Y-128218508D02*
X154115614Y-128257213D01*
X154696186Y-128179803D02*
X154696186Y-128760375D01*
X154696186Y-128760375D02*
X154657481Y-128876489D01*
X154657481Y-128876489D02*
X154580072Y-128953899D01*
X154580072Y-128953899D02*
X154463957Y-128992603D01*
X154463957Y-128992603D02*
X154386548Y-128992603D01*
X155470281Y-128992603D02*
X155083233Y-128992603D01*
X155083233Y-128992603D02*
X155083233Y-128179803D01*
X156205671Y-128915194D02*
X156166967Y-128953899D01*
X156166967Y-128953899D02*
X156050852Y-128992603D01*
X156050852Y-128992603D02*
X155973443Y-128992603D01*
X155973443Y-128992603D02*
X155857329Y-128953899D01*
X155857329Y-128953899D02*
X155779919Y-128876489D01*
X155779919Y-128876489D02*
X155741214Y-128799079D01*
X155741214Y-128799079D02*
X155702510Y-128644260D01*
X155702510Y-128644260D02*
X155702510Y-128528146D01*
X155702510Y-128528146D02*
X155741214Y-128373327D01*
X155741214Y-128373327D02*
X155779919Y-128295918D01*
X155779919Y-128295918D02*
X155857329Y-128218508D01*
X155857329Y-128218508D02*
X155973443Y-128179803D01*
X155973443Y-128179803D02*
X156050852Y-128179803D01*
X156050852Y-128179803D02*
X156166967Y-128218508D01*
X156166967Y-128218508D02*
X156205671Y-128257213D01*
D10*
X121728571Y-118234014D02*
X121642857Y-118191157D01*
X121642857Y-118191157D02*
X121514285Y-118191157D01*
X121514285Y-118191157D02*
X121385714Y-118234014D01*
X121385714Y-118234014D02*
X121299999Y-118319728D01*
X121299999Y-118319728D02*
X121257142Y-118405442D01*
X121257142Y-118405442D02*
X121214285Y-118576871D01*
X121214285Y-118576871D02*
X121214285Y-118705442D01*
X121214285Y-118705442D02*
X121257142Y-118876871D01*
X121257142Y-118876871D02*
X121299999Y-118962585D01*
X121299999Y-118962585D02*
X121385714Y-119048300D01*
X121385714Y-119048300D02*
X121514285Y-119091157D01*
X121514285Y-119091157D02*
X121599999Y-119091157D01*
X121599999Y-119091157D02*
X121728571Y-119048300D01*
X121728571Y-119048300D02*
X121771428Y-119005442D01*
X121771428Y-119005442D02*
X121771428Y-118705442D01*
X121771428Y-118705442D02*
X121599999Y-118705442D01*
X122157142Y-119091157D02*
X122157142Y-118191157D01*
X122157142Y-118191157D02*
X122499999Y-118191157D01*
X122499999Y-118191157D02*
X122585714Y-118234014D01*
X122585714Y-118234014D02*
X122628571Y-118276871D01*
X122628571Y-118276871D02*
X122671428Y-118362585D01*
X122671428Y-118362585D02*
X122671428Y-118491157D01*
X122671428Y-118491157D02*
X122628571Y-118576871D01*
X122628571Y-118576871D02*
X122585714Y-118619728D01*
X122585714Y-118619728D02*
X122499999Y-118662585D01*
X122499999Y-118662585D02*
X122157142Y-118662585D01*
X123528571Y-119091157D02*
X123014285Y-119091157D01*
X123271428Y-119091157D02*
X123271428Y-118191157D01*
X123271428Y-118191157D02*
X123185714Y-118319728D01*
X123185714Y-118319728D02*
X123099999Y-118405442D01*
X123099999Y-118405442D02*
X123014285Y-118448300D01*
X123871428Y-118276871D02*
X123914285Y-118234014D01*
X123914285Y-118234014D02*
X124000000Y-118191157D01*
X124000000Y-118191157D02*
X124214285Y-118191157D01*
X124214285Y-118191157D02*
X124300000Y-118234014D01*
X124300000Y-118234014D02*
X124342857Y-118276871D01*
X124342857Y-118276871D02*
X124385714Y-118362585D01*
X124385714Y-118362585D02*
X124385714Y-118448300D01*
X124385714Y-118448300D02*
X124342857Y-118576871D01*
X124342857Y-118576871D02*
X123828571Y-119091157D01*
X123828571Y-119091157D02*
X124385714Y-119091157D01*
X161628571Y-92514014D02*
X161542857Y-92471157D01*
X161542857Y-92471157D02*
X161414285Y-92471157D01*
X161414285Y-92471157D02*
X161285714Y-92514014D01*
X161285714Y-92514014D02*
X161199999Y-92599728D01*
X161199999Y-92599728D02*
X161157142Y-92685442D01*
X161157142Y-92685442D02*
X161114285Y-92856871D01*
X161114285Y-92856871D02*
X161114285Y-92985442D01*
X161114285Y-92985442D02*
X161157142Y-93156871D01*
X161157142Y-93156871D02*
X161199999Y-93242585D01*
X161199999Y-93242585D02*
X161285714Y-93328300D01*
X161285714Y-93328300D02*
X161414285Y-93371157D01*
X161414285Y-93371157D02*
X161499999Y-93371157D01*
X161499999Y-93371157D02*
X161628571Y-93328300D01*
X161628571Y-93328300D02*
X161671428Y-93285442D01*
X161671428Y-93285442D02*
X161671428Y-92985442D01*
X161671428Y-92985442D02*
X161499999Y-92985442D01*
X162057142Y-93371157D02*
X162057142Y-92471157D01*
X162057142Y-92471157D02*
X162399999Y-92471157D01*
X162399999Y-92471157D02*
X162485714Y-92514014D01*
X162485714Y-92514014D02*
X162528571Y-92556871D01*
X162528571Y-92556871D02*
X162571428Y-92642585D01*
X162571428Y-92642585D02*
X162571428Y-92771157D01*
X162571428Y-92771157D02*
X162528571Y-92856871D01*
X162528571Y-92856871D02*
X162485714Y-92899728D01*
X162485714Y-92899728D02*
X162399999Y-92942585D01*
X162399999Y-92942585D02*
X162057142Y-92942585D01*
X162914285Y-92556871D02*
X162957142Y-92514014D01*
X162957142Y-92514014D02*
X163042857Y-92471157D01*
X163042857Y-92471157D02*
X163257142Y-92471157D01*
X163257142Y-92471157D02*
X163342857Y-92514014D01*
X163342857Y-92514014D02*
X163385714Y-92556871D01*
X163385714Y-92556871D02*
X163428571Y-92642585D01*
X163428571Y-92642585D02*
X163428571Y-92728300D01*
X163428571Y-92728300D02*
X163385714Y-92856871D01*
X163385714Y-92856871D02*
X162871428Y-93371157D01*
X162871428Y-93371157D02*
X163428571Y-93371157D01*
X164200000Y-92471157D02*
X164028571Y-92471157D01*
X164028571Y-92471157D02*
X163942857Y-92514014D01*
X163942857Y-92514014D02*
X163900000Y-92556871D01*
X163900000Y-92556871D02*
X163814285Y-92685442D01*
X163814285Y-92685442D02*
X163771428Y-92856871D01*
X163771428Y-92856871D02*
X163771428Y-93199728D01*
X163771428Y-93199728D02*
X163814285Y-93285442D01*
X163814285Y-93285442D02*
X163857142Y-93328300D01*
X163857142Y-93328300D02*
X163942857Y-93371157D01*
X163942857Y-93371157D02*
X164114285Y-93371157D01*
X164114285Y-93371157D02*
X164200000Y-93328300D01*
X164200000Y-93328300D02*
X164242857Y-93285442D01*
X164242857Y-93285442D02*
X164285714Y-93199728D01*
X164285714Y-93199728D02*
X164285714Y-92985442D01*
X164285714Y-92985442D02*
X164242857Y-92899728D01*
X164242857Y-92899728D02*
X164200000Y-92856871D01*
X164200000Y-92856871D02*
X164114285Y-92814014D01*
X164114285Y-92814014D02*
X163942857Y-92814014D01*
X163942857Y-92814014D02*
X163857142Y-92856871D01*
X163857142Y-92856871D02*
X163814285Y-92899728D01*
X163814285Y-92899728D02*
X163771428Y-92985442D01*
X161116666Y-126768300D02*
X161216666Y-126811157D01*
X161216666Y-126811157D02*
X161383333Y-126811157D01*
X161383333Y-126811157D02*
X161449999Y-126768300D01*
X161449999Y-126768300D02*
X161483333Y-126725442D01*
X161483333Y-126725442D02*
X161516666Y-126639728D01*
X161516666Y-126639728D02*
X161516666Y-126554014D01*
X161516666Y-126554014D02*
X161483333Y-126468300D01*
X161483333Y-126468300D02*
X161449999Y-126425442D01*
X161449999Y-126425442D02*
X161383333Y-126382585D01*
X161383333Y-126382585D02*
X161249999Y-126339728D01*
X161249999Y-126339728D02*
X161183333Y-126296871D01*
X161183333Y-126296871D02*
X161149999Y-126254014D01*
X161149999Y-126254014D02*
X161116666Y-126168300D01*
X161116666Y-126168300D02*
X161116666Y-126082585D01*
X161116666Y-126082585D02*
X161149999Y-125996871D01*
X161149999Y-125996871D02*
X161183333Y-125954014D01*
X161183333Y-125954014D02*
X161249999Y-125911157D01*
X161249999Y-125911157D02*
X161416666Y-125911157D01*
X161416666Y-125911157D02*
X161516666Y-125954014D01*
X161750000Y-125911157D02*
X161916666Y-126811157D01*
X161916666Y-126811157D02*
X162050000Y-126168300D01*
X162050000Y-126168300D02*
X162183333Y-126811157D01*
X162183333Y-126811157D02*
X162350000Y-125911157D01*
X163016666Y-126725442D02*
X162983333Y-126768300D01*
X162983333Y-126768300D02*
X162883333Y-126811157D01*
X162883333Y-126811157D02*
X162816666Y-126811157D01*
X162816666Y-126811157D02*
X162716666Y-126768300D01*
X162716666Y-126768300D02*
X162650000Y-126682585D01*
X162650000Y-126682585D02*
X162616666Y-126596871D01*
X162616666Y-126596871D02*
X162583333Y-126425442D01*
X162583333Y-126425442D02*
X162583333Y-126296871D01*
X162583333Y-126296871D02*
X162616666Y-126125442D01*
X162616666Y-126125442D02*
X162650000Y-126039728D01*
X162650000Y-126039728D02*
X162716666Y-125954014D01*
X162716666Y-125954014D02*
X162816666Y-125911157D01*
X162816666Y-125911157D02*
X162883333Y-125911157D01*
X162883333Y-125911157D02*
X162983333Y-125954014D01*
X162983333Y-125954014D02*
X163016666Y-125996871D01*
X163650000Y-126811157D02*
X163316666Y-126811157D01*
X163316666Y-126811157D02*
X163316666Y-125911157D01*
X163883333Y-126811157D02*
X163883333Y-125911157D01*
X164283333Y-126811157D02*
X163983333Y-126296871D01*
X164283333Y-125911157D02*
X163883333Y-126425442D01*
X161628571Y-95054014D02*
X161542857Y-95011157D01*
X161542857Y-95011157D02*
X161414285Y-95011157D01*
X161414285Y-95011157D02*
X161285714Y-95054014D01*
X161285714Y-95054014D02*
X161199999Y-95139728D01*
X161199999Y-95139728D02*
X161157142Y-95225442D01*
X161157142Y-95225442D02*
X161114285Y-95396871D01*
X161114285Y-95396871D02*
X161114285Y-95525442D01*
X161114285Y-95525442D02*
X161157142Y-95696871D01*
X161157142Y-95696871D02*
X161199999Y-95782585D01*
X161199999Y-95782585D02*
X161285714Y-95868300D01*
X161285714Y-95868300D02*
X161414285Y-95911157D01*
X161414285Y-95911157D02*
X161499999Y-95911157D01*
X161499999Y-95911157D02*
X161628571Y-95868300D01*
X161628571Y-95868300D02*
X161671428Y-95825442D01*
X161671428Y-95825442D02*
X161671428Y-95525442D01*
X161671428Y-95525442D02*
X161499999Y-95525442D01*
X162057142Y-95911157D02*
X162057142Y-95011157D01*
X162057142Y-95011157D02*
X162399999Y-95011157D01*
X162399999Y-95011157D02*
X162485714Y-95054014D01*
X162485714Y-95054014D02*
X162528571Y-95096871D01*
X162528571Y-95096871D02*
X162571428Y-95182585D01*
X162571428Y-95182585D02*
X162571428Y-95311157D01*
X162571428Y-95311157D02*
X162528571Y-95396871D01*
X162528571Y-95396871D02*
X162485714Y-95439728D01*
X162485714Y-95439728D02*
X162399999Y-95482585D01*
X162399999Y-95482585D02*
X162057142Y-95482585D01*
X162914285Y-95096871D02*
X162957142Y-95054014D01*
X162957142Y-95054014D02*
X163042857Y-95011157D01*
X163042857Y-95011157D02*
X163257142Y-95011157D01*
X163257142Y-95011157D02*
X163342857Y-95054014D01*
X163342857Y-95054014D02*
X163385714Y-95096871D01*
X163385714Y-95096871D02*
X163428571Y-95182585D01*
X163428571Y-95182585D02*
X163428571Y-95268300D01*
X163428571Y-95268300D02*
X163385714Y-95396871D01*
X163385714Y-95396871D02*
X162871428Y-95911157D01*
X162871428Y-95911157D02*
X163428571Y-95911157D01*
X164242857Y-95011157D02*
X163814285Y-95011157D01*
X163814285Y-95011157D02*
X163771428Y-95439728D01*
X163771428Y-95439728D02*
X163814285Y-95396871D01*
X163814285Y-95396871D02*
X163900000Y-95354014D01*
X163900000Y-95354014D02*
X164114285Y-95354014D01*
X164114285Y-95354014D02*
X164200000Y-95396871D01*
X164200000Y-95396871D02*
X164242857Y-95439728D01*
X164242857Y-95439728D02*
X164285714Y-95525442D01*
X164285714Y-95525442D02*
X164285714Y-95739728D01*
X164285714Y-95739728D02*
X164242857Y-95825442D01*
X164242857Y-95825442D02*
X164200000Y-95868300D01*
X164200000Y-95868300D02*
X164114285Y-95911157D01*
X164114285Y-95911157D02*
X163900000Y-95911157D01*
X163900000Y-95911157D02*
X163814285Y-95868300D01*
X163814285Y-95868300D02*
X163771428Y-95825442D01*
D12*
X126520180Y-101916666D02*
X126520180Y-102107142D01*
X126520180Y-102107142D02*
X126472561Y-102202380D01*
X126472561Y-102202380D02*
X126377323Y-102297618D01*
X126377323Y-102297618D02*
X126186847Y-102345237D01*
X126186847Y-102345237D02*
X125853514Y-102345237D01*
X125853514Y-102345237D02*
X125663038Y-102297618D01*
X125663038Y-102297618D02*
X125567800Y-102202380D01*
X125567800Y-102202380D02*
X125520180Y-102107142D01*
X125520180Y-102107142D02*
X125520180Y-101916666D01*
X125520180Y-101916666D02*
X125567800Y-101821428D01*
X125567800Y-101821428D02*
X125663038Y-101726190D01*
X125663038Y-101726190D02*
X125853514Y-101678571D01*
X125853514Y-101678571D02*
X126186847Y-101678571D01*
X126186847Y-101678571D02*
X126377323Y-101726190D01*
X126377323Y-101726190D02*
X126472561Y-101821428D01*
X126472561Y-101821428D02*
X126520180Y-101916666D01*
X126186847Y-103202380D02*
X125520180Y-103202380D01*
X126186847Y-102773809D02*
X125663038Y-102773809D01*
X125663038Y-102773809D02*
X125567800Y-102821428D01*
X125567800Y-102821428D02*
X125520180Y-102916666D01*
X125520180Y-102916666D02*
X125520180Y-103059523D01*
X125520180Y-103059523D02*
X125567800Y-103154761D01*
X125567800Y-103154761D02*
X125615419Y-103202380D01*
X126186847Y-103535714D02*
X126186847Y-103916666D01*
X126520180Y-103678571D02*
X125663038Y-103678571D01*
X125663038Y-103678571D02*
X125567800Y-103726190D01*
X125567800Y-103726190D02*
X125520180Y-103821428D01*
X125520180Y-103821428D02*
X125520180Y-103916666D01*
X125567800Y-104630952D02*
X125520180Y-104535714D01*
X125520180Y-104535714D02*
X125520180Y-104345238D01*
X125520180Y-104345238D02*
X125567800Y-104250000D01*
X125567800Y-104250000D02*
X125663038Y-104202381D01*
X125663038Y-104202381D02*
X126043990Y-104202381D01*
X126043990Y-104202381D02*
X126139228Y-104250000D01*
X126139228Y-104250000D02*
X126186847Y-104345238D01*
X126186847Y-104345238D02*
X126186847Y-104535714D01*
X126186847Y-104535714D02*
X126139228Y-104630952D01*
X126139228Y-104630952D02*
X126043990Y-104678571D01*
X126043990Y-104678571D02*
X125948752Y-104678571D01*
X125948752Y-104678571D02*
X125853514Y-104202381D01*
X125520180Y-105107143D02*
X126186847Y-105107143D01*
X125996371Y-105107143D02*
X126091609Y-105154762D01*
X126091609Y-105154762D02*
X126139228Y-105202381D01*
X126139228Y-105202381D02*
X126186847Y-105297619D01*
X126186847Y-105297619D02*
X126186847Y-105392857D01*
X125520180Y-107059524D02*
X125996371Y-106726191D01*
X125520180Y-106488096D02*
X126520180Y-106488096D01*
X126520180Y-106488096D02*
X126520180Y-106869048D01*
X126520180Y-106869048D02*
X126472561Y-106964286D01*
X126472561Y-106964286D02*
X126424942Y-107011905D01*
X126424942Y-107011905D02*
X126329704Y-107059524D01*
X126329704Y-107059524D02*
X126186847Y-107059524D01*
X126186847Y-107059524D02*
X126091609Y-107011905D01*
X126091609Y-107011905D02*
X126043990Y-106964286D01*
X126043990Y-106964286D02*
X125996371Y-106869048D01*
X125996371Y-106869048D02*
X125996371Y-106488096D01*
X125520180Y-107630953D02*
X125567800Y-107535715D01*
X125567800Y-107535715D02*
X125615419Y-107488096D01*
X125615419Y-107488096D02*
X125710657Y-107440477D01*
X125710657Y-107440477D02*
X125996371Y-107440477D01*
X125996371Y-107440477D02*
X126091609Y-107488096D01*
X126091609Y-107488096D02*
X126139228Y-107535715D01*
X126139228Y-107535715D02*
X126186847Y-107630953D01*
X126186847Y-107630953D02*
X126186847Y-107773810D01*
X126186847Y-107773810D02*
X126139228Y-107869048D01*
X126139228Y-107869048D02*
X126091609Y-107916667D01*
X126091609Y-107916667D02*
X125996371Y-107964286D01*
X125996371Y-107964286D02*
X125710657Y-107964286D01*
X125710657Y-107964286D02*
X125615419Y-107916667D01*
X125615419Y-107916667D02*
X125567800Y-107869048D01*
X125567800Y-107869048D02*
X125520180Y-107773810D01*
X125520180Y-107773810D02*
X125520180Y-107630953D01*
X126186847Y-108297620D02*
X125520180Y-108488096D01*
X125520180Y-108488096D02*
X125996371Y-108678572D01*
X125996371Y-108678572D02*
X125520180Y-108869048D01*
X125520180Y-108869048D02*
X126186847Y-109059524D01*
X126472561Y-110726191D02*
X126520180Y-110630953D01*
X126520180Y-110630953D02*
X126520180Y-110488096D01*
X126520180Y-110488096D02*
X126472561Y-110345239D01*
X126472561Y-110345239D02*
X126377323Y-110250001D01*
X126377323Y-110250001D02*
X126282085Y-110202382D01*
X126282085Y-110202382D02*
X126091609Y-110154763D01*
X126091609Y-110154763D02*
X125948752Y-110154763D01*
X125948752Y-110154763D02*
X125758276Y-110202382D01*
X125758276Y-110202382D02*
X125663038Y-110250001D01*
X125663038Y-110250001D02*
X125567800Y-110345239D01*
X125567800Y-110345239D02*
X125520180Y-110488096D01*
X125520180Y-110488096D02*
X125520180Y-110583334D01*
X125520180Y-110583334D02*
X125567800Y-110726191D01*
X125567800Y-110726191D02*
X125615419Y-110773810D01*
X125615419Y-110773810D02*
X125948752Y-110773810D01*
X125948752Y-110773810D02*
X125948752Y-110583334D01*
X125520180Y-111202382D02*
X126520180Y-111202382D01*
X126520180Y-111202382D02*
X125520180Y-111773810D01*
X125520180Y-111773810D02*
X126520180Y-111773810D01*
X125520180Y-112250001D02*
X126520180Y-112250001D01*
X126520180Y-112250001D02*
X126520180Y-112488096D01*
X126520180Y-112488096D02*
X126472561Y-112630953D01*
X126472561Y-112630953D02*
X126377323Y-112726191D01*
X126377323Y-112726191D02*
X126282085Y-112773810D01*
X126282085Y-112773810D02*
X126091609Y-112821429D01*
X126091609Y-112821429D02*
X125948752Y-112821429D01*
X125948752Y-112821429D02*
X125758276Y-112773810D01*
X125758276Y-112773810D02*
X125663038Y-112726191D01*
X125663038Y-112726191D02*
X125567800Y-112630953D01*
X125567800Y-112630953D02*
X125520180Y-112488096D01*
X125520180Y-112488096D02*
X125520180Y-112250001D01*
D10*
X161628571Y-112834014D02*
X161542857Y-112791157D01*
X161542857Y-112791157D02*
X161414285Y-112791157D01*
X161414285Y-112791157D02*
X161285714Y-112834014D01*
X161285714Y-112834014D02*
X161199999Y-112919728D01*
X161199999Y-112919728D02*
X161157142Y-113005442D01*
X161157142Y-113005442D02*
X161114285Y-113176871D01*
X161114285Y-113176871D02*
X161114285Y-113305442D01*
X161114285Y-113305442D02*
X161157142Y-113476871D01*
X161157142Y-113476871D02*
X161199999Y-113562585D01*
X161199999Y-113562585D02*
X161285714Y-113648300D01*
X161285714Y-113648300D02*
X161414285Y-113691157D01*
X161414285Y-113691157D02*
X161499999Y-113691157D01*
X161499999Y-113691157D02*
X161628571Y-113648300D01*
X161628571Y-113648300D02*
X161671428Y-113605442D01*
X161671428Y-113605442D02*
X161671428Y-113305442D01*
X161671428Y-113305442D02*
X161499999Y-113305442D01*
X162057142Y-113691157D02*
X162057142Y-112791157D01*
X162057142Y-112791157D02*
X162399999Y-112791157D01*
X162399999Y-112791157D02*
X162485714Y-112834014D01*
X162485714Y-112834014D02*
X162528571Y-112876871D01*
X162528571Y-112876871D02*
X162571428Y-112962585D01*
X162571428Y-112962585D02*
X162571428Y-113091157D01*
X162571428Y-113091157D02*
X162528571Y-113176871D01*
X162528571Y-113176871D02*
X162485714Y-113219728D01*
X162485714Y-113219728D02*
X162399999Y-113262585D01*
X162399999Y-113262585D02*
X162057142Y-113262585D01*
X163428571Y-113691157D02*
X162914285Y-113691157D01*
X163171428Y-113691157D02*
X163171428Y-112791157D01*
X163171428Y-112791157D02*
X163085714Y-112919728D01*
X163085714Y-112919728D02*
X162999999Y-113005442D01*
X162999999Y-113005442D02*
X162914285Y-113048300D01*
X163942857Y-113176871D02*
X163857142Y-113134014D01*
X163857142Y-113134014D02*
X163814285Y-113091157D01*
X163814285Y-113091157D02*
X163771428Y-113005442D01*
X163771428Y-113005442D02*
X163771428Y-112962585D01*
X163771428Y-112962585D02*
X163814285Y-112876871D01*
X163814285Y-112876871D02*
X163857142Y-112834014D01*
X163857142Y-112834014D02*
X163942857Y-112791157D01*
X163942857Y-112791157D02*
X164114285Y-112791157D01*
X164114285Y-112791157D02*
X164200000Y-112834014D01*
X164200000Y-112834014D02*
X164242857Y-112876871D01*
X164242857Y-112876871D02*
X164285714Y-112962585D01*
X164285714Y-112962585D02*
X164285714Y-113005442D01*
X164285714Y-113005442D02*
X164242857Y-113091157D01*
X164242857Y-113091157D02*
X164200000Y-113134014D01*
X164200000Y-113134014D02*
X164114285Y-113176871D01*
X164114285Y-113176871D02*
X163942857Y-113176871D01*
X163942857Y-113176871D02*
X163857142Y-113219728D01*
X163857142Y-113219728D02*
X163814285Y-113262585D01*
X163814285Y-113262585D02*
X163771428Y-113348300D01*
X163771428Y-113348300D02*
X163771428Y-113519728D01*
X163771428Y-113519728D02*
X163814285Y-113605442D01*
X163814285Y-113605442D02*
X163857142Y-113648300D01*
X163857142Y-113648300D02*
X163942857Y-113691157D01*
X163942857Y-113691157D02*
X164114285Y-113691157D01*
X164114285Y-113691157D02*
X164200000Y-113648300D01*
X164200000Y-113648300D02*
X164242857Y-113605442D01*
X164242857Y-113605442D02*
X164285714Y-113519728D01*
X164285714Y-113519728D02*
X164285714Y-113348300D01*
X164285714Y-113348300D02*
X164242857Y-113262585D01*
X164242857Y-113262585D02*
X164200000Y-113219728D01*
X164200000Y-113219728D02*
X164114285Y-113176871D01*
X122157143Y-102994014D02*
X122071429Y-102951157D01*
X122071429Y-102951157D02*
X121942857Y-102951157D01*
X121942857Y-102951157D02*
X121814286Y-102994014D01*
X121814286Y-102994014D02*
X121728571Y-103079728D01*
X121728571Y-103079728D02*
X121685714Y-103165442D01*
X121685714Y-103165442D02*
X121642857Y-103336871D01*
X121642857Y-103336871D02*
X121642857Y-103465442D01*
X121642857Y-103465442D02*
X121685714Y-103636871D01*
X121685714Y-103636871D02*
X121728571Y-103722585D01*
X121728571Y-103722585D02*
X121814286Y-103808300D01*
X121814286Y-103808300D02*
X121942857Y-103851157D01*
X121942857Y-103851157D02*
X122028571Y-103851157D01*
X122028571Y-103851157D02*
X122157143Y-103808300D01*
X122157143Y-103808300D02*
X122200000Y-103765442D01*
X122200000Y-103765442D02*
X122200000Y-103465442D01*
X122200000Y-103465442D02*
X122028571Y-103465442D01*
X122585714Y-103851157D02*
X122585714Y-102951157D01*
X122585714Y-102951157D02*
X122928571Y-102951157D01*
X122928571Y-102951157D02*
X123014286Y-102994014D01*
X123014286Y-102994014D02*
X123057143Y-103036871D01*
X123057143Y-103036871D02*
X123100000Y-103122585D01*
X123100000Y-103122585D02*
X123100000Y-103251157D01*
X123100000Y-103251157D02*
X123057143Y-103336871D01*
X123057143Y-103336871D02*
X123014286Y-103379728D01*
X123014286Y-103379728D02*
X122928571Y-103422585D01*
X122928571Y-103422585D02*
X122585714Y-103422585D01*
X123871429Y-102951157D02*
X123700000Y-102951157D01*
X123700000Y-102951157D02*
X123614286Y-102994014D01*
X123614286Y-102994014D02*
X123571429Y-103036871D01*
X123571429Y-103036871D02*
X123485714Y-103165442D01*
X123485714Y-103165442D02*
X123442857Y-103336871D01*
X123442857Y-103336871D02*
X123442857Y-103679728D01*
X123442857Y-103679728D02*
X123485714Y-103765442D01*
X123485714Y-103765442D02*
X123528571Y-103808300D01*
X123528571Y-103808300D02*
X123614286Y-103851157D01*
X123614286Y-103851157D02*
X123785714Y-103851157D01*
X123785714Y-103851157D02*
X123871429Y-103808300D01*
X123871429Y-103808300D02*
X123914286Y-103765442D01*
X123914286Y-103765442D02*
X123957143Y-103679728D01*
X123957143Y-103679728D02*
X123957143Y-103465442D01*
X123957143Y-103465442D02*
X123914286Y-103379728D01*
X123914286Y-103379728D02*
X123871429Y-103336871D01*
X123871429Y-103336871D02*
X123785714Y-103294014D01*
X123785714Y-103294014D02*
X123614286Y-103294014D01*
X123614286Y-103294014D02*
X123528571Y-103336871D01*
X123528571Y-103336871D02*
X123485714Y-103379728D01*
X123485714Y-103379728D02*
X123442857Y-103465442D01*
X121728571Y-115694014D02*
X121642857Y-115651157D01*
X121642857Y-115651157D02*
X121514285Y-115651157D01*
X121514285Y-115651157D02*
X121385714Y-115694014D01*
X121385714Y-115694014D02*
X121299999Y-115779728D01*
X121299999Y-115779728D02*
X121257142Y-115865442D01*
X121257142Y-115865442D02*
X121214285Y-116036871D01*
X121214285Y-116036871D02*
X121214285Y-116165442D01*
X121214285Y-116165442D02*
X121257142Y-116336871D01*
X121257142Y-116336871D02*
X121299999Y-116422585D01*
X121299999Y-116422585D02*
X121385714Y-116508300D01*
X121385714Y-116508300D02*
X121514285Y-116551157D01*
X121514285Y-116551157D02*
X121599999Y-116551157D01*
X121599999Y-116551157D02*
X121728571Y-116508300D01*
X121728571Y-116508300D02*
X121771428Y-116465442D01*
X121771428Y-116465442D02*
X121771428Y-116165442D01*
X121771428Y-116165442D02*
X121599999Y-116165442D01*
X122157142Y-116551157D02*
X122157142Y-115651157D01*
X122157142Y-115651157D02*
X122499999Y-115651157D01*
X122499999Y-115651157D02*
X122585714Y-115694014D01*
X122585714Y-115694014D02*
X122628571Y-115736871D01*
X122628571Y-115736871D02*
X122671428Y-115822585D01*
X122671428Y-115822585D02*
X122671428Y-115951157D01*
X122671428Y-115951157D02*
X122628571Y-116036871D01*
X122628571Y-116036871D02*
X122585714Y-116079728D01*
X122585714Y-116079728D02*
X122499999Y-116122585D01*
X122499999Y-116122585D02*
X122157142Y-116122585D01*
X123528571Y-116551157D02*
X123014285Y-116551157D01*
X123271428Y-116551157D02*
X123271428Y-115651157D01*
X123271428Y-115651157D02*
X123185714Y-115779728D01*
X123185714Y-115779728D02*
X123099999Y-115865442D01*
X123099999Y-115865442D02*
X123014285Y-115908300D01*
X124385714Y-116551157D02*
X123871428Y-116551157D01*
X124128571Y-116551157D02*
X124128571Y-115651157D01*
X124128571Y-115651157D02*
X124042857Y-115779728D01*
X124042857Y-115779728D02*
X123957142Y-115865442D01*
X123957142Y-115865442D02*
X123871428Y-115908300D01*
X121728571Y-125854014D02*
X121642857Y-125811157D01*
X121642857Y-125811157D02*
X121514285Y-125811157D01*
X121514285Y-125811157D02*
X121385714Y-125854014D01*
X121385714Y-125854014D02*
X121299999Y-125939728D01*
X121299999Y-125939728D02*
X121257142Y-126025442D01*
X121257142Y-126025442D02*
X121214285Y-126196871D01*
X121214285Y-126196871D02*
X121214285Y-126325442D01*
X121214285Y-126325442D02*
X121257142Y-126496871D01*
X121257142Y-126496871D02*
X121299999Y-126582585D01*
X121299999Y-126582585D02*
X121385714Y-126668300D01*
X121385714Y-126668300D02*
X121514285Y-126711157D01*
X121514285Y-126711157D02*
X121599999Y-126711157D01*
X121599999Y-126711157D02*
X121728571Y-126668300D01*
X121728571Y-126668300D02*
X121771428Y-126625442D01*
X121771428Y-126625442D02*
X121771428Y-126325442D01*
X121771428Y-126325442D02*
X121599999Y-126325442D01*
X122157142Y-126711157D02*
X122157142Y-125811157D01*
X122157142Y-125811157D02*
X122499999Y-125811157D01*
X122499999Y-125811157D02*
X122585714Y-125854014D01*
X122585714Y-125854014D02*
X122628571Y-125896871D01*
X122628571Y-125896871D02*
X122671428Y-125982585D01*
X122671428Y-125982585D02*
X122671428Y-126111157D01*
X122671428Y-126111157D02*
X122628571Y-126196871D01*
X122628571Y-126196871D02*
X122585714Y-126239728D01*
X122585714Y-126239728D02*
X122499999Y-126282585D01*
X122499999Y-126282585D02*
X122157142Y-126282585D01*
X123528571Y-126711157D02*
X123014285Y-126711157D01*
X123271428Y-126711157D02*
X123271428Y-125811157D01*
X123271428Y-125811157D02*
X123185714Y-125939728D01*
X123185714Y-125939728D02*
X123099999Y-126025442D01*
X123099999Y-126025442D02*
X123014285Y-126068300D01*
X124342857Y-125811157D02*
X123914285Y-125811157D01*
X123914285Y-125811157D02*
X123871428Y-126239728D01*
X123871428Y-126239728D02*
X123914285Y-126196871D01*
X123914285Y-126196871D02*
X124000000Y-126154014D01*
X124000000Y-126154014D02*
X124214285Y-126154014D01*
X124214285Y-126154014D02*
X124300000Y-126196871D01*
X124300000Y-126196871D02*
X124342857Y-126239728D01*
X124342857Y-126239728D02*
X124385714Y-126325442D01*
X124385714Y-126325442D02*
X124385714Y-126539728D01*
X124385714Y-126539728D02*
X124342857Y-126625442D01*
X124342857Y-126625442D02*
X124300000Y-126668300D01*
X124300000Y-126668300D02*
X124214285Y-126711157D01*
X124214285Y-126711157D02*
X124000000Y-126711157D01*
X124000000Y-126711157D02*
X123914285Y-126668300D01*
X123914285Y-126668300D02*
X123871428Y-126625442D01*
X161628571Y-89974014D02*
X161542857Y-89931157D01*
X161542857Y-89931157D02*
X161414285Y-89931157D01*
X161414285Y-89931157D02*
X161285714Y-89974014D01*
X161285714Y-89974014D02*
X161199999Y-90059728D01*
X161199999Y-90059728D02*
X161157142Y-90145442D01*
X161157142Y-90145442D02*
X161114285Y-90316871D01*
X161114285Y-90316871D02*
X161114285Y-90445442D01*
X161114285Y-90445442D02*
X161157142Y-90616871D01*
X161157142Y-90616871D02*
X161199999Y-90702585D01*
X161199999Y-90702585D02*
X161285714Y-90788300D01*
X161285714Y-90788300D02*
X161414285Y-90831157D01*
X161414285Y-90831157D02*
X161499999Y-90831157D01*
X161499999Y-90831157D02*
X161628571Y-90788300D01*
X161628571Y-90788300D02*
X161671428Y-90745442D01*
X161671428Y-90745442D02*
X161671428Y-90445442D01*
X161671428Y-90445442D02*
X161499999Y-90445442D01*
X162057142Y-90831157D02*
X162057142Y-89931157D01*
X162057142Y-89931157D02*
X162399999Y-89931157D01*
X162399999Y-89931157D02*
X162485714Y-89974014D01*
X162485714Y-89974014D02*
X162528571Y-90016871D01*
X162528571Y-90016871D02*
X162571428Y-90102585D01*
X162571428Y-90102585D02*
X162571428Y-90231157D01*
X162571428Y-90231157D02*
X162528571Y-90316871D01*
X162528571Y-90316871D02*
X162485714Y-90359728D01*
X162485714Y-90359728D02*
X162399999Y-90402585D01*
X162399999Y-90402585D02*
X162057142Y-90402585D01*
X162914285Y-90016871D02*
X162957142Y-89974014D01*
X162957142Y-89974014D02*
X163042857Y-89931157D01*
X163042857Y-89931157D02*
X163257142Y-89931157D01*
X163257142Y-89931157D02*
X163342857Y-89974014D01*
X163342857Y-89974014D02*
X163385714Y-90016871D01*
X163385714Y-90016871D02*
X163428571Y-90102585D01*
X163428571Y-90102585D02*
X163428571Y-90188300D01*
X163428571Y-90188300D02*
X163385714Y-90316871D01*
X163385714Y-90316871D02*
X162871428Y-90831157D01*
X162871428Y-90831157D02*
X163428571Y-90831157D01*
X163728571Y-89931157D02*
X164328571Y-89931157D01*
X164328571Y-89931157D02*
X163942857Y-90831157D01*
X161628571Y-84894014D02*
X161542857Y-84851157D01*
X161542857Y-84851157D02*
X161414285Y-84851157D01*
X161414285Y-84851157D02*
X161285714Y-84894014D01*
X161285714Y-84894014D02*
X161199999Y-84979728D01*
X161199999Y-84979728D02*
X161157142Y-85065442D01*
X161157142Y-85065442D02*
X161114285Y-85236871D01*
X161114285Y-85236871D02*
X161114285Y-85365442D01*
X161114285Y-85365442D02*
X161157142Y-85536871D01*
X161157142Y-85536871D02*
X161199999Y-85622585D01*
X161199999Y-85622585D02*
X161285714Y-85708300D01*
X161285714Y-85708300D02*
X161414285Y-85751157D01*
X161414285Y-85751157D02*
X161499999Y-85751157D01*
X161499999Y-85751157D02*
X161628571Y-85708300D01*
X161628571Y-85708300D02*
X161671428Y-85665442D01*
X161671428Y-85665442D02*
X161671428Y-85365442D01*
X161671428Y-85365442D02*
X161499999Y-85365442D01*
X162057142Y-85751157D02*
X162057142Y-84851157D01*
X162057142Y-84851157D02*
X162399999Y-84851157D01*
X162399999Y-84851157D02*
X162485714Y-84894014D01*
X162485714Y-84894014D02*
X162528571Y-84936871D01*
X162528571Y-84936871D02*
X162571428Y-85022585D01*
X162571428Y-85022585D02*
X162571428Y-85151157D01*
X162571428Y-85151157D02*
X162528571Y-85236871D01*
X162528571Y-85236871D02*
X162485714Y-85279728D01*
X162485714Y-85279728D02*
X162399999Y-85322585D01*
X162399999Y-85322585D02*
X162057142Y-85322585D01*
X162914285Y-84936871D02*
X162957142Y-84894014D01*
X162957142Y-84894014D02*
X163042857Y-84851157D01*
X163042857Y-84851157D02*
X163257142Y-84851157D01*
X163257142Y-84851157D02*
X163342857Y-84894014D01*
X163342857Y-84894014D02*
X163385714Y-84936871D01*
X163385714Y-84936871D02*
X163428571Y-85022585D01*
X163428571Y-85022585D02*
X163428571Y-85108300D01*
X163428571Y-85108300D02*
X163385714Y-85236871D01*
X163385714Y-85236871D02*
X162871428Y-85751157D01*
X162871428Y-85751157D02*
X163428571Y-85751157D01*
X163857142Y-85751157D02*
X164028571Y-85751157D01*
X164028571Y-85751157D02*
X164114285Y-85708300D01*
X164114285Y-85708300D02*
X164157142Y-85665442D01*
X164157142Y-85665442D02*
X164242857Y-85536871D01*
X164242857Y-85536871D02*
X164285714Y-85365442D01*
X164285714Y-85365442D02*
X164285714Y-85022585D01*
X164285714Y-85022585D02*
X164242857Y-84936871D01*
X164242857Y-84936871D02*
X164200000Y-84894014D01*
X164200000Y-84894014D02*
X164114285Y-84851157D01*
X164114285Y-84851157D02*
X163942857Y-84851157D01*
X163942857Y-84851157D02*
X163857142Y-84894014D01*
X163857142Y-84894014D02*
X163814285Y-84936871D01*
X163814285Y-84936871D02*
X163771428Y-85022585D01*
X163771428Y-85022585D02*
X163771428Y-85236871D01*
X163771428Y-85236871D02*
X163814285Y-85322585D01*
X163814285Y-85322585D02*
X163857142Y-85365442D01*
X163857142Y-85365442D02*
X163942857Y-85408300D01*
X163942857Y-85408300D02*
X164114285Y-85408300D01*
X164114285Y-85408300D02*
X164200000Y-85365442D01*
X164200000Y-85365442D02*
X164242857Y-85322585D01*
X164242857Y-85322585D02*
X164285714Y-85236871D01*
X161628571Y-100134014D02*
X161542857Y-100091157D01*
X161542857Y-100091157D02*
X161414285Y-100091157D01*
X161414285Y-100091157D02*
X161285714Y-100134014D01*
X161285714Y-100134014D02*
X161199999Y-100219728D01*
X161199999Y-100219728D02*
X161157142Y-100305442D01*
X161157142Y-100305442D02*
X161114285Y-100476871D01*
X161114285Y-100476871D02*
X161114285Y-100605442D01*
X161114285Y-100605442D02*
X161157142Y-100776871D01*
X161157142Y-100776871D02*
X161199999Y-100862585D01*
X161199999Y-100862585D02*
X161285714Y-100948300D01*
X161285714Y-100948300D02*
X161414285Y-100991157D01*
X161414285Y-100991157D02*
X161499999Y-100991157D01*
X161499999Y-100991157D02*
X161628571Y-100948300D01*
X161628571Y-100948300D02*
X161671428Y-100905442D01*
X161671428Y-100905442D02*
X161671428Y-100605442D01*
X161671428Y-100605442D02*
X161499999Y-100605442D01*
X162057142Y-100991157D02*
X162057142Y-100091157D01*
X162057142Y-100091157D02*
X162399999Y-100091157D01*
X162399999Y-100091157D02*
X162485714Y-100134014D01*
X162485714Y-100134014D02*
X162528571Y-100176871D01*
X162528571Y-100176871D02*
X162571428Y-100262585D01*
X162571428Y-100262585D02*
X162571428Y-100391157D01*
X162571428Y-100391157D02*
X162528571Y-100476871D01*
X162528571Y-100476871D02*
X162485714Y-100519728D01*
X162485714Y-100519728D02*
X162399999Y-100562585D01*
X162399999Y-100562585D02*
X162057142Y-100562585D01*
X162914285Y-100176871D02*
X162957142Y-100134014D01*
X162957142Y-100134014D02*
X163042857Y-100091157D01*
X163042857Y-100091157D02*
X163257142Y-100091157D01*
X163257142Y-100091157D02*
X163342857Y-100134014D01*
X163342857Y-100134014D02*
X163385714Y-100176871D01*
X163385714Y-100176871D02*
X163428571Y-100262585D01*
X163428571Y-100262585D02*
X163428571Y-100348300D01*
X163428571Y-100348300D02*
X163385714Y-100476871D01*
X163385714Y-100476871D02*
X162871428Y-100991157D01*
X162871428Y-100991157D02*
X163428571Y-100991157D01*
X163728571Y-100091157D02*
X164285714Y-100091157D01*
X164285714Y-100091157D02*
X163985714Y-100434014D01*
X163985714Y-100434014D02*
X164114285Y-100434014D01*
X164114285Y-100434014D02*
X164200000Y-100476871D01*
X164200000Y-100476871D02*
X164242857Y-100519728D01*
X164242857Y-100519728D02*
X164285714Y-100605442D01*
X164285714Y-100605442D02*
X164285714Y-100819728D01*
X164285714Y-100819728D02*
X164242857Y-100905442D01*
X164242857Y-100905442D02*
X164200000Y-100948300D01*
X164200000Y-100948300D02*
X164114285Y-100991157D01*
X164114285Y-100991157D02*
X163857142Y-100991157D01*
X163857142Y-100991157D02*
X163771428Y-100948300D01*
X163771428Y-100948300D02*
X163728571Y-100905442D01*
X161628571Y-110294014D02*
X161542857Y-110251157D01*
X161542857Y-110251157D02*
X161414285Y-110251157D01*
X161414285Y-110251157D02*
X161285714Y-110294014D01*
X161285714Y-110294014D02*
X161199999Y-110379728D01*
X161199999Y-110379728D02*
X161157142Y-110465442D01*
X161157142Y-110465442D02*
X161114285Y-110636871D01*
X161114285Y-110636871D02*
X161114285Y-110765442D01*
X161114285Y-110765442D02*
X161157142Y-110936871D01*
X161157142Y-110936871D02*
X161199999Y-111022585D01*
X161199999Y-111022585D02*
X161285714Y-111108300D01*
X161285714Y-111108300D02*
X161414285Y-111151157D01*
X161414285Y-111151157D02*
X161499999Y-111151157D01*
X161499999Y-111151157D02*
X161628571Y-111108300D01*
X161628571Y-111108300D02*
X161671428Y-111065442D01*
X161671428Y-111065442D02*
X161671428Y-110765442D01*
X161671428Y-110765442D02*
X161499999Y-110765442D01*
X162057142Y-111151157D02*
X162057142Y-110251157D01*
X162057142Y-110251157D02*
X162399999Y-110251157D01*
X162399999Y-110251157D02*
X162485714Y-110294014D01*
X162485714Y-110294014D02*
X162528571Y-110336871D01*
X162528571Y-110336871D02*
X162571428Y-110422585D01*
X162571428Y-110422585D02*
X162571428Y-110551157D01*
X162571428Y-110551157D02*
X162528571Y-110636871D01*
X162528571Y-110636871D02*
X162485714Y-110679728D01*
X162485714Y-110679728D02*
X162399999Y-110722585D01*
X162399999Y-110722585D02*
X162057142Y-110722585D01*
X163428571Y-111151157D02*
X162914285Y-111151157D01*
X163171428Y-111151157D02*
X163171428Y-110251157D01*
X163171428Y-110251157D02*
X163085714Y-110379728D01*
X163085714Y-110379728D02*
X162999999Y-110465442D01*
X162999999Y-110465442D02*
X162914285Y-110508300D01*
X163857142Y-111151157D02*
X164028571Y-111151157D01*
X164028571Y-111151157D02*
X164114285Y-111108300D01*
X164114285Y-111108300D02*
X164157142Y-111065442D01*
X164157142Y-111065442D02*
X164242857Y-110936871D01*
X164242857Y-110936871D02*
X164285714Y-110765442D01*
X164285714Y-110765442D02*
X164285714Y-110422585D01*
X164285714Y-110422585D02*
X164242857Y-110336871D01*
X164242857Y-110336871D02*
X164200000Y-110294014D01*
X164200000Y-110294014D02*
X164114285Y-110251157D01*
X164114285Y-110251157D02*
X163942857Y-110251157D01*
X163942857Y-110251157D02*
X163857142Y-110294014D01*
X163857142Y-110294014D02*
X163814285Y-110336871D01*
X163814285Y-110336871D02*
X163771428Y-110422585D01*
X163771428Y-110422585D02*
X163771428Y-110636871D01*
X163771428Y-110636871D02*
X163814285Y-110722585D01*
X163814285Y-110722585D02*
X163857142Y-110765442D01*
X163857142Y-110765442D02*
X163942857Y-110808300D01*
X163942857Y-110808300D02*
X164114285Y-110808300D01*
X164114285Y-110808300D02*
X164200000Y-110765442D01*
X164200000Y-110765442D02*
X164242857Y-110722585D01*
X164242857Y-110722585D02*
X164285714Y-110636871D01*
X161628571Y-117914014D02*
X161542857Y-117871157D01*
X161542857Y-117871157D02*
X161414285Y-117871157D01*
X161414285Y-117871157D02*
X161285714Y-117914014D01*
X161285714Y-117914014D02*
X161199999Y-117999728D01*
X161199999Y-117999728D02*
X161157142Y-118085442D01*
X161157142Y-118085442D02*
X161114285Y-118256871D01*
X161114285Y-118256871D02*
X161114285Y-118385442D01*
X161114285Y-118385442D02*
X161157142Y-118556871D01*
X161157142Y-118556871D02*
X161199999Y-118642585D01*
X161199999Y-118642585D02*
X161285714Y-118728300D01*
X161285714Y-118728300D02*
X161414285Y-118771157D01*
X161414285Y-118771157D02*
X161499999Y-118771157D01*
X161499999Y-118771157D02*
X161628571Y-118728300D01*
X161628571Y-118728300D02*
X161671428Y-118685442D01*
X161671428Y-118685442D02*
X161671428Y-118385442D01*
X161671428Y-118385442D02*
X161499999Y-118385442D01*
X162057142Y-118771157D02*
X162057142Y-117871157D01*
X162057142Y-117871157D02*
X162399999Y-117871157D01*
X162399999Y-117871157D02*
X162485714Y-117914014D01*
X162485714Y-117914014D02*
X162528571Y-117956871D01*
X162528571Y-117956871D02*
X162571428Y-118042585D01*
X162571428Y-118042585D02*
X162571428Y-118171157D01*
X162571428Y-118171157D02*
X162528571Y-118256871D01*
X162528571Y-118256871D02*
X162485714Y-118299728D01*
X162485714Y-118299728D02*
X162399999Y-118342585D01*
X162399999Y-118342585D02*
X162057142Y-118342585D01*
X163428571Y-118771157D02*
X162914285Y-118771157D01*
X163171428Y-118771157D02*
X163171428Y-117871157D01*
X163171428Y-117871157D02*
X163085714Y-117999728D01*
X163085714Y-117999728D02*
X162999999Y-118085442D01*
X162999999Y-118085442D02*
X162914285Y-118128300D01*
X164200000Y-117871157D02*
X164028571Y-117871157D01*
X164028571Y-117871157D02*
X163942857Y-117914014D01*
X163942857Y-117914014D02*
X163900000Y-117956871D01*
X163900000Y-117956871D02*
X163814285Y-118085442D01*
X163814285Y-118085442D02*
X163771428Y-118256871D01*
X163771428Y-118256871D02*
X163771428Y-118599728D01*
X163771428Y-118599728D02*
X163814285Y-118685442D01*
X163814285Y-118685442D02*
X163857142Y-118728300D01*
X163857142Y-118728300D02*
X163942857Y-118771157D01*
X163942857Y-118771157D02*
X164114285Y-118771157D01*
X164114285Y-118771157D02*
X164200000Y-118728300D01*
X164200000Y-118728300D02*
X164242857Y-118685442D01*
X164242857Y-118685442D02*
X164285714Y-118599728D01*
X164285714Y-118599728D02*
X164285714Y-118385442D01*
X164285714Y-118385442D02*
X164242857Y-118299728D01*
X164242857Y-118299728D02*
X164200000Y-118256871D01*
X164200000Y-118256871D02*
X164114285Y-118214014D01*
X164114285Y-118214014D02*
X163942857Y-118214014D01*
X163942857Y-118214014D02*
X163857142Y-118256871D01*
X163857142Y-118256871D02*
X163814285Y-118299728D01*
X163814285Y-118299728D02*
X163771428Y-118385442D01*
X122157143Y-110614014D02*
X122071429Y-110571157D01*
X122071429Y-110571157D02*
X121942857Y-110571157D01*
X121942857Y-110571157D02*
X121814286Y-110614014D01*
X121814286Y-110614014D02*
X121728571Y-110699728D01*
X121728571Y-110699728D02*
X121685714Y-110785442D01*
X121685714Y-110785442D02*
X121642857Y-110956871D01*
X121642857Y-110956871D02*
X121642857Y-111085442D01*
X121642857Y-111085442D02*
X121685714Y-111256871D01*
X121685714Y-111256871D02*
X121728571Y-111342585D01*
X121728571Y-111342585D02*
X121814286Y-111428300D01*
X121814286Y-111428300D02*
X121942857Y-111471157D01*
X121942857Y-111471157D02*
X122028571Y-111471157D01*
X122028571Y-111471157D02*
X122157143Y-111428300D01*
X122157143Y-111428300D02*
X122200000Y-111385442D01*
X122200000Y-111385442D02*
X122200000Y-111085442D01*
X122200000Y-111085442D02*
X122028571Y-111085442D01*
X122585714Y-111471157D02*
X122585714Y-110571157D01*
X122585714Y-110571157D02*
X122928571Y-110571157D01*
X122928571Y-110571157D02*
X123014286Y-110614014D01*
X123014286Y-110614014D02*
X123057143Y-110656871D01*
X123057143Y-110656871D02*
X123100000Y-110742585D01*
X123100000Y-110742585D02*
X123100000Y-110871157D01*
X123100000Y-110871157D02*
X123057143Y-110956871D01*
X123057143Y-110956871D02*
X123014286Y-110999728D01*
X123014286Y-110999728D02*
X122928571Y-111042585D01*
X122928571Y-111042585D02*
X122585714Y-111042585D01*
X123528571Y-111471157D02*
X123700000Y-111471157D01*
X123700000Y-111471157D02*
X123785714Y-111428300D01*
X123785714Y-111428300D02*
X123828571Y-111385442D01*
X123828571Y-111385442D02*
X123914286Y-111256871D01*
X123914286Y-111256871D02*
X123957143Y-111085442D01*
X123957143Y-111085442D02*
X123957143Y-110742585D01*
X123957143Y-110742585D02*
X123914286Y-110656871D01*
X123914286Y-110656871D02*
X123871429Y-110614014D01*
X123871429Y-110614014D02*
X123785714Y-110571157D01*
X123785714Y-110571157D02*
X123614286Y-110571157D01*
X123614286Y-110571157D02*
X123528571Y-110614014D01*
X123528571Y-110614014D02*
X123485714Y-110656871D01*
X123485714Y-110656871D02*
X123442857Y-110742585D01*
X123442857Y-110742585D02*
X123442857Y-110956871D01*
X123442857Y-110956871D02*
X123485714Y-111042585D01*
X123485714Y-111042585D02*
X123528571Y-111085442D01*
X123528571Y-111085442D02*
X123614286Y-111128300D01*
X123614286Y-111128300D02*
X123785714Y-111128300D01*
X123785714Y-111128300D02*
X123871429Y-111085442D01*
X123871429Y-111085442D02*
X123914286Y-111042585D01*
X123914286Y-111042585D02*
X123957143Y-110956871D01*
D12*
X158479819Y-112343333D02*
X158479819Y-112152857D01*
X158479819Y-112152857D02*
X158527438Y-112057619D01*
X158527438Y-112057619D02*
X158622676Y-111962381D01*
X158622676Y-111962381D02*
X158813152Y-111914762D01*
X158813152Y-111914762D02*
X159146485Y-111914762D01*
X159146485Y-111914762D02*
X159336961Y-111962381D01*
X159336961Y-111962381D02*
X159432200Y-112057619D01*
X159432200Y-112057619D02*
X159479819Y-112152857D01*
X159479819Y-112152857D02*
X159479819Y-112343333D01*
X159479819Y-112343333D02*
X159432200Y-112438571D01*
X159432200Y-112438571D02*
X159336961Y-112533809D01*
X159336961Y-112533809D02*
X159146485Y-112581428D01*
X159146485Y-112581428D02*
X158813152Y-112581428D01*
X158813152Y-112581428D02*
X158622676Y-112533809D01*
X158622676Y-112533809D02*
X158527438Y-112438571D01*
X158527438Y-112438571D02*
X158479819Y-112343333D01*
X158813152Y-111057619D02*
X159479819Y-111057619D01*
X158813152Y-111486190D02*
X159336961Y-111486190D01*
X159336961Y-111486190D02*
X159432200Y-111438571D01*
X159432200Y-111438571D02*
X159479819Y-111343333D01*
X159479819Y-111343333D02*
X159479819Y-111200476D01*
X159479819Y-111200476D02*
X159432200Y-111105238D01*
X159432200Y-111105238D02*
X159384580Y-111057619D01*
X158813152Y-110724285D02*
X158813152Y-110343333D01*
X158479819Y-110581428D02*
X159336961Y-110581428D01*
X159336961Y-110581428D02*
X159432200Y-110533809D01*
X159432200Y-110533809D02*
X159479819Y-110438571D01*
X159479819Y-110438571D02*
X159479819Y-110343333D01*
X159432200Y-109629047D02*
X159479819Y-109724285D01*
X159479819Y-109724285D02*
X159479819Y-109914761D01*
X159479819Y-109914761D02*
X159432200Y-110009999D01*
X159432200Y-110009999D02*
X159336961Y-110057618D01*
X159336961Y-110057618D02*
X158956009Y-110057618D01*
X158956009Y-110057618D02*
X158860771Y-110009999D01*
X158860771Y-110009999D02*
X158813152Y-109914761D01*
X158813152Y-109914761D02*
X158813152Y-109724285D01*
X158813152Y-109724285D02*
X158860771Y-109629047D01*
X158860771Y-109629047D02*
X158956009Y-109581428D01*
X158956009Y-109581428D02*
X159051247Y-109581428D01*
X159051247Y-109581428D02*
X159146485Y-110057618D01*
X159479819Y-109152856D02*
X158813152Y-109152856D01*
X159003628Y-109152856D02*
X158908390Y-109105237D01*
X158908390Y-109105237D02*
X158860771Y-109057618D01*
X158860771Y-109057618D02*
X158813152Y-108962380D01*
X158813152Y-108962380D02*
X158813152Y-108867142D01*
X159479819Y-107200475D02*
X159003628Y-107533808D01*
X159479819Y-107771903D02*
X158479819Y-107771903D01*
X158479819Y-107771903D02*
X158479819Y-107390951D01*
X158479819Y-107390951D02*
X158527438Y-107295713D01*
X158527438Y-107295713D02*
X158575057Y-107248094D01*
X158575057Y-107248094D02*
X158670295Y-107200475D01*
X158670295Y-107200475D02*
X158813152Y-107200475D01*
X158813152Y-107200475D02*
X158908390Y-107248094D01*
X158908390Y-107248094D02*
X158956009Y-107295713D01*
X158956009Y-107295713D02*
X159003628Y-107390951D01*
X159003628Y-107390951D02*
X159003628Y-107771903D01*
X159479819Y-106629046D02*
X159432200Y-106724284D01*
X159432200Y-106724284D02*
X159384580Y-106771903D01*
X159384580Y-106771903D02*
X159289342Y-106819522D01*
X159289342Y-106819522D02*
X159003628Y-106819522D01*
X159003628Y-106819522D02*
X158908390Y-106771903D01*
X158908390Y-106771903D02*
X158860771Y-106724284D01*
X158860771Y-106724284D02*
X158813152Y-106629046D01*
X158813152Y-106629046D02*
X158813152Y-106486189D01*
X158813152Y-106486189D02*
X158860771Y-106390951D01*
X158860771Y-106390951D02*
X158908390Y-106343332D01*
X158908390Y-106343332D02*
X159003628Y-106295713D01*
X159003628Y-106295713D02*
X159289342Y-106295713D01*
X159289342Y-106295713D02*
X159384580Y-106343332D01*
X159384580Y-106343332D02*
X159432200Y-106390951D01*
X159432200Y-106390951D02*
X159479819Y-106486189D01*
X159479819Y-106486189D02*
X159479819Y-106629046D01*
X158813152Y-105962379D02*
X159479819Y-105771903D01*
X159479819Y-105771903D02*
X159003628Y-105581427D01*
X159003628Y-105581427D02*
X159479819Y-105390951D01*
X159479819Y-105390951D02*
X158813152Y-105200475D01*
X158527438Y-103533808D02*
X158479819Y-103629046D01*
X158479819Y-103629046D02*
X158479819Y-103771903D01*
X158479819Y-103771903D02*
X158527438Y-103914760D01*
X158527438Y-103914760D02*
X158622676Y-104009998D01*
X158622676Y-104009998D02*
X158717914Y-104057617D01*
X158717914Y-104057617D02*
X158908390Y-104105236D01*
X158908390Y-104105236D02*
X159051247Y-104105236D01*
X159051247Y-104105236D02*
X159241723Y-104057617D01*
X159241723Y-104057617D02*
X159336961Y-104009998D01*
X159336961Y-104009998D02*
X159432200Y-103914760D01*
X159432200Y-103914760D02*
X159479819Y-103771903D01*
X159479819Y-103771903D02*
X159479819Y-103676665D01*
X159479819Y-103676665D02*
X159432200Y-103533808D01*
X159432200Y-103533808D02*
X159384580Y-103486189D01*
X159384580Y-103486189D02*
X159051247Y-103486189D01*
X159051247Y-103486189D02*
X159051247Y-103676665D01*
X159479819Y-103057617D02*
X158479819Y-103057617D01*
X158479819Y-103057617D02*
X159479819Y-102486189D01*
X159479819Y-102486189D02*
X158479819Y-102486189D01*
X159479819Y-102009998D02*
X158479819Y-102009998D01*
X158479819Y-102009998D02*
X158479819Y-101771903D01*
X158479819Y-101771903D02*
X158527438Y-101629046D01*
X158527438Y-101629046D02*
X158622676Y-101533808D01*
X158622676Y-101533808D02*
X158717914Y-101486189D01*
X158717914Y-101486189D02*
X158908390Y-101438570D01*
X158908390Y-101438570D02*
X159051247Y-101438570D01*
X159051247Y-101438570D02*
X159241723Y-101486189D01*
X159241723Y-101486189D02*
X159336961Y-101533808D01*
X159336961Y-101533808D02*
X159432200Y-101629046D01*
X159432200Y-101629046D02*
X159479819Y-101771903D01*
X159479819Y-101771903D02*
X159479819Y-102009998D01*
D10*
X121728571Y-113154014D02*
X121642857Y-113111157D01*
X121642857Y-113111157D02*
X121514285Y-113111157D01*
X121514285Y-113111157D02*
X121385714Y-113154014D01*
X121385714Y-113154014D02*
X121299999Y-113239728D01*
X121299999Y-113239728D02*
X121257142Y-113325442D01*
X121257142Y-113325442D02*
X121214285Y-113496871D01*
X121214285Y-113496871D02*
X121214285Y-113625442D01*
X121214285Y-113625442D02*
X121257142Y-113796871D01*
X121257142Y-113796871D02*
X121299999Y-113882585D01*
X121299999Y-113882585D02*
X121385714Y-113968300D01*
X121385714Y-113968300D02*
X121514285Y-114011157D01*
X121514285Y-114011157D02*
X121599999Y-114011157D01*
X121599999Y-114011157D02*
X121728571Y-113968300D01*
X121728571Y-113968300D02*
X121771428Y-113925442D01*
X121771428Y-113925442D02*
X121771428Y-113625442D01*
X121771428Y-113625442D02*
X121599999Y-113625442D01*
X122157142Y-114011157D02*
X122157142Y-113111157D01*
X122157142Y-113111157D02*
X122499999Y-113111157D01*
X122499999Y-113111157D02*
X122585714Y-113154014D01*
X122585714Y-113154014D02*
X122628571Y-113196871D01*
X122628571Y-113196871D02*
X122671428Y-113282585D01*
X122671428Y-113282585D02*
X122671428Y-113411157D01*
X122671428Y-113411157D02*
X122628571Y-113496871D01*
X122628571Y-113496871D02*
X122585714Y-113539728D01*
X122585714Y-113539728D02*
X122499999Y-113582585D01*
X122499999Y-113582585D02*
X122157142Y-113582585D01*
X123528571Y-114011157D02*
X123014285Y-114011157D01*
X123271428Y-114011157D02*
X123271428Y-113111157D01*
X123271428Y-113111157D02*
X123185714Y-113239728D01*
X123185714Y-113239728D02*
X123099999Y-113325442D01*
X123099999Y-113325442D02*
X123014285Y-113368300D01*
X124085714Y-113111157D02*
X124171428Y-113111157D01*
X124171428Y-113111157D02*
X124257142Y-113154014D01*
X124257142Y-113154014D02*
X124300000Y-113196871D01*
X124300000Y-113196871D02*
X124342857Y-113282585D01*
X124342857Y-113282585D02*
X124385714Y-113454014D01*
X124385714Y-113454014D02*
X124385714Y-113668300D01*
X124385714Y-113668300D02*
X124342857Y-113839728D01*
X124342857Y-113839728D02*
X124300000Y-113925442D01*
X124300000Y-113925442D02*
X124257142Y-113968300D01*
X124257142Y-113968300D02*
X124171428Y-114011157D01*
X124171428Y-114011157D02*
X124085714Y-114011157D01*
X124085714Y-114011157D02*
X124000000Y-113968300D01*
X124000000Y-113968300D02*
X123957142Y-113925442D01*
X123957142Y-113925442D02*
X123914285Y-113839728D01*
X123914285Y-113839728D02*
X123871428Y-113668300D01*
X123871428Y-113668300D02*
X123871428Y-113454014D01*
X123871428Y-113454014D02*
X123914285Y-113282585D01*
X123914285Y-113282585D02*
X123957142Y-113196871D01*
X123957142Y-113196871D02*
X124000000Y-113154014D01*
X124000000Y-113154014D02*
X124085714Y-113111157D01*
X121728571Y-123314014D02*
X121642857Y-123271157D01*
X121642857Y-123271157D02*
X121514285Y-123271157D01*
X121514285Y-123271157D02*
X121385714Y-123314014D01*
X121385714Y-123314014D02*
X121299999Y-123399728D01*
X121299999Y-123399728D02*
X121257142Y-123485442D01*
X121257142Y-123485442D02*
X121214285Y-123656871D01*
X121214285Y-123656871D02*
X121214285Y-123785442D01*
X121214285Y-123785442D02*
X121257142Y-123956871D01*
X121257142Y-123956871D02*
X121299999Y-124042585D01*
X121299999Y-124042585D02*
X121385714Y-124128300D01*
X121385714Y-124128300D02*
X121514285Y-124171157D01*
X121514285Y-124171157D02*
X121599999Y-124171157D01*
X121599999Y-124171157D02*
X121728571Y-124128300D01*
X121728571Y-124128300D02*
X121771428Y-124085442D01*
X121771428Y-124085442D02*
X121771428Y-123785442D01*
X121771428Y-123785442D02*
X121599999Y-123785442D01*
X122157142Y-124171157D02*
X122157142Y-123271157D01*
X122157142Y-123271157D02*
X122499999Y-123271157D01*
X122499999Y-123271157D02*
X122585714Y-123314014D01*
X122585714Y-123314014D02*
X122628571Y-123356871D01*
X122628571Y-123356871D02*
X122671428Y-123442585D01*
X122671428Y-123442585D02*
X122671428Y-123571157D01*
X122671428Y-123571157D02*
X122628571Y-123656871D01*
X122628571Y-123656871D02*
X122585714Y-123699728D01*
X122585714Y-123699728D02*
X122499999Y-123742585D01*
X122499999Y-123742585D02*
X122157142Y-123742585D01*
X123528571Y-124171157D02*
X123014285Y-124171157D01*
X123271428Y-124171157D02*
X123271428Y-123271157D01*
X123271428Y-123271157D02*
X123185714Y-123399728D01*
X123185714Y-123399728D02*
X123099999Y-123485442D01*
X123099999Y-123485442D02*
X123014285Y-123528300D01*
X124300000Y-123571157D02*
X124300000Y-124171157D01*
X124085714Y-123228300D02*
X123871428Y-123871157D01*
X123871428Y-123871157D02*
X124428571Y-123871157D01*
X161628571Y-87434014D02*
X161542857Y-87391157D01*
X161542857Y-87391157D02*
X161414285Y-87391157D01*
X161414285Y-87391157D02*
X161285714Y-87434014D01*
X161285714Y-87434014D02*
X161199999Y-87519728D01*
X161199999Y-87519728D02*
X161157142Y-87605442D01*
X161157142Y-87605442D02*
X161114285Y-87776871D01*
X161114285Y-87776871D02*
X161114285Y-87905442D01*
X161114285Y-87905442D02*
X161157142Y-88076871D01*
X161157142Y-88076871D02*
X161199999Y-88162585D01*
X161199999Y-88162585D02*
X161285714Y-88248300D01*
X161285714Y-88248300D02*
X161414285Y-88291157D01*
X161414285Y-88291157D02*
X161499999Y-88291157D01*
X161499999Y-88291157D02*
X161628571Y-88248300D01*
X161628571Y-88248300D02*
X161671428Y-88205442D01*
X161671428Y-88205442D02*
X161671428Y-87905442D01*
X161671428Y-87905442D02*
X161499999Y-87905442D01*
X162057142Y-88291157D02*
X162057142Y-87391157D01*
X162057142Y-87391157D02*
X162399999Y-87391157D01*
X162399999Y-87391157D02*
X162485714Y-87434014D01*
X162485714Y-87434014D02*
X162528571Y-87476871D01*
X162528571Y-87476871D02*
X162571428Y-87562585D01*
X162571428Y-87562585D02*
X162571428Y-87691157D01*
X162571428Y-87691157D02*
X162528571Y-87776871D01*
X162528571Y-87776871D02*
X162485714Y-87819728D01*
X162485714Y-87819728D02*
X162399999Y-87862585D01*
X162399999Y-87862585D02*
X162057142Y-87862585D01*
X162914285Y-87476871D02*
X162957142Y-87434014D01*
X162957142Y-87434014D02*
X163042857Y-87391157D01*
X163042857Y-87391157D02*
X163257142Y-87391157D01*
X163257142Y-87391157D02*
X163342857Y-87434014D01*
X163342857Y-87434014D02*
X163385714Y-87476871D01*
X163385714Y-87476871D02*
X163428571Y-87562585D01*
X163428571Y-87562585D02*
X163428571Y-87648300D01*
X163428571Y-87648300D02*
X163385714Y-87776871D01*
X163385714Y-87776871D02*
X162871428Y-88291157D01*
X162871428Y-88291157D02*
X163428571Y-88291157D01*
X163942857Y-87776871D02*
X163857142Y-87734014D01*
X163857142Y-87734014D02*
X163814285Y-87691157D01*
X163814285Y-87691157D02*
X163771428Y-87605442D01*
X163771428Y-87605442D02*
X163771428Y-87562585D01*
X163771428Y-87562585D02*
X163814285Y-87476871D01*
X163814285Y-87476871D02*
X163857142Y-87434014D01*
X163857142Y-87434014D02*
X163942857Y-87391157D01*
X163942857Y-87391157D02*
X164114285Y-87391157D01*
X164114285Y-87391157D02*
X164200000Y-87434014D01*
X164200000Y-87434014D02*
X164242857Y-87476871D01*
X164242857Y-87476871D02*
X164285714Y-87562585D01*
X164285714Y-87562585D02*
X164285714Y-87605442D01*
X164285714Y-87605442D02*
X164242857Y-87691157D01*
X164242857Y-87691157D02*
X164200000Y-87734014D01*
X164200000Y-87734014D02*
X164114285Y-87776871D01*
X164114285Y-87776871D02*
X163942857Y-87776871D01*
X163942857Y-87776871D02*
X163857142Y-87819728D01*
X163857142Y-87819728D02*
X163814285Y-87862585D01*
X163814285Y-87862585D02*
X163771428Y-87948300D01*
X163771428Y-87948300D02*
X163771428Y-88119728D01*
X163771428Y-88119728D02*
X163814285Y-88205442D01*
X163814285Y-88205442D02*
X163857142Y-88248300D01*
X163857142Y-88248300D02*
X163942857Y-88291157D01*
X163942857Y-88291157D02*
X164114285Y-88291157D01*
X164114285Y-88291157D02*
X164200000Y-88248300D01*
X164200000Y-88248300D02*
X164242857Y-88205442D01*
X164242857Y-88205442D02*
X164285714Y-88119728D01*
X164285714Y-88119728D02*
X164285714Y-87948300D01*
X164285714Y-87948300D02*
X164242857Y-87862585D01*
X164242857Y-87862585D02*
X164200000Y-87819728D01*
X164200000Y-87819728D02*
X164114285Y-87776871D01*
X122157143Y-97914014D02*
X122071429Y-97871157D01*
X122071429Y-97871157D02*
X121942857Y-97871157D01*
X121942857Y-97871157D02*
X121814286Y-97914014D01*
X121814286Y-97914014D02*
X121728571Y-97999728D01*
X121728571Y-97999728D02*
X121685714Y-98085442D01*
X121685714Y-98085442D02*
X121642857Y-98256871D01*
X121642857Y-98256871D02*
X121642857Y-98385442D01*
X121642857Y-98385442D02*
X121685714Y-98556871D01*
X121685714Y-98556871D02*
X121728571Y-98642585D01*
X121728571Y-98642585D02*
X121814286Y-98728300D01*
X121814286Y-98728300D02*
X121942857Y-98771157D01*
X121942857Y-98771157D02*
X122028571Y-98771157D01*
X122028571Y-98771157D02*
X122157143Y-98728300D01*
X122157143Y-98728300D02*
X122200000Y-98685442D01*
X122200000Y-98685442D02*
X122200000Y-98385442D01*
X122200000Y-98385442D02*
X122028571Y-98385442D01*
X122585714Y-98771157D02*
X122585714Y-97871157D01*
X122585714Y-97871157D02*
X122928571Y-97871157D01*
X122928571Y-97871157D02*
X123014286Y-97914014D01*
X123014286Y-97914014D02*
X123057143Y-97956871D01*
X123057143Y-97956871D02*
X123100000Y-98042585D01*
X123100000Y-98042585D02*
X123100000Y-98171157D01*
X123100000Y-98171157D02*
X123057143Y-98256871D01*
X123057143Y-98256871D02*
X123014286Y-98299728D01*
X123014286Y-98299728D02*
X122928571Y-98342585D01*
X122928571Y-98342585D02*
X122585714Y-98342585D01*
X123871429Y-98171157D02*
X123871429Y-98771157D01*
X123657143Y-97828300D02*
X123442857Y-98471157D01*
X123442857Y-98471157D02*
X124000000Y-98471157D01*
X122157143Y-90294014D02*
X122071429Y-90251157D01*
X122071429Y-90251157D02*
X121942857Y-90251157D01*
X121942857Y-90251157D02*
X121814286Y-90294014D01*
X121814286Y-90294014D02*
X121728571Y-90379728D01*
X121728571Y-90379728D02*
X121685714Y-90465442D01*
X121685714Y-90465442D02*
X121642857Y-90636871D01*
X121642857Y-90636871D02*
X121642857Y-90765442D01*
X121642857Y-90765442D02*
X121685714Y-90936871D01*
X121685714Y-90936871D02*
X121728571Y-91022585D01*
X121728571Y-91022585D02*
X121814286Y-91108300D01*
X121814286Y-91108300D02*
X121942857Y-91151157D01*
X121942857Y-91151157D02*
X122028571Y-91151157D01*
X122028571Y-91151157D02*
X122157143Y-91108300D01*
X122157143Y-91108300D02*
X122200000Y-91065442D01*
X122200000Y-91065442D02*
X122200000Y-90765442D01*
X122200000Y-90765442D02*
X122028571Y-90765442D01*
X122585714Y-91151157D02*
X122585714Y-90251157D01*
X122585714Y-90251157D02*
X122928571Y-90251157D01*
X122928571Y-90251157D02*
X123014286Y-90294014D01*
X123014286Y-90294014D02*
X123057143Y-90336871D01*
X123057143Y-90336871D02*
X123100000Y-90422585D01*
X123100000Y-90422585D02*
X123100000Y-90551157D01*
X123100000Y-90551157D02*
X123057143Y-90636871D01*
X123057143Y-90636871D02*
X123014286Y-90679728D01*
X123014286Y-90679728D02*
X122928571Y-90722585D01*
X122928571Y-90722585D02*
X122585714Y-90722585D01*
X123957143Y-91151157D02*
X123442857Y-91151157D01*
X123700000Y-91151157D02*
X123700000Y-90251157D01*
X123700000Y-90251157D02*
X123614286Y-90379728D01*
X123614286Y-90379728D02*
X123528571Y-90465442D01*
X123528571Y-90465442D02*
X123442857Y-90508300D01*
X161628571Y-115374014D02*
X161542857Y-115331157D01*
X161542857Y-115331157D02*
X161414285Y-115331157D01*
X161414285Y-115331157D02*
X161285714Y-115374014D01*
X161285714Y-115374014D02*
X161199999Y-115459728D01*
X161199999Y-115459728D02*
X161157142Y-115545442D01*
X161157142Y-115545442D02*
X161114285Y-115716871D01*
X161114285Y-115716871D02*
X161114285Y-115845442D01*
X161114285Y-115845442D02*
X161157142Y-116016871D01*
X161157142Y-116016871D02*
X161199999Y-116102585D01*
X161199999Y-116102585D02*
X161285714Y-116188300D01*
X161285714Y-116188300D02*
X161414285Y-116231157D01*
X161414285Y-116231157D02*
X161499999Y-116231157D01*
X161499999Y-116231157D02*
X161628571Y-116188300D01*
X161628571Y-116188300D02*
X161671428Y-116145442D01*
X161671428Y-116145442D02*
X161671428Y-115845442D01*
X161671428Y-115845442D02*
X161499999Y-115845442D01*
X162057142Y-116231157D02*
X162057142Y-115331157D01*
X162057142Y-115331157D02*
X162399999Y-115331157D01*
X162399999Y-115331157D02*
X162485714Y-115374014D01*
X162485714Y-115374014D02*
X162528571Y-115416871D01*
X162528571Y-115416871D02*
X162571428Y-115502585D01*
X162571428Y-115502585D02*
X162571428Y-115631157D01*
X162571428Y-115631157D02*
X162528571Y-115716871D01*
X162528571Y-115716871D02*
X162485714Y-115759728D01*
X162485714Y-115759728D02*
X162399999Y-115802585D01*
X162399999Y-115802585D02*
X162057142Y-115802585D01*
X163428571Y-116231157D02*
X162914285Y-116231157D01*
X163171428Y-116231157D02*
X163171428Y-115331157D01*
X163171428Y-115331157D02*
X163085714Y-115459728D01*
X163085714Y-115459728D02*
X162999999Y-115545442D01*
X162999999Y-115545442D02*
X162914285Y-115588300D01*
X163728571Y-115331157D02*
X164328571Y-115331157D01*
X164328571Y-115331157D02*
X163942857Y-116231157D01*
X122157143Y-95374014D02*
X122071429Y-95331157D01*
X122071429Y-95331157D02*
X121942857Y-95331157D01*
X121942857Y-95331157D02*
X121814286Y-95374014D01*
X121814286Y-95374014D02*
X121728571Y-95459728D01*
X121728571Y-95459728D02*
X121685714Y-95545442D01*
X121685714Y-95545442D02*
X121642857Y-95716871D01*
X121642857Y-95716871D02*
X121642857Y-95845442D01*
X121642857Y-95845442D02*
X121685714Y-96016871D01*
X121685714Y-96016871D02*
X121728571Y-96102585D01*
X121728571Y-96102585D02*
X121814286Y-96188300D01*
X121814286Y-96188300D02*
X121942857Y-96231157D01*
X121942857Y-96231157D02*
X122028571Y-96231157D01*
X122028571Y-96231157D02*
X122157143Y-96188300D01*
X122157143Y-96188300D02*
X122200000Y-96145442D01*
X122200000Y-96145442D02*
X122200000Y-95845442D01*
X122200000Y-95845442D02*
X122028571Y-95845442D01*
X122585714Y-96231157D02*
X122585714Y-95331157D01*
X122585714Y-95331157D02*
X122928571Y-95331157D01*
X122928571Y-95331157D02*
X123014286Y-95374014D01*
X123014286Y-95374014D02*
X123057143Y-95416871D01*
X123057143Y-95416871D02*
X123100000Y-95502585D01*
X123100000Y-95502585D02*
X123100000Y-95631157D01*
X123100000Y-95631157D02*
X123057143Y-95716871D01*
X123057143Y-95716871D02*
X123014286Y-95759728D01*
X123014286Y-95759728D02*
X122928571Y-95802585D01*
X122928571Y-95802585D02*
X122585714Y-95802585D01*
X123400000Y-95331157D02*
X123957143Y-95331157D01*
X123957143Y-95331157D02*
X123657143Y-95674014D01*
X123657143Y-95674014D02*
X123785714Y-95674014D01*
X123785714Y-95674014D02*
X123871429Y-95716871D01*
X123871429Y-95716871D02*
X123914286Y-95759728D01*
X123914286Y-95759728D02*
X123957143Y-95845442D01*
X123957143Y-95845442D02*
X123957143Y-96059728D01*
X123957143Y-96059728D02*
X123914286Y-96145442D01*
X123914286Y-96145442D02*
X123871429Y-96188300D01*
X123871429Y-96188300D02*
X123785714Y-96231157D01*
X123785714Y-96231157D02*
X123528571Y-96231157D01*
X123528571Y-96231157D02*
X123442857Y-96188300D01*
X123442857Y-96188300D02*
X123400000Y-96145442D01*
X122157143Y-92834014D02*
X122071429Y-92791157D01*
X122071429Y-92791157D02*
X121942857Y-92791157D01*
X121942857Y-92791157D02*
X121814286Y-92834014D01*
X121814286Y-92834014D02*
X121728571Y-92919728D01*
X121728571Y-92919728D02*
X121685714Y-93005442D01*
X121685714Y-93005442D02*
X121642857Y-93176871D01*
X121642857Y-93176871D02*
X121642857Y-93305442D01*
X121642857Y-93305442D02*
X121685714Y-93476871D01*
X121685714Y-93476871D02*
X121728571Y-93562585D01*
X121728571Y-93562585D02*
X121814286Y-93648300D01*
X121814286Y-93648300D02*
X121942857Y-93691157D01*
X121942857Y-93691157D02*
X122028571Y-93691157D01*
X122028571Y-93691157D02*
X122157143Y-93648300D01*
X122157143Y-93648300D02*
X122200000Y-93605442D01*
X122200000Y-93605442D02*
X122200000Y-93305442D01*
X122200000Y-93305442D02*
X122028571Y-93305442D01*
X122585714Y-93691157D02*
X122585714Y-92791157D01*
X122585714Y-92791157D02*
X122928571Y-92791157D01*
X122928571Y-92791157D02*
X123014286Y-92834014D01*
X123014286Y-92834014D02*
X123057143Y-92876871D01*
X123057143Y-92876871D02*
X123100000Y-92962585D01*
X123100000Y-92962585D02*
X123100000Y-93091157D01*
X123100000Y-93091157D02*
X123057143Y-93176871D01*
X123057143Y-93176871D02*
X123014286Y-93219728D01*
X123014286Y-93219728D02*
X122928571Y-93262585D01*
X122928571Y-93262585D02*
X122585714Y-93262585D01*
X123442857Y-92876871D02*
X123485714Y-92834014D01*
X123485714Y-92834014D02*
X123571429Y-92791157D01*
X123571429Y-92791157D02*
X123785714Y-92791157D01*
X123785714Y-92791157D02*
X123871429Y-92834014D01*
X123871429Y-92834014D02*
X123914286Y-92876871D01*
X123914286Y-92876871D02*
X123957143Y-92962585D01*
X123957143Y-92962585D02*
X123957143Y-93048300D01*
X123957143Y-93048300D02*
X123914286Y-93176871D01*
X123914286Y-93176871D02*
X123400000Y-93691157D01*
X123400000Y-93691157D02*
X123957143Y-93691157D01*
X161628571Y-107754014D02*
X161542857Y-107711157D01*
X161542857Y-107711157D02*
X161414285Y-107711157D01*
X161414285Y-107711157D02*
X161285714Y-107754014D01*
X161285714Y-107754014D02*
X161199999Y-107839728D01*
X161199999Y-107839728D02*
X161157142Y-107925442D01*
X161157142Y-107925442D02*
X161114285Y-108096871D01*
X161114285Y-108096871D02*
X161114285Y-108225442D01*
X161114285Y-108225442D02*
X161157142Y-108396871D01*
X161157142Y-108396871D02*
X161199999Y-108482585D01*
X161199999Y-108482585D02*
X161285714Y-108568300D01*
X161285714Y-108568300D02*
X161414285Y-108611157D01*
X161414285Y-108611157D02*
X161499999Y-108611157D01*
X161499999Y-108611157D02*
X161628571Y-108568300D01*
X161628571Y-108568300D02*
X161671428Y-108525442D01*
X161671428Y-108525442D02*
X161671428Y-108225442D01*
X161671428Y-108225442D02*
X161499999Y-108225442D01*
X162057142Y-108611157D02*
X162057142Y-107711157D01*
X162057142Y-107711157D02*
X162399999Y-107711157D01*
X162399999Y-107711157D02*
X162485714Y-107754014D01*
X162485714Y-107754014D02*
X162528571Y-107796871D01*
X162528571Y-107796871D02*
X162571428Y-107882585D01*
X162571428Y-107882585D02*
X162571428Y-108011157D01*
X162571428Y-108011157D02*
X162528571Y-108096871D01*
X162528571Y-108096871D02*
X162485714Y-108139728D01*
X162485714Y-108139728D02*
X162399999Y-108182585D01*
X162399999Y-108182585D02*
X162057142Y-108182585D01*
X162914285Y-107796871D02*
X162957142Y-107754014D01*
X162957142Y-107754014D02*
X163042857Y-107711157D01*
X163042857Y-107711157D02*
X163257142Y-107711157D01*
X163257142Y-107711157D02*
X163342857Y-107754014D01*
X163342857Y-107754014D02*
X163385714Y-107796871D01*
X163385714Y-107796871D02*
X163428571Y-107882585D01*
X163428571Y-107882585D02*
X163428571Y-107968300D01*
X163428571Y-107968300D02*
X163385714Y-108096871D01*
X163385714Y-108096871D02*
X162871428Y-108611157D01*
X162871428Y-108611157D02*
X163428571Y-108611157D01*
X163985714Y-107711157D02*
X164071428Y-107711157D01*
X164071428Y-107711157D02*
X164157142Y-107754014D01*
X164157142Y-107754014D02*
X164200000Y-107796871D01*
X164200000Y-107796871D02*
X164242857Y-107882585D01*
X164242857Y-107882585D02*
X164285714Y-108054014D01*
X164285714Y-108054014D02*
X164285714Y-108268300D01*
X164285714Y-108268300D02*
X164242857Y-108439728D01*
X164242857Y-108439728D02*
X164200000Y-108525442D01*
X164200000Y-108525442D02*
X164157142Y-108568300D01*
X164157142Y-108568300D02*
X164071428Y-108611157D01*
X164071428Y-108611157D02*
X163985714Y-108611157D01*
X163985714Y-108611157D02*
X163900000Y-108568300D01*
X163900000Y-108568300D02*
X163857142Y-108525442D01*
X163857142Y-108525442D02*
X163814285Y-108439728D01*
X163814285Y-108439728D02*
X163771428Y-108268300D01*
X163771428Y-108268300D02*
X163771428Y-108054014D01*
X163771428Y-108054014D02*
X163814285Y-107882585D01*
X163814285Y-107882585D02*
X163857142Y-107796871D01*
X163857142Y-107796871D02*
X163900000Y-107754014D01*
X163900000Y-107754014D02*
X163985714Y-107711157D01*
X161628571Y-97594014D02*
X161542857Y-97551157D01*
X161542857Y-97551157D02*
X161414285Y-97551157D01*
X161414285Y-97551157D02*
X161285714Y-97594014D01*
X161285714Y-97594014D02*
X161199999Y-97679728D01*
X161199999Y-97679728D02*
X161157142Y-97765442D01*
X161157142Y-97765442D02*
X161114285Y-97936871D01*
X161114285Y-97936871D02*
X161114285Y-98065442D01*
X161114285Y-98065442D02*
X161157142Y-98236871D01*
X161157142Y-98236871D02*
X161199999Y-98322585D01*
X161199999Y-98322585D02*
X161285714Y-98408300D01*
X161285714Y-98408300D02*
X161414285Y-98451157D01*
X161414285Y-98451157D02*
X161499999Y-98451157D01*
X161499999Y-98451157D02*
X161628571Y-98408300D01*
X161628571Y-98408300D02*
X161671428Y-98365442D01*
X161671428Y-98365442D02*
X161671428Y-98065442D01*
X161671428Y-98065442D02*
X161499999Y-98065442D01*
X162057142Y-98451157D02*
X162057142Y-97551157D01*
X162057142Y-97551157D02*
X162399999Y-97551157D01*
X162399999Y-97551157D02*
X162485714Y-97594014D01*
X162485714Y-97594014D02*
X162528571Y-97636871D01*
X162528571Y-97636871D02*
X162571428Y-97722585D01*
X162571428Y-97722585D02*
X162571428Y-97851157D01*
X162571428Y-97851157D02*
X162528571Y-97936871D01*
X162528571Y-97936871D02*
X162485714Y-97979728D01*
X162485714Y-97979728D02*
X162399999Y-98022585D01*
X162399999Y-98022585D02*
X162057142Y-98022585D01*
X162914285Y-97636871D02*
X162957142Y-97594014D01*
X162957142Y-97594014D02*
X163042857Y-97551157D01*
X163042857Y-97551157D02*
X163257142Y-97551157D01*
X163257142Y-97551157D02*
X163342857Y-97594014D01*
X163342857Y-97594014D02*
X163385714Y-97636871D01*
X163385714Y-97636871D02*
X163428571Y-97722585D01*
X163428571Y-97722585D02*
X163428571Y-97808300D01*
X163428571Y-97808300D02*
X163385714Y-97936871D01*
X163385714Y-97936871D02*
X162871428Y-98451157D01*
X162871428Y-98451157D02*
X163428571Y-98451157D01*
X164200000Y-97851157D02*
X164200000Y-98451157D01*
X163985714Y-97508300D02*
X163771428Y-98151157D01*
X163771428Y-98151157D02*
X164328571Y-98151157D01*
X122157143Y-108074014D02*
X122071429Y-108031157D01*
X122071429Y-108031157D02*
X121942857Y-108031157D01*
X121942857Y-108031157D02*
X121814286Y-108074014D01*
X121814286Y-108074014D02*
X121728571Y-108159728D01*
X121728571Y-108159728D02*
X121685714Y-108245442D01*
X121685714Y-108245442D02*
X121642857Y-108416871D01*
X121642857Y-108416871D02*
X121642857Y-108545442D01*
X121642857Y-108545442D02*
X121685714Y-108716871D01*
X121685714Y-108716871D02*
X121728571Y-108802585D01*
X121728571Y-108802585D02*
X121814286Y-108888300D01*
X121814286Y-108888300D02*
X121942857Y-108931157D01*
X121942857Y-108931157D02*
X122028571Y-108931157D01*
X122028571Y-108931157D02*
X122157143Y-108888300D01*
X122157143Y-108888300D02*
X122200000Y-108845442D01*
X122200000Y-108845442D02*
X122200000Y-108545442D01*
X122200000Y-108545442D02*
X122028571Y-108545442D01*
X122585714Y-108931157D02*
X122585714Y-108031157D01*
X122585714Y-108031157D02*
X122928571Y-108031157D01*
X122928571Y-108031157D02*
X123014286Y-108074014D01*
X123014286Y-108074014D02*
X123057143Y-108116871D01*
X123057143Y-108116871D02*
X123100000Y-108202585D01*
X123100000Y-108202585D02*
X123100000Y-108331157D01*
X123100000Y-108331157D02*
X123057143Y-108416871D01*
X123057143Y-108416871D02*
X123014286Y-108459728D01*
X123014286Y-108459728D02*
X122928571Y-108502585D01*
X122928571Y-108502585D02*
X122585714Y-108502585D01*
X123614286Y-108416871D02*
X123528571Y-108374014D01*
X123528571Y-108374014D02*
X123485714Y-108331157D01*
X123485714Y-108331157D02*
X123442857Y-108245442D01*
X123442857Y-108245442D02*
X123442857Y-108202585D01*
X123442857Y-108202585D02*
X123485714Y-108116871D01*
X123485714Y-108116871D02*
X123528571Y-108074014D01*
X123528571Y-108074014D02*
X123614286Y-108031157D01*
X123614286Y-108031157D02*
X123785714Y-108031157D01*
X123785714Y-108031157D02*
X123871429Y-108074014D01*
X123871429Y-108074014D02*
X123914286Y-108116871D01*
X123914286Y-108116871D02*
X123957143Y-108202585D01*
X123957143Y-108202585D02*
X123957143Y-108245442D01*
X123957143Y-108245442D02*
X123914286Y-108331157D01*
X123914286Y-108331157D02*
X123871429Y-108374014D01*
X123871429Y-108374014D02*
X123785714Y-108416871D01*
X123785714Y-108416871D02*
X123614286Y-108416871D01*
X123614286Y-108416871D02*
X123528571Y-108459728D01*
X123528571Y-108459728D02*
X123485714Y-108502585D01*
X123485714Y-108502585D02*
X123442857Y-108588300D01*
X123442857Y-108588300D02*
X123442857Y-108759728D01*
X123442857Y-108759728D02*
X123485714Y-108845442D01*
X123485714Y-108845442D02*
X123528571Y-108888300D01*
X123528571Y-108888300D02*
X123614286Y-108931157D01*
X123614286Y-108931157D02*
X123785714Y-108931157D01*
X123785714Y-108931157D02*
X123871429Y-108888300D01*
X123871429Y-108888300D02*
X123914286Y-108845442D01*
X123914286Y-108845442D02*
X123957143Y-108759728D01*
X123957143Y-108759728D02*
X123957143Y-108588300D01*
X123957143Y-108588300D02*
X123914286Y-108502585D01*
X123914286Y-108502585D02*
X123871429Y-108459728D01*
X123871429Y-108459728D02*
X123785714Y-108416871D01*
X161628571Y-105214014D02*
X161542857Y-105171157D01*
X161542857Y-105171157D02*
X161414285Y-105171157D01*
X161414285Y-105171157D02*
X161285714Y-105214014D01*
X161285714Y-105214014D02*
X161199999Y-105299728D01*
X161199999Y-105299728D02*
X161157142Y-105385442D01*
X161157142Y-105385442D02*
X161114285Y-105556871D01*
X161114285Y-105556871D02*
X161114285Y-105685442D01*
X161114285Y-105685442D02*
X161157142Y-105856871D01*
X161157142Y-105856871D02*
X161199999Y-105942585D01*
X161199999Y-105942585D02*
X161285714Y-106028300D01*
X161285714Y-106028300D02*
X161414285Y-106071157D01*
X161414285Y-106071157D02*
X161499999Y-106071157D01*
X161499999Y-106071157D02*
X161628571Y-106028300D01*
X161628571Y-106028300D02*
X161671428Y-105985442D01*
X161671428Y-105985442D02*
X161671428Y-105685442D01*
X161671428Y-105685442D02*
X161499999Y-105685442D01*
X162057142Y-106071157D02*
X162057142Y-105171157D01*
X162057142Y-105171157D02*
X162399999Y-105171157D01*
X162399999Y-105171157D02*
X162485714Y-105214014D01*
X162485714Y-105214014D02*
X162528571Y-105256871D01*
X162528571Y-105256871D02*
X162571428Y-105342585D01*
X162571428Y-105342585D02*
X162571428Y-105471157D01*
X162571428Y-105471157D02*
X162528571Y-105556871D01*
X162528571Y-105556871D02*
X162485714Y-105599728D01*
X162485714Y-105599728D02*
X162399999Y-105642585D01*
X162399999Y-105642585D02*
X162057142Y-105642585D01*
X162914285Y-105256871D02*
X162957142Y-105214014D01*
X162957142Y-105214014D02*
X163042857Y-105171157D01*
X163042857Y-105171157D02*
X163257142Y-105171157D01*
X163257142Y-105171157D02*
X163342857Y-105214014D01*
X163342857Y-105214014D02*
X163385714Y-105256871D01*
X163385714Y-105256871D02*
X163428571Y-105342585D01*
X163428571Y-105342585D02*
X163428571Y-105428300D01*
X163428571Y-105428300D02*
X163385714Y-105556871D01*
X163385714Y-105556871D02*
X162871428Y-106071157D01*
X162871428Y-106071157D02*
X163428571Y-106071157D01*
X164285714Y-106071157D02*
X163771428Y-106071157D01*
X164028571Y-106071157D02*
X164028571Y-105171157D01*
X164028571Y-105171157D02*
X163942857Y-105299728D01*
X163942857Y-105299728D02*
X163857142Y-105385442D01*
X163857142Y-105385442D02*
X163771428Y-105428300D01*
D12*
X149133333Y-106959580D02*
X149085714Y-107007200D01*
X149085714Y-107007200D02*
X148942857Y-107054819D01*
X148942857Y-107054819D02*
X148847619Y-107054819D01*
X148847619Y-107054819D02*
X148704762Y-107007200D01*
X148704762Y-107007200D02*
X148609524Y-106911961D01*
X148609524Y-106911961D02*
X148561905Y-106816723D01*
X148561905Y-106816723D02*
X148514286Y-106626247D01*
X148514286Y-106626247D02*
X148514286Y-106483390D01*
X148514286Y-106483390D02*
X148561905Y-106292914D01*
X148561905Y-106292914D02*
X148609524Y-106197676D01*
X148609524Y-106197676D02*
X148704762Y-106102438D01*
X148704762Y-106102438D02*
X148847619Y-106054819D01*
X148847619Y-106054819D02*
X148942857Y-106054819D01*
X148942857Y-106054819D02*
X149085714Y-106102438D01*
X149085714Y-106102438D02*
X149133333Y-106150057D01*
X149990476Y-106388152D02*
X149990476Y-107054819D01*
X149752381Y-106007200D02*
X149514286Y-106721485D01*
X149514286Y-106721485D02*
X150133333Y-106721485D01*
X132466666Y-91089819D02*
X132466666Y-91804104D01*
X132466666Y-91804104D02*
X132419047Y-91946961D01*
X132419047Y-91946961D02*
X132323809Y-92042200D01*
X132323809Y-92042200D02*
X132180952Y-92089819D01*
X132180952Y-92089819D02*
X132085714Y-92089819D01*
X133371428Y-91423152D02*
X133371428Y-92089819D01*
X133133333Y-91042200D02*
X132895238Y-91756485D01*
X132895238Y-91756485D02*
X133514285Y-91756485D01*
X154738095Y-84954819D02*
X154738095Y-83954819D01*
X154738095Y-84431009D02*
X155309523Y-84431009D01*
X155309523Y-84954819D02*
X155309523Y-83954819D01*
X155738095Y-84050057D02*
X155785714Y-84002438D01*
X155785714Y-84002438D02*
X155880952Y-83954819D01*
X155880952Y-83954819D02*
X156119047Y-83954819D01*
X156119047Y-83954819D02*
X156214285Y-84002438D01*
X156214285Y-84002438D02*
X156261904Y-84050057D01*
X156261904Y-84050057D02*
X156309523Y-84145295D01*
X156309523Y-84145295D02*
X156309523Y-84240533D01*
X156309523Y-84240533D02*
X156261904Y-84383390D01*
X156261904Y-84383390D02*
X155690476Y-84954819D01*
X155690476Y-84954819D02*
X156309523Y-84954819D01*
X152838095Y-126754819D02*
X152838095Y-125754819D01*
X152838095Y-126231009D02*
X153409523Y-126231009D01*
X153409523Y-126754819D02*
X153409523Y-125754819D01*
X154314285Y-126088152D02*
X154314285Y-126754819D01*
X154076190Y-125707200D02*
X153838095Y-126421485D01*
X153838095Y-126421485D02*
X154457142Y-126421485D01*
X150677142Y-103819580D02*
X150629523Y-103867200D01*
X150629523Y-103867200D02*
X150486666Y-103914819D01*
X150486666Y-103914819D02*
X150391428Y-103914819D01*
X150391428Y-103914819D02*
X150248571Y-103867200D01*
X150248571Y-103867200D02*
X150153333Y-103771961D01*
X150153333Y-103771961D02*
X150105714Y-103676723D01*
X150105714Y-103676723D02*
X150058095Y-103486247D01*
X150058095Y-103486247D02*
X150058095Y-103343390D01*
X150058095Y-103343390D02*
X150105714Y-103152914D01*
X150105714Y-103152914D02*
X150153333Y-103057676D01*
X150153333Y-103057676D02*
X150248571Y-102962438D01*
X150248571Y-102962438D02*
X150391428Y-102914819D01*
X150391428Y-102914819D02*
X150486666Y-102914819D01*
X150486666Y-102914819D02*
X150629523Y-102962438D01*
X150629523Y-102962438D02*
X150677142Y-103010057D01*
X151629523Y-103914819D02*
X151058095Y-103914819D01*
X151343809Y-103914819D02*
X151343809Y-102914819D01*
X151343809Y-102914819D02*
X151248571Y-103057676D01*
X151248571Y-103057676D02*
X151153333Y-103152914D01*
X151153333Y-103152914D02*
X151058095Y-103200533D01*
X152010476Y-103010057D02*
X152058095Y-102962438D01*
X152058095Y-102962438D02*
X152153333Y-102914819D01*
X152153333Y-102914819D02*
X152391428Y-102914819D01*
X152391428Y-102914819D02*
X152486666Y-102962438D01*
X152486666Y-102962438D02*
X152534285Y-103010057D01*
X152534285Y-103010057D02*
X152581904Y-103105295D01*
X152581904Y-103105295D02*
X152581904Y-103200533D01*
X152581904Y-103200533D02*
X152534285Y-103343390D01*
X152534285Y-103343390D02*
X151962857Y-103914819D01*
X151962857Y-103914819D02*
X152581904Y-103914819D01*
X151133333Y-96319580D02*
X151085714Y-96367200D01*
X151085714Y-96367200D02*
X150942857Y-96414819D01*
X150942857Y-96414819D02*
X150847619Y-96414819D01*
X150847619Y-96414819D02*
X150704762Y-96367200D01*
X150704762Y-96367200D02*
X150609524Y-96271961D01*
X150609524Y-96271961D02*
X150561905Y-96176723D01*
X150561905Y-96176723D02*
X150514286Y-95986247D01*
X150514286Y-95986247D02*
X150514286Y-95843390D01*
X150514286Y-95843390D02*
X150561905Y-95652914D01*
X150561905Y-95652914D02*
X150609524Y-95557676D01*
X150609524Y-95557676D02*
X150704762Y-95462438D01*
X150704762Y-95462438D02*
X150847619Y-95414819D01*
X150847619Y-95414819D02*
X150942857Y-95414819D01*
X150942857Y-95414819D02*
X151085714Y-95462438D01*
X151085714Y-95462438D02*
X151133333Y-95510057D01*
X151704762Y-95843390D02*
X151609524Y-95795771D01*
X151609524Y-95795771D02*
X151561905Y-95748152D01*
X151561905Y-95748152D02*
X151514286Y-95652914D01*
X151514286Y-95652914D02*
X151514286Y-95605295D01*
X151514286Y-95605295D02*
X151561905Y-95510057D01*
X151561905Y-95510057D02*
X151609524Y-95462438D01*
X151609524Y-95462438D02*
X151704762Y-95414819D01*
X151704762Y-95414819D02*
X151895238Y-95414819D01*
X151895238Y-95414819D02*
X151990476Y-95462438D01*
X151990476Y-95462438D02*
X152038095Y-95510057D01*
X152038095Y-95510057D02*
X152085714Y-95605295D01*
X152085714Y-95605295D02*
X152085714Y-95652914D01*
X152085714Y-95652914D02*
X152038095Y-95748152D01*
X152038095Y-95748152D02*
X151990476Y-95795771D01*
X151990476Y-95795771D02*
X151895238Y-95843390D01*
X151895238Y-95843390D02*
X151704762Y-95843390D01*
X151704762Y-95843390D02*
X151609524Y-95891009D01*
X151609524Y-95891009D02*
X151561905Y-95938628D01*
X151561905Y-95938628D02*
X151514286Y-96033866D01*
X151514286Y-96033866D02*
X151514286Y-96224342D01*
X151514286Y-96224342D02*
X151561905Y-96319580D01*
X151561905Y-96319580D02*
X151609524Y-96367200D01*
X151609524Y-96367200D02*
X151704762Y-96414819D01*
X151704762Y-96414819D02*
X151895238Y-96414819D01*
X151895238Y-96414819D02*
X151990476Y-96367200D01*
X151990476Y-96367200D02*
X152038095Y-96319580D01*
X152038095Y-96319580D02*
X152085714Y-96224342D01*
X152085714Y-96224342D02*
X152085714Y-96033866D01*
X152085714Y-96033866D02*
X152038095Y-95938628D01*
X152038095Y-95938628D02*
X151990476Y-95891009D01*
X151990476Y-95891009D02*
X151895238Y-95843390D01*
X150638095Y-91754819D02*
X150638095Y-92564342D01*
X150638095Y-92564342D02*
X150685714Y-92659580D01*
X150685714Y-92659580D02*
X150733333Y-92707200D01*
X150733333Y-92707200D02*
X150828571Y-92754819D01*
X150828571Y-92754819D02*
X151019047Y-92754819D01*
X151019047Y-92754819D02*
X151114285Y-92707200D01*
X151114285Y-92707200D02*
X151161904Y-92659580D01*
X151161904Y-92659580D02*
X151209523Y-92564342D01*
X151209523Y-92564342D02*
X151209523Y-91754819D01*
X152209523Y-92754819D02*
X151638095Y-92754819D01*
X151923809Y-92754819D02*
X151923809Y-91754819D01*
X151923809Y-91754819D02*
X151828571Y-91897676D01*
X151828571Y-91897676D02*
X151733333Y-91992914D01*
X151733333Y-91992914D02*
X151638095Y-92040533D01*
X142284819Y-104646666D02*
X141808628Y-104979999D01*
X142284819Y-105218094D02*
X141284819Y-105218094D01*
X141284819Y-105218094D02*
X141284819Y-104837142D01*
X141284819Y-104837142D02*
X141332438Y-104741904D01*
X141332438Y-104741904D02*
X141380057Y-104694285D01*
X141380057Y-104694285D02*
X141475295Y-104646666D01*
X141475295Y-104646666D02*
X141618152Y-104646666D01*
X141618152Y-104646666D02*
X141713390Y-104694285D01*
X141713390Y-104694285D02*
X141761009Y-104741904D01*
X141761009Y-104741904D02*
X141808628Y-104837142D01*
X141808628Y-104837142D02*
X141808628Y-105218094D01*
X142284819Y-103694285D02*
X142284819Y-104265713D01*
X142284819Y-103979999D02*
X141284819Y-103979999D01*
X141284819Y-103979999D02*
X141427676Y-104075237D01*
X141427676Y-104075237D02*
X141522914Y-104170475D01*
X141522914Y-104170475D02*
X141570533Y-104265713D01*
X129738095Y-126954819D02*
X129738095Y-125954819D01*
X129738095Y-126431009D02*
X130309523Y-126431009D01*
X130309523Y-126954819D02*
X130309523Y-125954819D01*
X130690476Y-125954819D02*
X131309523Y-125954819D01*
X131309523Y-125954819D02*
X130976190Y-126335771D01*
X130976190Y-126335771D02*
X131119047Y-126335771D01*
X131119047Y-126335771D02*
X131214285Y-126383390D01*
X131214285Y-126383390D02*
X131261904Y-126431009D01*
X131261904Y-126431009D02*
X131309523Y-126526247D01*
X131309523Y-126526247D02*
X131309523Y-126764342D01*
X131309523Y-126764342D02*
X131261904Y-126859580D01*
X131261904Y-126859580D02*
X131214285Y-126907200D01*
X131214285Y-126907200D02*
X131119047Y-126954819D01*
X131119047Y-126954819D02*
X130833333Y-126954819D01*
X130833333Y-126954819D02*
X130738095Y-126907200D01*
X130738095Y-126907200D02*
X130690476Y-126859580D01*
X129738095Y-84954819D02*
X129738095Y-83954819D01*
X129738095Y-84431009D02*
X130309523Y-84431009D01*
X130309523Y-84954819D02*
X130309523Y-83954819D01*
X131309523Y-84954819D02*
X130738095Y-84954819D01*
X131023809Y-84954819D02*
X131023809Y-83954819D01*
X131023809Y-83954819D02*
X130928571Y-84097676D01*
X130928571Y-84097676D02*
X130833333Y-84192914D01*
X130833333Y-84192914D02*
X130738095Y-84240533D01*
X151153333Y-98819580D02*
X151105714Y-98867200D01*
X151105714Y-98867200D02*
X150962857Y-98914819D01*
X150962857Y-98914819D02*
X150867619Y-98914819D01*
X150867619Y-98914819D02*
X150724762Y-98867200D01*
X150724762Y-98867200D02*
X150629524Y-98771961D01*
X150629524Y-98771961D02*
X150581905Y-98676723D01*
X150581905Y-98676723D02*
X150534286Y-98486247D01*
X150534286Y-98486247D02*
X150534286Y-98343390D01*
X150534286Y-98343390D02*
X150581905Y-98152914D01*
X150581905Y-98152914D02*
X150629524Y-98057676D01*
X150629524Y-98057676D02*
X150724762Y-97962438D01*
X150724762Y-97962438D02*
X150867619Y-97914819D01*
X150867619Y-97914819D02*
X150962857Y-97914819D01*
X150962857Y-97914819D02*
X151105714Y-97962438D01*
X151105714Y-97962438D02*
X151153333Y-98010057D01*
X151629524Y-98914819D02*
X151820000Y-98914819D01*
X151820000Y-98914819D02*
X151915238Y-98867200D01*
X151915238Y-98867200D02*
X151962857Y-98819580D01*
X151962857Y-98819580D02*
X152058095Y-98676723D01*
X152058095Y-98676723D02*
X152105714Y-98486247D01*
X152105714Y-98486247D02*
X152105714Y-98105295D01*
X152105714Y-98105295D02*
X152058095Y-98010057D01*
X152058095Y-98010057D02*
X152010476Y-97962438D01*
X152010476Y-97962438D02*
X151915238Y-97914819D01*
X151915238Y-97914819D02*
X151724762Y-97914819D01*
X151724762Y-97914819D02*
X151629524Y-97962438D01*
X151629524Y-97962438D02*
X151581905Y-98010057D01*
X151581905Y-98010057D02*
X151534286Y-98105295D01*
X151534286Y-98105295D02*
X151534286Y-98343390D01*
X151534286Y-98343390D02*
X151581905Y-98438628D01*
X151581905Y-98438628D02*
X151629524Y-98486247D01*
X151629524Y-98486247D02*
X151724762Y-98533866D01*
X151724762Y-98533866D02*
X151915238Y-98533866D01*
X151915238Y-98533866D02*
X152010476Y-98486247D01*
X152010476Y-98486247D02*
X152058095Y-98438628D01*
X152058095Y-98438628D02*
X152105714Y-98343390D01*
X144454819Y-118666666D02*
X143978628Y-118999999D01*
X144454819Y-119238094D02*
X143454819Y-119238094D01*
X143454819Y-119238094D02*
X143454819Y-118857142D01*
X143454819Y-118857142D02*
X143502438Y-118761904D01*
X143502438Y-118761904D02*
X143550057Y-118714285D01*
X143550057Y-118714285D02*
X143645295Y-118666666D01*
X143645295Y-118666666D02*
X143788152Y-118666666D01*
X143788152Y-118666666D02*
X143883390Y-118714285D01*
X143883390Y-118714285D02*
X143931009Y-118761904D01*
X143931009Y-118761904D02*
X143978628Y-118857142D01*
X143978628Y-118857142D02*
X143978628Y-119238094D01*
X143454819Y-117761904D02*
X143454819Y-118238094D01*
X143454819Y-118238094D02*
X143931009Y-118285713D01*
X143931009Y-118285713D02*
X143883390Y-118238094D01*
X143883390Y-118238094D02*
X143835771Y-118142856D01*
X143835771Y-118142856D02*
X143835771Y-117904761D01*
X143835771Y-117904761D02*
X143883390Y-117809523D01*
X143883390Y-117809523D02*
X143931009Y-117761904D01*
X143931009Y-117761904D02*
X144026247Y-117714285D01*
X144026247Y-117714285D02*
X144264342Y-117714285D01*
X144264342Y-117714285D02*
X144359580Y-117761904D01*
X144359580Y-117761904D02*
X144407200Y-117809523D01*
X144407200Y-117809523D02*
X144454819Y-117904761D01*
X144454819Y-117904761D02*
X144454819Y-118142856D01*
X144454819Y-118142856D02*
X144407200Y-118238094D01*
X144407200Y-118238094D02*
X144359580Y-118285713D01*
X116566666Y-82754819D02*
X116566666Y-83469104D01*
X116566666Y-83469104D02*
X116519047Y-83611961D01*
X116519047Y-83611961D02*
X116423809Y-83707200D01*
X116423809Y-83707200D02*
X116280952Y-83754819D01*
X116280952Y-83754819D02*
X116185714Y-83754819D01*
X116995238Y-82850057D02*
X117042857Y-82802438D01*
X117042857Y-82802438D02*
X117138095Y-82754819D01*
X117138095Y-82754819D02*
X117376190Y-82754819D01*
X117376190Y-82754819D02*
X117471428Y-82802438D01*
X117471428Y-82802438D02*
X117519047Y-82850057D01*
X117519047Y-82850057D02*
X117566666Y-82945295D01*
X117566666Y-82945295D02*
X117566666Y-83040533D01*
X117566666Y-83040533D02*
X117519047Y-83183390D01*
X117519047Y-83183390D02*
X116947619Y-83754819D01*
X116947619Y-83754819D02*
X117566666Y-83754819D01*
X154477142Y-108419580D02*
X154429523Y-108467200D01*
X154429523Y-108467200D02*
X154286666Y-108514819D01*
X154286666Y-108514819D02*
X154191428Y-108514819D01*
X154191428Y-108514819D02*
X154048571Y-108467200D01*
X154048571Y-108467200D02*
X153953333Y-108371961D01*
X153953333Y-108371961D02*
X153905714Y-108276723D01*
X153905714Y-108276723D02*
X153858095Y-108086247D01*
X153858095Y-108086247D02*
X153858095Y-107943390D01*
X153858095Y-107943390D02*
X153905714Y-107752914D01*
X153905714Y-107752914D02*
X153953333Y-107657676D01*
X153953333Y-107657676D02*
X154048571Y-107562438D01*
X154048571Y-107562438D02*
X154191428Y-107514819D01*
X154191428Y-107514819D02*
X154286666Y-107514819D01*
X154286666Y-107514819D02*
X154429523Y-107562438D01*
X154429523Y-107562438D02*
X154477142Y-107610057D01*
X155429523Y-108514819D02*
X154858095Y-108514819D01*
X155143809Y-108514819D02*
X155143809Y-107514819D01*
X155143809Y-107514819D02*
X155048571Y-107657676D01*
X155048571Y-107657676D02*
X154953333Y-107752914D01*
X154953333Y-107752914D02*
X154858095Y-107800533D01*
X156286666Y-107848152D02*
X156286666Y-108514819D01*
X156048571Y-107467200D02*
X155810476Y-108181485D01*
X155810476Y-108181485D02*
X156429523Y-108181485D01*
X146577142Y-101269580D02*
X146529523Y-101317200D01*
X146529523Y-101317200D02*
X146386666Y-101364819D01*
X146386666Y-101364819D02*
X146291428Y-101364819D01*
X146291428Y-101364819D02*
X146148571Y-101317200D01*
X146148571Y-101317200D02*
X146053333Y-101221961D01*
X146053333Y-101221961D02*
X146005714Y-101126723D01*
X146005714Y-101126723D02*
X145958095Y-100936247D01*
X145958095Y-100936247D02*
X145958095Y-100793390D01*
X145958095Y-100793390D02*
X146005714Y-100602914D01*
X146005714Y-100602914D02*
X146053333Y-100507676D01*
X146053333Y-100507676D02*
X146148571Y-100412438D01*
X146148571Y-100412438D02*
X146291428Y-100364819D01*
X146291428Y-100364819D02*
X146386666Y-100364819D01*
X146386666Y-100364819D02*
X146529523Y-100412438D01*
X146529523Y-100412438D02*
X146577142Y-100460057D01*
X147529523Y-101364819D02*
X146958095Y-101364819D01*
X147243809Y-101364819D02*
X147243809Y-100364819D01*
X147243809Y-100364819D02*
X147148571Y-100507676D01*
X147148571Y-100507676D02*
X147053333Y-100602914D01*
X147053333Y-100602914D02*
X146958095Y-100650533D01*
X148481904Y-101364819D02*
X147910476Y-101364819D01*
X148196190Y-101364819D02*
X148196190Y-100364819D01*
X148196190Y-100364819D02*
X148100952Y-100507676D01*
X148100952Y-100507676D02*
X148005714Y-100602914D01*
X148005714Y-100602914D02*
X147910476Y-100650533D01*
X154437142Y-105919580D02*
X154389523Y-105967200D01*
X154389523Y-105967200D02*
X154246666Y-106014819D01*
X154246666Y-106014819D02*
X154151428Y-106014819D01*
X154151428Y-106014819D02*
X154008571Y-105967200D01*
X154008571Y-105967200D02*
X153913333Y-105871961D01*
X153913333Y-105871961D02*
X153865714Y-105776723D01*
X153865714Y-105776723D02*
X153818095Y-105586247D01*
X153818095Y-105586247D02*
X153818095Y-105443390D01*
X153818095Y-105443390D02*
X153865714Y-105252914D01*
X153865714Y-105252914D02*
X153913333Y-105157676D01*
X153913333Y-105157676D02*
X154008571Y-105062438D01*
X154008571Y-105062438D02*
X154151428Y-105014819D01*
X154151428Y-105014819D02*
X154246666Y-105014819D01*
X154246666Y-105014819D02*
X154389523Y-105062438D01*
X154389523Y-105062438D02*
X154437142Y-105110057D01*
X155389523Y-106014819D02*
X154818095Y-106014819D01*
X155103809Y-106014819D02*
X155103809Y-105014819D01*
X155103809Y-105014819D02*
X155008571Y-105157676D01*
X155008571Y-105157676D02*
X154913333Y-105252914D01*
X154913333Y-105252914D02*
X154818095Y-105300533D01*
X155722857Y-105014819D02*
X156341904Y-105014819D01*
X156341904Y-105014819D02*
X156008571Y-105395771D01*
X156008571Y-105395771D02*
X156151428Y-105395771D01*
X156151428Y-105395771D02*
X156246666Y-105443390D01*
X156246666Y-105443390D02*
X156294285Y-105491009D01*
X156294285Y-105491009D02*
X156341904Y-105586247D01*
X156341904Y-105586247D02*
X156341904Y-105824342D01*
X156341904Y-105824342D02*
X156294285Y-105919580D01*
X156294285Y-105919580D02*
X156246666Y-105967200D01*
X156246666Y-105967200D02*
X156151428Y-106014819D01*
X156151428Y-106014819D02*
X155865714Y-106014819D01*
X155865714Y-106014819D02*
X155770476Y-105967200D01*
X155770476Y-105967200D02*
X155722857Y-105919580D01*
X139624819Y-94656666D02*
X139148628Y-94989999D01*
X139624819Y-95228094D02*
X138624819Y-95228094D01*
X138624819Y-95228094D02*
X138624819Y-94847142D01*
X138624819Y-94847142D02*
X138672438Y-94751904D01*
X138672438Y-94751904D02*
X138720057Y-94704285D01*
X138720057Y-94704285D02*
X138815295Y-94656666D01*
X138815295Y-94656666D02*
X138958152Y-94656666D01*
X138958152Y-94656666D02*
X139053390Y-94704285D01*
X139053390Y-94704285D02*
X139101009Y-94751904D01*
X139101009Y-94751904D02*
X139148628Y-94847142D01*
X139148628Y-94847142D02*
X139148628Y-95228094D01*
X138958152Y-93799523D02*
X139624819Y-93799523D01*
X138577200Y-94037618D02*
X139291485Y-94275713D01*
X139291485Y-94275713D02*
X139291485Y-93656666D01*
X146633333Y-106959580D02*
X146585714Y-107007200D01*
X146585714Y-107007200D02*
X146442857Y-107054819D01*
X146442857Y-107054819D02*
X146347619Y-107054819D01*
X146347619Y-107054819D02*
X146204762Y-107007200D01*
X146204762Y-107007200D02*
X146109524Y-106911961D01*
X146109524Y-106911961D02*
X146061905Y-106816723D01*
X146061905Y-106816723D02*
X146014286Y-106626247D01*
X146014286Y-106626247D02*
X146014286Y-106483390D01*
X146014286Y-106483390D02*
X146061905Y-106292914D01*
X146061905Y-106292914D02*
X146109524Y-106197676D01*
X146109524Y-106197676D02*
X146204762Y-106102438D01*
X146204762Y-106102438D02*
X146347619Y-106054819D01*
X146347619Y-106054819D02*
X146442857Y-106054819D01*
X146442857Y-106054819D02*
X146585714Y-106102438D01*
X146585714Y-106102438D02*
X146633333Y-106150057D01*
X147538095Y-106054819D02*
X147061905Y-106054819D01*
X147061905Y-106054819D02*
X147014286Y-106531009D01*
X147014286Y-106531009D02*
X147061905Y-106483390D01*
X147061905Y-106483390D02*
X147157143Y-106435771D01*
X147157143Y-106435771D02*
X147395238Y-106435771D01*
X147395238Y-106435771D02*
X147490476Y-106483390D01*
X147490476Y-106483390D02*
X147538095Y-106531009D01*
X147538095Y-106531009D02*
X147585714Y-106626247D01*
X147585714Y-106626247D02*
X147585714Y-106864342D01*
X147585714Y-106864342D02*
X147538095Y-106959580D01*
X147538095Y-106959580D02*
X147490476Y-107007200D01*
X147490476Y-107007200D02*
X147395238Y-107054819D01*
X147395238Y-107054819D02*
X147157143Y-107054819D01*
X147157143Y-107054819D02*
X147061905Y-107007200D01*
X147061905Y-107007200D02*
X147014286Y-106959580D01*
X136966666Y-83954819D02*
X136966666Y-84669104D01*
X136966666Y-84669104D02*
X136919047Y-84811961D01*
X136919047Y-84811961D02*
X136823809Y-84907200D01*
X136823809Y-84907200D02*
X136680952Y-84954819D01*
X136680952Y-84954819D02*
X136585714Y-84954819D01*
X137966666Y-84954819D02*
X137395238Y-84954819D01*
X137680952Y-84954819D02*
X137680952Y-83954819D01*
X137680952Y-83954819D02*
X137585714Y-84097676D01*
X137585714Y-84097676D02*
X137490476Y-84192914D01*
X137490476Y-84192914D02*
X137395238Y-84240533D01*
X135954819Y-94666666D02*
X135478628Y-94999999D01*
X135954819Y-95238094D02*
X134954819Y-95238094D01*
X134954819Y-95238094D02*
X134954819Y-94857142D01*
X134954819Y-94857142D02*
X135002438Y-94761904D01*
X135002438Y-94761904D02*
X135050057Y-94714285D01*
X135050057Y-94714285D02*
X135145295Y-94666666D01*
X135145295Y-94666666D02*
X135288152Y-94666666D01*
X135288152Y-94666666D02*
X135383390Y-94714285D01*
X135383390Y-94714285D02*
X135431009Y-94761904D01*
X135431009Y-94761904D02*
X135478628Y-94857142D01*
X135478628Y-94857142D02*
X135478628Y-95238094D01*
X134954819Y-94333332D02*
X134954819Y-93714285D01*
X134954819Y-93714285D02*
X135335771Y-94047618D01*
X135335771Y-94047618D02*
X135335771Y-93904761D01*
X135335771Y-93904761D02*
X135383390Y-93809523D01*
X135383390Y-93809523D02*
X135431009Y-93761904D01*
X135431009Y-93761904D02*
X135526247Y-93714285D01*
X135526247Y-93714285D02*
X135764342Y-93714285D01*
X135764342Y-93714285D02*
X135859580Y-93761904D01*
X135859580Y-93761904D02*
X135907200Y-93809523D01*
X135907200Y-93809523D02*
X135954819Y-93904761D01*
X135954819Y-93904761D02*
X135954819Y-94190475D01*
X135954819Y-94190475D02*
X135907200Y-94285713D01*
X135907200Y-94285713D02*
X135859580Y-94333332D01*
X150677142Y-101319580D02*
X150629523Y-101367200D01*
X150629523Y-101367200D02*
X150486666Y-101414819D01*
X150486666Y-101414819D02*
X150391428Y-101414819D01*
X150391428Y-101414819D02*
X150248571Y-101367200D01*
X150248571Y-101367200D02*
X150153333Y-101271961D01*
X150153333Y-101271961D02*
X150105714Y-101176723D01*
X150105714Y-101176723D02*
X150058095Y-100986247D01*
X150058095Y-100986247D02*
X150058095Y-100843390D01*
X150058095Y-100843390D02*
X150105714Y-100652914D01*
X150105714Y-100652914D02*
X150153333Y-100557676D01*
X150153333Y-100557676D02*
X150248571Y-100462438D01*
X150248571Y-100462438D02*
X150391428Y-100414819D01*
X150391428Y-100414819D02*
X150486666Y-100414819D01*
X150486666Y-100414819D02*
X150629523Y-100462438D01*
X150629523Y-100462438D02*
X150677142Y-100510057D01*
X151629523Y-101414819D02*
X151058095Y-101414819D01*
X151343809Y-101414819D02*
X151343809Y-100414819D01*
X151343809Y-100414819D02*
X151248571Y-100557676D01*
X151248571Y-100557676D02*
X151153333Y-100652914D01*
X151153333Y-100652914D02*
X151058095Y-100700533D01*
X152534285Y-100414819D02*
X152058095Y-100414819D01*
X152058095Y-100414819D02*
X152010476Y-100891009D01*
X152010476Y-100891009D02*
X152058095Y-100843390D01*
X152058095Y-100843390D02*
X152153333Y-100795771D01*
X152153333Y-100795771D02*
X152391428Y-100795771D01*
X152391428Y-100795771D02*
X152486666Y-100843390D01*
X152486666Y-100843390D02*
X152534285Y-100891009D01*
X152534285Y-100891009D02*
X152581904Y-100986247D01*
X152581904Y-100986247D02*
X152581904Y-101224342D01*
X152581904Y-101224342D02*
X152534285Y-101319580D01*
X152534285Y-101319580D02*
X152486666Y-101367200D01*
X152486666Y-101367200D02*
X152391428Y-101414819D01*
X152391428Y-101414819D02*
X152153333Y-101414819D01*
X152153333Y-101414819D02*
X152058095Y-101367200D01*
X152058095Y-101367200D02*
X152010476Y-101319580D01*
X145654819Y-104606666D02*
X145178628Y-104939999D01*
X145654819Y-105178094D02*
X144654819Y-105178094D01*
X144654819Y-105178094D02*
X144654819Y-104797142D01*
X144654819Y-104797142D02*
X144702438Y-104701904D01*
X144702438Y-104701904D02*
X144750057Y-104654285D01*
X144750057Y-104654285D02*
X144845295Y-104606666D01*
X144845295Y-104606666D02*
X144988152Y-104606666D01*
X144988152Y-104606666D02*
X145083390Y-104654285D01*
X145083390Y-104654285D02*
X145131009Y-104701904D01*
X145131009Y-104701904D02*
X145178628Y-104797142D01*
X145178628Y-104797142D02*
X145178628Y-105178094D01*
X144750057Y-104225713D02*
X144702438Y-104178094D01*
X144702438Y-104178094D02*
X144654819Y-104082856D01*
X144654819Y-104082856D02*
X144654819Y-103844761D01*
X144654819Y-103844761D02*
X144702438Y-103749523D01*
X144702438Y-103749523D02*
X144750057Y-103701904D01*
X144750057Y-103701904D02*
X144845295Y-103654285D01*
X144845295Y-103654285D02*
X144940533Y-103654285D01*
X144940533Y-103654285D02*
X145083390Y-103701904D01*
X145083390Y-103701904D02*
X145654819Y-104273332D01*
X145654819Y-104273332D02*
X145654819Y-103654285D01*
X142238095Y-106634819D02*
X142238095Y-107444342D01*
X142238095Y-107444342D02*
X142285714Y-107539580D01*
X142285714Y-107539580D02*
X142333333Y-107587200D01*
X142333333Y-107587200D02*
X142428571Y-107634819D01*
X142428571Y-107634819D02*
X142619047Y-107634819D01*
X142619047Y-107634819D02*
X142714285Y-107587200D01*
X142714285Y-107587200D02*
X142761904Y-107539580D01*
X142761904Y-107539580D02*
X142809523Y-107444342D01*
X142809523Y-107444342D02*
X142809523Y-106634819D01*
X143190476Y-106634819D02*
X143809523Y-106634819D01*
X143809523Y-106634819D02*
X143476190Y-107015771D01*
X143476190Y-107015771D02*
X143619047Y-107015771D01*
X143619047Y-107015771D02*
X143714285Y-107063390D01*
X143714285Y-107063390D02*
X143761904Y-107111009D01*
X143761904Y-107111009D02*
X143809523Y-107206247D01*
X143809523Y-107206247D02*
X143809523Y-107444342D01*
X143809523Y-107444342D02*
X143761904Y-107539580D01*
X143761904Y-107539580D02*
X143714285Y-107587200D01*
X143714285Y-107587200D02*
X143619047Y-107634819D01*
X143619047Y-107634819D02*
X143333333Y-107634819D01*
X143333333Y-107634819D02*
X143238095Y-107587200D01*
X143238095Y-107587200D02*
X143190476Y-107539580D01*
X138223809Y-125578628D02*
X138223809Y-126054819D01*
X137890476Y-125054819D02*
X138223809Y-125578628D01*
X138223809Y-125578628D02*
X138557142Y-125054819D01*
X139414285Y-126054819D02*
X138842857Y-126054819D01*
X139128571Y-126054819D02*
X139128571Y-125054819D01*
X139128571Y-125054819D02*
X139033333Y-125197676D01*
X139033333Y-125197676D02*
X138938095Y-125292914D01*
X138938095Y-125292914D02*
X138842857Y-125340533D01*
X146557142Y-96269580D02*
X146509523Y-96317200D01*
X146509523Y-96317200D02*
X146366666Y-96364819D01*
X146366666Y-96364819D02*
X146271428Y-96364819D01*
X146271428Y-96364819D02*
X146128571Y-96317200D01*
X146128571Y-96317200D02*
X146033333Y-96221961D01*
X146033333Y-96221961D02*
X145985714Y-96126723D01*
X145985714Y-96126723D02*
X145938095Y-95936247D01*
X145938095Y-95936247D02*
X145938095Y-95793390D01*
X145938095Y-95793390D02*
X145985714Y-95602914D01*
X145985714Y-95602914D02*
X146033333Y-95507676D01*
X146033333Y-95507676D02*
X146128571Y-95412438D01*
X146128571Y-95412438D02*
X146271428Y-95364819D01*
X146271428Y-95364819D02*
X146366666Y-95364819D01*
X146366666Y-95364819D02*
X146509523Y-95412438D01*
X146509523Y-95412438D02*
X146557142Y-95460057D01*
X147509523Y-96364819D02*
X146938095Y-96364819D01*
X147223809Y-96364819D02*
X147223809Y-95364819D01*
X147223809Y-95364819D02*
X147128571Y-95507676D01*
X147128571Y-95507676D02*
X147033333Y-95602914D01*
X147033333Y-95602914D02*
X146938095Y-95650533D01*
X148128571Y-95364819D02*
X148223809Y-95364819D01*
X148223809Y-95364819D02*
X148319047Y-95412438D01*
X148319047Y-95412438D02*
X148366666Y-95460057D01*
X148366666Y-95460057D02*
X148414285Y-95555295D01*
X148414285Y-95555295D02*
X148461904Y-95745771D01*
X148461904Y-95745771D02*
X148461904Y-95983866D01*
X148461904Y-95983866D02*
X148414285Y-96174342D01*
X148414285Y-96174342D02*
X148366666Y-96269580D01*
X148366666Y-96269580D02*
X148319047Y-96317200D01*
X148319047Y-96317200D02*
X148223809Y-96364819D01*
X148223809Y-96364819D02*
X148128571Y-96364819D01*
X148128571Y-96364819D02*
X148033333Y-96317200D01*
X148033333Y-96317200D02*
X147985714Y-96269580D01*
X147985714Y-96269580D02*
X147938095Y-96174342D01*
X147938095Y-96174342D02*
X147890476Y-95983866D01*
X147890476Y-95983866D02*
X147890476Y-95745771D01*
X147890476Y-95745771D02*
X147938095Y-95555295D01*
X147938095Y-95555295D02*
X147985714Y-95460057D01*
X147985714Y-95460057D02*
X148033333Y-95412438D01*
X148033333Y-95412438D02*
X148128571Y-95364819D01*
X137357142Y-121859580D02*
X137309523Y-121907200D01*
X137309523Y-121907200D02*
X137166666Y-121954819D01*
X137166666Y-121954819D02*
X137071428Y-121954819D01*
X137071428Y-121954819D02*
X136928571Y-121907200D01*
X136928571Y-121907200D02*
X136833333Y-121811961D01*
X136833333Y-121811961D02*
X136785714Y-121716723D01*
X136785714Y-121716723D02*
X136738095Y-121526247D01*
X136738095Y-121526247D02*
X136738095Y-121383390D01*
X136738095Y-121383390D02*
X136785714Y-121192914D01*
X136785714Y-121192914D02*
X136833333Y-121097676D01*
X136833333Y-121097676D02*
X136928571Y-121002438D01*
X136928571Y-121002438D02*
X137071428Y-120954819D01*
X137071428Y-120954819D02*
X137166666Y-120954819D01*
X137166666Y-120954819D02*
X137309523Y-121002438D01*
X137309523Y-121002438D02*
X137357142Y-121050057D01*
X138309523Y-121954819D02*
X137738095Y-121954819D01*
X138023809Y-121954819D02*
X138023809Y-120954819D01*
X138023809Y-120954819D02*
X137928571Y-121097676D01*
X137928571Y-121097676D02*
X137833333Y-121192914D01*
X137833333Y-121192914D02*
X137738095Y-121240533D01*
X139166666Y-120954819D02*
X138976190Y-120954819D01*
X138976190Y-120954819D02*
X138880952Y-121002438D01*
X138880952Y-121002438D02*
X138833333Y-121050057D01*
X138833333Y-121050057D02*
X138738095Y-121192914D01*
X138738095Y-121192914D02*
X138690476Y-121383390D01*
X138690476Y-121383390D02*
X138690476Y-121764342D01*
X138690476Y-121764342D02*
X138738095Y-121859580D01*
X138738095Y-121859580D02*
X138785714Y-121907200D01*
X138785714Y-121907200D02*
X138880952Y-121954819D01*
X138880952Y-121954819D02*
X139071428Y-121954819D01*
X139071428Y-121954819D02*
X139166666Y-121907200D01*
X139166666Y-121907200D02*
X139214285Y-121859580D01*
X139214285Y-121859580D02*
X139261904Y-121764342D01*
X139261904Y-121764342D02*
X139261904Y-121526247D01*
X139261904Y-121526247D02*
X139214285Y-121431009D01*
X139214285Y-121431009D02*
X139166666Y-121383390D01*
X139166666Y-121383390D02*
X139071428Y-121335771D01*
X139071428Y-121335771D02*
X138880952Y-121335771D01*
X138880952Y-121335771D02*
X138785714Y-121383390D01*
X138785714Y-121383390D02*
X138738095Y-121431009D01*
X138738095Y-121431009D02*
X138690476Y-121526247D01*
X145457142Y-121859580D02*
X145409523Y-121907200D01*
X145409523Y-121907200D02*
X145266666Y-121954819D01*
X145266666Y-121954819D02*
X145171428Y-121954819D01*
X145171428Y-121954819D02*
X145028571Y-121907200D01*
X145028571Y-121907200D02*
X144933333Y-121811961D01*
X144933333Y-121811961D02*
X144885714Y-121716723D01*
X144885714Y-121716723D02*
X144838095Y-121526247D01*
X144838095Y-121526247D02*
X144838095Y-121383390D01*
X144838095Y-121383390D02*
X144885714Y-121192914D01*
X144885714Y-121192914D02*
X144933333Y-121097676D01*
X144933333Y-121097676D02*
X145028571Y-121002438D01*
X145028571Y-121002438D02*
X145171428Y-120954819D01*
X145171428Y-120954819D02*
X145266666Y-120954819D01*
X145266666Y-120954819D02*
X145409523Y-121002438D01*
X145409523Y-121002438D02*
X145457142Y-121050057D01*
X146409523Y-121954819D02*
X145838095Y-121954819D01*
X146123809Y-121954819D02*
X146123809Y-120954819D01*
X146123809Y-120954819D02*
X146028571Y-121097676D01*
X146028571Y-121097676D02*
X145933333Y-121192914D01*
X145933333Y-121192914D02*
X145838095Y-121240533D01*
X146742857Y-120954819D02*
X147409523Y-120954819D01*
X147409523Y-120954819D02*
X146980952Y-121954819D01*
X154433333Y-101559580D02*
X154385714Y-101607200D01*
X154385714Y-101607200D02*
X154242857Y-101654819D01*
X154242857Y-101654819D02*
X154147619Y-101654819D01*
X154147619Y-101654819D02*
X154004762Y-101607200D01*
X154004762Y-101607200D02*
X153909524Y-101511961D01*
X153909524Y-101511961D02*
X153861905Y-101416723D01*
X153861905Y-101416723D02*
X153814286Y-101226247D01*
X153814286Y-101226247D02*
X153814286Y-101083390D01*
X153814286Y-101083390D02*
X153861905Y-100892914D01*
X153861905Y-100892914D02*
X153909524Y-100797676D01*
X153909524Y-100797676D02*
X154004762Y-100702438D01*
X154004762Y-100702438D02*
X154147619Y-100654819D01*
X154147619Y-100654819D02*
X154242857Y-100654819D01*
X154242857Y-100654819D02*
X154385714Y-100702438D01*
X154385714Y-100702438D02*
X154433333Y-100750057D01*
X154814286Y-100750057D02*
X154861905Y-100702438D01*
X154861905Y-100702438D02*
X154957143Y-100654819D01*
X154957143Y-100654819D02*
X155195238Y-100654819D01*
X155195238Y-100654819D02*
X155290476Y-100702438D01*
X155290476Y-100702438D02*
X155338095Y-100750057D01*
X155338095Y-100750057D02*
X155385714Y-100845295D01*
X155385714Y-100845295D02*
X155385714Y-100940533D01*
X155385714Y-100940533D02*
X155338095Y-101083390D01*
X155338095Y-101083390D02*
X154766667Y-101654819D01*
X154766667Y-101654819D02*
X155385714Y-101654819D01*
X165566666Y-82654819D02*
X165566666Y-83369104D01*
X165566666Y-83369104D02*
X165519047Y-83511961D01*
X165519047Y-83511961D02*
X165423809Y-83607200D01*
X165423809Y-83607200D02*
X165280952Y-83654819D01*
X165280952Y-83654819D02*
X165185714Y-83654819D01*
X165947619Y-82654819D02*
X166566666Y-82654819D01*
X166566666Y-82654819D02*
X166233333Y-83035771D01*
X166233333Y-83035771D02*
X166376190Y-83035771D01*
X166376190Y-83035771D02*
X166471428Y-83083390D01*
X166471428Y-83083390D02*
X166519047Y-83131009D01*
X166519047Y-83131009D02*
X166566666Y-83226247D01*
X166566666Y-83226247D02*
X166566666Y-83464342D01*
X166566666Y-83464342D02*
X166519047Y-83559580D01*
X166519047Y-83559580D02*
X166471428Y-83607200D01*
X166471428Y-83607200D02*
X166376190Y-83654819D01*
X166376190Y-83654819D02*
X166090476Y-83654819D01*
X166090476Y-83654819D02*
X165995238Y-83607200D01*
X165995238Y-83607200D02*
X165947619Y-83559580D01*
X138579580Y-91916666D02*
X138627200Y-91964285D01*
X138627200Y-91964285D02*
X138674819Y-92107142D01*
X138674819Y-92107142D02*
X138674819Y-92202380D01*
X138674819Y-92202380D02*
X138627200Y-92345237D01*
X138627200Y-92345237D02*
X138531961Y-92440475D01*
X138531961Y-92440475D02*
X138436723Y-92488094D01*
X138436723Y-92488094D02*
X138246247Y-92535713D01*
X138246247Y-92535713D02*
X138103390Y-92535713D01*
X138103390Y-92535713D02*
X137912914Y-92488094D01*
X137912914Y-92488094D02*
X137817676Y-92440475D01*
X137817676Y-92440475D02*
X137722438Y-92345237D01*
X137722438Y-92345237D02*
X137674819Y-92202380D01*
X137674819Y-92202380D02*
X137674819Y-92107142D01*
X137674819Y-92107142D02*
X137722438Y-91964285D01*
X137722438Y-91964285D02*
X137770057Y-91916666D01*
X137674819Y-91059523D02*
X137674819Y-91249999D01*
X137674819Y-91249999D02*
X137722438Y-91345237D01*
X137722438Y-91345237D02*
X137770057Y-91392856D01*
X137770057Y-91392856D02*
X137912914Y-91488094D01*
X137912914Y-91488094D02*
X138103390Y-91535713D01*
X138103390Y-91535713D02*
X138484342Y-91535713D01*
X138484342Y-91535713D02*
X138579580Y-91488094D01*
X138579580Y-91488094D02*
X138627200Y-91440475D01*
X138627200Y-91440475D02*
X138674819Y-91345237D01*
X138674819Y-91345237D02*
X138674819Y-91154761D01*
X138674819Y-91154761D02*
X138627200Y-91059523D01*
X138627200Y-91059523D02*
X138579580Y-91011904D01*
X138579580Y-91011904D02*
X138484342Y-90964285D01*
X138484342Y-90964285D02*
X138246247Y-90964285D01*
X138246247Y-90964285D02*
X138151009Y-91011904D01*
X138151009Y-91011904D02*
X138103390Y-91059523D01*
X138103390Y-91059523D02*
X138055771Y-91154761D01*
X138055771Y-91154761D02*
X138055771Y-91345237D01*
X138055771Y-91345237D02*
X138103390Y-91440475D01*
X138103390Y-91440475D02*
X138151009Y-91488094D01*
X138151009Y-91488094D02*
X138246247Y-91535713D01*
X151633333Y-106959580D02*
X151585714Y-107007200D01*
X151585714Y-107007200D02*
X151442857Y-107054819D01*
X151442857Y-107054819D02*
X151347619Y-107054819D01*
X151347619Y-107054819D02*
X151204762Y-107007200D01*
X151204762Y-107007200D02*
X151109524Y-106911961D01*
X151109524Y-106911961D02*
X151061905Y-106816723D01*
X151061905Y-106816723D02*
X151014286Y-106626247D01*
X151014286Y-106626247D02*
X151014286Y-106483390D01*
X151014286Y-106483390D02*
X151061905Y-106292914D01*
X151061905Y-106292914D02*
X151109524Y-106197676D01*
X151109524Y-106197676D02*
X151204762Y-106102438D01*
X151204762Y-106102438D02*
X151347619Y-106054819D01*
X151347619Y-106054819D02*
X151442857Y-106054819D01*
X151442857Y-106054819D02*
X151585714Y-106102438D01*
X151585714Y-106102438D02*
X151633333Y-106150057D01*
X151966667Y-106054819D02*
X152585714Y-106054819D01*
X152585714Y-106054819D02*
X152252381Y-106435771D01*
X152252381Y-106435771D02*
X152395238Y-106435771D01*
X152395238Y-106435771D02*
X152490476Y-106483390D01*
X152490476Y-106483390D02*
X152538095Y-106531009D01*
X152538095Y-106531009D02*
X152585714Y-106626247D01*
X152585714Y-106626247D02*
X152585714Y-106864342D01*
X152585714Y-106864342D02*
X152538095Y-106959580D01*
X152538095Y-106959580D02*
X152490476Y-107007200D01*
X152490476Y-107007200D02*
X152395238Y-107054819D01*
X152395238Y-107054819D02*
X152109524Y-107054819D01*
X152109524Y-107054819D02*
X152014286Y-107007200D01*
X152014286Y-107007200D02*
X151966667Y-106959580D01*
X147053333Y-98769580D02*
X147005714Y-98817200D01*
X147005714Y-98817200D02*
X146862857Y-98864819D01*
X146862857Y-98864819D02*
X146767619Y-98864819D01*
X146767619Y-98864819D02*
X146624762Y-98817200D01*
X146624762Y-98817200D02*
X146529524Y-98721961D01*
X146529524Y-98721961D02*
X146481905Y-98626723D01*
X146481905Y-98626723D02*
X146434286Y-98436247D01*
X146434286Y-98436247D02*
X146434286Y-98293390D01*
X146434286Y-98293390D02*
X146481905Y-98102914D01*
X146481905Y-98102914D02*
X146529524Y-98007676D01*
X146529524Y-98007676D02*
X146624762Y-97912438D01*
X146624762Y-97912438D02*
X146767619Y-97864819D01*
X146767619Y-97864819D02*
X146862857Y-97864819D01*
X146862857Y-97864819D02*
X147005714Y-97912438D01*
X147005714Y-97912438D02*
X147053333Y-97960057D01*
X147386667Y-97864819D02*
X148053333Y-97864819D01*
X148053333Y-97864819D02*
X147624762Y-98864819D01*
X155733333Y-86759580D02*
X155685714Y-86807200D01*
X155685714Y-86807200D02*
X155542857Y-86854819D01*
X155542857Y-86854819D02*
X155447619Y-86854819D01*
X155447619Y-86854819D02*
X155304762Y-86807200D01*
X155304762Y-86807200D02*
X155209524Y-86711961D01*
X155209524Y-86711961D02*
X155161905Y-86616723D01*
X155161905Y-86616723D02*
X155114286Y-86426247D01*
X155114286Y-86426247D02*
X155114286Y-86283390D01*
X155114286Y-86283390D02*
X155161905Y-86092914D01*
X155161905Y-86092914D02*
X155209524Y-85997676D01*
X155209524Y-85997676D02*
X155304762Y-85902438D01*
X155304762Y-85902438D02*
X155447619Y-85854819D01*
X155447619Y-85854819D02*
X155542857Y-85854819D01*
X155542857Y-85854819D02*
X155685714Y-85902438D01*
X155685714Y-85902438D02*
X155733333Y-85950057D01*
X156685714Y-86854819D02*
X156114286Y-86854819D01*
X156400000Y-86854819D02*
X156400000Y-85854819D01*
X156400000Y-85854819D02*
X156304762Y-85997676D01*
X156304762Y-85997676D02*
X156209524Y-86092914D01*
X156209524Y-86092914D02*
X156114286Y-86140533D01*
X130738095Y-94454819D02*
X130738095Y-95264342D01*
X130738095Y-95264342D02*
X130785714Y-95359580D01*
X130785714Y-95359580D02*
X130833333Y-95407200D01*
X130833333Y-95407200D02*
X130928571Y-95454819D01*
X130928571Y-95454819D02*
X131119047Y-95454819D01*
X131119047Y-95454819D02*
X131214285Y-95407200D01*
X131214285Y-95407200D02*
X131261904Y-95359580D01*
X131261904Y-95359580D02*
X131309523Y-95264342D01*
X131309523Y-95264342D02*
X131309523Y-94454819D01*
X131738095Y-94550057D02*
X131785714Y-94502438D01*
X131785714Y-94502438D02*
X131880952Y-94454819D01*
X131880952Y-94454819D02*
X132119047Y-94454819D01*
X132119047Y-94454819D02*
X132214285Y-94502438D01*
X132214285Y-94502438D02*
X132261904Y-94550057D01*
X132261904Y-94550057D02*
X132309523Y-94645295D01*
X132309523Y-94645295D02*
X132309523Y-94740533D01*
X132309523Y-94740533D02*
X132261904Y-94883390D01*
X132261904Y-94883390D02*
X131690476Y-95454819D01*
X131690476Y-95454819D02*
X132309523Y-95454819D01*
D13*
X148940000Y-104927836D02*
X148940000Y-104712164D01*
X149660000Y-104927836D02*
X149660000Y-104712164D01*
X131470000Y-87605000D02*
X131470000Y-85005000D01*
X134130000Y-85005000D02*
X131470000Y-85005000D01*
X134130000Y-87605000D02*
X131470000Y-87605000D01*
X134130000Y-87605000D02*
X134130000Y-85005000D01*
X134130000Y-88875000D02*
X134130000Y-90205000D01*
X134130000Y-90205000D02*
X132800000Y-90205000D01*
X151427836Y-101940000D02*
X151212164Y-101940000D01*
X151427836Y-102660000D02*
X151212164Y-102660000D01*
X151407836Y-94440000D02*
X151192164Y-94440000D01*
X151407836Y-95160000D02*
X151192164Y-95160000D01*
X153790000Y-93650000D02*
X153790000Y-97410000D01*
X153790000Y-97410000D02*
X155050000Y-97410000D01*
X160610000Y-93650000D02*
X160610000Y-97410000D01*
X160610000Y-97410000D02*
X159350000Y-97410000D01*
X160840000Y-92610000D02*
X160510000Y-92370000D01*
X160840000Y-92130000D01*
X160840000Y-92610000D01*
G36*
X160840000Y-92610000D02*
G01*
X160510000Y-92370000D01*
X160840000Y-92130000D01*
X160840000Y-92610000D01*
G37*
X142620000Y-104633641D02*
X142620000Y-104326359D01*
X143380000Y-104633641D02*
X143380000Y-104326359D01*
X151427836Y-96940000D02*
X151212164Y-96940000D01*
X151427836Y-97660000D02*
X151212164Y-97660000D01*
X141620000Y-118356359D02*
X141620000Y-118663641D01*
X142380000Y-118356359D02*
X142380000Y-118663641D01*
X115530000Y-84310000D02*
X116860000Y-84310000D01*
X115530000Y-85640000D02*
X115530000Y-84310000D01*
X115530000Y-86910000D02*
X115530000Y-130150000D01*
X115530000Y-86910000D02*
X118130000Y-86910000D01*
X115530000Y-130150000D02*
X120730000Y-130150000D01*
X118130000Y-84310000D02*
X120730000Y-84310000D01*
X118130000Y-86910000D02*
X118130000Y-84310000D01*
X120730000Y-84310000D02*
X120730000Y-130150000D01*
X155227836Y-106540000D02*
X155012164Y-106540000D01*
X155227836Y-107260000D02*
X155012164Y-107260000D01*
X147327836Y-99390000D02*
X147112164Y-99390000D01*
X147327836Y-100110000D02*
X147112164Y-100110000D01*
X155187836Y-104040000D02*
X154972164Y-104040000D01*
X155187836Y-104760000D02*
X154972164Y-104760000D01*
D14*
G36*
X153934143Y-116283114D02*
G01*
X154005674Y-116309087D01*
X154080217Y-116345004D01*
X154146456Y-116384832D01*
X154193073Y-116422541D01*
X154208904Y-116450046D01*
X154195987Y-116467242D01*
X154157838Y-116449936D01*
X154126999Y-116426282D01*
X154076635Y-116393955D01*
X154006604Y-116359992D01*
X153974772Y-116347298D01*
X153895355Y-116315148D01*
X153853154Y-116291268D01*
X153849823Y-116276908D01*
X153876940Y-116273116D01*
X153934143Y-116283114D01*
G37*
G36*
X153708733Y-116074527D02*
G01*
X153736731Y-116087669D01*
X153732532Y-116094453D01*
X153691459Y-116097232D01*
X153662537Y-116097765D01*
X153529404Y-116115625D01*
X153398803Y-116161039D01*
X153317937Y-116207419D01*
X153265016Y-116239627D01*
X153228954Y-116251716D01*
X153216831Y-116242895D01*
X153231716Y-116217053D01*
X153293761Y-116165664D01*
X153382397Y-116120737D01*
X153483995Y-116086347D01*
X153584922Y-116066565D01*
X153671548Y-116065465D01*
X153708733Y-116074527D01*
G37*
G36*
X153014659Y-118282465D02*
G01*
X153051083Y-118338399D01*
X153126528Y-118429195D01*
X153230689Y-118497436D01*
X153353321Y-118539901D01*
X153484181Y-118553371D01*
X153613025Y-118534625D01*
X153643493Y-118524612D01*
X153731683Y-118492447D01*
X153785226Y-118474869D01*
X153810077Y-118470868D01*
X153812190Y-118479434D01*
X153798550Y-118498300D01*
X153740719Y-118540327D01*
X153652086Y-118571272D01*
X153544326Y-118589411D01*
X153429112Y-118593019D01*
X153318117Y-118580373D01*
X153288990Y-118573580D01*
X153226252Y-118544906D01*
X153152771Y-118494080D01*
X153080132Y-118431330D01*
X153019920Y-118366881D01*
X152983722Y-118310963D01*
X152980178Y-118300984D01*
X152974541Y-118260886D01*
X152987479Y-118255475D01*
X153014659Y-118282465D01*
G37*
G36*
X153611642Y-116521452D02*
G01*
X153666179Y-116554192D01*
X153695727Y-116611533D01*
X153700615Y-116682710D01*
X153681172Y-116756959D01*
X153637724Y-116823516D01*
X153601494Y-116854461D01*
X153537927Y-116891868D01*
X153492597Y-116898878D01*
X153451371Y-116874141D01*
X153417087Y-116836859D01*
X153371971Y-116764955D01*
X153365570Y-116695286D01*
X153374083Y-116674021D01*
X153520431Y-116674021D01*
X153526143Y-116695212D01*
X153549323Y-116726368D01*
X153583152Y-116718141D01*
X153609520Y-116695421D01*
X153632542Y-116655281D01*
X153615657Y-116628171D01*
X153578253Y-116621061D01*
X153531908Y-116635040D01*
X153520431Y-116674021D01*
X153374083Y-116674021D01*
X153397211Y-116616253D01*
X153403687Y-116605335D01*
X153465238Y-116540660D01*
X153545057Y-116514857D01*
X153611642Y-116521452D01*
G37*
G36*
X153989005Y-116526020D02*
G01*
X154050262Y-116567053D01*
X154083309Y-116629419D01*
X154088504Y-116701653D01*
X154066203Y-116772291D01*
X154016763Y-116829869D01*
X153978882Y-116851505D01*
X153916312Y-116874936D01*
X153874869Y-116877646D01*
X153836369Y-116857526D01*
X153804393Y-116831278D01*
X153756946Y-116767290D01*
X153744576Y-116696074D01*
X153747878Y-116682835D01*
X153891644Y-116682835D01*
X153892990Y-116685349D01*
X153925108Y-116705321D01*
X153967493Y-116704284D01*
X153996329Y-116683260D01*
X153997296Y-116680865D01*
X153998855Y-116634596D01*
X153975834Y-116603515D01*
X153959154Y-116599315D01*
X153922244Y-116614644D01*
X153895089Y-116648532D01*
X153891644Y-116682835D01*
X153747878Y-116682835D01*
X153761940Y-116626464D01*
X153803695Y-116567292D01*
X153864498Y-116527394D01*
X153939007Y-116515603D01*
X153989005Y-116526020D01*
G37*
G36*
X154944159Y-117047342D02*
G01*
X155002484Y-117087657D01*
X155028431Y-117151405D01*
X155019692Y-117230599D01*
X155006591Y-117263513D01*
X154972338Y-117320359D01*
X154922167Y-117386379D01*
X154864655Y-117452228D01*
X154808381Y-117508563D01*
X154761922Y-117546038D01*
X154737961Y-117556164D01*
X154736304Y-117542397D01*
X154760788Y-117506220D01*
X154806156Y-117455327D01*
X154808551Y-117452868D01*
X154869817Y-117382357D01*
X154923833Y-117306807D01*
X154951565Y-117257407D01*
X154976519Y-117176127D01*
X154969192Y-117119247D01*
X154933819Y-117087541D01*
X154874633Y-117081778D01*
X154795868Y-117102730D01*
X154701757Y-117151167D01*
X154632379Y-117199265D01*
X154575181Y-117237700D01*
X154547801Y-117246365D01*
X154552144Y-117228846D01*
X154590115Y-117188726D01*
X154615263Y-117167057D01*
X154710621Y-117101430D01*
X154806531Y-117058059D01*
X154892436Y-117040785D01*
X154944159Y-117047342D01*
G37*
G36*
X152688490Y-117270626D02*
G01*
X152725666Y-117307525D01*
X152774520Y-117363889D01*
X152783895Y-117375416D01*
X152933824Y-117532453D01*
X153099925Y-117649897D01*
X153285707Y-117729762D01*
X153473126Y-117771243D01*
X153708671Y-117782564D01*
X153940611Y-117752106D01*
X154163795Y-117681555D01*
X154373074Y-117572596D01*
X154563298Y-117426916D01*
X154584193Y-117407434D01*
X154644045Y-117353447D01*
X154691933Y-117315772D01*
X154719587Y-117300746D01*
X154722546Y-117301427D01*
X154714102Y-117321392D01*
X154680323Y-117363517D01*
X154627577Y-117420187D01*
X154601326Y-117446466D01*
X154491626Y-117537841D01*
X154355176Y-117627183D01*
X154206967Y-117706246D01*
X154061986Y-117766787D01*
X153969692Y-117793901D01*
X153886477Y-117805856D01*
X153775597Y-117812472D01*
X153650692Y-117813918D01*
X153525404Y-117810363D01*
X153413374Y-117801978D01*
X153328242Y-117788931D01*
X153315661Y-117785782D01*
X153218714Y-117750853D01*
X153109754Y-117699067D01*
X153004783Y-117639065D01*
X152919801Y-117579487D01*
X152897176Y-117559800D01*
X152848533Y-117509264D01*
X152795152Y-117446926D01*
X152743879Y-117381818D01*
X152701562Y-117322970D01*
X152675047Y-117279415D01*
X152670414Y-117260693D01*
X152688490Y-117270626D01*
G37*
G36*
X154006697Y-113634424D02*
G01*
X154394729Y-113679024D01*
X154776944Y-113755984D01*
X155166190Y-113867451D01*
X155252740Y-113896371D01*
X155362459Y-113937287D01*
X155492797Y-113991192D01*
X155634123Y-114053568D01*
X155776808Y-114119900D01*
X155911223Y-114185671D01*
X156027738Y-114246367D01*
X156116724Y-114297470D01*
X156139770Y-114312380D01*
X156183265Y-114341573D01*
X156251848Y-114387259D01*
X156334306Y-114441977D01*
X156383561Y-114474577D01*
X156668606Y-114676678D01*
X156929084Y-114891368D01*
X157171923Y-115125549D01*
X157404054Y-115386122D01*
X157632405Y-115679991D01*
X157728028Y-115813825D01*
X157780450Y-115890365D01*
X157823511Y-115956048D01*
X157850794Y-116000956D01*
X157856377Y-116012157D01*
X157881194Y-116057108D01*
X157896272Y-116077397D01*
X157918786Y-116112555D01*
X157955624Y-116179327D01*
X158002803Y-116269873D01*
X158056342Y-116376353D01*
X158112259Y-116490929D01*
X158166572Y-116605760D01*
X158185611Y-116647064D01*
X158242457Y-116784550D01*
X158302640Y-116952960D01*
X158362521Y-117140288D01*
X158418456Y-117334528D01*
X158466804Y-117523676D01*
X158503923Y-117695725D01*
X158504263Y-117697517D01*
X158557451Y-118070195D01*
X158580962Y-118460494D01*
X158575190Y-118857251D01*
X158540532Y-119249307D01*
X158477383Y-119625500D01*
X158428757Y-119828681D01*
X158369470Y-120040159D01*
X158311509Y-120224015D01*
X158249542Y-120394279D01*
X158178241Y-120564982D01*
X158092275Y-120750153D01*
X158032196Y-120872517D01*
X157860205Y-121182002D01*
X157653951Y-121492257D01*
X157421154Y-121792696D01*
X157169532Y-122072731D01*
X157121495Y-122121495D01*
X156827410Y-122391618D01*
X156507719Y-122641276D01*
X156169822Y-122865854D01*
X155821120Y-123060734D01*
X155469012Y-123221301D01*
X155204991Y-123317123D01*
X154917311Y-123404251D01*
X154655515Y-123471401D01*
X154407872Y-123520432D01*
X154162649Y-123553200D01*
X153908117Y-123571564D01*
X153632543Y-123577380D01*
X153562800Y-123577121D01*
X153425880Y-123574955D01*
X153289978Y-123570864D01*
X153167173Y-123565345D01*
X153069547Y-123558894D01*
X153032986Y-123555364D01*
X152803534Y-123521626D01*
X152557295Y-123472404D01*
X152306339Y-123410917D01*
X152062740Y-123340386D01*
X151838567Y-123264032D01*
X151647064Y-123185611D01*
X151534145Y-123132915D01*
X151418557Y-123077131D01*
X151308141Y-123022239D01*
X151210735Y-122972223D01*
X151134180Y-122931063D01*
X151086315Y-122902741D01*
X151077397Y-122896272D01*
X151032446Y-122866113D01*
X151012157Y-122856377D01*
X150980620Y-122838857D01*
X150923587Y-122802505D01*
X150850977Y-122753737D01*
X150813825Y-122728028D01*
X150504056Y-122499207D01*
X150230456Y-122269492D01*
X149986123Y-122031954D01*
X149764156Y-121779664D01*
X149669281Y-121653793D01*
X151885732Y-121653793D01*
X152008919Y-121723854D01*
X152074481Y-121760061D01*
X152124827Y-121785872D01*
X152147872Y-121795331D01*
X152155126Y-121777756D01*
X152151992Y-121732920D01*
X152150822Y-121726070D01*
X152128524Y-121672680D01*
X152086504Y-121614844D01*
X152036624Y-121565692D01*
X151990745Y-121538357D01*
X151979480Y-121536373D01*
X151953864Y-121552749D01*
X151922555Y-121593121D01*
X151921533Y-121594790D01*
X151885732Y-121653793D01*
X149669281Y-121653793D01*
X149557650Y-121505691D01*
X149474577Y-121383561D01*
X149418044Y-121298206D01*
X149366261Y-121220287D01*
X149326688Y-121161019D01*
X149312380Y-121139770D01*
X149265744Y-121062808D01*
X149207921Y-120954916D01*
X149143426Y-120825723D01*
X149076777Y-120684859D01*
X149012487Y-120541953D01*
X148955075Y-120406635D01*
X148909056Y-120288533D01*
X148896371Y-120252740D01*
X148777141Y-119860275D01*
X148692884Y-119477627D01*
X148641452Y-119091947D01*
X148620697Y-118690386D01*
X148620034Y-118600000D01*
X148621731Y-118552050D01*
X150095703Y-118552050D01*
X150112870Y-118937877D01*
X150171952Y-119318530D01*
X150272177Y-119690561D01*
X150412771Y-120050522D01*
X150592964Y-120394964D01*
X150636723Y-120466532D01*
X150862880Y-120786437D01*
X151120982Y-121076900D01*
X151410185Y-121337054D01*
X151668363Y-121526101D01*
X151737721Y-121571241D01*
X151792784Y-121605122D01*
X151823994Y-121621922D01*
X151827068Y-121622774D01*
X151848802Y-121607879D01*
X151884836Y-121571212D01*
X151892046Y-121562979D01*
X151943480Y-121503185D01*
X151624401Y-121176978D01*
X151482935Y-121031316D01*
X151366380Y-120908337D01*
X151268389Y-120800480D01*
X151182615Y-120700185D01*
X151102711Y-120599892D01*
X151022330Y-120492040D01*
X150935126Y-120369070D01*
X150883306Y-120294216D01*
X150812716Y-120188932D01*
X150767845Y-120109773D01*
X150748555Y-120047892D01*
X150751707Y-120020496D01*
X150773092Y-120020496D01*
X150788002Y-120073817D01*
X150831375Y-120156058D01*
X150901526Y-120264788D01*
X150996769Y-120397576D01*
X151115420Y-120551994D01*
X151255795Y-120725610D01*
X151293045Y-120770482D01*
X151367316Y-120856098D01*
X151455570Y-120952340D01*
X151553252Y-121054809D01*
X151655809Y-121159106D01*
X151758689Y-121260832D01*
X151857337Y-121355587D01*
X151947200Y-121438973D01*
X152023726Y-121506589D01*
X152082360Y-121554038D01*
X152118549Y-121576920D01*
X152127695Y-121576877D01*
X152139128Y-121553984D01*
X152162717Y-121504474D01*
X152181187Y-121465111D01*
X152212646Y-121406860D01*
X152241079Y-121369401D01*
X152253756Y-121361815D01*
X152267678Y-121377488D01*
X152262298Y-121399871D01*
X152219326Y-121519957D01*
X152201227Y-121618825D01*
X152205931Y-121709398D01*
X152209628Y-121728603D01*
X152227013Y-121793067D01*
X152252150Y-121830227D01*
X152298170Y-121855939D01*
X152323231Y-121865767D01*
X152381415Y-121887151D01*
X152421066Y-121900764D01*
X152428523Y-121902863D01*
X152433889Y-121883268D01*
X152439820Y-121827453D01*
X152445771Y-121742675D01*
X152451198Y-121636192D01*
X152454042Y-121562971D01*
X152458539Y-121442888D01*
X152463198Y-121336316D01*
X152467600Y-121251678D01*
X152471325Y-121197400D01*
X152472950Y-121183453D01*
X152462971Y-121156441D01*
X152422188Y-121118251D01*
X152347208Y-121066034D01*
X152291674Y-121031227D01*
X152187005Y-120965660D01*
X152073468Y-120892099D01*
X151971011Y-120823530D01*
X151943729Y-120804698D01*
X151858412Y-120740589D01*
X151760359Y-120659391D01*
X151654602Y-120566085D01*
X151546170Y-120465653D01*
X151440093Y-120363075D01*
X151341400Y-120263334D01*
X151255121Y-120171409D01*
X151186287Y-120092282D01*
X151139926Y-120030934D01*
X151139867Y-120030814D01*
X151186753Y-120030814D01*
X151201500Y-120051467D01*
X151241294Y-120096595D01*
X151300241Y-120160106D01*
X151372450Y-120235905D01*
X151452027Y-120317900D01*
X151533081Y-120399998D01*
X151609718Y-120476105D01*
X151676045Y-120540128D01*
X151708099Y-120569896D01*
X151757085Y-120609966D01*
X151834439Y-120668087D01*
X151932068Y-120738594D01*
X152041884Y-120815822D01*
X152155794Y-120894106D01*
X152265709Y-120967781D01*
X152363539Y-121031180D01*
X152394645Y-121050647D01*
X152451202Y-121075424D01*
X152486000Y-121064306D01*
X152500536Y-121030180D01*
X152506685Y-120996553D01*
X152518845Y-120925990D01*
X152536010Y-120824479D01*
X152557175Y-120698006D01*
X152581332Y-120552561D01*
X152607476Y-120394130D01*
X152611058Y-120372346D01*
X152638528Y-120206604D01*
X152665303Y-120047613D01*
X152690139Y-119902570D01*
X152711791Y-119778675D01*
X152729014Y-119683126D01*
X152740563Y-119623123D01*
X152740779Y-119622089D01*
X152757933Y-119539233D01*
X152780147Y-119430476D01*
X152804009Y-119312578D01*
X152818267Y-119241573D01*
X152838477Y-119142742D01*
X152856524Y-119058460D01*
X152870234Y-118998638D01*
X152876804Y-118974558D01*
X152863748Y-118970696D01*
X152819128Y-118983742D01*
X152750077Y-119010749D01*
X152663728Y-119048770D01*
X152567214Y-119094856D01*
X152488524Y-119135002D01*
X152433429Y-119163863D01*
X152353713Y-119205490D01*
X152263351Y-119252588D01*
X152227566Y-119271215D01*
X152132674Y-119323951D01*
X152018628Y-119392384D01*
X151901476Y-119466669D01*
X151819779Y-119521301D01*
X151728371Y-119586155D01*
X151628592Y-119660142D01*
X151526402Y-119738466D01*
X151427765Y-119816326D01*
X151338642Y-119888925D01*
X151264995Y-119951463D01*
X151212787Y-119999141D01*
X151187978Y-120027162D01*
X151186753Y-120030814D01*
X151139867Y-120030814D01*
X151121070Y-119992346D01*
X151120890Y-119989828D01*
X151138204Y-119971603D01*
X151149232Y-119970034D01*
X151176662Y-119957203D01*
X151229957Y-119922329D01*
X151301261Y-119870840D01*
X151377397Y-119812371D01*
X151544730Y-119681518D01*
X151688234Y-119572723D01*
X151816865Y-119480290D01*
X151939578Y-119398521D01*
X152065328Y-119321717D01*
X152203070Y-119244181D01*
X152361759Y-119160216D01*
X152550350Y-119064124D01*
X152565032Y-119056731D01*
X152889225Y-118893579D01*
X152937051Y-118741353D01*
X152959356Y-118666578D01*
X152974063Y-118609788D01*
X152978380Y-118581917D01*
X152978015Y-118580967D01*
X152956892Y-118586342D01*
X152905724Y-118607459D01*
X152833327Y-118640537D01*
X152784779Y-118663860D01*
X152692463Y-118708664D01*
X152605105Y-118750550D01*
X152536820Y-118782769D01*
X152517483Y-118791676D01*
X152446417Y-118827177D01*
X152346257Y-118881612D01*
X152224547Y-118950482D01*
X152088832Y-119029286D01*
X151946657Y-119113526D01*
X151805568Y-119198702D01*
X151673110Y-119280313D01*
X151556828Y-119353862D01*
X151464267Y-119414847D01*
X151418096Y-119447307D01*
X151348550Y-119498342D01*
X151265967Y-119558692D01*
X151213161Y-119597153D01*
X151110075Y-119675972D01*
X151011069Y-119758650D01*
X150922050Y-119839502D01*
X150848924Y-119912846D01*
X150797599Y-119973001D01*
X150773983Y-120014282D01*
X150773092Y-120020496D01*
X150751707Y-120020496D01*
X150754705Y-119994442D01*
X150786159Y-119940576D01*
X150842777Y-119877447D01*
X150876241Y-119843844D01*
X150953838Y-119772622D01*
X151058026Y-119685064D01*
X151179016Y-119588670D01*
X151307020Y-119490942D01*
X151432250Y-119399381D01*
X151544917Y-119321487D01*
X151621061Y-119273076D01*
X151689686Y-119230778D01*
X151746795Y-119193264D01*
X151775334Y-119172350D01*
X151819365Y-119141467D01*
X151896093Y-119094414D01*
X151999378Y-119034602D01*
X152123081Y-118965444D01*
X152261064Y-118890350D01*
X152407187Y-118812732D01*
X152555311Y-118736003D01*
X152615915Y-118705228D01*
X152740760Y-118641963D01*
X152831465Y-118594762D01*
X152892827Y-118560303D01*
X152929639Y-118535267D01*
X152946697Y-118516330D01*
X152948795Y-118500171D01*
X152940727Y-118483469D01*
X152939273Y-118481224D01*
X152853168Y-118340151D01*
X152770053Y-118186178D01*
X152693213Y-118027099D01*
X152625930Y-117870706D01*
X152571490Y-117724793D01*
X152533174Y-117597151D01*
X152514267Y-117495574D01*
X152512847Y-117469178D01*
X152503131Y-117421801D01*
X152478142Y-117352286D01*
X152447431Y-117284332D01*
X152401435Y-117172602D01*
X152384023Y-117081423D01*
X152384311Y-117079783D01*
X152427926Y-117079783D01*
X152441284Y-117157883D01*
X152485824Y-117252913D01*
X152545436Y-117341177D01*
X152595741Y-117411947D01*
X152624875Y-117462541D01*
X152631698Y-117489084D01*
X152615066Y-117487701D01*
X152580665Y-117460797D01*
X152556208Y-117440778D01*
X152547044Y-117445074D01*
X152550554Y-117480689D01*
X152557948Y-117521579D01*
X152598779Y-117680371D01*
X152665283Y-117863856D01*
X152754119Y-118064330D01*
X152861941Y-118274090D01*
X152953988Y-118434084D01*
X152994179Y-118502560D01*
X153014758Y-118548632D01*
X153018702Y-118587064D01*
X153008987Y-118632620D01*
X153000018Y-118662423D01*
X152975901Y-118747056D01*
X152945751Y-118862035D01*
X152912626Y-118995178D01*
X152879584Y-119134299D01*
X152860132Y-119219777D01*
X152847279Y-119284656D01*
X152830521Y-119379535D01*
X152812088Y-119491357D01*
X152795208Y-119600342D01*
X152778366Y-119707004D01*
X152755285Y-119844773D01*
X152727981Y-120002055D01*
X152698472Y-120167254D01*
X152668776Y-120328775D01*
X152664687Y-120350599D01*
X152625214Y-120561572D01*
X152593099Y-120736091D01*
X152567480Y-120880413D01*
X152547496Y-121000792D01*
X152532284Y-121103485D01*
X152520982Y-121194746D01*
X152512727Y-121280832D01*
X152506657Y-121367998D01*
X152501910Y-121462500D01*
X152498033Y-121559605D01*
X152484522Y-121920495D01*
X152656259Y-121969053D01*
X152750012Y-121995169D01*
X152839250Y-122019367D01*
X152906560Y-122036935D01*
X152913302Y-122038612D01*
X153054205Y-122064820D01*
X153226891Y-122083524D01*
X153420257Y-122094436D01*
X153623195Y-122097268D01*
X153824599Y-122091730D01*
X154013365Y-122077535D01*
X154085292Y-122069044D01*
X154219689Y-122048568D01*
X154336435Y-122025771D01*
X154427334Y-122002505D01*
X154484188Y-121980623D01*
X154488821Y-121977867D01*
X154480027Y-121961063D01*
X154448416Y-121924722D01*
X154429792Y-121905556D01*
X154367944Y-121816573D01*
X154324909Y-121697880D01*
X154302313Y-121559719D01*
X154301779Y-121412332D01*
X154324932Y-121265961D01*
X154327052Y-121257656D01*
X154362768Y-121120878D01*
X154284095Y-120866218D01*
X154249056Y-120753578D01*
X154214318Y-120643241D01*
X154184246Y-120549000D01*
X154165646Y-120491952D01*
X154140365Y-120395135D01*
X154115842Y-120262152D01*
X154092944Y-120100330D01*
X154072540Y-119916995D01*
X154055495Y-119719474D01*
X154042678Y-119515093D01*
X154038242Y-119415661D01*
X154030785Y-119221393D01*
X154079441Y-119221393D01*
X154080958Y-119332001D01*
X154085232Y-119459578D01*
X154091931Y-119597541D01*
X154100725Y-119739305D01*
X154111282Y-119878287D01*
X154123272Y-120007906D01*
X154136364Y-120121576D01*
X154150227Y-120212715D01*
X154153731Y-120230993D01*
X154183542Y-120362583D01*
X154224216Y-120520517D01*
X154271633Y-120690307D01*
X154321671Y-120857466D01*
X154370212Y-121007507D01*
X154393391Y-121073673D01*
X154403756Y-121091293D01*
X154422593Y-121097221D01*
X154456345Y-121089452D01*
X154511457Y-121065981D01*
X154594370Y-121024803D01*
X154660540Y-120990556D01*
X154768092Y-120934277D01*
X154881058Y-120874798D01*
X154982009Y-120821309D01*
X155024401Y-120798683D01*
X155108380Y-120750877D01*
X155214276Y-120686441D01*
X155333217Y-120611205D01*
X155456334Y-120531004D01*
X155574757Y-120451668D01*
X155679615Y-120379032D01*
X155762037Y-120318928D01*
X155800692Y-120288235D01*
X155865867Y-120234278D01*
X155930720Y-120182479D01*
X155947481Y-120169536D01*
X155990373Y-120131821D01*
X156012882Y-120102205D01*
X156013870Y-120097821D01*
X155995325Y-120064965D01*
X155942885Y-120015216D01*
X155861338Y-119951561D01*
X155755471Y-119876986D01*
X155630075Y-119794476D01*
X155489938Y-119707018D01*
X155339849Y-119617597D01*
X155184595Y-119529200D01*
X155028967Y-119444812D01*
X154877753Y-119367420D01*
X154735741Y-119300009D01*
X154730822Y-119297789D01*
X154630787Y-119252557D01*
X154524552Y-119204261D01*
X154434917Y-119163266D01*
X154434003Y-119162846D01*
X154342072Y-119124804D01*
X154245192Y-119091470D01*
X154158064Y-119067421D01*
X154095386Y-119057233D01*
X154094734Y-119057210D01*
X154085998Y-119077414D01*
X154081010Y-119134336D01*
X154079441Y-119221393D01*
X154030785Y-119221393D01*
X154024058Y-119046134D01*
X153958818Y-119030416D01*
X153943802Y-119023614D01*
X153968525Y-119020794D01*
X154029391Y-119022258D01*
X154046142Y-119023122D01*
X154119211Y-119030073D01*
X154195146Y-119044090D01*
X154278662Y-119067051D01*
X154374475Y-119100830D01*
X154487299Y-119147302D01*
X154621849Y-119208345D01*
X154782840Y-119285832D01*
X154974987Y-119381640D01*
X155075718Y-119432676D01*
X155214908Y-119506318D01*
X155362664Y-119589457D01*
X155511660Y-119677515D01*
X155654570Y-119765912D01*
X155784067Y-119850072D01*
X155892824Y-119925413D01*
X155973515Y-119987359D01*
X155998294Y-120009243D01*
X156041519Y-120045320D01*
X156073067Y-120053049D01*
X156107027Y-120038549D01*
X156119341Y-120035577D01*
X156104124Y-120055653D01*
X156066910Y-120093571D01*
X156013236Y-120144125D01*
X155948635Y-120202109D01*
X155878643Y-120262318D01*
X155808794Y-120319544D01*
X155805543Y-120322124D01*
X155694443Y-120408299D01*
X155586780Y-120487355D01*
X155474313Y-120564779D01*
X155348802Y-120646055D01*
X155202006Y-120736667D01*
X155025685Y-120842101D01*
X155013527Y-120849290D01*
X154956162Y-120881190D01*
X154870812Y-120926167D01*
X154768678Y-120978422D01*
X154660957Y-121032152D01*
X154653150Y-121035988D01*
X154390633Y-121164854D01*
X154365008Y-121275867D01*
X154340838Y-121468333D01*
X154359221Y-121652618D01*
X154373659Y-121708551D01*
X154413862Y-121802011D01*
X154470377Y-121879217D01*
X154534903Y-121931179D01*
X154595717Y-121948972D01*
X154642691Y-121940926D01*
X154716209Y-121919448D01*
X154806019Y-121888532D01*
X154901873Y-121852173D01*
X154993517Y-121814363D01*
X155070703Y-121779095D01*
X155123178Y-121750364D01*
X155139015Y-121737313D01*
X155179272Y-121653654D01*
X155197367Y-121550641D01*
X155189872Y-121448583D01*
X155174763Y-121390146D01*
X155161263Y-121352131D01*
X155157835Y-121346648D01*
X155133459Y-121348863D01*
X155087854Y-121369154D01*
X155075129Y-121376292D01*
X155031576Y-121405786D01*
X155012092Y-121437673D01*
X155008887Y-121489002D01*
X155010371Y-121518030D01*
X155009426Y-121580766D01*
X154999927Y-121623875D01*
X154993287Y-121632716D01*
X154976824Y-121624888D01*
X154970125Y-121577717D01*
X154970034Y-121568992D01*
X154953702Y-121464038D01*
X154910699Y-121358076D01*
X154856473Y-121280562D01*
X154831679Y-121247161D01*
X154833021Y-121231500D01*
X154834884Y-121231335D01*
X154863945Y-121246322D01*
X154905213Y-121281922D01*
X154944636Y-121324095D01*
X154968156Y-121358801D01*
X154970034Y-121366347D01*
X154986221Y-121374336D01*
X155034932Y-121354393D01*
X155116393Y-121306411D01*
X155176627Y-121267101D01*
X155331267Y-121158380D01*
X155489001Y-121037744D01*
X155645931Y-120909029D01*
X155798157Y-120776072D01*
X155941782Y-120642709D01*
X156072906Y-120512776D01*
X156187633Y-120390111D01*
X156282063Y-120278548D01*
X156352299Y-120181926D01*
X156394441Y-120104079D01*
X156405308Y-120057958D01*
X156386486Y-120018519D01*
X156332850Y-119962558D01*
X156248642Y-119892687D01*
X156138105Y-119811520D01*
X156005482Y-119721670D01*
X155855016Y-119625751D01*
X155690950Y-119526375D01*
X155517526Y-119426155D01*
X155338987Y-119327705D01*
X155159576Y-119233638D01*
X154983537Y-119146566D01*
X154815111Y-119069104D01*
X154763442Y-119046741D01*
X154655523Y-119000266D01*
X154540976Y-118950051D01*
X154440116Y-118905024D01*
X154415496Y-118893831D01*
X154327606Y-118855256D01*
X154242189Y-118820454D01*
X154177418Y-118796823D01*
X154176284Y-118796460D01*
X154109782Y-118771926D01*
X154072252Y-118751597D01*
X154066978Y-118738946D01*
X154097244Y-118737444D01*
X154124311Y-118741510D01*
X154206548Y-118737286D01*
X154313519Y-118699914D01*
X154443070Y-118630432D01*
X154593048Y-118529878D01*
X154648419Y-118488714D01*
X154891061Y-118282414D01*
X155101763Y-118058005D01*
X155277832Y-117819270D01*
X155416577Y-117569992D01*
X155515306Y-117313954D01*
X155535099Y-117242797D01*
X155564283Y-117084437D01*
X155577517Y-116911346D01*
X155574550Y-116740092D01*
X155555128Y-116587243D01*
X155545701Y-116546086D01*
X155511741Y-116443853D01*
X155461984Y-116328107D01*
X155404008Y-116214207D01*
X155345392Y-116117519D01*
X155312606Y-116073608D01*
X155264288Y-116015391D01*
X155212924Y-115952326D01*
X155209246Y-115947752D01*
X155143732Y-115879964D01*
X155048430Y-115799554D01*
X154932498Y-115713262D01*
X154805097Y-115627823D01*
X154675385Y-115549976D01*
X154647670Y-115534659D01*
X154413253Y-115422798D01*
X154192787Y-115350395D01*
X153983015Y-115316961D01*
X153780678Y-115322011D01*
X153582519Y-115365058D01*
X153560341Y-115372259D01*
X153477195Y-115402483D01*
X153407466Y-115432061D01*
X153363851Y-115455504D01*
X153359075Y-115459245D01*
X153322501Y-115484654D01*
X153304709Y-115490434D01*
X153272596Y-115504653D01*
X153217591Y-115542393D01*
X153147930Y-115596798D01*
X153071849Y-115661016D01*
X152997584Y-115728191D01*
X152933373Y-115791469D01*
X152903258Y-115824527D01*
X152758570Y-116013066D01*
X152650821Y-116201275D01*
X152574928Y-116400037D01*
X152525806Y-116620236D01*
X152522932Y-116638761D01*
X152505097Y-116759412D01*
X152494695Y-116843619D01*
X152492593Y-116897937D01*
X152499659Y-116928916D01*
X152516760Y-116943110D01*
X152544764Y-116947070D01*
X152563775Y-116947260D01*
X152644505Y-116965745D01*
X152732311Y-117015596D01*
X152794190Y-117059911D01*
X152827973Y-117085320D01*
X152840858Y-117098336D01*
X152840042Y-117105470D01*
X152836104Y-117109501D01*
X152814087Y-117104153D01*
X152768146Y-117079723D01*
X152729183Y-117055228D01*
X152643240Y-117011455D01*
X152559632Y-116991710D01*
X152489271Y-116997219D01*
X152447279Y-117023557D01*
X152427926Y-117079783D01*
X152384311Y-117079783D01*
X152395677Y-117015147D01*
X152414811Y-116990753D01*
X152437706Y-116951178D01*
X152447428Y-116893528D01*
X152447431Y-116892581D01*
X152451585Y-116841256D01*
X152462773Y-116760217D01*
X152479088Y-116662316D01*
X152491439Y-116596228D01*
X152559324Y-116349170D01*
X152661417Y-116117642D01*
X152793943Y-115905680D01*
X152953123Y-115717318D01*
X153135184Y-115556591D01*
X153336346Y-115427536D01*
X153552836Y-115334185D01*
X153711916Y-115292159D01*
X153895911Y-115274571D01*
X154092862Y-115292390D01*
X154305466Y-115346182D01*
X154536421Y-115436517D01*
X154646710Y-115489068D01*
X154825326Y-115586921D01*
X154977472Y-115690834D01*
X155119775Y-115812726D01*
X155179796Y-115871335D01*
X155310734Y-116016508D01*
X155415965Y-116165796D01*
X155505690Y-116334781D01*
X155550208Y-116437078D01*
X155588442Y-116534103D01*
X155611974Y-116608961D01*
X155624200Y-116679034D01*
X155628516Y-116761704D01*
X155628634Y-116838527D01*
X155619066Y-117010526D01*
X155590448Y-117178255D01*
X155571168Y-117256645D01*
X155535655Y-117373637D01*
X155490511Y-117497146D01*
X155440330Y-117616670D01*
X155389703Y-117721705D01*
X155343224Y-117801748D01*
X155318774Y-117833920D01*
X155289033Y-117871508D01*
X155245883Y-117931653D01*
X155205510Y-117991096D01*
X155147233Y-118067364D01*
X155063495Y-118161576D01*
X154963175Y-118264990D01*
X154855157Y-118368863D01*
X154748322Y-118464453D01*
X154651552Y-118543018D01*
X154624784Y-118562693D01*
X154539147Y-118619111D01*
X154440084Y-118677936D01*
X154375335Y-118712841D01*
X154306509Y-118751182D01*
X154272165Y-118778367D01*
X154274144Y-118791609D01*
X154307872Y-118805356D01*
X154369745Y-118832621D01*
X154448545Y-118868425D01*
X154480736Y-118883300D01*
X154586728Y-118932085D01*
X154706439Y-118986511D01*
X154827886Y-119041194D01*
X154939087Y-119090749D01*
X155028057Y-119129793D01*
X155057020Y-119142232D01*
X155164117Y-119191738D01*
X155291256Y-119257077D01*
X155432913Y-119334795D01*
X155583568Y-119421440D01*
X155737697Y-119513559D01*
X155889778Y-119607702D01*
X156034289Y-119700415D01*
X156165707Y-119788246D01*
X156278511Y-119867744D01*
X156367177Y-119935455D01*
X156426184Y-119987928D01*
X156444266Y-120009449D01*
X156460960Y-120043135D01*
X156457607Y-120077009D01*
X156431830Y-120127431D01*
X156425611Y-120137885D01*
X156347407Y-120251109D01*
X156239289Y-120382631D01*
X156107349Y-120526355D01*
X155957682Y-120676185D01*
X155796383Y-120826026D01*
X155629546Y-120969783D01*
X155463264Y-121101361D01*
X155459360Y-121104297D01*
X155356389Y-121182458D01*
X155284300Y-121239785D01*
X155238574Y-121280713D01*
X155214691Y-121309675D01*
X155208133Y-121331106D01*
X155212628Y-121346388D01*
X155222428Y-121387479D01*
X155227718Y-121457269D01*
X155227429Y-121541098D01*
X155227216Y-121546147D01*
X155220120Y-121705389D01*
X155285359Y-121672013D01*
X155334891Y-121644274D01*
X155406830Y-121601121D01*
X155487200Y-121550975D01*
X155502825Y-121540995D01*
X155722931Y-121384959D01*
X155940603Y-121202874D01*
X156146630Y-121003806D01*
X156331797Y-120796821D01*
X156486892Y-120590983D01*
X156520685Y-120539509D01*
X156665740Y-120295778D01*
X156783555Y-120060885D01*
X156881833Y-119817772D01*
X156968278Y-119549378D01*
X156969263Y-119545976D01*
X157009974Y-119399396D01*
X157040139Y-119273663D01*
X157061696Y-119155951D01*
X157076585Y-119033437D01*
X157086744Y-118893295D01*
X157094114Y-118722700D01*
X157094222Y-118719606D01*
X157095352Y-118453093D01*
X157080487Y-118202001D01*
X157050441Y-117974797D01*
X157006028Y-117779948D01*
X157002848Y-117769218D01*
X156938437Y-117560568D01*
X156880185Y-117385599D01*
X156824387Y-117235629D01*
X156767339Y-117101981D01*
X156705334Y-116975974D01*
X156634669Y-116848927D01*
X156551638Y-116712163D01*
X156551596Y-116712097D01*
X156339496Y-116412542D01*
X156094554Y-116136723D01*
X155821217Y-115888092D01*
X155523934Y-115670100D01*
X155207151Y-115486197D01*
X154875317Y-115339835D01*
X154710347Y-115283417D01*
X154605398Y-115250882D01*
X154509562Y-115221164D01*
X154433945Y-115197708D01*
X154391787Y-115184621D01*
X154343180Y-115173147D01*
X154263315Y-115158162D01*
X154164065Y-115141770D01*
X154076462Y-115128745D01*
X153935637Y-115114370D01*
X153769802Y-115106216D01*
X153590396Y-115104062D01*
X153408855Y-115107686D01*
X153236620Y-115116865D01*
X153085128Y-115131378D01*
X152969349Y-115150226D01*
X152578197Y-115252252D01*
X152218474Y-115382384D01*
X151886781Y-115542680D01*
X151579719Y-115735195D01*
X151293888Y-115961986D01*
X151025890Y-116225111D01*
X150843678Y-116436216D01*
X150654325Y-116700299D01*
X150486592Y-116994909D01*
X150344309Y-117310887D01*
X150231305Y-117639071D01*
X150151409Y-117970302D01*
X150121223Y-118164498D01*
X150095703Y-118552050D01*
X148621731Y-118552050D01*
X148634424Y-118193303D01*
X148679024Y-117805271D01*
X148755984Y-117423056D01*
X148867451Y-117033810D01*
X148896371Y-116947260D01*
X148932908Y-116848771D01*
X148980660Y-116732112D01*
X149035923Y-116605148D01*
X149094990Y-116475741D01*
X149154156Y-116351758D01*
X149209716Y-116241062D01*
X149257964Y-116151518D01*
X149295194Y-116090989D01*
X149307033Y-116075685D01*
X149331973Y-116041243D01*
X149337671Y-116025921D01*
X149349788Y-116000660D01*
X149382932Y-115947378D01*
X149432290Y-115873039D01*
X149493048Y-115784606D01*
X149560395Y-115689043D01*
X149629519Y-115593315D01*
X149695605Y-115504386D01*
X149721642Y-115470293D01*
X149813885Y-115358950D01*
X149930526Y-115230495D01*
X150061780Y-115094714D01*
X150197864Y-114961390D01*
X150328994Y-114840306D01*
X150445386Y-114741247D01*
X150470293Y-114721642D01*
X150554213Y-114658309D01*
X150647897Y-114589891D01*
X150744381Y-114521199D01*
X150836702Y-114457047D01*
X150917894Y-114402246D01*
X150980994Y-114361610D01*
X151019037Y-114339952D01*
X151025921Y-114337671D01*
X151052933Y-114324775D01*
X151075685Y-114307033D01*
X151121106Y-114275763D01*
X151198970Y-114231862D01*
X151301414Y-114179033D01*
X151420573Y-114120984D01*
X151548582Y-114061418D01*
X151677578Y-114004042D01*
X151799696Y-113952560D01*
X151907071Y-113910680D01*
X151947260Y-113896371D01*
X152339724Y-113777141D01*
X152722373Y-113692884D01*
X153108053Y-113641452D01*
X153509614Y-113620697D01*
X153600000Y-113620034D01*
X154006697Y-113634424D01*
G37*
D13*
X137620000Y-94336359D02*
X137620000Y-94643641D01*
X138380000Y-94336359D02*
X138380000Y-94643641D01*
X146440000Y-104927836D02*
X146440000Y-104712164D01*
X147160000Y-104927836D02*
X147160000Y-104712164D01*
X138875000Y-84565000D02*
X138875000Y-86115000D01*
X139175000Y-81765000D02*
X139175000Y-84565000D01*
X139175000Y-84565000D02*
X138875000Y-84565000D01*
X143925000Y-87815000D02*
X144325000Y-87365000D01*
X144325000Y-87365000D02*
X144725000Y-87815000D01*
X144725000Y-87815000D02*
X143925000Y-87815000D01*
X146875000Y-81765000D02*
X146875000Y-84565000D01*
X147175000Y-84565000D02*
X146875000Y-84565000D01*
X147175000Y-84565000D02*
X147175000Y-86115000D01*
X133620000Y-94336359D02*
X133620000Y-94643641D01*
X134380000Y-94336359D02*
X134380000Y-94643641D01*
X151427836Y-99440000D02*
X151212164Y-99440000D01*
X151427836Y-100160000D02*
X151212164Y-100160000D01*
X143620000Y-104643641D02*
X143620000Y-104336359D01*
X144380000Y-104643641D02*
X144380000Y-104336359D01*
X139390000Y-115610000D02*
X139390000Y-114960000D01*
X140040000Y-108390000D02*
X139390000Y-108390000D01*
X140040000Y-115610000D02*
X139390000Y-115610000D01*
X145960000Y-108390000D02*
X146610000Y-108390000D01*
X145960000Y-115610000D02*
X146610000Y-115610000D01*
X146610000Y-108390000D02*
X146610000Y-109040000D01*
X146610000Y-115610000D02*
X146610000Y-114960000D01*
X140100000Y-123950000D02*
X140100000Y-127250000D01*
X140100000Y-127250000D02*
X144100000Y-127250000D01*
X147307836Y-94390000D02*
X147092164Y-94390000D01*
X147307836Y-95110000D02*
X147092164Y-95110000D01*
X140412164Y-121140000D02*
X140627836Y-121140000D01*
X140412164Y-121860000D02*
X140627836Y-121860000D01*
X143607836Y-121140000D02*
X143392164Y-121140000D01*
X143607836Y-121860000D02*
X143392164Y-121860000D01*
X156465000Y-102238748D02*
X156465000Y-102761252D01*
X157935000Y-102238748D02*
X157935000Y-102761252D01*
X164530000Y-84310000D02*
X165860000Y-84310000D01*
X164530000Y-85640000D02*
X164530000Y-84310000D01*
X164530000Y-86910000D02*
X164530000Y-130150000D01*
X164530000Y-86910000D02*
X167130000Y-86910000D01*
X164530000Y-130150000D02*
X169730000Y-130150000D01*
X167130000Y-84310000D02*
X169730000Y-84310000D01*
X167130000Y-86910000D02*
X167130000Y-84310000D01*
X169730000Y-84310000D02*
X169730000Y-130150000D01*
X139165000Y-92011252D02*
X139165000Y-91488748D01*
X140635000Y-92011252D02*
X140635000Y-91488748D01*
X151440000Y-104927836D02*
X151440000Y-104712164D01*
X152160000Y-104927836D02*
X152160000Y-104712164D01*
X147327836Y-96890000D02*
X147112164Y-96890000D01*
X147327836Y-97610000D02*
X147112164Y-97610000D01*
X155588748Y-87765000D02*
X156111252Y-87765000D01*
X155588748Y-89235000D02*
X156111252Y-89235000D01*
X132275000Y-96180000D02*
X132275000Y-96440000D01*
X132275000Y-101630000D02*
X132275000Y-101370000D01*
X135000000Y-96180000D02*
X132275000Y-96180000D01*
X135000000Y-96180000D02*
X137725000Y-96180000D01*
X135000000Y-101630000D02*
X132275000Y-101630000D01*
X135000000Y-101630000D02*
X137725000Y-101630000D01*
X137725000Y-96180000D02*
X137725000Y-96440000D01*
X137725000Y-101630000D02*
X137725000Y-101370000D01*
X131492500Y-96440000D02*
X131252500Y-96110000D01*
X131732500Y-96110000D01*
X131492500Y-96440000D01*
G36*
X131492500Y-96440000D02*
G01*
X131252500Y-96110000D01*
X131732500Y-96110000D01*
X131492500Y-96440000D01*
G37*
%LPC*%
D15*
X149300000Y-105300000D03*
X149300000Y-104340000D03*
D16*
X132800000Y-88875000D03*
D17*
X132800000Y-86335000D03*
D18*
X159000000Y-84500000D03*
X159000000Y-126500000D03*
D19*
X151800000Y-102300000D03*
X150840000Y-102300000D03*
X151780000Y-94800000D03*
X150820000Y-94800000D03*
D20*
X159500000Y-92350000D03*
X157200000Y-92350000D03*
D21*
X157200000Y-98650000D03*
D20*
X154900000Y-92350000D03*
D22*
X143000000Y-104990000D03*
X143000000Y-103970000D03*
D18*
X127000000Y-126500000D03*
X127000000Y-84500000D03*
D19*
X151800000Y-97300000D03*
X150840000Y-97300000D03*
D23*
X142000000Y-118000000D03*
X142000000Y-119020000D03*
D16*
X116860000Y-85640000D03*
D17*
X119400000Y-85640000D03*
X116860000Y-88180000D03*
X119400000Y-88180000D03*
X116860000Y-90720000D03*
X119400000Y-90720000D03*
X116860000Y-93260000D03*
X119400000Y-93260000D03*
X116860000Y-95800000D03*
X119400000Y-95800000D03*
X116860000Y-98340000D03*
X119400000Y-98340000D03*
X116860000Y-100880000D03*
X119400000Y-100880000D03*
X116860000Y-103420000D03*
X119400000Y-103420000D03*
X116860000Y-105960000D03*
X119400000Y-105960000D03*
X116860000Y-108500000D03*
X119400000Y-108500000D03*
X116860000Y-111040000D03*
X119400000Y-111040000D03*
X116860000Y-113580000D03*
X119400000Y-113580000D03*
X116860000Y-116120000D03*
X119400000Y-116120000D03*
X116860000Y-118660000D03*
X119400000Y-118660000D03*
X116860000Y-121200000D03*
X119400000Y-121200000D03*
X116860000Y-123740000D03*
X119400000Y-123740000D03*
X116860000Y-126280000D03*
X119400000Y-126280000D03*
X116860000Y-128820000D03*
X119400000Y-128820000D03*
D19*
X155600000Y-106900000D03*
X154640000Y-106900000D03*
X147700000Y-99750000D03*
X146740000Y-99750000D03*
X155560000Y-104400000D03*
X154600000Y-104400000D03*
D23*
X138000000Y-93980000D03*
X138000000Y-95000000D03*
D15*
X146800000Y-105300000D03*
X146800000Y-104340000D03*
D24*
X144325000Y-86265000D03*
X143675000Y-86265000D03*
X143025000Y-86265000D03*
X142375000Y-86265000D03*
X141725000Y-86265000D03*
D25*
X145975000Y-85065000D03*
D26*
X145875000Y-86365000D03*
D27*
X145755000Y-84315000D03*
D28*
X145755000Y-83385000D03*
D29*
X145445000Y-86385000D03*
D30*
X143985000Y-83115000D03*
X142065000Y-83115000D03*
D29*
X140605000Y-86385000D03*
D28*
X140295000Y-83385000D03*
D27*
X140275000Y-84315000D03*
D26*
X140125000Y-86385000D03*
D25*
X140025000Y-85065000D03*
D23*
X134000000Y-93980000D03*
X134000000Y-95000000D03*
D19*
X151800000Y-99800000D03*
X150840000Y-99800000D03*
D22*
X144000000Y-105000000D03*
X144000000Y-103980000D03*
D31*
X139562500Y-109400000D03*
X139562500Y-109800000D03*
X139562500Y-110200000D03*
X139562500Y-110600000D03*
X139562500Y-111000000D03*
X139562500Y-111400000D03*
X139562500Y-111800000D03*
X139562500Y-112200000D03*
X139562500Y-112600000D03*
X139562500Y-113000000D03*
X139562500Y-113400000D03*
X139562500Y-113800000D03*
X139562500Y-114200000D03*
X139562500Y-114600000D03*
D32*
X140400000Y-115437500D03*
X140800000Y-115437500D03*
X141200000Y-115437500D03*
X141600000Y-115437500D03*
X142000000Y-115437500D03*
X142400000Y-115437500D03*
X142800000Y-115437500D03*
X143200000Y-115437500D03*
X143600000Y-115437500D03*
X144000000Y-115437500D03*
X144400000Y-115437500D03*
X144800000Y-115437500D03*
X145200000Y-115437500D03*
X145600000Y-115437500D03*
D31*
X146437500Y-114600000D03*
X146437500Y-114200000D03*
X146437500Y-113800000D03*
X146437500Y-113400000D03*
X146437500Y-113000000D03*
X146437500Y-112600000D03*
X146437500Y-112200000D03*
X146437500Y-111800000D03*
X146437500Y-111400000D03*
X146437500Y-111000000D03*
X146437500Y-110600000D03*
X146437500Y-110200000D03*
X146437500Y-109800000D03*
X146437500Y-109400000D03*
D32*
X145600000Y-108562500D03*
X145200000Y-108562500D03*
X144800000Y-108562500D03*
X144400000Y-108562500D03*
X144000000Y-108562500D03*
X143600000Y-108562500D03*
X143200000Y-108562500D03*
X142800000Y-108562500D03*
X142400000Y-108562500D03*
X142000000Y-108562500D03*
X141600000Y-108562500D03*
X141200000Y-108562500D03*
X140800000Y-108562500D03*
X140400000Y-108562500D03*
D33*
X143000000Y-112000000D03*
D34*
X141000000Y-126450000D03*
X143200000Y-126450000D03*
X143200000Y-124750000D03*
X141000000Y-124750000D03*
D19*
X147680000Y-94750000D03*
X146720000Y-94750000D03*
D35*
X140040000Y-121500000D03*
X141000000Y-121500000D03*
D19*
X143980000Y-121500000D03*
X143020000Y-121500000D03*
D36*
X157200000Y-101550000D03*
X157200000Y-103450000D03*
D16*
X165860000Y-85640000D03*
D17*
X168400000Y-85640000D03*
X165860000Y-88180000D03*
X168400000Y-88180000D03*
X165860000Y-90720000D03*
X168400000Y-90720000D03*
X165860000Y-93260000D03*
X168400000Y-93260000D03*
X165860000Y-95800000D03*
X168400000Y-95800000D03*
X165860000Y-98340000D03*
X168400000Y-98340000D03*
X165860000Y-100880000D03*
X168400000Y-100880000D03*
X165860000Y-103420000D03*
X168400000Y-103420000D03*
X165860000Y-105960000D03*
X168400000Y-105960000D03*
X165860000Y-108500000D03*
X168400000Y-108500000D03*
X165860000Y-111040000D03*
X168400000Y-111040000D03*
X165860000Y-113580000D03*
X168400000Y-113580000D03*
X165860000Y-116120000D03*
X168400000Y-116120000D03*
X165860000Y-118660000D03*
X168400000Y-118660000D03*
X165860000Y-121200000D03*
X168400000Y-121200000D03*
X165860000Y-123740000D03*
X168400000Y-123740000D03*
X165860000Y-126280000D03*
X168400000Y-126280000D03*
X165860000Y-128820000D03*
X168400000Y-128820000D03*
D37*
X139900000Y-92700000D03*
X139900000Y-90800000D03*
D15*
X151800000Y-105300000D03*
X151800000Y-104340000D03*
D19*
X147700000Y-97250000D03*
X146740000Y-97250000D03*
D38*
X154900000Y-88500000D03*
X156800000Y-88500000D03*
D39*
X131400000Y-97000000D03*
X131400000Y-98270000D03*
X131400000Y-99540000D03*
X131400000Y-100810000D03*
X138600000Y-100810000D03*
X138600000Y-99540000D03*
X138600000Y-98270000D03*
X138600000Y-97000000D03*
%LPD*%
M02*
