%TF.GenerationSoftware,KiCad,Pcbnew,8.0.9-1.fc41*%
%TF.CreationDate,2025-06-25T22:36:56-07:00*%
%TF.ProjectId,rp2040_custom_devboard,72703230-3430-45f6-9375-73746f6d5f64,rev?*%
%TF.SameCoordinates,Original*%
%TF.FileFunction,Drillmap*%
%TF.FilePolarity,Positive*%
%FSLAX45Y45*%
G04 Gerber Fmt 4.5, Leading zero omitted, Abs format (unit mm)*
G04 Created by KiCad (PCBNEW 8.0.9-1.fc41) date 2025-06-25 22:36:56*
%MOMM*%
%LPD*%
G01*
G04 APERTURE LIST*
%ADD10C,0.600000*%
%ADD11C,0.200000*%
%ADD12C,0.270000*%
G04 APERTURE END LIST*
D10*
X16900000Y-8110000D02*
G75*
G02*
X17200000Y-8410000I0J-300000D01*
G01*
X11700000Y-13100000D02*
G75*
G02*
X11400000Y-12800000I0J300000D01*
G01*
X11400000Y-12800000D02*
X11400000Y-8410000D01*
X16900000Y-13100000D02*
X11700000Y-13100000D01*
X11700000Y-8110000D02*
X16900000Y-8110000D01*
X17200000Y-8410000D02*
X17200000Y-12800000D01*
X17200000Y-12800000D02*
G75*
G02*
X16900000Y-13100000I-300000J0D01*
G01*
X11400000Y-8410000D02*
G75*
G02*
X11700000Y-8110000I300000J0D01*
G01*
D11*
D12*
X12565000Y-8315000D02*
X12835000Y-8585000D01*
X12835000Y-8315000D02*
X12565000Y-8585000D01*
X12565000Y-12515000D02*
X12835000Y-12785000D01*
X12835000Y-12515000D02*
X12565000Y-12785000D01*
X15765000Y-8315000D02*
X16035000Y-8585000D01*
X16035000Y-8315000D02*
X15765000Y-8585000D01*
X15765000Y-12515000D02*
X16035000Y-12785000D01*
X16035000Y-12515000D02*
X15765000Y-12785000D01*
D11*
X11630777Y-13441484D02*
X11630777Y-13241484D01*
X11630777Y-13241484D02*
X11678396Y-13241484D01*
X11678396Y-13241484D02*
X11706967Y-13251008D01*
X11706967Y-13251008D02*
X11726015Y-13270055D01*
X11726015Y-13270055D02*
X11735539Y-13289103D01*
X11735539Y-13289103D02*
X11745062Y-13327198D01*
X11745062Y-13327198D02*
X11745062Y-13355769D01*
X11745062Y-13355769D02*
X11735539Y-13393865D01*
X11735539Y-13393865D02*
X11726015Y-13412912D01*
X11726015Y-13412912D02*
X11706967Y-13431960D01*
X11706967Y-13431960D02*
X11678396Y-13441484D01*
X11678396Y-13441484D02*
X11630777Y-13441484D01*
X11830777Y-13441484D02*
X11830777Y-13308150D01*
X11830777Y-13346246D02*
X11840301Y-13327198D01*
X11840301Y-13327198D02*
X11849824Y-13317674D01*
X11849824Y-13317674D02*
X11868872Y-13308150D01*
X11868872Y-13308150D02*
X11887920Y-13308150D01*
X11954586Y-13441484D02*
X11954586Y-13308150D01*
X11954586Y-13241484D02*
X11945062Y-13251008D01*
X11945062Y-13251008D02*
X11954586Y-13260531D01*
X11954586Y-13260531D02*
X11964110Y-13251008D01*
X11964110Y-13251008D02*
X11954586Y-13241484D01*
X11954586Y-13241484D02*
X11954586Y-13260531D01*
X12078396Y-13441484D02*
X12059348Y-13431960D01*
X12059348Y-13431960D02*
X12049824Y-13412912D01*
X12049824Y-13412912D02*
X12049824Y-13241484D01*
X12183158Y-13441484D02*
X12164110Y-13431960D01*
X12164110Y-13431960D02*
X12154586Y-13412912D01*
X12154586Y-13412912D02*
X12154586Y-13241484D01*
X12411729Y-13441484D02*
X12411729Y-13241484D01*
X12411729Y-13241484D02*
X12478396Y-13384341D01*
X12478396Y-13384341D02*
X12545062Y-13241484D01*
X12545062Y-13241484D02*
X12545062Y-13441484D01*
X12726015Y-13441484D02*
X12726015Y-13336722D01*
X12726015Y-13336722D02*
X12716491Y-13317674D01*
X12716491Y-13317674D02*
X12697443Y-13308150D01*
X12697443Y-13308150D02*
X12659348Y-13308150D01*
X12659348Y-13308150D02*
X12640301Y-13317674D01*
X12726015Y-13431960D02*
X12706967Y-13441484D01*
X12706967Y-13441484D02*
X12659348Y-13441484D01*
X12659348Y-13441484D02*
X12640301Y-13431960D01*
X12640301Y-13431960D02*
X12630777Y-13412912D01*
X12630777Y-13412912D02*
X12630777Y-13393865D01*
X12630777Y-13393865D02*
X12640301Y-13374817D01*
X12640301Y-13374817D02*
X12659348Y-13365293D01*
X12659348Y-13365293D02*
X12706967Y-13365293D01*
X12706967Y-13365293D02*
X12726015Y-13355769D01*
X12821253Y-13308150D02*
X12821253Y-13508150D01*
X12821253Y-13317674D02*
X12840301Y-13308150D01*
X12840301Y-13308150D02*
X12878396Y-13308150D01*
X12878396Y-13308150D02*
X12897443Y-13317674D01*
X12897443Y-13317674D02*
X12906967Y-13327198D01*
X12906967Y-13327198D02*
X12916491Y-13346246D01*
X12916491Y-13346246D02*
X12916491Y-13403388D01*
X12916491Y-13403388D02*
X12906967Y-13422436D01*
X12906967Y-13422436D02*
X12897443Y-13431960D01*
X12897443Y-13431960D02*
X12878396Y-13441484D01*
X12878396Y-13441484D02*
X12840301Y-13441484D01*
X12840301Y-13441484D02*
X12821253Y-13431960D01*
X13002205Y-13422436D02*
X13011729Y-13431960D01*
X13011729Y-13431960D02*
X13002205Y-13441484D01*
X13002205Y-13441484D02*
X12992682Y-13431960D01*
X12992682Y-13431960D02*
X13002205Y-13422436D01*
X13002205Y-13422436D02*
X13002205Y-13441484D01*
X13002205Y-13317674D02*
X13011729Y-13327198D01*
X13011729Y-13327198D02*
X13002205Y-13336722D01*
X13002205Y-13336722D02*
X12992682Y-13327198D01*
X12992682Y-13327198D02*
X13002205Y-13317674D01*
X13002205Y-13317674D02*
X13002205Y-13336722D01*
X11170000Y-13670000D02*
X11370000Y-13870000D01*
X11370000Y-13670000D02*
X11170000Y-13870000D01*
X11621253Y-13680531D02*
X11630777Y-13671008D01*
X11630777Y-13671008D02*
X11649824Y-13661484D01*
X11649824Y-13661484D02*
X11697443Y-13661484D01*
X11697443Y-13661484D02*
X11716491Y-13671008D01*
X11716491Y-13671008D02*
X11726015Y-13680531D01*
X11726015Y-13680531D02*
X11735539Y-13699579D01*
X11735539Y-13699579D02*
X11735539Y-13718627D01*
X11735539Y-13718627D02*
X11726015Y-13747198D01*
X11726015Y-13747198D02*
X11611729Y-13861484D01*
X11611729Y-13861484D02*
X11735539Y-13861484D01*
X11821253Y-13842436D02*
X11830777Y-13851960D01*
X11830777Y-13851960D02*
X11821253Y-13861484D01*
X11821253Y-13861484D02*
X11811729Y-13851960D01*
X11811729Y-13851960D02*
X11821253Y-13842436D01*
X11821253Y-13842436D02*
X11821253Y-13861484D01*
X11897443Y-13661484D02*
X12030777Y-13661484D01*
X12030777Y-13661484D02*
X11945062Y-13861484D01*
X12145062Y-13661484D02*
X12164110Y-13661484D01*
X12164110Y-13661484D02*
X12183158Y-13671008D01*
X12183158Y-13671008D02*
X12192682Y-13680531D01*
X12192682Y-13680531D02*
X12202205Y-13699579D01*
X12202205Y-13699579D02*
X12211729Y-13737674D01*
X12211729Y-13737674D02*
X12211729Y-13785293D01*
X12211729Y-13785293D02*
X12202205Y-13823388D01*
X12202205Y-13823388D02*
X12192682Y-13842436D01*
X12192682Y-13842436D02*
X12183158Y-13851960D01*
X12183158Y-13851960D02*
X12164110Y-13861484D01*
X12164110Y-13861484D02*
X12145062Y-13861484D01*
X12145062Y-13861484D02*
X12126015Y-13851960D01*
X12126015Y-13851960D02*
X12116491Y-13842436D01*
X12116491Y-13842436D02*
X12106967Y-13823388D01*
X12106967Y-13823388D02*
X12097443Y-13785293D01*
X12097443Y-13785293D02*
X12097443Y-13737674D01*
X12097443Y-13737674D02*
X12106967Y-13699579D01*
X12106967Y-13699579D02*
X12116491Y-13680531D01*
X12116491Y-13680531D02*
X12126015Y-13671008D01*
X12126015Y-13671008D02*
X12145062Y-13661484D01*
X12335539Y-13661484D02*
X12354586Y-13661484D01*
X12354586Y-13661484D02*
X12373634Y-13671008D01*
X12373634Y-13671008D02*
X12383158Y-13680531D01*
X12383158Y-13680531D02*
X12392682Y-13699579D01*
X12392682Y-13699579D02*
X12402205Y-13737674D01*
X12402205Y-13737674D02*
X12402205Y-13785293D01*
X12402205Y-13785293D02*
X12392682Y-13823388D01*
X12392682Y-13823388D02*
X12383158Y-13842436D01*
X12383158Y-13842436D02*
X12373634Y-13851960D01*
X12373634Y-13851960D02*
X12354586Y-13861484D01*
X12354586Y-13861484D02*
X12335539Y-13861484D01*
X12335539Y-13861484D02*
X12316491Y-13851960D01*
X12316491Y-13851960D02*
X12306967Y-13842436D01*
X12306967Y-13842436D02*
X12297443Y-13823388D01*
X12297443Y-13823388D02*
X12287920Y-13785293D01*
X12287920Y-13785293D02*
X12287920Y-13737674D01*
X12287920Y-13737674D02*
X12297443Y-13699579D01*
X12297443Y-13699579D02*
X12306967Y-13680531D01*
X12306967Y-13680531D02*
X12316491Y-13671008D01*
X12316491Y-13671008D02*
X12335539Y-13661484D01*
X12487920Y-13861484D02*
X12487920Y-13728150D01*
X12487920Y-13747198D02*
X12497443Y-13737674D01*
X12497443Y-13737674D02*
X12516491Y-13728150D01*
X12516491Y-13728150D02*
X12545063Y-13728150D01*
X12545063Y-13728150D02*
X12564110Y-13737674D01*
X12564110Y-13737674D02*
X12573634Y-13756722D01*
X12573634Y-13756722D02*
X12573634Y-13861484D01*
X12573634Y-13756722D02*
X12583158Y-13737674D01*
X12583158Y-13737674D02*
X12602205Y-13728150D01*
X12602205Y-13728150D02*
X12630777Y-13728150D01*
X12630777Y-13728150D02*
X12649824Y-13737674D01*
X12649824Y-13737674D02*
X12659348Y-13756722D01*
X12659348Y-13756722D02*
X12659348Y-13861484D01*
X12754586Y-13861484D02*
X12754586Y-13728150D01*
X12754586Y-13747198D02*
X12764110Y-13737674D01*
X12764110Y-13737674D02*
X12783158Y-13728150D01*
X12783158Y-13728150D02*
X12811729Y-13728150D01*
X12811729Y-13728150D02*
X12830777Y-13737674D01*
X12830777Y-13737674D02*
X12840301Y-13756722D01*
X12840301Y-13756722D02*
X12840301Y-13861484D01*
X12840301Y-13756722D02*
X12849824Y-13737674D01*
X12849824Y-13737674D02*
X12868872Y-13728150D01*
X12868872Y-13728150D02*
X12897443Y-13728150D01*
X12897443Y-13728150D02*
X12916491Y-13737674D01*
X12916491Y-13737674D02*
X12926015Y-13756722D01*
X12926015Y-13756722D02*
X12926015Y-13861484D01*
X13316491Y-13651960D02*
X13145063Y-13909103D01*
X13573634Y-13661484D02*
X13592682Y-13661484D01*
X13592682Y-13661484D02*
X13611729Y-13671008D01*
X13611729Y-13671008D02*
X13621253Y-13680531D01*
X13621253Y-13680531D02*
X13630777Y-13699579D01*
X13630777Y-13699579D02*
X13640301Y-13737674D01*
X13640301Y-13737674D02*
X13640301Y-13785293D01*
X13640301Y-13785293D02*
X13630777Y-13823388D01*
X13630777Y-13823388D02*
X13621253Y-13842436D01*
X13621253Y-13842436D02*
X13611729Y-13851960D01*
X13611729Y-13851960D02*
X13592682Y-13861484D01*
X13592682Y-13861484D02*
X13573634Y-13861484D01*
X13573634Y-13861484D02*
X13554586Y-13851960D01*
X13554586Y-13851960D02*
X13545063Y-13842436D01*
X13545063Y-13842436D02*
X13535539Y-13823388D01*
X13535539Y-13823388D02*
X13526015Y-13785293D01*
X13526015Y-13785293D02*
X13526015Y-13737674D01*
X13526015Y-13737674D02*
X13535539Y-13699579D01*
X13535539Y-13699579D02*
X13545063Y-13680531D01*
X13545063Y-13680531D02*
X13554586Y-13671008D01*
X13554586Y-13671008D02*
X13573634Y-13661484D01*
X13726015Y-13842436D02*
X13735539Y-13851960D01*
X13735539Y-13851960D02*
X13726015Y-13861484D01*
X13726015Y-13861484D02*
X13716491Y-13851960D01*
X13716491Y-13851960D02*
X13726015Y-13842436D01*
X13726015Y-13842436D02*
X13726015Y-13861484D01*
X13926015Y-13861484D02*
X13811729Y-13861484D01*
X13868872Y-13861484D02*
X13868872Y-13661484D01*
X13868872Y-13661484D02*
X13849825Y-13690055D01*
X13849825Y-13690055D02*
X13830777Y-13709103D01*
X13830777Y-13709103D02*
X13811729Y-13718627D01*
X14049825Y-13661484D02*
X14068872Y-13661484D01*
X14068872Y-13661484D02*
X14087920Y-13671008D01*
X14087920Y-13671008D02*
X14097444Y-13680531D01*
X14097444Y-13680531D02*
X14106967Y-13699579D01*
X14106967Y-13699579D02*
X14116491Y-13737674D01*
X14116491Y-13737674D02*
X14116491Y-13785293D01*
X14116491Y-13785293D02*
X14106967Y-13823388D01*
X14106967Y-13823388D02*
X14097444Y-13842436D01*
X14097444Y-13842436D02*
X14087920Y-13851960D01*
X14087920Y-13851960D02*
X14068872Y-13861484D01*
X14068872Y-13861484D02*
X14049825Y-13861484D01*
X14049825Y-13861484D02*
X14030777Y-13851960D01*
X14030777Y-13851960D02*
X14021253Y-13842436D01*
X14021253Y-13842436D02*
X14011729Y-13823388D01*
X14011729Y-13823388D02*
X14002206Y-13785293D01*
X14002206Y-13785293D02*
X14002206Y-13737674D01*
X14002206Y-13737674D02*
X14011729Y-13699579D01*
X14011729Y-13699579D02*
X14021253Y-13680531D01*
X14021253Y-13680531D02*
X14030777Y-13671008D01*
X14030777Y-13671008D02*
X14049825Y-13661484D01*
X14287920Y-13661484D02*
X14249825Y-13661484D01*
X14249825Y-13661484D02*
X14230777Y-13671008D01*
X14230777Y-13671008D02*
X14221253Y-13680531D01*
X14221253Y-13680531D02*
X14202206Y-13709103D01*
X14202206Y-13709103D02*
X14192682Y-13747198D01*
X14192682Y-13747198D02*
X14192682Y-13823388D01*
X14192682Y-13823388D02*
X14202206Y-13842436D01*
X14202206Y-13842436D02*
X14211729Y-13851960D01*
X14211729Y-13851960D02*
X14230777Y-13861484D01*
X14230777Y-13861484D02*
X14268872Y-13861484D01*
X14268872Y-13861484D02*
X14287920Y-13851960D01*
X14287920Y-13851960D02*
X14297444Y-13842436D01*
X14297444Y-13842436D02*
X14306967Y-13823388D01*
X14306967Y-13823388D02*
X14306967Y-13775769D01*
X14306967Y-13775769D02*
X14297444Y-13756722D01*
X14297444Y-13756722D02*
X14287920Y-13747198D01*
X14287920Y-13747198D02*
X14268872Y-13737674D01*
X14268872Y-13737674D02*
X14230777Y-13737674D01*
X14230777Y-13737674D02*
X14211729Y-13747198D01*
X14211729Y-13747198D02*
X14202206Y-13756722D01*
X14202206Y-13756722D02*
X14192682Y-13775769D01*
X14373634Y-13661484D02*
X14497444Y-13661484D01*
X14497444Y-13661484D02*
X14430777Y-13737674D01*
X14430777Y-13737674D02*
X14459348Y-13737674D01*
X14459348Y-13737674D02*
X14478396Y-13747198D01*
X14478396Y-13747198D02*
X14487920Y-13756722D01*
X14487920Y-13756722D02*
X14497444Y-13775769D01*
X14497444Y-13775769D02*
X14497444Y-13823388D01*
X14497444Y-13823388D02*
X14487920Y-13842436D01*
X14487920Y-13842436D02*
X14478396Y-13851960D01*
X14478396Y-13851960D02*
X14459348Y-13861484D01*
X14459348Y-13861484D02*
X14402206Y-13861484D01*
X14402206Y-13861484D02*
X14383158Y-13851960D01*
X14383158Y-13851960D02*
X14373634Y-13842436D01*
X14573634Y-13661484D02*
X14573634Y-13699579D01*
X14649825Y-13661484D02*
X14649825Y-13699579D01*
X14945063Y-13937674D02*
X14935539Y-13928150D01*
X14935539Y-13928150D02*
X14916491Y-13899579D01*
X14916491Y-13899579D02*
X14906968Y-13880531D01*
X14906968Y-13880531D02*
X14897444Y-13851960D01*
X14897444Y-13851960D02*
X14887920Y-13804341D01*
X14887920Y-13804341D02*
X14887920Y-13766246D01*
X14887920Y-13766246D02*
X14897444Y-13718627D01*
X14897444Y-13718627D02*
X14906968Y-13690055D01*
X14906968Y-13690055D02*
X14916491Y-13671008D01*
X14916491Y-13671008D02*
X14935539Y-13642436D01*
X14935539Y-13642436D02*
X14945063Y-13632912D01*
X15106968Y-13728150D02*
X15106968Y-13861484D01*
X15059348Y-13651960D02*
X15011729Y-13794817D01*
X15011729Y-13794817D02*
X15135539Y-13794817D01*
X15364110Y-13861484D02*
X15364110Y-13661484D01*
X15449825Y-13861484D02*
X15449825Y-13756722D01*
X15449825Y-13756722D02*
X15440301Y-13737674D01*
X15440301Y-13737674D02*
X15421253Y-13728150D01*
X15421253Y-13728150D02*
X15392682Y-13728150D01*
X15392682Y-13728150D02*
X15373634Y-13737674D01*
X15373634Y-13737674D02*
X15364110Y-13747198D01*
X15573634Y-13861484D02*
X15554587Y-13851960D01*
X15554587Y-13851960D02*
X15545063Y-13842436D01*
X15545063Y-13842436D02*
X15535539Y-13823388D01*
X15535539Y-13823388D02*
X15535539Y-13766246D01*
X15535539Y-13766246D02*
X15545063Y-13747198D01*
X15545063Y-13747198D02*
X15554587Y-13737674D01*
X15554587Y-13737674D02*
X15573634Y-13728150D01*
X15573634Y-13728150D02*
X15602206Y-13728150D01*
X15602206Y-13728150D02*
X15621253Y-13737674D01*
X15621253Y-13737674D02*
X15630777Y-13747198D01*
X15630777Y-13747198D02*
X15640301Y-13766246D01*
X15640301Y-13766246D02*
X15640301Y-13823388D01*
X15640301Y-13823388D02*
X15630777Y-13842436D01*
X15630777Y-13842436D02*
X15621253Y-13851960D01*
X15621253Y-13851960D02*
X15602206Y-13861484D01*
X15602206Y-13861484D02*
X15573634Y-13861484D01*
X15754587Y-13861484D02*
X15735539Y-13851960D01*
X15735539Y-13851960D02*
X15726015Y-13832912D01*
X15726015Y-13832912D02*
X15726015Y-13661484D01*
X15906968Y-13851960D02*
X15887920Y-13861484D01*
X15887920Y-13861484D02*
X15849825Y-13861484D01*
X15849825Y-13861484D02*
X15830777Y-13851960D01*
X15830777Y-13851960D02*
X15821253Y-13832912D01*
X15821253Y-13832912D02*
X15821253Y-13756722D01*
X15821253Y-13756722D02*
X15830777Y-13737674D01*
X15830777Y-13737674D02*
X15849825Y-13728150D01*
X15849825Y-13728150D02*
X15887920Y-13728150D01*
X15887920Y-13728150D02*
X15906968Y-13737674D01*
X15906968Y-13737674D02*
X15916491Y-13756722D01*
X15916491Y-13756722D02*
X15916491Y-13775769D01*
X15916491Y-13775769D02*
X15821253Y-13794817D01*
X15992682Y-13851960D02*
X16011730Y-13861484D01*
X16011730Y-13861484D02*
X16049825Y-13861484D01*
X16049825Y-13861484D02*
X16068872Y-13851960D01*
X16068872Y-13851960D02*
X16078396Y-13832912D01*
X16078396Y-13832912D02*
X16078396Y-13823388D01*
X16078396Y-13823388D02*
X16068872Y-13804341D01*
X16068872Y-13804341D02*
X16049825Y-13794817D01*
X16049825Y-13794817D02*
X16021253Y-13794817D01*
X16021253Y-13794817D02*
X16002206Y-13785293D01*
X16002206Y-13785293D02*
X15992682Y-13766246D01*
X15992682Y-13766246D02*
X15992682Y-13756722D01*
X15992682Y-13756722D02*
X16002206Y-13737674D01*
X16002206Y-13737674D02*
X16021253Y-13728150D01*
X16021253Y-13728150D02*
X16049825Y-13728150D01*
X16049825Y-13728150D02*
X16068872Y-13737674D01*
X16145063Y-13937674D02*
X16154587Y-13928150D01*
X16154587Y-13928150D02*
X16173634Y-13899579D01*
X16173634Y-13899579D02*
X16183158Y-13880531D01*
X16183158Y-13880531D02*
X16192682Y-13851960D01*
X16192682Y-13851960D02*
X16202206Y-13804341D01*
X16202206Y-13804341D02*
X16202206Y-13766246D01*
X16202206Y-13766246D02*
X16192682Y-13718627D01*
X16192682Y-13718627D02*
X16183158Y-13690055D01*
X16183158Y-13690055D02*
X16173634Y-13671008D01*
X16173634Y-13671008D02*
X16154587Y-13642436D01*
X16154587Y-13642436D02*
X16145063Y-13632912D01*
X16506968Y-13937674D02*
X16497444Y-13928150D01*
X16497444Y-13928150D02*
X16478396Y-13899579D01*
X16478396Y-13899579D02*
X16468872Y-13880531D01*
X16468872Y-13880531D02*
X16459349Y-13851960D01*
X16459349Y-13851960D02*
X16449825Y-13804341D01*
X16449825Y-13804341D02*
X16449825Y-13766246D01*
X16449825Y-13766246D02*
X16459349Y-13718627D01*
X16459349Y-13718627D02*
X16468872Y-13690055D01*
X16468872Y-13690055D02*
X16478396Y-13671008D01*
X16478396Y-13671008D02*
X16497444Y-13642436D01*
X16497444Y-13642436D02*
X16506968Y-13632912D01*
X16583158Y-13728150D02*
X16583158Y-13861484D01*
X16583158Y-13747198D02*
X16592682Y-13737674D01*
X16592682Y-13737674D02*
X16611730Y-13728150D01*
X16611730Y-13728150D02*
X16640301Y-13728150D01*
X16640301Y-13728150D02*
X16659349Y-13737674D01*
X16659349Y-13737674D02*
X16668872Y-13756722D01*
X16668872Y-13756722D02*
X16668872Y-13861484D01*
X16792682Y-13861484D02*
X16773634Y-13851960D01*
X16773634Y-13851960D02*
X16764111Y-13842436D01*
X16764111Y-13842436D02*
X16754587Y-13823388D01*
X16754587Y-13823388D02*
X16754587Y-13766246D01*
X16754587Y-13766246D02*
X16764111Y-13747198D01*
X16764111Y-13747198D02*
X16773634Y-13737674D01*
X16773634Y-13737674D02*
X16792682Y-13728150D01*
X16792682Y-13728150D02*
X16821254Y-13728150D01*
X16821254Y-13728150D02*
X16840301Y-13737674D01*
X16840301Y-13737674D02*
X16849825Y-13747198D01*
X16849825Y-13747198D02*
X16859349Y-13766246D01*
X16859349Y-13766246D02*
X16859349Y-13823388D01*
X16859349Y-13823388D02*
X16849825Y-13842436D01*
X16849825Y-13842436D02*
X16840301Y-13851960D01*
X16840301Y-13851960D02*
X16821254Y-13861484D01*
X16821254Y-13861484D02*
X16792682Y-13861484D01*
X16916492Y-13728150D02*
X16992682Y-13728150D01*
X16945063Y-13661484D02*
X16945063Y-13832912D01*
X16945063Y-13832912D02*
X16954587Y-13851960D01*
X16954587Y-13851960D02*
X16973634Y-13861484D01*
X16973634Y-13861484D02*
X16992682Y-13861484D01*
X17211730Y-13728150D02*
X17211730Y-13928150D01*
X17211730Y-13737674D02*
X17230777Y-13728150D01*
X17230777Y-13728150D02*
X17268873Y-13728150D01*
X17268873Y-13728150D02*
X17287920Y-13737674D01*
X17287920Y-13737674D02*
X17297444Y-13747198D01*
X17297444Y-13747198D02*
X17306968Y-13766246D01*
X17306968Y-13766246D02*
X17306968Y-13823388D01*
X17306968Y-13823388D02*
X17297444Y-13842436D01*
X17297444Y-13842436D02*
X17287920Y-13851960D01*
X17287920Y-13851960D02*
X17268873Y-13861484D01*
X17268873Y-13861484D02*
X17230777Y-13861484D01*
X17230777Y-13861484D02*
X17211730Y-13851960D01*
X17421254Y-13861484D02*
X17402206Y-13851960D01*
X17402206Y-13851960D02*
X17392682Y-13832912D01*
X17392682Y-13832912D02*
X17392682Y-13661484D01*
X17583158Y-13861484D02*
X17583158Y-13756722D01*
X17583158Y-13756722D02*
X17573635Y-13737674D01*
X17573635Y-13737674D02*
X17554587Y-13728150D01*
X17554587Y-13728150D02*
X17516492Y-13728150D01*
X17516492Y-13728150D02*
X17497444Y-13737674D01*
X17583158Y-13851960D02*
X17564111Y-13861484D01*
X17564111Y-13861484D02*
X17516492Y-13861484D01*
X17516492Y-13861484D02*
X17497444Y-13851960D01*
X17497444Y-13851960D02*
X17487920Y-13832912D01*
X17487920Y-13832912D02*
X17487920Y-13813865D01*
X17487920Y-13813865D02*
X17497444Y-13794817D01*
X17497444Y-13794817D02*
X17516492Y-13785293D01*
X17516492Y-13785293D02*
X17564111Y-13785293D01*
X17564111Y-13785293D02*
X17583158Y-13775769D01*
X17649825Y-13728150D02*
X17726015Y-13728150D01*
X17678396Y-13661484D02*
X17678396Y-13832912D01*
X17678396Y-13832912D02*
X17687920Y-13851960D01*
X17687920Y-13851960D02*
X17706968Y-13861484D01*
X17706968Y-13861484D02*
X17726015Y-13861484D01*
X17868873Y-13851960D02*
X17849825Y-13861484D01*
X17849825Y-13861484D02*
X17811730Y-13861484D01*
X17811730Y-13861484D02*
X17792682Y-13851960D01*
X17792682Y-13851960D02*
X17783158Y-13832912D01*
X17783158Y-13832912D02*
X17783158Y-13756722D01*
X17783158Y-13756722D02*
X17792682Y-13737674D01*
X17792682Y-13737674D02*
X17811730Y-13728150D01*
X17811730Y-13728150D02*
X17849825Y-13728150D01*
X17849825Y-13728150D02*
X17868873Y-13737674D01*
X17868873Y-13737674D02*
X17878396Y-13756722D01*
X17878396Y-13756722D02*
X17878396Y-13775769D01*
X17878396Y-13775769D02*
X17783158Y-13794817D01*
X18049825Y-13861484D02*
X18049825Y-13661484D01*
X18049825Y-13851960D02*
X18030777Y-13861484D01*
X18030777Y-13861484D02*
X17992682Y-13861484D01*
X17992682Y-13861484D02*
X17973635Y-13851960D01*
X17973635Y-13851960D02*
X17964111Y-13842436D01*
X17964111Y-13842436D02*
X17954587Y-13823388D01*
X17954587Y-13823388D02*
X17954587Y-13766246D01*
X17954587Y-13766246D02*
X17964111Y-13747198D01*
X17964111Y-13747198D02*
X17973635Y-13737674D01*
X17973635Y-13737674D02*
X17992682Y-13728150D01*
X17992682Y-13728150D02*
X18030777Y-13728150D01*
X18030777Y-13728150D02*
X18049825Y-13737674D01*
X18126016Y-13937674D02*
X18135539Y-13928150D01*
X18135539Y-13928150D02*
X18154587Y-13899579D01*
X18154587Y-13899579D02*
X18164111Y-13880531D01*
X18164111Y-13880531D02*
X18173635Y-13851960D01*
X18173635Y-13851960D02*
X18183158Y-13804341D01*
X18183158Y-13804341D02*
X18183158Y-13766246D01*
X18183158Y-13766246D02*
X18173635Y-13718627D01*
X18173635Y-13718627D02*
X18164111Y-13690055D01*
X18164111Y-13690055D02*
X18154587Y-13671008D01*
X18154587Y-13671008D02*
X18135539Y-13642436D01*
X18135539Y-13642436D02*
X18126016Y-13632912D01*
M02*
